<svg xmlns="http://www.w3.org/2000/svg" width="69.177" height="69.177" viewBox="0 0 69.177 69.177"><defs><style>.a{fill:#fdbf5e;}.b{fill:#e1e6e9;}.c{fill:#193651;}.d{fill:#fff;}.e{fill:#4fbf9f;}.f{fill:#2ea2db;}.g{fill:#f16051;}</style></defs><circle class="a" cx="34.588" cy="34.588" r="34.588" transform="translate(0 0)"/><path class="b" d="M54.581,96.194H34.909v35.237H59.445V100.95A4.753,4.753,0,0,0,54.581,96.194Z" transform="translate(-30.045 -82.791)"/><path class="c" d="M53.85,125.835h-26.7v-37.4H48.013a5.813,5.813,0,0,1,5.837,5.837v31.562Zm-24.536-2.162H51.688v-29.4A3.645,3.645,0,0,0,48.013,90.6h-18.7Z" transform="translate(-23.369 -76.114)"/><path class="d" d="M62.061,150.908V123.345H77.95a.969.969,0,0,1,.973.973v26.59H62.061Z" transform="translate(-53.414 -106.159)"/><path class="b" d="M215.762,96.194h19.78v35.237H211.006V100.95A4.728,4.728,0,0,1,215.762,96.194Z" transform="translate(-181.606 -82.791)"/><path class="c" d="M229.946,125.835h-26.7V94.273a5.813,5.813,0,0,1,5.837-5.837h20.861v37.4Zm-24.536-2.162h22.374V90.6h-18.7a3.645,3.645,0,0,0-3.675,3.675v29.4Z" transform="translate(-174.929 -76.114)"/><g transform="translate(13.992 4.856)"><path class="d" d="M238.158,150.908v-26.59a.969.969,0,0,1,.973-.973H255.02v27.563H238.158Z" transform="translate(-218.967 -111.015)"/><rect class="d" width="6.269" height="5.513"/></g><path class="c" d="M100.44,34.826H94.171a1.021,1.021,0,0,1-1.081-1.081V28.233a1.108,1.108,0,0,1,1.081-1.081h6.269a1.021,1.021,0,0,1,1.081,1.081v5.513A1.162,1.162,0,0,1,100.44,34.826Zm-5.3-2.162h4.107V29.314H95.144Z" transform="translate(-80.119 -23.369)"/><path class="a" d="M98.508,411.927h-9.3l4.648,6.918Z" transform="translate(-76.782 -354.532)"/><path class="c" d="M87.412,413.916h0a1.335,1.335,0,0,1-.865-.432L81.9,406.566a1.279,1.279,0,0,1-.108-1.081,1.135,1.135,0,0,1,.973-.54h9.3a1.135,1.135,0,0,1,.973.54.831.831,0,0,1-.108,1.081l-4.648,6.918C88.169,413.808,87.844,413.916,87.412,413.916ZM84.818,407l2.594,3.891L90.006,407Z" transform="translate(-70.334 -348.523)"/><rect class="d" width="9.296" height="47.127" transform="translate(12.43 10.377)"/><path class="c" d="M91.831,115.9h-9.3a1.021,1.021,0,0,1-1.081-1.081V67.8a1.021,1.021,0,0,1,1.081-1.081h9.3A1.021,1.021,0,0,1,92.912,67.8v47.127A1,1,0,0,1,91.831,115.9Zm-8.215-2.162H90.75V68.877H83.616Z" transform="translate(-70.105 -57.419)"/><rect class="e" width="3.459" height="41.29" transform="translate(15.349 13.187)"/><path class="f" d="M312.685,414.838H292.364a3.83,3.83,0,0,1-3.783-3.783h0a3.83,3.83,0,0,1,3.783-3.783h20.429v7.566h-.108Z" transform="translate(-248.372 -350.525)"/><path class="c" d="M285.688,399.515a4.864,4.864,0,0,0,0,9.728H307.2v-9.728Zm19.24,7.566h-19.24a2.7,2.7,0,1,1,0-5.4h19.348v5.4Z" transform="translate(-241.696 -343.849)"/><rect class="d" width="19.456" height="24.536" transform="translate(44.857 32.319)"/><path class="c" d="M335.8,250.784H314.182v-26.59H335.8v26.59Zm-19.456-2.162h17.294V226.356H316.344Z" transform="translate(-270.406 -192.956)"/><path class="g" d="M292.364,231.952a3.83,3.83,0,0,0-3.783,3.783v24.428a3.83,3.83,0,0,1,3.783-3.783h.973V231.952Z" transform="translate(-248.372 -199.633)"/><path class="c" d="M282.986,253.486h-2.162V229.058a4.844,4.844,0,0,1,4.864-4.864h2.054v26.7h-2.054A2.525,2.525,0,0,0,282.986,253.486Zm2.486-27.13a2.8,2.8,0,0,0-2.594,2.7v20.429a5.3,5.3,0,0,1,2.594-.865Z" transform="translate(-241.696 -192.956)"/><rect class="a" width="11.133" height="6.702" transform="translate(49.072 36.534)"/><g transform="translate(36.102 20.213)"><rect class="c" width="6.702" height="2.162" transform="translate(15.241 18.591)"/><rect class="c" width="11.133" height="2.162"/><rect class="c" width="1.946" height="2.162" transform="translate(4.54 4.324)"/><rect class="c" width="1.946" height="2.162" transform="translate(9.188 4.324)"/><rect class="c" width="1.946" height="2.162" transform="translate(0 4.324)"/></g></svg>