<svg xmlns="http://www.w3.org/2000/svg" width="61.522" height="61.521" viewBox="0 0 61.522 61.521"><defs><style>.a{fill:#fdbf5e;}.b{fill:#e1e6e9;}.c{fill:#193651;}.d{fill:#fff;}.e{fill:#f16051;}.f{fill:#2ea2db;}.g{fill:#cfd0d1;}</style></defs><circle class="a" cx="17.207" cy="17.207" r="17.207" transform="translate(27.108 27.108)"/><path class="b" d="M302.775,362.844l-9.036-12.977L284.7,362.844h0a21.945,21.945,0,0,1,18.072,0Z" transform="translate(-249.424 -306.514)"/><path class="c" d="M276.87,356.795a1.008,1.008,0,0,1-.1-1.154l9.036-12.977a1,1,0,0,1,1.538,0l8.94,12.881a.872.872,0,0,1,.288.673.908.908,0,0,1-.961.961h0a.578.578,0,0,1-.384-.1,21.665,21.665,0,0,0-17.3,0A.818.818,0,0,1,276.87,356.795Zm9.8-11.92-6.537,9.324a22.928,22.928,0,0,1,12.977,0Z" transform="translate(-242.36 -299.888)"/><path class="d" d="M15.352,290.457H59.859a7.536,7.536,0,0,0,7.594-7.21v-.1H7.758v.1A7.473,7.473,0,0,0,15.352,290.457Z" transform="translate(-6.797 -248.065)"/><path class="c" d="M52.966,284.621H8.555A8.376,8.376,0,0,1,0,276.45v-.1a.908.908,0,0,1,.961-.961h59.6a.908.908,0,0,1,.961.961v.1A8.376,8.376,0,0,1,52.966,284.621ZM2.019,277.316A6.54,6.54,0,0,0,8.555,282.7H53.062a6.63,6.63,0,0,0,6.537-5.383Z" transform="translate(0 -241.268)"/><rect class="e" width="53.927" height="34.125" transform="translate(3.845 0.961)"/><path class="c" d="M78.065,36.048H24.233a.908.908,0,0,1-.961-.961V.961A.908.908,0,0,1,24.233,0H78.065a.908.908,0,0,1,.961.961V35.087A.963.963,0,0,1,78.065,36.048Zm-52.87-1.923H77.1V1.923H25.195Z" transform="translate(-20.388)"/><g transform="translate(7.627 4.839)"><rect class="d" width="46.237" height="26.435"/><path class="d" d="M286.262,265.325h0a10.092,10.092,0,0,1-10.093-10.093h0a10.092,10.092,0,0,1,10.093-10.093h0a10.092,10.092,0,0,1,10.093,10.093h0A10.154,10.154,0,0,1,286.262,265.325Z" transform="translate(-249.575 -219.601)"/></g><path class="c" d="M279.467,259.491a11.055,11.055,0,1,1,11.055-11.055A11.181,11.181,0,0,1,279.467,259.491Zm0-20.187a9.132,9.132,0,1,0,9.132,9.132A9.19,9.19,0,0,0,279.467,239.3Z" transform="translate(-235.152 -207.967)"/><circle class="f" cx="6.729" cy="6.729" r="6.729" transform="translate(37.586 33.741)"/><circle class="d" cx="1.346" cy="1.346" r="1.346" transform="translate(44.315 36.24)"/><path class="b" d="M170.818,164.935l-2.4,2.115-2.4-2.019v-1.346h4.806Z" transform="translate(-145.441 -143.402)"/><circle class="c" cx="5.96" cy="5.96" r="5.96" transform="translate(17.015 8.459)"/><path class="a" d="M147.394,108.463v-2.692s4.614,1.442,6.825-2.6a3.313,3.313,0,0,0,2.6,2.211v3.076s-1.057,3.749-4.71,3.749A5.054,5.054,0,0,1,147.394,108.463Z" transform="translate(-129.13 -90.391)"/><path class="b" d="M125.5,192.993v-2.884a4.635,4.635,0,0,0-2.788-4.326,15.181,15.181,0,0,0-3.749-1.154l-3.461.769-3.365-.769a14.229,14.229,0,0,0-3.845,1.154,4.734,4.734,0,0,0-2.788,4.326v2.884Z" transform="translate(-92.43 -161.752)"/><g transform="translate(19.61 21.533)"><path class="g" d="M159.216,174.545l-.961,1.25,1.634,3.461,1.73-2.692Z" transform="translate(-158.255 -174.449)"/><path class="g" d="M187.809,173.77l1.057,1.346-1.634,3.461-1.826-2.692Z" transform="translate(-182.042 -173.77)"/></g><path class="f" d="M172.218,198.43h3.461l-1.346-5,.673-.865-1.154-1.73-1.154,1.73.673.865Z" transform="translate(-150.878 -167.189)"/><g transform="translate(38.835 8.555)"><rect class="c" width="1.923" height="1.923"/><rect class="c" width="1.923" height="1.923" transform="translate(5.191)"/><rect class="c" width="1.923" height="1.923" transform="translate(10.382)"/></g><g transform="translate(38.835 14.323)"><rect class="c" width="1.923" height="1.923"/><rect class="c" width="1.923" height="1.923" transform="translate(5.191)"/><rect class="c" width="1.923" height="1.923" transform="translate(10.382)"/></g></svg>