<svg xmlns="http://www.w3.org/2000/svg" width="26.169" height="22.762" viewBox="0 0 26.169 22.762"><defs><style>.a{fill:#ffd200;}.b{fill:#ffe777;}</style></defs><g transform="translate(-9.2 -9.954)"><path class="a" d="M181.893,141.611A5.611,5.611,0,1,1,176.283,136,5.611,5.611,0,0,1,181.893,141.611Zm0,0" transform="translate(-157.039 -126.046)"/><path class="a" d="M142.869,264h-9.54a5.337,5.337,0,0,0-5.33,5.331v3.927a.842.842,0,0,0,.842.842h18.517a.842.842,0,0,0,.842-.842v-3.927A5.338,5.338,0,0,0,142.869,264Zm0,0" transform="translate(-118.8 -241.385)"/><path class="b" d="M288.284,193.2l-3.927-3.648a.842.842,0,0,0-1.414.616v2.525h-4.491a1.123,1.123,0,1,0,0,2.246h4.49v2.525a.842.842,0,0,0,1.414.618l3.927-3.648a.839.839,0,0,0,.269-.616A.85.85,0,0,0,288.284,193.2Zm0,0" transform="translate(-253.182 -174.055)"/></g></svg>