<svg xmlns="http://www.w3.org/2000/svg" width="60.136" height="60.136" viewBox="0 0 60.136 60.136"><defs><style>.a{fill:#e1e6e9;}.b{fill:#193651;}.c{fill:#2ea2db;}.d{fill:#fff;}.e{fill:#f16051;}</style></defs><path class="a" d="M7.758,415.03v3.289a5.654,5.654,0,0,0,5.638,5.638H60.377a5.654,5.654,0,0,0,5.638-5.638V415.03Z" transform="translate(-6.818 -364.76)"/><path class="b" d="M53.559,418.078H6.577A6.537,6.537,0,0,1,0,411.5v-3.289a.888.888,0,0,1,.94-.94H59.2a.888.888,0,0,1,.94.94V411.5A6.537,6.537,0,0,1,53.559,418.078ZM1.879,409.151V411.5a4.653,4.653,0,0,0,4.7,4.7H53.559a4.653,4.653,0,0,0,4.7-4.7v-2.349Z" transform="translate(0 -357.942)"/><path class="c" d="M76.716,129.552h-48.3a2.769,2.769,0,0,0-2.819,2.819V164.13H79.441V132.371A2.747,2.747,0,0,0,76.716,129.552Z" transform="translate(-22.499 -113.86)"/><path class="b" d="M69.9,121.794H21.6a3.77,3.77,0,0,0-3.758,3.758v31.759a.888.888,0,0,0,.94.94H72.623a.888.888,0,0,0,.94-.94V125.552A3.632,3.632,0,0,0,69.9,121.794Zm1.879,34.578H19.722v-30.82a1.885,1.885,0,0,1,1.879-1.879H69.8a1.885,1.885,0,0,1,1.879,1.879v30.82h.094Z" transform="translate(-15.682 -107.042)"/><rect class="d" width="46.323" height="27.061" transform="translate(6.897 19.49)"/><path class="a" d="M140.4,7.758H122.074a3.369,3.369,0,0,0-3.383,3.383V46.565a3.369,3.369,0,0,0,3.383,3.383h26.591a3.369,3.369,0,0,0,3.383-3.383V19.409Z" transform="translate(-104.315 -6.818)"/><path class="b" d="M141.847,44.068H115.255a4.372,4.372,0,0,1-4.322-4.322V4.322A4.372,4.372,0,0,1,115.255,0h18.323a.853.853,0,0,1,.658.282l11.651,11.651a.853.853,0,0,1,.282.658V39.746A4.252,4.252,0,0,1,141.847,44.068ZM115.255,1.879a2.488,2.488,0,0,0-2.443,2.443V39.746a2.488,2.488,0,0,0,2.443,2.443h26.591a2.488,2.488,0,0,0,2.443-2.443V12.967L133.2,1.879H115.255Z" transform="translate(-97.496 0)"/><path class="d" d="M149.721,73.46V38.788h17.665l8.269,8.269v26.4Z" transform="translate(-131.586 -34.09)"/><g transform="translate(20.672 7.235)"><rect class="b" width="11.276" height="1.409"/><rect class="b" width="11.276" height="1.409" transform="translate(0 4.792)"/></g><g transform="translate(20.672 17.759)"><rect class="a" width="20.39" height="1.222"/><rect class="a" width="20.39" height="1.222" transform="translate(0 5.732)"/><rect class="a" width="20.39" height="1.222" transform="translate(0 11.37)"/><rect class="a" width="10.242" height="1.222" transform="translate(0 17.101)"/></g><path class="e" d="M295.564,16.291v7.8a3.168,3.168,0,0,0,3.195,3.195h7.8Z" transform="translate(-259.764 -14.318)"/><g transform="translate(24.054 53.841)"><rect class="b" width="1.879" height="1.879"/><rect class="b" width="1.879" height="1.879" transform="translate(5.074)"/><rect class="b" width="1.879" height="1.879" transform="translate(10.148)"/></g></svg>