<svg xmlns="http://www.w3.org/2000/svg" width="69.236" height="69.236" viewBox="0 0 69.236 69.236"><defs><style>.a{fill:#fdbf5e;}.b{fill:#e1e6e9;}.c{fill:#193651;}.d{fill:#fff;}.e{fill:#4fbf9f;}.f{fill:#f16051;}</style></defs><circle class="a" cx="34.618" cy="34.618" r="34.618" transform="translate(0 0)"/><path class="b" d="M60.113,59.733,30.255,73.147,60.113,86.454,89.971,73.147Z" transform="translate(-26.036 -51.403)"/><path class="c" d="M54.1,81.586a.65.65,0,0,1-.433-.108L23.814,68.171a1.1,1.1,0,0,1-.541-.865.857.857,0,0,1,.541-.865L53.672,53.026a.924.924,0,0,1,.757,0L84.287,66.441a.964.964,0,0,1,.541.865.857.857,0,0,1-.541.865L54.537,81.586ZM26.627,67.306,54.1,79.639,81.582,67.306,54.1,54.973Z" transform="translate(-20.028 -45.562)"/><path class="d" d="M152.514,167.438v-17.2h0a42.926,42.926,0,0,0-35.375,0V167.33h35.375Z" transform="translate(-100.804 -126.005)"/><path class="c" d="M146.506,162.571H111.131a.97.97,0,0,1-.974-.974V144.4a.857.857,0,0,1,.541-.865,43.852,43.852,0,0,1,36.133,0,.964.964,0,0,1,.541.865V161.49a.771.771,0,0,1-.325.649C147.047,162.463,146.83,162.571,146.506,162.571Zm-34.4-1.947h33.428V145.046a41.781,41.781,0,0,0-16.66-3.462,41.019,41.019,0,0,0-16.66,3.462v15.578Z" transform="translate(-94.795 -120.164)"/><path class="b" d="M145.067,187.744v-10.71a39.776,39.776,0,0,1,27.694,0v10.71Z" transform="translate(-124.837 -150.205)"/><path class="c" d="M59.931,176.036a.97.97,0,0,1-.974-.974v-9.628a.974.974,0,0,1,1.947,0v9.628A.97.97,0,0,1,59.931,176.036Z" transform="translate(-50.735 -141.527)"/><path class="e" d="M123.046,384H74.473a5.409,5.409,0,1,1,0,10.818h48.573a5.357,5.357,0,0,0,5.409-5.409A5.5,5.5,0,0,0,123.046,384Z" transform="translate(-64.088 -330.451)"/><path class="c" d="M117.038,377.018H68.465a.974.974,0,1,0,0,1.947,4.435,4.435,0,0,1,0,8.871.974.974,0,0,0,0,1.947h48.573a6.394,6.394,0,0,0,6.383-6.383A6.466,6.466,0,0,0,117.038,377.018Zm0,10.926H73.008a6.548,6.548,0,0,0,0-8.871H116.93a4.436,4.436,0,0,1,.108,8.871Z" transform="translate(-58.079 -324.442)"/><path class="d" d="M139.636,411.6a13.789,13.789,0,0,0,.108-2.164,14.494,14.494,0,0,0-.108-2.164h39.486c.865,0,1.623.974,1.623,2.164s-.757,2.164-1.623,2.164Z" transform="translate(-120.164 -350.478)"/><g transform="translate(41.758 58.093)"><rect class="c" width="1.947" height="1.947"/><rect class="c" width="1.947" height="1.947" transform="translate(5.085)"/><rect class="c" width="1.947" height="1.947" transform="translate(10.277)"/></g><circle class="d" cx="5.409" cy="5.409" r="5.409" transform="translate(4.976 53.658)"/><path class="c" d="M35.086,390.558a6.383,6.383,0,1,1,6.383-6.383A6.465,6.465,0,0,1,35.086,390.558Zm0-10.818a4.435,4.435,0,1,0,4.435,4.435A4.455,4.455,0,0,0,35.086,379.74Z" transform="translate(-24.7 -325.109)"/><path class="f" d="M184.878,339.288h-8.005V328.145l4,2.488,4-2.488Z" transform="translate(-152.208 -282.385)"/><g transform="translate(27.911 29.966)"><rect class="c" width="1.947" height="1.947"/><rect class="c" width="1.947" height="1.947" transform="translate(5.193)"/><rect class="c" width="1.947" height="1.947" transform="translate(10.385)"/></g><path class="d" d="M399.515,282.03a5.079,5.079,0,0,1,5.085,5.085,5.079,5.079,0,0,1,5.085-5.085,5.079,5.079,0,0,1-5.085-5.085A5.079,5.079,0,0,1,399.515,282.03Z" transform="translate(-343.802 -238.325)"/><path class="c" d="M398.591,282.079a.97.97,0,0,1-.974-.974,4.109,4.109,0,0,0-4.111-4.111.974.974,0,1,1,0-1.947,4.109,4.109,0,0,0,4.111-4.111.974.974,0,1,1,1.947,0,4.109,4.109,0,0,0,4.111,4.111.974.974,0,1,1,0,1.947,4.109,4.109,0,0,0-4.111,4.111A.97.97,0,0,1,398.591,282.079Zm-1.839-6.058a6.585,6.585,0,0,1,1.731,1.731,6.585,6.585,0,0,1,1.731-1.731,6.585,6.585,0,0,1-1.731-1.731A5.292,5.292,0,0,1,396.752,276.021Z" transform="translate(-337.794 -232.316)"/><path class="d" d="M399.515,18.272a5.079,5.079,0,0,1,5.085,5.085,5.079,5.079,0,0,1,5.085-5.085,5.079,5.079,0,0,1-5.085-5.085A5.079,5.079,0,0,1,399.515,18.272Z" transform="translate(-343.802 -11.348)"/><path class="c" d="M398.591,18.321a.97.97,0,0,1-.974-.974,4.109,4.109,0,0,0-4.111-4.111.974.974,0,1,1,0-1.947,4.109,4.109,0,0,0,4.111-4.111.974.974,0,1,1,1.947,0,4.109,4.109,0,0,0,4.111,4.111.974.974,0,1,1,0,1.947,4.109,4.109,0,0,0-4.111,4.111A.97.97,0,0,1,398.591,18.321Zm-1.839-6.058a6.585,6.585,0,0,1,1.731,1.731,6.585,6.585,0,0,1,1.731-1.731,6.585,6.585,0,0,1-1.731-1.731A5.291,5.291,0,0,1,396.752,12.263Z" transform="translate(-337.794 -5.34)"/><path class="d" d="M22.5,18.272a5.079,5.079,0,0,1,5.085,5.085,5.079,5.079,0,0,1,5.085-5.085,5.079,5.079,0,0,1-5.085-5.085A5.079,5.079,0,0,1,22.5,18.272Z" transform="translate(-19.36 -11.348)"/><path class="c" d="M21.573,18.321a.97.97,0,0,1-.974-.974,4.109,4.109,0,0,0-4.111-4.111.974.974,0,1,1,0-1.947A4.109,4.109,0,0,0,20.6,7.179a.974.974,0,1,1,1.947,0,4.109,4.109,0,0,0,4.111,4.111.974.974,0,1,1,0,1.947,4.109,4.109,0,0,0-4.111,4.111A.97.97,0,0,1,21.573,18.321Zm-1.731-6.058a6.585,6.585,0,0,1,1.731,1.731A6.585,6.585,0,0,1,23.3,12.263a8.743,8.743,0,0,1-1.731-1.731A5.288,5.288,0,0,1,19.842,12.263Z" transform="translate(-13.351 -5.34)"/></svg>