<svg xmlns="http://www.w3.org/2000/svg" width="55.516" height="62.997" viewBox="0 0 55.516 62.997"><defs><style>.a{fill:#f16051;}.b{fill:#fff;}.c{fill:#193651;}.d{fill:#4fbf9f;}.e{fill:#e1e6e9;}</style></defs><g transform="translate(-29.478)"><circle class="a" cx="23.329" cy="23.329" r="23.329" transform="translate(29.478 0)"/><rect class="b" width="49.216" height="33.073" transform="translate(34.99 29.136)"/><path class="c" d="M116.719,258.066H67.5a.847.847,0,0,1-.787-.787V224.205a.847.847,0,0,1,.787-.787h49.216a.847.847,0,0,1,.787.787v33.073A.847.847,0,0,1,116.719,258.066ZM68.29,256.491h47.641v-31.5H68.29Z" transform="translate(-32.512 -195.069)"/><path class="d" d="M123.6,212.558H106.279V241.5H123.6a2.954,2.954,0,0,1,3.051,2.756V215.314A2.888,2.888,0,0,0,123.6,212.558Z" transform="translate(-67.056 -185.587)"/><path class="c" d="M121.236,239.622a.847.847,0,0,1-.787-.787,2.116,2.116,0,0,0-2.264-1.969H100.86a.847.847,0,0,1-.787-.787V207.139a.847.847,0,0,1,.787-.787h17.324a3.726,3.726,0,0,1,3.839,3.544v28.939A.847.847,0,0,1,121.236,239.622Zm-19.588-4.331h16.537a4.681,4.681,0,0,1,2.264.689V209.9a2.116,2.116,0,0,0-2.264-1.969H101.648Z" transform="translate(-61.637 -180.169)"/><rect class="b" width="13.584" height="22.147" transform="translate(42.57 30.317)"/><path class="d" d="M287.236,212.558H269.912a2.953,2.953,0,0,0-3.051,2.756v28.939a2.954,2.954,0,0,1,3.051-2.756h17.324Z" transform="translate(-207.262 -185.587)"/><path class="c" d="M261.442,239.622a.847.847,0,0,1-.787-.787V209.9a3.664,3.664,0,0,1,3.839-3.544h17.324a.847.847,0,0,1,.787.787v28.939a.847.847,0,0,1-.787.787H264.494a2.116,2.116,0,0,0-2.264,1.969A.847.847,0,0,1,261.442,239.622Zm3.051-31.7a2.116,2.116,0,0,0-2.264,1.969V235.98a4.111,4.111,0,0,1,2.264-.689H281.03V207.927Z" transform="translate(-201.844 -180.169)"/><rect class="b" width="13.584" height="22.147" transform="translate(62.945 30.317)"/><g transform="translate(44.538 38.192)"><rect class="c" width="4.823" height="1.575" transform="translate(25.199)"/><rect class="c" width="9.745" height="1.575" transform="translate(20.376 4.823)"/><rect class="c" width="2.067" height="1.575" transform="translate(20.376 9.646)"/><rect class="c" width="2.067" height="1.575" transform="translate(24.214 9.646)"/><rect class="c" width="2.067" height="1.575" transform="translate(28.053 9.646)"/><rect class="c" width="9.745" height="1.575" transform="translate(0)"/><rect class="c" width="9.745" height="1.575" transform="translate(0 4.823)"/><rect class="c" width="2.067" height="1.575" transform="translate(0 9.646)"/><rect class="c" width="2.067" height="1.575" transform="translate(3.839 9.646)"/></g><path class="e" d="M72.921,102.4v19.687H94.773l9.154,7.087v-7.087h4.725V102.4Z" transform="translate(-37.931 -89.407)"/><path class="c" d="M97.339,124.444l-8.957-6.89H66.726a.847.847,0,0,1-.787-.787V96.981a.847.847,0,0,1,.787-.787h35.731a.847.847,0,0,1,.787.787v19.785a.847.847,0,0,1-.787.787H98.52v6.3a.74.74,0,0,1-.492.689C97.93,124.641,97.634,124.641,97.339,124.444ZM67.612,115.88H88.775a.752.752,0,0,1,.492.2l7.875,6.1v-5.512a.847.847,0,0,1,.787-.787h3.937V97.769H67.612Z" transform="translate(-31.835 -83.988)"/><path class="b" d="M117.53,140.611H97.745V127.224h29.431v13.387h-4.725v3.74Z" transform="translate(-59.605 -111.081)"/><g transform="translate(39.715 18.702)"><path class="c" d="M111.83,154.557l-.591,1.673h-1.083l2.658-7.284H113.9l2.658,7.284h-1.083l-.591-1.673Zm2.658-1.181-1.083-2.953-1.083,2.953Z" transform="translate(-110.157 -148.749)"/><path class="c" d="M172.549,156.23h-2.658v-7.284h2.362a3.537,3.537,0,0,1,1.083.2,1.765,1.765,0,0,1,.689.492,1.978,1.978,0,0,1,.394,1.28,1.7,1.7,0,0,1-.492,1.28l-.2.2a.344.344,0,0,1-.2.1,1.433,1.433,0,0,1,.886.591,2.1,2.1,0,0,1,.3,1.181,2.26,2.26,0,0,1-.394,1.378A2.916,2.916,0,0,1,172.549,156.23ZM170.974,152h1.28c.689,0,1.083-.3,1.083-.886a.969.969,0,0,0-.3-.787,1.06,1.06,0,0,0-.787-.2h-1.28Zm0,3.051h1.575a1.966,1.966,0,0,0,.886-.2c.2-.1.3-.394.3-.787,0-.689-.394-.984-1.28-.984h-1.476Z" transform="translate(-162.312 -148.749)"/><path class="c" d="M221.815,153.695a1.966,1.966,0,0,0,.886-.2,4.3,4.3,0,0,0,.787-.689l.689.787a2.626,2.626,0,0,1-2.264,1.28,2.943,2.943,0,0,1-2.264-1.083,4.429,4.429,0,0,1,0-5.315,2.943,2.943,0,0,1,2.264-1.083,2.909,2.909,0,0,1,2.362,1.28l-.689.886a4.3,4.3,0,0,0-.787-.689,2.874,2.874,0,0,0-.886-.2,1.771,1.771,0,0,0-1.476.689,2.748,2.748,0,0,0-.591,1.772,3.029,3.029,0,0,0,.591,1.87A1.489,1.489,0,0,0,221.815,153.695Z" transform="translate(-204.983 -147.395)"/><path class="c" d="M278.37,149.929a3.609,3.609,0,0,1,.886,2.658,3.769,3.769,0,0,1-.886,2.658,3.073,3.073,0,0,1-2.559.984h-1.969v-7.284h2.067A2.87,2.87,0,0,1,278.37,149.929Zm-.1,2.658c0-1.673-.787-2.461-2.362-2.461h-.984v5.02h1.083a2.316,2.316,0,0,0,1.673-.591A3.326,3.326,0,0,0,278.272,152.587Z" transform="translate(-253.073 -148.748)"/></g></g></svg>