<svg xmlns="http://www.w3.org/2000/svg" xmlns:xlink="http://www.w3.org/1999/xlink" width="456.302" height="494.404" viewBox="0 0 456.302 494.404"><defs><clipPath id="a"><rect width="30.124" height="29.705" fill="none"/></clipPath></defs><g transform="translate(-1677.698 -2569.596)"><g transform="translate(1759 2689)" fill="none" stroke="#fff" stroke-width="3"><circle cx="187.5" cy="187.5" r="187.5" stroke="none"/><circle cx="187.5" cy="187.5" r="186" fill="none"/></g><path d="M1485.056-6759.625s-101.335,69.232-138.259,147.7" transform="matrix(-0.94, -0.342, 0.342, -0.94, 5425.133, -3133.078)" fill="none" stroke="#fff" stroke-linecap="round" stroke-width="3"/><g transform="translate(1684.475 2734.576) rotate(-103)" clip-path="url(#a)"><rect width="29.705" height="29.705" fill="none"/><path d="M460.58-2.93V-5.654l-11.191-6.811v-7.492a2.068,2.068,0,0,0-.625-1.457A2.068,2.068,0,0,0,447.29-22a2.069,2.069,0,0,0-1.473.586,2.068,2.068,0,0,0-.625,1.457v7.492L434-5.654v2.725l11.191-3.406V1.157l-2.8,2.043V5.244l4.9-1.362,4.9,1.362V3.2l-2.8-2.043V-6.335Z" transform="translate(-432.672 23.328)" fill="#fff"/></g></g></svg>