<svg xmlns="http://www.w3.org/2000/svg" width="90.383" height="81.53" viewBox="0 0 90.383 81.53"><defs><style>.a{fill:#f5f7fa;}.b{fill:#2fdf84;}.c{fill:#f3f3f1;}.d{fill:#d5dbe1;}.e{fill:#00b871;}.f{fill:#067d02;}</style></defs><g transform="translate(0 0)"><path class="a" d="M9.881,68.025c0-17.948-9.3-30.274-9.3-38.922S5.556,2.29,45.342,2.29,90.967,26.726,90.967,36.238C90.97,80.784,9.881,99.812,9.881,68.025Z" transform="translate(-0.584 -2.29)"/></g><g transform="translate(68.293 9.389)"><g transform="translate(0 0)"><path class="b" d="M0,0H2.595V5.19H0Z" transform="translate(0 1.835) rotate(-45)"/></g><g transform="translate(10.549 10.551)"><path class="b" d="M0,0H2.595V5.19H0Z" transform="translate(0 1.835) rotate(-45)"/></g><g transform="translate(10.09 0.001)"><path class="b" d="M0,0H5.19V2.595H0Z" transform="translate(0 3.669) rotate(-45)"/></g></g><g transform="translate(16 11.573)"><path class="c" d="M41.85,57.349H11.94a5.2,5.2,0,0,1-5.19-5.19V11.94a5.2,5.2,0,0,1,5.19-5.19H41.78a5.2,5.2,0,0,1,5.19,5.19l.07,40.212A5.193,5.193,0,0,1,41.85,57.349Z" transform="translate(-6.75 -6.75)"/></g><g transform="translate(32.866 19.357)"><circle class="b" cx="3.244" cy="3.244" r="3.244"/></g><g transform="translate(27.676 32.332)"><path class="b" d="M28.116,23.183V19.94a5.188,5.188,0,0,0-5.19-5.19H16.44a5.188,5.188,0,0,0-5.19,5.19v3.244Z" transform="translate(-11.25 -14.75)"/></g><g transform="translate(44.543 40.116)"><circle class="b" cx="14.92" cy="14.92" r="14.92"/></g><g transform="translate(16 11.573)"><path class="d" d="M12.588,52.16V11.94a5.2,5.2,0,0,1,5.19-5.19H11.94a5.2,5.2,0,0,0-5.19,5.19V52.16a5.2,5.2,0,0,0,5.19,5.19h5.838A5.2,5.2,0,0,1,12.588,52.16Z" transform="translate(-6.75 -6.75)"/></g><g transform="translate(32.866 19.357)"><path class="e" d="M19.088,12.994a3.174,3.174,0,0,1,.324-1.365,3.244,3.244,0,1,0,0,2.73A3.174,3.174,0,0,1,19.088,12.994Z" transform="translate(-13.25 -9.75)"/></g><g transform="translate(27.676 32.332)"><path class="e" d="M22.278,14.75H16.44a5.188,5.188,0,0,0-5.19,5.19v3.244h5.838V19.94A5.188,5.188,0,0,1,22.278,14.75Z" transform="translate(-11.25 -14.75)"/></g><g transform="translate(44.543 40.116)"><path class="e" d="M23.588,32.67a14.921,14.921,0,0,1,12-14.63,14.919,14.919,0,1,0-2.919,29.55,14.831,14.831,0,0,0,2.919-.291A14.921,14.921,0,0,1,23.588,32.67Z" transform="translate(-17.75 -17.75)"/></g><g transform="translate(24.433 44.657)"><path class="f" d="M10,19.5H25.569v3.892H10Z" transform="translate(-10 -19.5)"/></g><g transform="translate(24.433 52.442)"><path class="f" d="M10,22.5H22.974v3.892H10Z" transform="translate(-10 -22.5)"/></g><g transform="translate(30.92 17.411)"><path class="f" d="M17.69,19.379a5.19,5.19,0,1,1,5.19-5.19A5.195,5.195,0,0,1,17.69,19.379Zm0-6.487a1.3,1.3,0,1,0,1.3,1.3A1.3,1.3,0,0,0,17.69,12.892Z" transform="translate(-12.5 -9)"/></g><g transform="translate(25.73 30.385)"><path class="f" d="M31.259,24.379H27.366V21.136a3.248,3.248,0,0,0-3.244-3.244H17.636a3.248,3.248,0,0,0-3.244,3.244v3.244H10.5V21.136A7.142,7.142,0,0,1,17.636,14h6.487a7.142,7.142,0,0,1,7.136,7.136Z" transform="translate(-10.5 -14)"/></g><g transform="translate(14.054 9.627)"><path class="f" d="M29.353,60.491H13.136A7.142,7.142,0,0,1,6,53.356V13.136A7.142,7.142,0,0,1,13.136,6H42.976a7.142,7.142,0,0,1,7.136,7.136V29.509H46.22V13.136a3.248,3.248,0,0,0-3.244-3.244H13.136a3.248,3.248,0,0,0-3.244,3.244v40.22A3.248,3.248,0,0,0,13.136,56.6H29.353Z" transform="translate(-6 -6)"/></g><g transform="translate(42.597 38.17)"><path class="f" d="M33.866,50.733A16.866,16.866,0,1,1,50.733,33.866,16.886,16.886,0,0,1,33.866,50.733Zm0-29.841A12.974,12.974,0,1,0,46.841,33.866,12.989,12.989,0,0,0,33.866,20.892Z" transform="translate(-17 -17)"/></g><g transform="translate(50.303 47.916)"><path class="f" d="M26.535,34.363a1.938,1.938,0,0,1-1.375-.571L19.97,28.6l2.753-2.753,3.718,3.718,7.712-8.812,2.93,2.561L28,33.7a1.952,1.952,0,0,1-1.4.664A.543.543,0,0,1,26.535,34.363Z" transform="translate(-19.97 -20.756)"/></g></svg>