<svg xmlns="http://www.w3.org/2000/svg" width="90.518" height="87.632" viewBox="0 0 90.518 87.632"><defs><style>.a{fill:#f5f7fa;}.b{fill:#00d4ed;}.c{fill:#f3f3f1;}.d{fill:#009fb3;}.e{fill:#d5dbe1;}.f{fill:#0a3d82;}</style></defs><g transform="translate(2.616 0)"><path class="a" d="M73.162,9.6C53.811,9.6,40.522.584,31.2.584S2.29,5.4,2.29,43.98s26.345,44.236,36.6,44.236C86.918,88.218,107.433,9.6,73.162,9.6Z" transform="translate(-2.29 -0.584)"/></g><g transform="translate(0 37.212)"><path class="b" d="M1.25,15.375H6.282v2.516H1.25Z" transform="translate(-1.25 -15.375)"/></g><g transform="translate(7.548 43.501)"><path class="b" d="M4.25,17.875H6.766v5.032H4.25Z" transform="translate(-4.25 -17.875)"/></g><g transform="translate(7.548 29.035)"><path class="b" d="M4.25,12.125H6.766v5.032H4.25Z" transform="translate(-4.25 -12.125)"/></g><g transform="translate(15.519 15.513)"><circle class="c" cx="4.403" cy="4.403" r="4.403"/></g><g transform="translate(15.519 63.314)"><circle class="c" cx="4.403" cy="4.403" r="4.403"/></g><g transform="translate(70.492 15.513)"><circle class="c" cx="4.403" cy="4.403" r="4.403"/></g><g transform="translate(70.492 63.314)"><circle class="c" cx="4.403" cy="4.403" r="4.403"/></g><g transform="translate(26.1 23.06)"><circle class="b" cx="20.756" cy="20.756" r="20.756" transform="translate(0 0)"/></g><g transform="translate(24.645 23.06)"><path class="d" d="M15.411,30.506A20.741,20.741,0,0,1,33.336,9.966a20.745,20.745,0,1,0-2.83,41.295,20.585,20.585,0,0,0,2.83-.216A20.741,20.741,0,0,1,15.411,30.506Z" transform="translate(-9.75 -9.75)"/></g><g transform="translate(15.483 15.513)"><path class="e" d="M12.411,11.153a4.372,4.372,0,0,1,1.572-3.346,4.4,4.4,0,1,0,0,6.692A4.372,4.372,0,0,1,12.411,11.153Z" transform="translate(-6.75 -6.75)"/></g><g transform="translate(15.483 63.314)"><path class="e" d="M12.411,30.153a4.372,4.372,0,0,1,1.572-3.346,4.4,4.4,0,1,0,0,6.692A4.372,4.372,0,0,1,12.411,30.153Z" transform="translate(-6.75 -25.75)"/></g><g transform="translate(68.97 15.513)"><path class="e" d="M31.411,11.153a4.372,4.372,0,0,1,1.572-3.346,4.4,4.4,0,1,0,0,6.692A4.372,4.372,0,0,1,31.411,11.153Z" transform="translate(-25.75 -6.75)"/></g><g transform="translate(68.97 63.314)"><path class="e" d="M31.411,30.153a4.372,4.372,0,0,1,1.572-3.346,4.4,4.4,0,1,0,0,6.692A4.372,4.372,0,0,1,31.411,30.153Z" transform="translate(-25.75 -25.75)"/></g><g transform="translate(11.95 13.626)"><path class="f" d="M12.29,18.579a6.29,6.29,0,1,1,6.29-6.29A6.3,6.3,0,0,1,12.29,18.579Zm0-8.805a2.516,2.516,0,1,0,2.516,2.516A2.517,2.517,0,0,0,12.29,9.774Z" transform="translate(-6 -6)"/></g><g transform="translate(11.95 61.427)"><path class="f" d="M12.29,37.579a6.29,6.29,0,1,1,6.29-6.29A6.3,6.3,0,0,1,12.29,37.579Zm0-8.805a2.516,2.516,0,1,0,2.516,2.516A2.517,2.517,0,0,0,12.29,28.774Z" transform="translate(-6 -25)"/></g><g transform="translate(68.605 13.626)"><path class="f" d="M31.29,18.579a6.29,6.29,0,1,1,6.29-6.29A6.3,6.3,0,0,1,31.29,18.579Zm0-8.805a2.516,2.516,0,1,0,2.516,2.516A2.517,2.517,0,0,0,31.29,9.774Z" transform="translate(-25 -6)"/></g><g transform="translate(68.605 61.427)"><path class="f" d="M31.29,37.579a6.29,6.29,0,1,1,6.29-6.29A6.3,6.3,0,0,1,31.29,37.579Zm0-8.805a2.516,2.516,0,1,0,2.516,2.516A2.517,2.517,0,0,0,31.29,28.774Z" transform="translate(-25 -25)"/></g><g transform="translate(24.243 21.173)"><path class="f" d="M31.643,54.285A22.591,22.591,0,1,1,50.28,44.536L47.17,42.4a18.926,18.926,0,1,0-3.034,3.4l2.486,2.84A22.733,22.733,0,0,1,31.643,54.285Z" transform="translate(-9 -9)"/></g><g transform="translate(36.165 21.762)"><path class="f" d="M22.67,53.344a32.433,32.433,0,0,1,0-44.11l2.737,2.6a28.61,28.61,0,0,0,0,38.912Z" transform="translate(-14.017 -9.234)"/></g><g transform="translate(45.908 21.762)"><path class="f" d="M20.193,53.344l-2.737-2.6a28.609,28.609,0,0,0,0-38.912l2.737-2.6a32.433,32.433,0,0,1,0,44.11Z" transform="translate(-17.456 -9.234)"/></g><g transform="translate(26.869 36.268)"><path class="f" d="M10.06,15H50.014v3.774H10.06Z" transform="translate(-10.06 -15)"/></g><g transform="translate(26.869 47.59)"><path class="f" d="M10.06,19.5H50.014v3.774H10.06Z" transform="translate(-10.06 -19.5)"/></g></svg>