<svg xmlns="http://www.w3.org/2000/svg" width="87.268" height="78.72" viewBox="0 0 87.268 78.72"><defs><style>.a{fill:#f5f7fa;}.b{fill:#ffdf4d;}.c{fill:#f3f3f1;}.d{fill:#d5dbe1;}.e{fill:#d8b100;}.f{fill:#6c2c10;}</style></defs><g transform="translate(0 0)"><path class="a" d="M9.561,65.76C9.561,48.43.584,36.529.584,28.178S5.384,2.29,43.8,2.29,87.852,25.883,87.852,35.068C87.855,78.079,9.561,96.451,9.561,65.76Z" transform="translate(-0.584 -2.29)"/></g><g transform="translate(69.941 45.624)"><path class="b" d="M32.258,28.016a3.758,3.758,0,1,1,3.758-3.758A3.763,3.763,0,0,1,32.258,28.016Zm0-5.011a1.253,1.253,0,1,0,1.253,1.253A1.253,1.253,0,0,0,32.258,23.005Z" transform="translate(-28.5 -20.5)"/></g><g transform="translate(37.997 40.583)"><path class="c" d="M24.153,24.443c-1.363,1.363-8.4,3.47-8.4,3.47s2.11-7.043,3.47-8.4a3.488,3.488,0,0,1,4.933,4.933Z" transform="translate(-15.75 -18.488)"/></g><g transform="translate(15.448 58.777)"><path class="c" d="M38.068,34.519H11.761A5.009,5.009,0,0,1,6.75,29.508V25.75H43.078v3.758A5.009,5.009,0,0,1,38.068,34.519Z" transform="translate(-6.75 -25.75)"/></g><g transform="translate(37.906 13.679)"><path class="c" d="M51.507,9.664A1.883,1.883,0,0,0,49.593,7.75c-6.261.118-13.188,3.217-18.33,8.055-5,.11-10.578.589-14.83,3.921a1.881,1.881,0,0,0-.168,2.811L36.632,42.9a1.879,1.879,0,0,0,1.333.554c.038,0,.075,0,.11,0a1.883,1.883,0,0,0,1.368-.717c3.295-4.2,3.8-9.7,3.916-14.657,4.9-5.166,8.03-12.126,8.148-18.417Z" transform="translate(-15.714 -7.75)"/></g><g transform="translate(15.448 11.174)"><path class="b" d="M29.76,24.042a1.881,1.881,0,0,1,.168-2.811c3.781-2.964,8.611-3.665,13.151-3.863V11.761A5.009,5.009,0,0,0,38.068,6.75H11.761A5.009,5.009,0,0,0,6.75,11.761V54.353H43.078V37.359ZM37.7,42.114c-1.363,1.363-8.4,3.47-8.4,3.47s2.11-7.04,3.47-8.4A3.488,3.488,0,1,1,37.7,42.114Z" transform="translate(-6.75 -6.75)"/></g><g transform="translate(37.997 40.583)"><path class="d" d="M24.329,19.773a3,3,0,0,0-.175-.263,3.487,3.487,0,0,0-4.933,0c-1.363,1.363-3.47,8.4-3.47,8.4s3.467-1.04,6.005-2.13A28.067,28.067,0,0,1,24.329,19.773Z" transform="translate(-15.75 -18.488)"/></g><g transform="translate(15.448 58.777)"><path class="d" d="M12.074,29.508V25.75H6.75v3.758a5.009,5.009,0,0,0,5.011,5.011h5.324A5.009,5.009,0,0,1,12.074,29.508Z" transform="translate(-6.75 -25.75)"/></g><g transform="translate(37.906 13.679)"><path class="d" d="M27.32,22.537a1.881,1.881,0,0,1,.168-2.811c4.252-3.332,9.831-3.808,14.83-3.921A31.317,31.317,0,0,1,51.5,9.837c0-.055.01-.115.01-.173A1.883,1.883,0,0,0,49.593,7.75c-6.261.118-13.188,3.217-18.33,8.055-5,.11-10.578.589-14.83,3.921a1.881,1.881,0,0,0-.168,2.811L36.632,42.9a1.879,1.879,0,0,0,1.333.554c.038,0,.075,0,.11,0a1.883,1.883,0,0,0,1.368-.717,16.2,16.2,0,0,0,2.706-5.369Z" transform="translate(-15.714 -7.75)"/></g><g transform="translate(15.448 11.174)"><path class="e" d="M17.4,6.75H11.761A5.009,5.009,0,0,0,6.75,11.761V54.353h5.637V11.761A5.009,5.009,0,0,1,17.4,6.75Z" transform="translate(-6.75 -6.75)"/></g><g transform="translate(43.816 13.679)"><path class="f" d="M28.622,37.635a1.875,1.875,0,0,1-1.328-.551l-8.671-8.671a1.879,1.879,0,0,1-.068-2.586l7.1-7.885C30.892,11.894,38.9,7.883,46.042,7.75A1.9,1.9,0,0,1,47.4,8.3a1.88,1.88,0,0,1,.551,1.363c-.135,7.14-4.146,15.15-10.222,20.409l-7.857,7.078a1.863,1.863,0,0,1-1.255.484ZM22.539,27.017l6.148,6.148,6.559-5.908a26.7,26.7,0,0,0,8.781-15.581A26.659,26.659,0,0,0,28.471,20.43Z" transform="translate(-18.072 -7.75)"/></g><g transform="translate(53.03 33.197)"><path class="f" d="M28.878,31.73a1.879,1.879,0,0,1-1.333-.554l-5.8-5.823L24.413,22.7l4.141,4.164c1.676-3.28,1.907-7.366,1.977-11.327l3.758.065c-.09,5.139-.476,10.989-3.936,15.4a1.883,1.883,0,0,1-1.368.717.727.727,0,0,1-.108.008Z" transform="translate(-21.75 -15.54)"/></g><g transform="translate(37.906 21.719)"><path class="f" d="M22.088,23.5l-5.823-5.8a1.881,1.881,0,0,1,.168-2.811c4.412-3.457,10.262-3.846,15.4-3.936l.065,3.758c-3.961.07-8.047.3-11.324,1.974l4.164,4.144Z" transform="translate(-15.714 -10.959)"/></g><g transform="translate(36.119 38.706)"><path class="f" d="M16.878,30.92a1.88,1.88,0,0,1-1.8-2.42c.674-2.252,2.408-7.659,3.941-9.192A5.367,5.367,0,0,1,26.609,26.9c-1.533,1.533-6.94,3.267-9.192,3.941a1.8,1.8,0,0,1-.539.08ZM22.816,21.5a1.6,1.6,0,0,0-1.137.471,18.2,18.2,0,0,0-1.846,4.121,18.407,18.407,0,0,0,4.124-1.846,1.611,1.611,0,0,0,0-2.272,1.593,1.593,0,0,0-1.137-.474Z" transform="translate(-15 -17.739)"/></g><g transform="translate(15.448 56.898)"><path class="f" d="M6.75,25H43.078v3.758H6.75Z" transform="translate(-6.75 -25)"/></g><g transform="translate(13.569 9.295)"><path class="f" d="M39.2,66.13H12.89A6.9,6.9,0,0,1,6,59.24V12.89A6.9,6.9,0,0,1,12.89,6H39.2a6.9,6.9,0,0,1,6.89,6.89H42.328A3.136,3.136,0,0,0,39.2,9.758H12.89A3.136,3.136,0,0,0,9.758,12.89V59.24a3.136,3.136,0,0,0,3.132,3.132H39.2a3.136,3.136,0,0,0,3.132-3.132V50.471h3.758V59.24A6.9,6.9,0,0,1,39.2,66.13Z" transform="translate(-6 -6)"/></g><g transform="translate(3.548 65.667)"><path class="f" d="M2,28.5H82.173v3.758H2Z" transform="translate(-2 -28.5)"/></g></svg>