<svg xmlns="http://www.w3.org/2000/svg" xmlns:xlink="http://www.w3.org/1999/xlink" width="618.189" height="676.631" viewBox="0 0 618.189 676.631"><defs><clipPath id="a"><rect width="30.124" height="29.705" fill="none"/></clipPath></defs><g transform="translate(356.777 -5386.694)"><g transform="matrix(-0.998, -0.07, 0.07, -0.998, -537.66, 13227.789)"><path d="M246.866,0c136.34,0,246.866,110.525,246.866,246.866S383.206,493.731,246.866,493.731,0,383.206,0,246.866,110.525,0,246.866,0Z" transform="translate(-186.138 7313.288)" fill="#00d4ed"/><circle cx="88.77" cy="88.77" r="88.77" transform="translate(150.343 7282.007)" fill="#00bfd6"/><circle cx="109.483" cy="109.483" r="109.483" transform="translate(123.289 7588.052)" fill="#00bfd6"/><g transform="translate(-258 7200)" fill="none" stroke="#fff" stroke-width="4"><circle cx="282.796" cy="282.796" r="282.796" stroke="none"/><circle cx="282.796" cy="282.796" r="280.796" fill="none"/></g></g><g transform="translate(-2465.929 12201.414) rotate(-161)"><path d="M23.476,0A23.476,23.476,0,1,1,0,23.476,23.476,23.476,0,0,1,23.476,0Z" transform="translate(-240.765 7227.171)" fill="#00d4ed"/><circle cx="21.342" cy="21.342" r="21.342" transform="translate(-238.507 7229.312)" fill="#00d4ed"/><g transform="translate(-234.508 7233.311)" fill="none" stroke="#ddf3fc" stroke-width="2"><circle cx="17.342" cy="17.342" r="17.342" stroke="none"/><circle cx="17.342" cy="17.342" r="16.342" fill="none"/></g></g><g transform="translate(-2439.896 12234.969) rotate(-161)"><path d="M10.23,0A10.23,10.23,0,1,1,0,10.23,10.23,10.23,0,0,1,10.23,0Z" transform="translate(-240.765 7227.171)" fill="#00d4ed"/><g transform="translate(-238.474 7229.411)" fill="#00bfd6" stroke="#ddf3fc" stroke-width="1"><circle cx="7.992" cy="7.992" r="7.992" stroke="none"/><circle cx="7.992" cy="7.992" r="7.492" fill="none"/></g></g><g transform="translate(187.631 5553.881) rotate(117)" clip-path="url(#a)"><rect width="29.705" height="29.705" fill="none"/><path d="M460.58-2.93V-5.654l-11.191-6.811v-7.492a2.068,2.068,0,0,0-.625-1.457A2.068,2.068,0,0,0,447.29-22a2.069,2.069,0,0,0-1.473.586,2.068,2.068,0,0,0-.625,1.457v7.492L434-5.654v2.725l11.191-3.406V1.157l-2.8,2.043V5.244l4.9-1.362,4.9,1.362V3.2l-2.8-2.043V-6.335Z" transform="translate(-432.672 23.328)" fill="#00d4ed"/></g></g></svg>