<svg xmlns="http://www.w3.org/2000/svg" xmlns:xlink="http://www.w3.org/1999/xlink" width="641" height="869" viewBox="0 0 641 869"><defs><filter id="a" x="0" y="0" width="522" height="869" filterUnits="userSpaceOnUse"><feOffset dx="-20" dy="23" input="SourceAlpha"/><feGaussianBlur stdDeviation="28" result="b"/><feFlood flood-opacity="0.161"/><feComposite operator="in" in2="b"/><feComposite in="SourceGraphic"/></filter><linearGradient id="c" x1="-0.639" y1="0.5" x2="102.216" y2="0.5" gradientUnits="objectBoundingBox"><stop offset="0" stop-color="#d443a2"/><stop offset="1" stop-color="#7121ff"/></linearGradient><linearGradient id="d" x1="-3.028" y1="0.5" x2="99.776" y2="0.5" xlink:href="#c"/><linearGradient id="e" x1="-5.421" y1="0.5" x2="97.434" y2="0.5" xlink:href="#c"/><linearGradient id="f" x1="-7.807" y1="0.5" x2="94.993" y2="0.5" xlink:href="#c"/><linearGradient id="g" x1="-10.198" y1="0.5" x2="92.611" y2="0.5" xlink:href="#c"/><linearGradient id="h" x1="-12.587" y1="0.5" x2="90.214" y2="0.5" xlink:href="#c"/><linearGradient id="i" x1="-14.977" y1="0.5" x2="87.827" y2="0.5" xlink:href="#c"/><linearGradient id="j" x1="-17.367" y1="0.5" x2="85.437" y2="0.5" xlink:href="#c"/><linearGradient id="k" x1="-19.757" y1="0.5" x2="83.047" y2="0.5" xlink:href="#c"/><linearGradient id="l" x1="-22.158" y1="0.5" x2="80.697" y2="0.5" xlink:href="#c"/><linearGradient id="m" x1="-24.536" y1="0.5" x2="78.264" y2="0.5" xlink:href="#c"/><linearGradient id="n" x1="-26.94" y1="0.5" x2="75.915" y2="0.5" xlink:href="#c"/><linearGradient id="o" x1="-29.316" y1="0.5" x2="73.485" y2="0.5" xlink:href="#c"/><linearGradient id="p" x1="-31.723" y1="0.5" x2="71.133" y2="0.5" xlink:href="#c"/><linearGradient id="q" x1="-34.114" y1="0.5" x2="68.741" y2="0.5" xlink:href="#c"/><linearGradient id="r" x1="-36.505" y1="0.5" x2="66.35" y2="0.5" xlink:href="#c"/><linearGradient id="s" x1="-38.896" y1="0.5" x2="63.959" y2="0.5" xlink:href="#c"/><linearGradient id="t" x1="-41.287" y1="0.5" x2="61.568" y2="0.5" xlink:href="#c"/><linearGradient id="u" x1="-43.678" y1="0.5" x2="59.177" y2="0.5" xlink:href="#c"/><linearGradient id="v" x1="-46.047" y1="0.5" x2="56.759" y2="0.5" xlink:href="#c"/><linearGradient id="w" x1="-48.46" y1="0.5" x2="54.395" y2="0.5" xlink:href="#c"/><linearGradient id="x" x1="-50.851" y1="0.5" x2="52.004" y2="0.5" xlink:href="#c"/><linearGradient id="y" x1="-53.243" y1="0.5" x2="49.613" y2="0.5" xlink:href="#c"/><linearGradient id="z" x1="-55.604" y1="0.5" x2="47.197" y2="0.5" xlink:href="#c"/><linearGradient id="aa" x1="-58.028" y1="0.5" x2="44.833" y2="0.5" xlink:href="#c"/><linearGradient id="ab" x1="-60.417" y1="0.5" x2="42.44" y2="0.5" xlink:href="#c"/><linearGradient id="ac" x1="-62.776" y1="0.5" x2="40.029" y2="0.5" xlink:href="#c"/><linearGradient id="ad" x1="-65.199" y1="0.5" x2="37.657" y2="0.5" xlink:href="#c"/><linearGradient id="ae" x1="-67.554" y1="0.5" x2="35.248" y2="0.5" xlink:href="#c"/><linearGradient id="af" x1="-69.982" y1="0.5" x2="32.876" y2="0.5" xlink:href="#c"/><linearGradient id="ag" x1="-72.333" y1="0.5" x2="30.468" y2="0.5" xlink:href="#c"/><linearGradient id="ah" x1="-74.725" y1="0.5" x2="28.079" y2="0.5" xlink:href="#c"/><linearGradient id="ai" x1="-77.119" y1="0.5" x2="25.69" y2="0.5" xlink:href="#c"/><linearGradient id="aj" x1="-79.502" y1="0.5" x2="23.298" y2="0.5" xlink:href="#c"/><linearGradient id="ak" x1="-81.895" y1="0.5" x2="20.909" y2="0.5" xlink:href="#c"/><linearGradient id="al" x1="-84.282" y1="0.5" x2="18.519" y2="0.5" xlink:href="#c"/><linearGradient id="am" x1="-86.718" y1="0.5" x2="16.137" y2="0.5" xlink:href="#c"/><linearGradient id="an" x1="-89.066" y1="0.5" x2="13.74" y2="0.5" xlink:href="#c"/><linearGradient id="ao" x1="-91.5" y1="0.5" x2="11.355" y2="0.5" xlink:href="#c"/><linearGradient id="ap" x1="-93.844" y1="0.5" x2="8.96" y2="0.5" xlink:href="#c"/><linearGradient id="aq" x1="-96.282" y1="0.5" x2="6.573" y2="0.5" xlink:href="#c"/><linearGradient id="ar" x1="-98.673" y1="0.5" x2="4.182" y2="0.5" xlink:href="#c"/><linearGradient id="as" x1="-101.069" y1="0.5" x2="1.791" y2="0.5" xlink:href="#c"/><linearGradient id="at" x1="0.002" y1="0.002" x2="1.155" y2="1.155" gradientUnits="objectBoundingBox"><stop offset="0" stop-color="#fdb97c"/><stop offset="1" stop-color="#ee4057"/></linearGradient><linearGradient id="au" x1="0.252" y1="0.23" x2="0.958" y2="0.998" xlink:href="#c"/><linearGradient id="av" x1="0.357" y1="0.402" x2="0.849" y2="0.74" gradientUnits="objectBoundingBox"><stop offset="0" stop-color="#77c190"/><stop offset="1" stop-color="#4b57a1"/></linearGradient><linearGradient id="aw" x1="0.089" y1="0.166" x2="1.073" y2="0.965" gradientUnits="objectBoundingBox"><stop offset="0" stop-color="#ee4057"/><stop offset="1" stop-color="#359faf"/></linearGradient></defs><g transform="translate(-1164 -6093)"><g transform="translate(1268 6154)"><g transform="matrix(1, 0, 0, 1, -104, -61)" filter="url(#a)"><rect width="354" height="701" rx="31" transform="translate(104 61)" fill="#fff"/></g></g><g transform="translate(1303.996 6246)"><g transform="translate(0 0)"><g transform="translate(0 0)"><g transform="translate(0 93.756)"><text transform="translate(0 9)" fill="#666" font-size="9" font-family="SegoeUI, Segoe UI"><tspan x="0" y="0">10</tspan></text></g><g transform="translate(0 62.886)"><text transform="translate(0 9)" fill="#666" font-size="9" font-family="SegoeUI, Segoe UI"><tspan x="0" y="0">20</tspan></text></g><g transform="translate(0.003 30)"><text transform="translate(0 11)" fill="#666" font-size="11" font-family="SegoeUI, Segoe UI"><tspan x="0" y="0">30</tspan></text></g><g transform="translate(0.003)"><text transform="translate(0 11)" fill="#666" font-size="11" font-family="SegoeUI, Segoe UI"><tspan x="0" y="0">40</tspan></text></g></g><path d="M118.747,73.608" transform="translate(29.259 17.527)" fill="none" stroke="#707070" stroke-width="1"/></g><g transform="translate(28.118 2.46)"><g transform="translate(0 76.439)"><path d="M527.27,354.722a1.549,1.549,0,0,1-1.549-1.549V327.884a1.55,1.55,0,1,1,3.1,0v25.288A1.549,1.549,0,0,1,527.27,354.722Z" transform="translate(-525.721 -326.333)" fill="url(#c)"/></g><g transform="translate(7.412 56.142)"><path d="M531.96,362.182a1.549,1.549,0,0,1-1.551-1.549V315.047a1.551,1.551,0,0,1,3.1,0v45.585A1.549,1.549,0,0,1,531.96,362.182Z" transform="translate(-530.409 -313.496)" fill="url(#d)"/></g><g transform="translate(14.828 45.173)"><path d="M536.648,366.214a1.549,1.549,0,0,1-1.549-1.549V308.109a1.55,1.55,0,1,1,3.1,0v56.555A1.549,1.549,0,0,1,536.648,366.214Z" transform="translate(-535.099 -306.558)" fill="url(#e)"/></g><g transform="translate(22.24 38.883)"><path d="M541.338,368.525a1.549,1.549,0,0,1-1.551-1.55V304.131a1.551,1.551,0,0,1,3.1,0v62.845A1.549,1.549,0,0,1,541.338,368.525Z" transform="translate(-539.787 -302.58)" fill="url(#f)"/></g><g transform="translate(29.654 35.638)"><path d="M546.027,369.718a1.549,1.549,0,0,1-1.551-1.549V302.079a1.551,1.551,0,0,1,3.1,0v66.089A1.55,1.55,0,0,1,546.027,369.718Z" transform="translate(-544.476 -300.528)" fill="url(#g)"/></g><g transform="translate(37.068 33.896)"><path d="M550.716,370.358a1.549,1.549,0,0,1-1.551-1.549V300.975a1.551,1.551,0,0,1,3.1,0v67.833A1.549,1.549,0,0,1,550.716,370.358Z" transform="translate(-549.165 -299.426)" fill="url(#h)"/></g><g transform="translate(44.482 33.896)"><path d="M555.4,370.358a1.549,1.549,0,0,1-1.551-1.549V300.975a1.551,1.551,0,0,1,3.1,0v67.833A1.55,1.55,0,0,1,555.4,370.358Z" transform="translate(-553.854 -299.426)" fill="url(#i)"/></g><g transform="translate(51.896 35.082)"><path d="M560.094,369.922a1.549,1.549,0,0,1-1.551-1.549V301.727a1.551,1.551,0,1,1,3.1,0v66.646A1.549,1.549,0,0,1,560.094,369.922Z" transform="translate(-558.543 -300.176)" fill="url(#j)"/></g><g transform="translate(59.309 38.883)"><path d="M564.783,368.525a1.549,1.549,0,0,1-1.551-1.55V304.131a1.551,1.551,0,1,1,3.1,0v62.845A1.549,1.549,0,0,1,564.783,368.525Z" transform="translate(-563.232 -302.58)" fill="url(#k)"/></g><g transform="translate(59.842 44.452)"><path d="M569.472,366.479a1.549,1.549,0,0,1-1.551-1.549V307.653a1.55,1.55,0,1,1,3.1,0v57.276A1.549,1.549,0,0,1,569.472,366.479Z" transform="translate(-567.921 -306.102)" fill="url(#l)"/></g><g transform="translate(66.491 54.013)"><path d="M574.161,362.965a1.549,1.549,0,0,1-1.551-1.549V313.7a1.551,1.551,0,0,1,3.1,0v47.717A1.55,1.55,0,0,1,574.161,362.965Z" transform="translate(-572.61 -312.149)" fill="url(#m)"/></g><g transform="translate(73.14 66.758)"><path d="M578.85,358.28a1.549,1.549,0,0,1-1.551-1.549v-34.97a1.55,1.55,0,1,1,3.1,0v34.97A1.549,1.549,0,0,1,578.85,358.28Z" transform="translate(-577.299 -320.21)" fill="url(#n)"/></g><g transform="translate(79.789 78.934)"><path d="M583.539,353.805a1.55,1.55,0,0,1-1.551-1.55V329.462a1.551,1.551,0,0,1,3.1,0v22.793A1.549,1.549,0,0,1,583.539,353.805Z" transform="translate(-581.988 -327.911)" fill="url(#o)"/></g><g transform="translate(86.439 86.674)"><path d="M588.228,350.96a1.549,1.549,0,0,1-1.551-1.549V334.355a1.55,1.55,0,0,1,3.1,0v15.055A1.549,1.549,0,0,1,588.228,350.96Z" transform="translate(-586.677 -332.806)" fill="url(#p)"/></g><g transform="translate(93.088 92.568)"><path d="M592.915,348.794a1.549,1.549,0,0,1-1.549-1.549v-9.159a1.55,1.55,0,1,1,3.1,0v9.159A1.549,1.549,0,0,1,592.915,348.794Z" transform="translate(-591.366 -336.534)" fill="url(#q)"/></g><g transform="translate(99.737 95.158)"><path d="M597.606,347.842a1.549,1.549,0,0,1-1.551-1.55v-6.57a1.55,1.55,0,1,1,3.1,0v6.57A1.549,1.549,0,0,1,597.606,347.842Z" transform="translate(-596.055 -338.172)" fill="url(#r)"/></g><g transform="translate(106.387 96.393)"><path d="M602.293,347.388a1.549,1.549,0,0,1-1.549-1.549V340.5a1.55,1.55,0,1,1,3.1,0v5.335A1.549,1.549,0,0,1,602.293,347.388Z" transform="translate(-600.744 -338.953)" fill="url(#s)"/></g><g transform="translate(113.036 97.637)"><path d="M606.984,346.931a1.549,1.549,0,0,1-1.551-1.549v-4.09a1.55,1.55,0,1,1,3.1,0v4.09A1.549,1.549,0,0,1,606.984,346.931Z" transform="translate(-605.433 -339.74)" fill="url(#t)"/></g><g transform="translate(119.685 96.393)"><path d="M611.671,347.388a1.549,1.549,0,0,1-1.549-1.549V340.5a1.55,1.55,0,1,1,3.1,0v5.335A1.549,1.549,0,0,1,611.671,347.388Z" transform="translate(-610.122 -338.953)" fill="url(#u)"/></g><g transform="translate(126.334 93.525)"><path d="M616.362,348.442a1.549,1.549,0,0,1-1.551-1.549v-8.2a1.551,1.551,0,0,1,3.1,0v8.2A1.55,1.55,0,0,1,616.362,348.442Z" transform="translate(-614.811 -337.139)" fill="url(#v)"/></g><g transform="translate(132.983 87.629)"><path d="M621.049,350.609a1.549,1.549,0,0,1-1.549-1.549v-14.1a1.55,1.55,0,1,1,3.1,0v14.1A1.549,1.549,0,0,1,621.049,350.609Z" transform="translate(-619.5 -333.41)" fill="url(#w)"/></g><g transform="translate(139.633 77.869)"><path d="M625.738,354.2a1.549,1.549,0,0,1-1.549-1.549V328.788a1.55,1.55,0,1,1,3.1,0v23.859A1.549,1.549,0,0,1,625.738,354.2Z" transform="translate(-624.189 -327.237)" fill="url(#x)"/></g><g transform="translate(146.282 65.873)"><path d="M630.429,358.606a1.549,1.549,0,0,1-1.551-1.549V321.2a1.55,1.55,0,1,1,3.1,0v35.855A1.549,1.549,0,0,1,630.429,358.606Z" transform="translate(-628.878 -319.65)" fill="url(#y)"/></g><g transform="translate(152.93 47.342)"><path d="M635.117,365.416a1.55,1.55,0,0,1-1.551-1.549V309.479a1.551,1.551,0,0,1,3.1,0v54.387A1.549,1.549,0,0,1,635.117,365.416Z" transform="translate(-633.566 -307.93)" fill="url(#z)"/></g><g transform="translate(159.58 25.81)"><path d="M639.807,373.33a1.549,1.549,0,0,1-1.551-1.55V295.863a1.55,1.55,0,1,1,3.1,0v75.918A1.549,1.549,0,0,1,639.807,373.33Z" transform="translate(-638.256 -294.312)" fill="url(#aa)"/></g><g transform="translate(166.23 9.719)"><path d="M644.494,379.244a1.549,1.549,0,0,1-1.549-1.549v-92.01a1.55,1.55,0,0,1,3.1,0v92.01A1.549,1.549,0,0,1,644.494,379.244Z" transform="translate(-642.945 -284.135)" fill="url(#ab)"/></g><g transform="translate(172.877 1.592)"><path d="M649.184,382.231a1.549,1.549,0,0,1-1.551-1.55V280.546a1.551,1.551,0,1,1,3.1,0V380.682A1.549,1.549,0,0,1,649.184,382.231Z" transform="translate(-647.633 -278.995)" fill="url(#ac)"/></g><g transform="translate(179.528)"><path d="M653.872,382.816a1.549,1.549,0,0,1-1.549-1.549V279.537a1.55,1.55,0,0,1,3.1,0V381.267A1.549,1.549,0,0,1,653.872,382.816Z" transform="translate(-652.323 -277.988)" fill="url(#ad)"/></g><g transform="translate(186.176 2.35)"><path d="M658.562,381.953a1.549,1.549,0,0,1-1.551-1.549V281.025a1.551,1.551,0,1,1,3.1,0V380.4A1.549,1.549,0,0,1,658.562,381.953Z" transform="translate(-657.011 -279.474)" fill="url(#ae)"/></g><g transform="translate(192.827 13.384)"><path d="M663.251,377.9a1.549,1.549,0,0,1-1.55-1.549V288a1.55,1.55,0,0,1,3.1,0v88.345A1.549,1.549,0,0,1,663.251,377.9Z" transform="translate(-661.701 -286.453)" fill="url(#af)"/></g><g transform="translate(199.474 37.122)"><path d="M667.94,369.173a1.549,1.549,0,0,1-1.551-1.549V303.017a1.551,1.551,0,0,1,3.1,0v64.606A1.549,1.549,0,0,1,667.94,369.173Z" transform="translate(-666.389 -301.466)" fill="url(#ag)"/></g><g transform="translate(206.124 67.555)"><path d="M672.629,357.987a1.549,1.549,0,0,1-1.551-1.549V322.265a1.551,1.551,0,1,1,3.1,0v34.173A1.55,1.55,0,0,1,672.629,357.987Z" transform="translate(-671.078 -320.714)" fill="url(#ah)"/></g><g transform="translate(212.773 84.641)"><path d="M677.318,351.708a1.55,1.55,0,0,1-1.551-1.549V333.071a1.551,1.551,0,1,1,3.1,0v17.087A1.549,1.549,0,0,1,677.318,351.708Z" transform="translate(-675.767 -331.52)" fill="url(#ai)"/></g><g transform="translate(219.422 92.568)"><path d="M682.007,348.794a1.549,1.549,0,0,1-1.551-1.549v-9.159a1.551,1.551,0,1,1,3.1,0v9.159A1.549,1.549,0,0,1,682.007,348.794Z" transform="translate(-680.456 -336.534)" fill="url(#aj)"/></g><g transform="translate(219.954 93.525)"><path d="M686.7,348.442a1.549,1.549,0,0,1-1.551-1.549v-8.2a1.551,1.551,0,0,1,3.1,0v8.2A1.549,1.549,0,0,1,686.7,348.442Z" transform="translate(-685.145 -337.139)" fill="url(#ak)"/></g><g transform="translate(227.368 92.568)"><path d="M691.385,348.794a1.549,1.549,0,0,1-1.551-1.549v-9.159a1.551,1.551,0,1,1,3.1,0v9.159A1.55,1.55,0,0,1,691.385,348.794Z" transform="translate(-689.834 -336.534)" fill="url(#al)"/></g><g transform="translate(234.782 87.629)"><path d="M696.074,350.609a1.549,1.549,0,0,1-1.551-1.549v-14.1a1.55,1.55,0,1,1,3.1,0v14.1A1.549,1.549,0,0,1,696.074,350.609Z" transform="translate(-694.523 -333.41)" fill="url(#am)"/></g><g transform="translate(242.196 76.795)"><path d="M700.763,354.591a1.549,1.549,0,0,1-1.551-1.549V328.109a1.551,1.551,0,1,1,3.1,0v24.933A1.55,1.55,0,0,1,700.763,354.591Z" transform="translate(-699.212 -326.558)" fill="url(#an)"/></g><g transform="translate(249.61 57.556)"><path d="M705.452,361.662a1.549,1.549,0,0,1-1.551-1.549V315.941a1.55,1.55,0,1,1,3.1,0v44.172A1.549,1.549,0,0,1,705.452,361.662Z" transform="translate(-703.901 -314.39)" fill="url(#ao)"/></g><g transform="translate(257.024 45.248)"><path d="M710.141,366.186a1.549,1.549,0,0,1-1.551-1.549V308.157a1.551,1.551,0,1,1,3.1,0v56.479A1.549,1.549,0,0,1,710.141,366.186Z" transform="translate(-708.59 -306.606)" fill="url(#ap)"/></g><g transform="translate(264.438 39.99)"><path d="M714.83,368.119a1.549,1.549,0,0,1-1.551-1.55V304.831a1.55,1.55,0,1,1,3.1,0v61.738A1.549,1.549,0,0,1,714.83,368.119Z" transform="translate(-713.279 -303.28)" fill="url(#aq)"/></g><g transform="translate(271.852 37.122)"><path d="M719.517,369.173a1.549,1.549,0,0,1-1.549-1.549V303.017a1.55,1.55,0,1,1,3.1,0v64.606A1.549,1.549,0,0,1,719.517,369.173Z" transform="translate(-717.968 -301.466)" fill="url(#ar)"/></g><g transform="translate(279.265 36.484)"><path d="M724.208,369.407a1.549,1.549,0,0,1-1.551-1.549V302.614a1.55,1.55,0,1,1,3.1,0v65.243A1.549,1.549,0,0,1,724.208,369.407Z" transform="translate(-722.657 -301.063)" fill="url(#as)"/></g></g></g><circle cx="123.5" cy="123.5" r="123.5" transform="translate(1558 6130)" fill="#00d4ed"/><g transform="translate(1311.021 6391.236)"><path d="M840.742,306.152a29.68,29.68,0,0,1-56.314,18.771" transform="translate(-766.786 -263.347)" fill="none" stroke="#707070" stroke-linecap="round" stroke-linejoin="round" stroke-width="0.5"/><g transform="translate(0 6.391)"><text transform="translate(30.326 49.738)" fill="#999" font-size="18" font-family="SegoeUI, Segoe UI"><tspan x="0" y="0" fill="#000">60</tspan><tspan y="0" fill="#999">%</tspan></text><ellipse cx="36.904" cy="36.904" rx="36.904" ry="36.904" transform="translate(1.864 73.968) rotate(-77.666)" stroke-width="2" stroke="#d9d9d9" stroke-linecap="round" stroke-linejoin="round" fill="none"/><circle cx="33.184" cy="33.184" r="33.184" transform="matrix(0.844, -0.536, 0.536, 0.844, 0, 35.565)" fill="none" stroke="#d9d9d9" stroke-linecap="round" stroke-linejoin="round" stroke-width="1"/><ellipse cx="29.68" cy="29.68" rx="29.68" ry="29.68" transform="translate(16.119 16.119)" stroke-width="0.5" stroke="#d9d9d9" stroke-linecap="round" stroke-linejoin="round" fill="none"/><path d="M845.831,335.852a36.9,36.9,0,1,1-45.642-52.185" transform="translate(-767.68 -272.297)" fill="none" stroke="#707070" stroke-linecap="round" stroke-linejoin="round" stroke-width="2"/><path d="M830.964,345.939a33.186,33.186,0,1,1-3.025-57.65" transform="translate(-767.3 -272.17)" fill="none" stroke="#707070" stroke-linecap="round" stroke-linejoin="round" stroke-width="1"/></g><g transform="translate(86.718 8.255)"><text transform="translate(28.606 47.875)" fill="#999" font-size="18" font-family="SegoeUI, Segoe UI"><tspan x="0" y="0" fill="#000">55</tspan><tspan y="0" fill="#999">%</tspan></text><ellipse cx="36.904" cy="36.904" rx="36.904" ry="36.904" transform="translate(0 72.105) rotate(-77.666)" stroke-width="2" stroke="#d9d9d9" stroke-linecap="round" stroke-linejoin="round" fill="none"/><path d="M901.334,353.361a36.9,36.9,0,1,1,23.341-46.68" transform="translate(-845.729 -274.414)" fill="none" stroke="#707070" stroke-linecap="round" stroke-linejoin="round" stroke-width="2"/><ellipse cx="33.183" cy="33.183" rx="33.183" ry="33.183" transform="matrix(0.997, -0.081, 0.081, 0.997, 8.158, 13.566)" stroke-width="1" stroke="#d9d9d9" stroke-linecap="round" stroke-linejoin="round" fill="none"/><ellipse cx="29.68" cy="29.68" rx="29.68" ry="29.68" transform="translate(14.256 14.255)" stroke-width="0.5" stroke="#d9d9d9" stroke-linecap="round" stroke-linejoin="round" fill="none"/><path d="M877.466,289.454a29.68,29.68,0,1,1,4.331,57.41" transform="translate(-842.916 -273.676)" fill="none" stroke="#707070" stroke-linecap="round" stroke-linejoin="round" stroke-width="0.5"/><path d="M869.852,290a33.186,33.186,0,1,1,3.025,57.65" transform="translate(-843.782 -274.034)" fill="none" stroke="#707070" stroke-linecap="round" stroke-linejoin="round" stroke-width="1"/></g><g transform="translate(163.317 0)"><text transform="translate(37.005 56.129)" fill="#999" font-size="18" font-family="SegoeUI, Segoe UI"><tspan x="0" y="0" fill="#000">80</tspan><tspan y="0" fill="#999">%</tspan></text><circle cx="36.904" cy="36.904" r="36.904" transform="translate(0 52.19) rotate(-45)" fill="none" stroke="#d9d9d9" stroke-linecap="round" stroke-linejoin="round" stroke-width="2"/><path d="M932.441,301.845a36.9,36.9,0,1,1,16.5,49.513" transform="translate(-913.259 -266.159)" fill="none" stroke="#707070" stroke-linecap="round" stroke-linejoin="round" stroke-width="2"/><ellipse cx="33.184" cy="33.184" rx="33.184" ry="33.184" transform="translate(12.744 77.612) rotate(-77.8)" stroke-width="1" stroke="#d9d9d9" stroke-linecap="round" stroke-linejoin="round" fill="none"/><circle cx="29.68" cy="29.68" r="29.68" transform="translate(10.323 55.183) rotate(-49.088)" fill="none" stroke="#707070" stroke-linecap="round" stroke-linejoin="round" stroke-width="0.5"/><path d="M937.5,335.834a33.186,33.186,0,1,1,57.65-3.025" transform="translate(-913.278 -265.779)" fill="none" stroke="#707070" stroke-linecap="round" stroke-linejoin="round" stroke-width="1"/></g><g transform="translate(0 103.369)"><g transform="translate(106.835 21.382)"><ellipse cx="6.05" cy="6.05" rx="6.05" ry="6.05" transform="translate(0 1.38)" fill="url(#at)"/><text transform="translate(20.558 13)" fill="#999" font-size="13" font-family="SegoeUI, Segoe UI"><tspan x="0" y="0" fill="#000">115</tspan><tspan y="0" fill="#999">k</tspan></text><path d="M919,389.216h-5.5l2.75-2.75Z" transform="translate(-858.932 -378.958)" fill="#00bbab"/></g><g transform="translate(194.272 21.382)"><ellipse cx="6.05" cy="6.05" rx="6.05" ry="6.05" transform="translate(0 1.38)" fill="url(#au)"/><text transform="translate(23.278 13)" fill="#999" font-size="13" font-family="SegoeUI, Segoe UI"><tspan x="0" y="0" fill="#000">60</tspan><tspan y="0" fill="#999">k</tspan></text><path d="M992.44,389.216h-5.5l2.75-2.75Z" transform="translate(-938.012 -378.958)" fill="#00bbab"/></g><g transform="translate(108.137 60.213)"><path d="M877.777,421.938a6.05,6.05,0,1,1-6.05-6.05A6.049,6.049,0,0,1,877.777,421.938Z" transform="translate(-865.677 -414.441)" fill="url(#av)"/><text transform="translate(19.255 13)" fill="#999" font-size="13" font-family="SegoeUI, Segoe UI"><tspan x="0" y="0" fill="#000">85</tspan><tspan y="0" fill="#999">k</tspan></text><path d="M919,423.972h-5.5l2.75-2.75Z" transform="translate(-860.235 -413.834)" fill="#00bbab"/></g><g transform="translate(194.271 60.213)"><path d="M955.111,422.272a6.05,6.05,0,1,1-6.05-6.05A6.05,6.05,0,0,1,955.111,422.272Z" transform="translate(-943.011 -414.403)" fill="url(#aw)"/><text transform="translate(23.278 13)" fill="#999" font-size="13" font-family="SegoeUI, Segoe UI"><tspan x="0" y="0" fill="#000">45</tspan><tspan y="0" fill="#999">k</tspan></text><path d="M986.941,422.456h5.5l-2.75,2.75Z" transform="translate(-938.012 -413.694)" fill="#ee4057"/></g><text transform="translate(30.326 49.573)" fill="#999" font-size="18" font-family="SegoeUI, Segoe UI"><tspan x="0" y="0" fill="#000">75</tspan><tspan y="0" fill="#999">%</tspan></text><ellipse cx="36.904" cy="36.904" rx="36.904" ry="36.904" transform="translate(1.864 73.968) rotate(-77.666)" stroke-width="2" stroke="#d9d9d9" stroke-linecap="round" stroke-linejoin="round" fill="none"/><path d="M827.569,439.53q-1.185.488-2.419.9a36.9,36.9,0,1,1,22.935-22.185" transform="translate(-767.68 -359.62)" fill="none" stroke="#707070" stroke-linecap="round" stroke-linejoin="round" stroke-width="2"/><circle cx="33.184" cy="33.184" r="33.184" transform="matrix(0.844, -0.536, 0.536, 0.844, 0, 35.565)" fill="none" stroke="#d9d9d9" stroke-linecap="round" stroke-linejoin="round" stroke-width="1"/><path d="M823.592,436.345a33.184,33.184,0,0,1-20.986-62.962" transform="translate(-767.3 -359.065)" fill="none" stroke="#707070" stroke-linecap="round" stroke-linejoin="round" stroke-width="1"/><ellipse cx="29.68" cy="29.68" rx="29.68" ry="29.68" transform="translate(16.119 16.119)" stroke-width="0.5" stroke="#d9d9d9" stroke-linecap="round" stroke-linejoin="round" fill="none"/><path d="M784.584,414.066A29.68,29.68,0,1,1,840.9,395.3" transform="translate(-766.942 -358.882)" fill="none" stroke="#707070" stroke-linecap="round" stroke-linejoin="round" stroke-width="0.5"/></g></g><circle cx="110.5" cy="110.5" r="110.5" transform="translate(1571 6142)" fill="#009fb3"/><g transform="translate(-6 8)"><text transform="translate(1798 6237)" fill="#fff" font-size="65" font-family="IRANSansWeb-Bold, IRANSansWeb" font-weight="700" letter-spacing="0.016em"><tspan x="-171.176" y="0">۲,۸۲۰ </tspan></text><text transform="translate(1623 6241)" fill="#fff" font-size="45" font-family="IRANSansWeb-Bold, IRANSansWeb" font-weight="700" letter-spacing="0.016em"><tspan x="-24.574" y="0">+</tspan></text><rect width="144" height="43" rx="21.5" transform="translate(1616 6264)" fill="#fff"/><text transform="translate(1737 6290)" fill="#009fb3" font-size="20" font-family="IRANSansWeb-Bold, IRANSansWeb" font-weight="700" letter-spacing="0.016em"><tspan x="-99.315" y="0">شرکت کننده</tspan></text></g></g></svg>