<svg xmlns="http://www.w3.org/2000/svg" width="54.699" height="54.699" viewBox="0 0 54.699 54.699"><g transform="translate(-19488 -21785)"><path d="M964.6,1178.271h0a27.35,27.35,0,0,1-27.35-27.35h0a27.35,27.35,0,0,1,27.35-27.35h0a27.35,27.35,0,0,1,27.35,27.35h0A27.349,27.349,0,0,1,964.6,1178.271Z" transform="translate(18550.75 20661.43)" fill="#f8f8f8"/><g transform="translate(19499.996 21796.996)"><g transform="translate(0.003 0.003)"><path d="M17.934.891l-2.8-.729A4.705,4.705,0,0,0,9.378,3.5l-.7,2.637A14.409,14.409,0,0,1,17.934.891Z" transform="translate(-4.821 -0.003)" fill="#303143"/><path d="M.847,39.33.162,41.914A4.705,4.705,0,0,0,3.5,47.668l2.668.712A14.413,14.413,0,0,1,.847,39.33Z" transform="translate(-0.003 -21.841)" fill="#303143"/><path d="M56.723,9.256l-2.993-.8a14.409,14.409,0,0,1,5.514,9.65L60.067,15a4.705,4.705,0,0,0-3.344-5.741Z" transform="translate(-29.837 -4.699)" fill="#303143"/><path d="M38.69,59.258l2.868.774a4.705,4.705,0,0,0,5.755-3.34l.809-3.042a14.418,14.418,0,0,1-9.432,5.608Z" transform="translate(-21.485 -29.793)" fill="#303143"/><path d="M17.711,4.54A13.177,13.177,0,1,0,30.884,17.715,13.177,13.177,0,0,0,17.711,4.54Zm-7.462,6.573a3.762,3.762,0,1,1,2.984,4.407,3.762,3.762,0,0,1-2.984-4.407ZM15.723,22.5a3.762,3.762,0,1,1-.575-2.823A3.762,3.762,0,0,1,15.723,22.5Zm1.6-3.046a1.672,1.672,0,1,1,1.258-.259,1.672,1.672,0,0,1-1.258.259Zm7.849,4.861A3.762,3.762,0,1,1,22.185,19.9,3.762,3.762,0,0,1,25.169,24.312Zm-2.49-6.973a3.755,3.755,0,1,1,2.823-.576,3.762,3.762,0,0,1-2.823.576Z" transform="translate(-2.517 -2.522)" fill="#303143"/></g></g></g></svg>