<svg xmlns="http://www.w3.org/2000/svg" width="38" height="38" viewBox="0 0 38 38"><defs><style>.a{fill:#fff9dd;}.b{fill:#ffe777;}.c{fill:#ffd200;}</style></defs><path class="a" d="M30.875,38H7.125A7.125,7.125,0,0,1,0,30.875V7.125A7.125,7.125,0,0,1,7.125,0h23.75A7.125,7.125,0,0,1,38,7.125v23.75A7.125,7.125,0,0,1,30.875,38Z"/><path class="b" d="M23.771,11.347V13.9A2.578,2.578,0,0,1,21.2,16.477H14.666V17.87a2.176,2.176,0,0,0,2.177,2.177h.989v1.781a.6.6,0,0,0,.356.546.628.628,0,0,0,.237.048.591.591,0,0,0,.4-.158l2.4-2.217h2.343a2.176,2.176,0,0,0,2.177-2.177V13.515A2.173,2.173,0,0,0,23.771,11.347Z" transform="translate(2.75 2.128)"/><circle class="c" cx="2.375" cy="2.375" r="2.375" transform="translate(11.48 18.605)"/><path class="c" d="M14.531,20.667H10.177A2.179,2.179,0,0,0,8,22.844v1.188a.594.594,0,0,0,.594.594h7.52a.594.594,0,0,0,.594-.594V22.844A2.179,2.179,0,0,0,14.531,20.667Z" transform="translate(1.5 3.875)"/><g transform="translate(14.25 9.5)"><path class="b" d="M23.083,10.034V14.19A1.393,1.393,0,0,1,21.7,15.576H13.385A1.392,1.392,0,0,1,12,14.19V10.034a1.008,1.008,0,0,1,.024-.214l5.115,3.025a.816.816,0,0,0,.808,0L23.06,9.82a1.006,1.006,0,0,1,.023.214Z" transform="translate(-12 -7.659)"/><path class="b" d="M23.055,9.172,17.941,12.2a.816.816,0,0,1-.808,0L12.02,9.172A1.375,1.375,0,0,1,13.382,8h8.312a1.373,1.373,0,0,1,1.361,1.172Z" transform="translate(-11.996 -8)"/></g></svg>