<svg xmlns="http://www.w3.org/2000/svg" width="38" height="37.83" viewBox="0 0 38 37.83"><defs><style>.a{fill:#fff9dd;}.b{fill:#ffd200;}.c{fill:#ffe777;}</style></defs><path class="a" d="M30.875,37.83H7.125A7.109,7.109,0,0,1,0,30.737V7.093A7.109,7.109,0,0,1,7.125,0h23.75A7.109,7.109,0,0,1,38,7.093V30.737A7.109,7.109,0,0,1,30.875,37.83Zm0,0" transform="translate(0)"/><path class="b" d="M223.607,255.777l-5.156,5.155a.394.394,0,0,0-.105.189l-.859,3.646a.393.393,0,0,0,.384.483.381.381,0,0,0,.09-.011l3.646-.859a.393.393,0,0,0,.188-.105l5.155-5.156Zm0,0" transform="translate(-201.312 -236.878)"/><path class="b" d="M316.619,219.241l-1.115-1.115a1.614,1.614,0,0,0-2.23,0l-1.532,1.532L315.087,223l1.532-1.532a1.575,1.575,0,0,0,0-2.23Zm0,0" transform="translate(-288.588 -201.596)"/><path class="c" d="M310.117,170.672a.789.789,0,0,0-.789.789v1.576a.789.789,0,0,0,1.577,0v-1.576A.788.788,0,0,0,310.117,170.672Zm0,0" transform="translate(-286.366 -158.062)"/><path class="c" d="M139.482,172.138h-3.207v-2.364a.788.788,0,1,0-1.576,0v2.364h-5.124v-3.349a.788.788,0,1,0-1.576,0v10.837a1.973,1.973,0,0,0,1.971,1.97h3.42a.789.789,0,1,0,0-1.577h-3.42a.393.393,0,0,1-.394-.394v-1.971h5.911a.787.787,0,0,0,.787-.787v-3.153h3.207a.788.788,0,1,0,0-1.576Zm-9.907,1.576H134.7v2.364h-5.122Zm0,0" transform="translate(-118.479 -155.587)"/><path class="b" d="M141.2,128H129.773A1.774,1.774,0,0,0,128,129.773v2.955h14.975v-2.955A1.774,1.774,0,0,0,141.2,128Zm0,0" transform="translate(-118.472 -118.542)"/></svg>