<svg xmlns="http://www.w3.org/2000/svg" width="40" height="40" viewBox="0 0 40 40"><defs><style>.a{fill:#fff9dd;}.b{fill:#ffd200;}.c{fill:#ffe777;}</style></defs><path class="a" d="M32.5,40H7.5A7.5,7.5,0,0,1,0,32.5V7.5A7.5,7.5,0,0,1,7.5,0h25A7.5,7.5,0,0,1,40,7.5v25A7.5,7.5,0,0,1,32.5,40Zm0,0"/><path class="b" d="M179,140.166A4.166,4.166,0,1,1,174.838,136,4.166,4.166,0,0,1,179,140.166Zm0,0" transform="translate(-157.338 -125.375)"/><path class="b" d="M139.041,264h-7.084A3.963,3.963,0,0,0,128,267.959v2.916a.625.625,0,0,0,.625.625h13.75a.625.625,0,0,0,.625-.625v-2.916A3.964,3.964,0,0,0,139.041,264Zm0,0" transform="translate(-118 -243.375)"/><path class="c" d="M285.463,192.2l-2.916-2.709a.625.625,0,0,0-1.05.457v1.875h-3.335a.834.834,0,0,0,0,1.667H281.5v1.875a.625.625,0,0,0,1.05.459l2.916-2.709a.623.623,0,0,0,.2-.457A.632.632,0,0,0,285.463,192.2Zm0,0" transform="translate(-255.662 -174.537)"/></svg>