<svg xmlns="http://www.w3.org/2000/svg" width="255.544" height="210.606" viewBox="0 0 255.544 210.606"><g transform="matrix(0.966, -0.259, 0.259, 0.966, -1416.458, -285.182)"><path d="M1446.963,686.541c-.863-.7-1.735-1.374-2.615-2.041L1298.191,830.657q1,1.319,2.041,2.615Z" transform="translate(9.035 9.035)" fill="#a8eeeb"/><path d="M1418.883,675.4c-1.211-.36-2.43-.69-3.652-1L1288.089,801.54c.314,1.221.644,2.441,1,3.652Z" transform="translate(1.41 1.41)" fill="#a8eeeb"/><path d="M1439.448,682.118q-1.451-.895-2.92-1.737L1294.072,822.837q.844,1.471,1.737,2.92Z" transform="translate(5.926 5.926)" fill="#a8eeeb"/><path d="M1430.163,678.382q-1.614-.729-3.25-1.4L1290.669,813.222c.447,1.09.918,2.174,1.4,3.252Z" transform="translate(3.357 3.357)" fill="#a8eeeb"/><path d="M1405.163,673.333c-1.381-.2-2.764-.361-4.15-.5L1286.52,787.323c.142,1.386.307,2.771.5,4.15Z" transform="translate(0.226 0.226)" fill="#a8eeeb"/><path d="M1451.694,690.426c-.388-.39-.784-.767-1.177-1.149L1302.968,836.826c.381.393.76.79,1.149,1.177s.784.769,1.177,1.149L1452.844,691.6C1452.463,691.211,1452.084,690.816,1451.694,690.426Z" transform="translate(12.641 12.641)" fill="#a8eeeb"/><path d="M1388.263,672.53q-2.44.053-4.877.221l-96.944,96.944q-.169,2.438-.221,4.876Z" transform="translate(0 0)" fill="#a8eeeb"/><path d="M1287.658,752.808l78.841-78.841q-3.153.708-6.268,1.613l-70.96,70.96Q1288.365,749.654,1287.658,752.808Z" transform="translate(1.085 1.085)" fill="#a8eeeb"/><path d="M1448.8,738.16q.166-2.435.219-4.877L1346.974,835.324q2.44-.053,4.877-.219Z" transform="translate(45.856 45.856)" fill="#a8eeeb"/><path d="M1455.857,727.675c-.142-1.388-.307-2.771-.5-4.152l-118.14,118.14c1.381.2,2.764.362,4.15.506Z" transform="translate(38.489 38.489)" fill="#a8eeeb"/><path d="M1331.346,680.74a105.138,105.138,0,0,0-36.915,36.916Z" transform="translate(6.197 6.197)" fill="#a8eeeb"/><path d="M1435.986,751.335q.906-3.114,1.613-6.268l-78.841,78.841q3.154-.708,6.268-1.613Z" transform="translate(54.751 54.751)" fill="#a8eeeb"/><path d="M1375.877,799.1a105.186,105.186,0,0,0,36.918-36.918Z" transform="translate(67.672 67.672)" fill="#a8eeeb"/><path d="M1459.8,703.656q-.845-1.469-1.737-2.918L1314.429,844.375c.965.6,1.939,1.174,2.918,1.737Z" transform="translate(21.291 21.291)" fill="#a8eeeb"/><path d="M1457.146,697.3q-1-1.321-2.041-2.616L1308.374,841.414q1.295,1.045,2.615,2.041Z" transform="translate(16.721 16.721)" fill="#a8eeeb"/><path d="M1459.515,718.682c-.314-1.221-.644-2.439-1-3.652l-129.79,129.79c1.211.36,2.43.69,3.652,1Z" transform="translate(32.079 32.079)" fill="#a8eeeb"/><path d="M1460.677,710.742q-.671-1.635-1.4-3.25l-138.09,138.09q1.616.729,3.25,1.4Z" transform="translate(26.389 26.389)" fill="#a8eeeb"/></g></svg>