<svg xmlns="http://www.w3.org/2000/svg" width="29.334" height="29.345" viewBox="0 0 29.334 29.345"><defs><style>.a{fill:#ffd200;}.b{fill:#ffe777;}</style></defs><g transform="translate(-9.52 -9.506)"><path class="a" d="M226.955,255.777l-7.971,7.971a.609.609,0,0,0-.163.293l-1.328,5.637a.608.608,0,0,0,.594.747.588.588,0,0,0,.139-.017l5.637-1.329a.607.607,0,0,0,.291-.162l7.971-7.971Zm0,0" transform="translate(-197.683 -231.574)"/><path class="a" d="M319.282,220.094l-1.723-1.724a2.5,2.5,0,0,0-3.447,0l-2.369,2.369,5.171,5.171,2.369-2.369a2.435,2.435,0,0,0,0-3.447Zm0,0" transform="translate(-281.142 -197.874)"/><path class="b" d="M310.547,170.672a1.22,1.22,0,0,0-1.219,1.219v2.436a1.219,1.219,0,0,0,2.438,0v-2.436A1.219,1.219,0,0,0,310.547,170.672Zm0,0" transform="translate(-279.025 -156.271)"/><path class="b" d="M145.753,174.4h-4.959v-3.656a1.218,1.218,0,1,0-2.437,0V174.4h-7.922v-5.178a1.218,1.218,0,1,0-2.436,0v16.756a3.051,3.051,0,0,0,3.047,3.045h5.288a1.219,1.219,0,1,0,0-2.438h-5.288a.608.608,0,0,1-.609-.609v-3.047h9.139a1.216,1.216,0,0,0,1.217-1.217v-4.875h4.959a1.218,1.218,0,1,0,0-2.436Zm-15.317,2.436h7.92v3.656h-7.92Zm0,0" transform="translate(-118.479 -153.865)"/><path class="a" d="M148.411,128H130.742A2.743,2.743,0,0,0,128,130.742v4.57h23.153v-4.57A2.743,2.743,0,0,0,148.411,128Zm0,0" transform="translate(-118.468 -118.494)"/></g></svg>