<svg xmlns="http://www.w3.org/2000/svg" width="243.136" height="88.653" viewBox="0 0 243.136 88.653"><g transform="translate(-1022.36 -639.002)"><path d="M1022.36,640.812a1.81,1.81,0,1,0,1.811-1.81A1.81,1.81,0,0,0,1022.36,640.812Z" fill="#929493"/><path d="M1042.32,640.812a1.811,1.811,0,1,0,1.81-1.81A1.81,1.81,0,0,0,1042.32,640.812Z" fill="#929493"/><path d="M1062.28,640.812a1.81,1.81,0,1,0,1.81-1.81A1.809,1.809,0,0,0,1062.28,640.812Z" fill="#929493"/><path d="M1082.239,640.812a1.81,1.81,0,1,0,1.811-1.81A1.81,1.81,0,0,0,1082.239,640.812Z" fill="#929493"/><path d="M1102.2,640.812a1.81,1.81,0,1,0,1.81-1.81A1.81,1.81,0,0,0,1102.2,640.812Z" fill="#929493"/><path d="M1122.158,640.812a1.811,1.811,0,1,0,1.811-1.81A1.81,1.81,0,0,0,1122.158,640.812Z" fill="#929493"/><path d="M1142.118,640.812a1.81,1.81,0,1,0,1.81-1.81A1.809,1.809,0,0,0,1142.118,640.812Z" fill="#929493"/><path d="M1162.078,640.812a1.81,1.81,0,1,0,1.81-1.81A1.809,1.809,0,0,0,1162.078,640.812Z" fill="#929493"/><path d="M1182.037,640.812a1.81,1.81,0,1,0,1.811-1.81A1.81,1.81,0,0,0,1182.037,640.812Z" fill="#929493"/><path d="M1202,640.812a1.81,1.81,0,1,0,1.81-1.81A1.81,1.81,0,0,0,1202,640.812Z" fill="#929493"/><path d="M1221.956,640.812a1.81,1.81,0,1,0,1.811-1.81A1.81,1.81,0,0,0,1221.956,640.812Z" fill="#929493"/><path d="M1241.916,640.812a1.81,1.81,0,1,0,1.81-1.81A1.809,1.809,0,0,0,1241.916,640.812Z" fill="#929493"/><path d="M1261.876,640.812a1.81,1.81,0,1,0,1.81-1.81A1.81,1.81,0,0,0,1261.876,640.812Z" fill="#929493"/><path d="M1022.36,657.818a1.81,1.81,0,1,0,1.811-1.81A1.811,1.811,0,0,0,1022.36,657.818Z" fill="#929493"/><path d="M1042.32,657.818a1.811,1.811,0,1,0,1.81-1.81A1.811,1.811,0,0,0,1042.32,657.818Z" fill="#929493"/><path d="M1062.28,657.818a1.81,1.81,0,1,0,1.81-1.81A1.81,1.81,0,0,0,1062.28,657.818Z" fill="#929493"/><path d="M1082.239,657.818a1.81,1.81,0,1,0,1.811-1.81A1.811,1.811,0,0,0,1082.239,657.818Z" fill="#929493"/><path d="M1102.2,657.818a1.81,1.81,0,1,0,1.81-1.81A1.81,1.81,0,0,0,1102.2,657.818Z" fill="#929493"/><path d="M1122.158,657.818a1.811,1.811,0,1,0,1.811-1.81A1.811,1.811,0,0,0,1122.158,657.818Z" fill="#929493"/><path d="M1142.118,657.818a1.81,1.81,0,1,0,1.81-1.81A1.81,1.81,0,0,0,1142.118,657.818Z" fill="#929493"/><path d="M1162.078,657.818a1.81,1.81,0,1,0,1.81-1.81A1.81,1.81,0,0,0,1162.078,657.818Z" fill="#929493"/><path d="M1182.037,657.818a1.81,1.81,0,1,0,1.811-1.81A1.811,1.811,0,0,0,1182.037,657.818Z" fill="#929493"/><path d="M1202,657.818a1.81,1.81,0,1,0,1.81-1.81A1.81,1.81,0,0,0,1202,657.818Z" fill="#929493"/><path d="M1221.956,657.818a1.81,1.81,0,1,0,1.811-1.81A1.811,1.811,0,0,0,1221.956,657.818Z" fill="#929493"/><path d="M1241.916,657.818a1.81,1.81,0,1,0,1.81-1.81A1.81,1.81,0,0,0,1241.916,657.818Z" fill="#929493"/><path d="M1261.876,657.818a1.81,1.81,0,1,0,1.81-1.81A1.81,1.81,0,0,0,1261.876,657.818Z" fill="#929493"/><path d="M1022.36,674.825a1.81,1.81,0,1,0,1.811-1.81A1.81,1.81,0,0,0,1022.36,674.825Z" fill="#929493"/><path d="M1042.32,674.825a1.811,1.811,0,1,0,1.81-1.81A1.81,1.81,0,0,0,1042.32,674.825Z" fill="#929493"/><path d="M1062.28,674.825a1.81,1.81,0,1,0,1.81-1.81A1.809,1.809,0,0,0,1062.28,674.825Z" fill="#929493"/><path d="M1082.239,674.825a1.81,1.81,0,1,0,1.811-1.81A1.81,1.81,0,0,0,1082.239,674.825Z" fill="#929493"/><path d="M1102.2,674.825a1.81,1.81,0,1,0,1.81-1.81A1.81,1.81,0,0,0,1102.2,674.825Z" fill="#929493"/><path d="M1122.158,674.825a1.811,1.811,0,1,0,1.811-1.81A1.81,1.81,0,0,0,1122.158,674.825Z" fill="#929493"/><path d="M1142.118,674.825a1.81,1.81,0,1,0,1.81-1.81A1.809,1.809,0,0,0,1142.118,674.825Z" fill="#929493"/><path d="M1162.078,674.825a1.81,1.81,0,1,0,1.81-1.81A1.809,1.809,0,0,0,1162.078,674.825Z" fill="#929493"/><path d="M1182.037,674.825a1.81,1.81,0,1,0,1.811-1.81A1.81,1.81,0,0,0,1182.037,674.825Z" fill="#929493"/><path d="M1202,674.825a1.81,1.81,0,1,0,1.81-1.81A1.81,1.81,0,0,0,1202,674.825Z" fill="#929493"/><path d="M1221.956,674.825a1.81,1.81,0,1,0,1.811-1.81A1.81,1.81,0,0,0,1221.956,674.825Z" fill="#929493"/><path d="M1241.916,674.825a1.81,1.81,0,1,0,1.81-1.81A1.809,1.809,0,0,0,1241.916,674.825Z" fill="#929493"/><path d="M1261.876,674.825a1.81,1.81,0,1,0,1.81-1.81A1.81,1.81,0,0,0,1261.876,674.825Z" fill="#929493"/><path d="M1022.36,691.831a1.81,1.81,0,1,0,1.811-1.81A1.811,1.811,0,0,0,1022.36,691.831Z" fill="#929493"/><path d="M1042.32,691.831a1.811,1.811,0,1,0,1.81-1.81A1.811,1.811,0,0,0,1042.32,691.831Z" fill="#929493"/><path d="M1062.28,691.831a1.81,1.81,0,1,0,1.81-1.81A1.81,1.81,0,0,0,1062.28,691.831Z" fill="#929493"/><path d="M1082.239,691.831a1.81,1.81,0,1,0,1.811-1.81A1.811,1.811,0,0,0,1082.239,691.831Z" fill="#929493"/><path d="M1102.2,691.831a1.81,1.81,0,1,0,1.81-1.81A1.81,1.81,0,0,0,1102.2,691.831Z" fill="#929493"/><path d="M1122.158,691.831a1.811,1.811,0,1,0,1.811-1.81A1.811,1.811,0,0,0,1122.158,691.831Z" fill="#929493"/><path d="M1142.118,691.831a1.81,1.81,0,1,0,1.81-1.81A1.81,1.81,0,0,0,1142.118,691.831Z" fill="#929493"/><path d="M1162.078,691.831a1.81,1.81,0,1,0,1.81-1.81A1.81,1.81,0,0,0,1162.078,691.831Z" fill="#929493"/><path d="M1182.037,691.831a1.81,1.81,0,1,0,1.811-1.81A1.811,1.811,0,0,0,1182.037,691.831Z" fill="#929493"/><path d="M1202,691.831a1.81,1.81,0,1,0,1.81-1.81A1.81,1.81,0,0,0,1202,691.831Z" fill="#929493"/><path d="M1221.956,691.831a1.81,1.81,0,1,0,1.811-1.81A1.811,1.811,0,0,0,1221.956,691.831Z" fill="#929493"/><path d="M1241.916,691.831a1.81,1.81,0,1,0,1.81-1.81A1.81,1.81,0,0,0,1241.916,691.831Z" fill="#929493"/><path d="M1261.876,691.831a1.81,1.81,0,1,0,1.81-1.81A1.81,1.81,0,0,0,1261.876,691.831Z" fill="#929493"/><path d="M1022.36,708.838a1.81,1.81,0,1,0,1.811-1.811A1.81,1.81,0,0,0,1022.36,708.838Z" fill="#929493"/><path d="M1042.32,708.838a1.811,1.811,0,1,0,1.81-1.811A1.81,1.81,0,0,0,1042.32,708.838Z" fill="#929493"/><path d="M1062.28,708.838a1.81,1.81,0,1,0,1.81-1.811A1.809,1.809,0,0,0,1062.28,708.838Z" fill="#929493"/><circle cx="1.81" cy="1.81" r="1.81" transform="translate(1082.239 707.027)" fill="#929493"/><circle cx="1.81" cy="1.81" r="1.81" transform="translate(1102.199 707.027)" fill="#929493"/><circle cx="1.81" cy="1.81" r="1.81" transform="translate(1122.158 707.027)" fill="#929493"/><path d="M1142.118,708.838a1.81,1.81,0,1,0,1.81-1.811A1.809,1.809,0,0,0,1142.118,708.838Z" fill="#929493"/><path d="M1162.078,708.838a1.81,1.81,0,1,0,1.81-1.811A1.809,1.809,0,0,0,1162.078,708.838Z" fill="#929493"/><path d="M1182.037,708.838a1.81,1.81,0,1,0,1.811-1.811A1.81,1.81,0,0,0,1182.037,708.838Z" fill="#929493"/><path d="M1202,708.838a1.81,1.81,0,1,0,1.81-1.811A1.81,1.81,0,0,0,1202,708.838Z" fill="#929493"/><path d="M1221.956,708.838a1.81,1.81,0,1,0,1.811-1.811A1.81,1.81,0,0,0,1221.956,708.838Z" fill="#929493"/><path d="M1241.916,708.838a1.81,1.81,0,1,0,1.81-1.811A1.809,1.809,0,0,0,1241.916,708.838Z" fill="#929493"/><path d="M1261.876,708.838a1.81,1.81,0,1,0,1.81-1.811A1.81,1.81,0,0,0,1261.876,708.838Z" fill="#929493"/><path d="M1022.36,725.844a1.81,1.81,0,1,0,1.811-1.81A1.811,1.811,0,0,0,1022.36,725.844Z" fill="#929493"/><path d="M1042.32,725.844a1.811,1.811,0,1,0,1.81-1.81A1.811,1.811,0,0,0,1042.32,725.844Z" fill="#929493"/><path d="M1062.28,725.844a1.81,1.81,0,1,0,1.81-1.81A1.81,1.81,0,0,0,1062.28,725.844Z" fill="#929493"/><path d="M1082.239,725.844a1.81,1.81,0,1,0,1.811-1.81A1.811,1.811,0,0,0,1082.239,725.844Z" fill="#929493"/><path d="M1102.2,725.844a1.81,1.81,0,1,0,1.81-1.81A1.81,1.81,0,0,0,1102.2,725.844Z" fill="#929493"/><path d="M1122.158,725.844a1.811,1.811,0,1,0,1.811-1.81A1.811,1.811,0,0,0,1122.158,725.844Z" fill="#929493"/><path d="M1142.118,725.844a1.81,1.81,0,1,0,1.81-1.81A1.81,1.81,0,0,0,1142.118,725.844Z" fill="#929493"/><path d="M1162.078,725.844a1.81,1.81,0,1,0,1.81-1.81A1.81,1.81,0,0,0,1162.078,725.844Z" fill="#929493"/><path d="M1182.037,725.844a1.81,1.81,0,1,0,1.811-1.81A1.811,1.811,0,0,0,1182.037,725.844Z" fill="#929493"/><path d="M1202,725.844a1.81,1.81,0,1,0,1.81-1.81A1.81,1.81,0,0,0,1202,725.844Z" fill="#929493"/><path d="M1221.956,725.844a1.81,1.81,0,1,0,1.811-1.81A1.811,1.811,0,0,0,1221.956,725.844Z" fill="#929493"/><path d="M1241.916,725.844a1.81,1.81,0,1,0,1.81-1.81A1.81,1.81,0,0,0,1241.916,725.844Z" fill="#929493"/><path d="M1261.876,725.844a1.81,1.81,0,1,0,1.81-1.81A1.81,1.81,0,0,0,1261.876,725.844Z" fill="#929493"/></g></svg>