<svg xmlns="http://www.w3.org/2000/svg" width="113.998" height="95.961" viewBox="0 0 113.998 95.961"><g transform="translate(0.001)"><path d="M90.619,0H23.378A23.4,23.4,0,0,0,0,23.378V60.994A23.4,23.4,0,0,0,23.378,84.373h3.469l8.131,10.316a3.34,3.34,0,0,0,5.246,0l8.131-10.316H90.619A23.4,23.4,0,0,0,114,60.994V23.378A23.4,23.4,0,0,0,90.619,0Zm0,0" transform="translate(0)" fill="#6787f5"/><path d="M289.62,0H256V84.373h33.62A23.4,23.4,0,0,0,313,60.994V23.378A23.4,23.4,0,0,0,289.62,0Zm0,0" transform="translate(-199.002)" fill="#38478a"/><path d="M199.758,383.868l3.88-4.923Zm0,0" transform="translate(-155.282 -294.573)" fill="#fff"/><path d="M114,27.443H85.917l20.9-20.9A23.3,23.3,0,0,0,90.62,0h-5.6L71.748,13.273V0h-29.5V13.273L28.978,0h-5.6a23.3,23.3,0,0,0-16.2,6.54l20.9,20.9H0v29.5H28.082L7.963,77.057l-.78.78a23.3,23.3,0,0,0,16.2,6.535h3.469l.943,1.2,14.1-14.1-.229,12.907H71.747V71.146L84.931,84.373H90.62a23.294,23.294,0,0,0,16.141-6.482l-.786-.79L85.88,56.94H114Zm0,0" transform="translate(-0.001 0)" fill="#fff"/><path d="M313,27.443H284.918l20.9-20.9A23.3,23.3,0,0,0,289.62,0h-5.6L270.749,13.273V0H256V84.373h14.748V71.146l13.183,13.227h5.689a23.294,23.294,0,0,0,16.141-6.482l-.786-.79L284.881,56.94H313Zm0,0" transform="translate(-199.002 0)" fill="#c7d3ed"/><path d="M65.067,34.122V0H48.93V34.122H0V50.26H48.93l-.574,34.113H65.067V50.26H114V34.122Zm0,0" fill="#ff337a"/><path d="M264.068,34.122V0H256V84.373h8.069V50.26H313V34.122Zm0,0" transform="translate(-199.002)" fill="#d1005b"/><path d="M88.746,30.621V25.9L64.073,1.226a23.193,23.193,0,0,0-7.124,2.322L84.023,30.621Zm0,0" transform="translate(-44.27 -0.953)" fill="#ff337a"/><path d="M344.038,3.549a23.193,23.193,0,0,0-7.124-2.322L312.242,25.9v4.723h4.723Zm0,0" transform="translate(-242.721 -0.953)" fill="#d1005b"/><path d="M56.977,272.8a23.225,23.225,0,0,0,7.126,2.32l24.665-24.666v-4.723H84.044Zm0,0" transform="translate(-44.291 -191.022)" fill="#ff337a"/><path d="M312.242,245.734v4.737l24.58,24.664a23.218,23.218,0,0,0,7.141-2.3l-27.012-27.1Zm0,0" transform="translate(-242.721 -191.021)" fill="#d1005b"/></g></svg>