<svg xmlns="http://www.w3.org/2000/svg" xmlns:xlink="http://www.w3.org/1999/xlink" width="154" height="153" viewBox="0 0 154 153"><defs><clipPath id="a"><rect width="154" height="153" transform="translate(-0.267 -0.232)" fill="#fff" stroke="#707070" stroke-width="1"/></clipPath></defs><g transform="translate(-870.732 -285.768)"><path d="M244.285,484.737s-42.715-41.18-24.451-66.844c15.015-21.1,35.422-25.245,51.276-12.538,6.753,5.412-1.313,4.128,21.406-21.619,29.507-33.438,63.085-14.9,48.8,51.952-6.912,32.352,8.764,16.1-5.476,48.442Z" transform="translate(664.975 -46.036)" fill="#ebf3fa"/><g transform="translate(871 286)"><g transform="translate(0 0)" clip-path="url(#a)"><g transform="translate(21.62 22.894)"><path d="M-289.957,1205.906s4.344,9.385,4.111,11.945-4.111,10.7-4.111,10.7L-294.645,1207Z" transform="translate(412.325 -1008.488)" fill="#ffb27d"/><path d="M-308.434,1116.459l3.413,40.341-4.688,1.093-12.375-36.586Z" transform="translate(427.389 -959.381)" fill="#ffb27d"/><path d="M-515.425,795.674l46.589-27.5,32,22.428-44.333,25.847Z" transform="translate(533.533 -768.173)" fill="#233862"/><path d="M-494.739,841.147a15.718,15.718,0,0,1-7.707,10.265c-6.516,3.49-12.1,4.513-10.7,15.752s-6.282,13.8-7.679,21.244-1.224,21.054,17.452,16.986,61.441-1.164,66.089-7.213,1.391-18.615-6.521-28.155,2.559-15.781-1.164-24.179-10.865-17.039-10.865-17.039S-486.567,822.971-494.739,841.147Z" transform="translate(536.782 -800.972)" fill="#132644"/><path d="M-442.79,1543.384l6.3,26.541,9.439-.054.346-26.487Z" transform="translate(493.656 -1193.762)" fill="#ffb27d"/><path d="M-266.743,1541.64l17.93,25.409,6.988-8.973-10.791-19.93Z" transform="translate(397.007 -1190.887)" fill="#ffb27d"/><path d="M-414.838,922.072c.065.029-1.154,29.547-6.214,29.6-1.061.011-8.885-20.669-9.882-20.941-5.411-1.476-6.173-14.718-6.1-14.734,2.292-.455,2.953-3.6,2.9-17.137l1.036.2,17.42,3.449s-.4,5.482-.408,10.646C-416.095,917.5-415.832,921.609-414.838,922.072Z" transform="translate(490.499 -839.92)" fill="#ffb27d"/><g transform="translate(0 26.738)"><g transform="translate(4.727)"><path d="M-544.526,853.257l-.567-1.191c12.674-6.031,13.355-20.286,13.337-23.581a1.06,1.06,0,0,1,.633-.975h0a.583.583,0,0,1,.819.538C-530.33,831.88-531.307,846.967-544.526,853.257Z" transform="translate(545.093 -827.459)" fill="#efcbab"/></g><path d="M-547.245,882.02l-1.768.278,1.016,2.038,1.319-1.125Z" transform="translate(551.973 -857.413)" fill="#d8a987"/><path d="M-552.616,882.636s-2.337,1.063-2.959.465c0,0,.27,2.072,1.225,2.479a6.876,6.876,0,0,0,2.751-.906Z" transform="translate(555.575 -857.751)" fill="#efcbab"/></g><path d="M-410.872,902.762s-.4,5.482-.408,10.646c-9.748-.274-14.9-9.167-17.011-14.1Z" transform="translate(485.697 -840.169)" fill="#ef9e67"/><path d="M-448.572,854.916s-6.6-6.9-9.168-13.426c-1.832-4.657-2.981-23.057,15.531-24.1a24.939,24.939,0,0,1,10.91,1.789c4.438,1.851,11.224,6.411,8.069,23.3l-.574,5.607Z" transform="translate(502.392 -795.161)" fill="#132644"/><path d="M-336.995,1324.848s-4.63.8-8.431,1.089c-.844.064-1.646.1-2.347.1a41.368,41.368,0,0,1-7.342-1.2l-.165-.038c-.972-.23-1.714-.418-1.989-.49l-.117-.03s-23.089-25.7-36.036-66.9q-.452-1.441-.957-2.909c-7.09-20.667-21.781-46.6-29.523-70.084q-1.848-5.606-3.33-10.589-.48-1.6-.923-3.146c-5.707-19.826-7.357-32.842-8.879-46.75l46.551,11.844S-370.94,1220.464-336.995,1324.848Z" transform="translate(490.497 -963.463)" fill="#a53d38"/><path d="M-417.642,867.834s-22.533,4.93-25.387-9.149-7.685-22.926,6.581-26.669,18.159,1.061,20.255,5.529S-411.854,866.188-417.642,867.834Z" transform="translate(495.515 -802.485)" fill="#ffb27d"/><path d="M-432.98,825.947s-2.859,17.769-11.867,22.127-13.641,2.643-13.641,2.643a27.439,27.439,0,0,0,5.6-17.666S-439.234,819.025-432.98,825.947Z" transform="translate(502.274 -798.837)" fill="#132644"/><path d="M-404.732,827.592s5.366,2.757,7.216,6.115,5.7,4.55,5.946,9.954c0,0,2.4-12.17-4.121-17.466C-402.606,820.58-404.732,827.592-404.732,827.592Z" transform="translate(472.763 -798.831)" fill="#132644"/><path d="M-431.162,1598.943a25.579,25.579,0,0,1-1.2,10.881s-1.545,7.039,5.387,7.17,8.633-.523,7.848-4.84-2.278-11.782-2.278-11.782Z" transform="translate(488.013 -1224.264)" fill="#ffb27d"/><path d="M-433.1,1622.851s-1.284,6.647-.5,10.179c0,0,2.093,1.569,7.129,1.569,4.774,0,7.259-1.569,7.259-1.569s.147-7.284-1.128-10.358C-420.34,1622.672-425.253,1630.046-433.1,1622.851Z" transform="translate(488.751 -1237.292)" fill="#c45446"/><path d="M-206.356,1603.743s-12.781-14.186-16.705-21.4l-9.5,4.869,21.245,19.952,4.97-.654Z" transform="translate(378.243 -1215.148)" fill="#ffb27d"/><path d="M-201.17,1617.985s-13.735,0-16.089-.263-4.25-3.661-6.8-8.762c-1.044-2.088-3.387-3.238-5.788-3.869v11.815h-3.63l-3.434-12.557c-2.264-4.16-.18-7.931,1.413-11.215,1.852,0,6.836,1.263,16.277,11.9,3.1,3.493,6.53,4.74,9.932,4.635a.839.839,0,0,0,.141.075C-201.3,1613.277-201.17,1617.985-201.17,1617.985Z" transform="translate(381.176 -1221.075)" fill="#c45446"/><path d="M-334.618,1375.237c-.844.063-1.646.1-2.347.1a41.323,41.323,0,0,1-7.342-1.2l-.165-.038-1.989-.49-.117-.03s-23.089-25.7-36.036-66.9q-.452-1.441-.957-2.908c-7.09-20.667-21.782-46.6-29.523-70.084q-1.848-5.605-3.33-10.589-.48-1.6-.923-3.145l8.231-6.25s24.72,40.026,32.371,77.694C-370.4,1322.61-343.094,1363.088-334.618,1375.237Z" transform="translate(479.689 -1012.763)" fill="#912f2f"/><path d="M-445.154,1281.967c.14,18.315-.787,60.428-3.172,77.867,0,0-2.263,2-7.873,2.025-5.745.023-8.314-2.1-8.314-2.1-5.986-30.314-10.243-55.4-13.343-77.012-2.543-17.736-4.8-32.944-6.54-46.034-1.541-11.6,8.193-43.013,8.193-43.013l36.541-3.564C-440.272,1222.235-445.233,1271.321-445.154,1281.967Z" transform="translate(516.589 -999.832)" fill="#a53d38"/><path d="M-456.2,1366.2a14.279,14.279,0,0,1-8.314-2.1c-5.986-30.314-10.243-55.4-13.343-77.012-2.543-17.736-4.8-32.943-6.54-46.034-1.541-11.6,8.193-43.013,8.193-43.013l12.386,7.922s-17.57,15.984-13.253,46.2S-462.208,1361.917-456.2,1366.2Z" transform="translate(516.589 -1004.17)" fill="#912f2f"/><path d="M-347.015,1028.873a42.866,42.866,0,0,1-7.4,1.587c-4.049.591-8,.972-10.531,2.117-7.465,3.388-25.572-96.586-25.572-96.586s13.18.125,19.229,9.661,29.592,56.635,31.687,71.731C-338.662,1024.169-342.18,1027.24-347.015,1028.873Z" transform="translate(464.959 -860.305)" fill="#1c468a"/><path d="M-383.154,1162.917a33.423,33.423,0,0,1-4.533,7.269,53.5,53.5,0,0,1-6.641,7.022c-7.4,6.552-19.206,13.645-37.43,17.163-.968.186-1.95.362-2.955.53-5.491.908-10.769,1.559-15.795,2a203.68,203.68,0,0,1-27.224.582c-5.352-.247-10.056-.689-14.007-1.182a113.411,113.411,0,0,1-14.017-2.485s0-90.346,7.446-143.994c4.123-29.709,17.949-114.211,17.949-114.211l6.873-1.056,16.479,36.713,3.225-36.066,7.492,2.406a11.2,11.2,0,0,1,7.437,7.925Z" transform="translate(528.224 -859.517)" fill="#1c468a"/><g transform="translate(51.7 105.166)"><path d="M-398.235,1061.043l-38.234-3.877,6.2-55.4,38.235,3.877Z" transform="translate(438.486 -1001.582)" fill="#bc3f3f"/><path d="M-432.726,1001.542l-2.453-.185-5.762,55.354,2.017.23Z" transform="translate(440.941 -1001.356)" fill="#9b2323"/></g><path d="M-497.517,1065.071s26.845,8.205,52.5,11.873c0,0,8.467,3.661,4.491,4.663-1.019.257-52.4,11.46-60.016,4.191Z" transform="translate(525.361 -931.17)" fill="#ffb27d"/><path d="M-481.378,934.559s-20.085,2.43-23.465,6.486c-10.685,12.823-20.372,67.572-12,80.214,10.005,15.1,25.417-8.6,30.249-22.558C-484.084,991.461-480,947.722-481.378,934.559Z" transform="translate(536.05 -859.519)" fill="#1c468a"/><path d="M-383.887,1082.963s3.155-.294,3.754-1.3c1.2-2.016,3.089-1.99,4.667-2.256s3.35-1.993,3.664-1.646-1.163,2.252-1.988,2.962a6.892,6.892,0,0,0,2.813-.431c1.12-.533,5.054-5.023,5.073-3.09.044,4.654-.315,5.4-4.3,8.687-3.274,2.7-14.383,3.705-14.383,3.705Z" transform="translate(461.704 -937.564)" fill="#ffb27d"/><path d="M-449.9,1038.271l-.782,7.865a27.051,27.051,0,0,1-4.374-1.377c-11.015-4.407-6.669-26.3-6.669-26.3C-460.006,1027.214-454.486,1033.981-449.9,1038.271Z" transform="translate(504.515 -905.578)" fill="#233862"/><path d="M-423.453,820.052s-16.286-6.185-38.9,12.338l.463-4.232a13.666,13.666,0,0,1,5.418-9.5c3.447-2.556,8.94-5.373,17.193-6.537a15.362,15.362,0,0,1,14.646,6.28Z" transform="translate(504.397 -792.215)" fill="#1c468a"/><path d="M-315.932,1087.1a42.865,42.865,0,0,1-7.4,1.587l-10.568-46.635S-316.118,1077.9-315.932,1087.1Z" transform="translate(433.875 -918.534)" fill="#233862"/><path d="M-400.8,894.448s1.041,2,2.564,2.015,5.413-.38,5.693-.734a19.007,19.007,0,0,0,1.021-2.479S-397.923,893.132-400.8,894.448Z" transform="translate(470.606 -836.839)" fill="#fff"/></g></g></g></g></svg>