<svg xmlns="http://www.w3.org/2000/svg" width="127.803" height="86.486" viewBox="0 0 127.803 86.486"><g transform="translate(0 -78.624)"><path d="M321.549,317.919V332.47c0,4.942-13.178,9.06-29.376,9.06s-29.1-3.981-29.1-8.923V330.96l-.275-11.531h.137c2.2,4.255,14.276,7.55,28.827,7.55s29.514-4.118,29.514-9.06h.275Z" transform="translate(-193.746 -176.42)" fill="#e2a63b"/><path d="M205.069,112.074v14.414h-.275c0,5.079-13.59,9.06-29.651,9.06a70.45,70.45,0,0,1-18.532-2.059l-.275.275a32.075,32.075,0,0,0-10.158-5.628v-.275l-.412-15.237c.961,4.667,13.727,8.374,29.239,8.374s29.788-3.981,29.788-8.923Z" transform="translate(-107.467 -24.661)" fill="#f4b844"/><path d="M205.07,87.688h0c0,4.942-13.59,8.923-29.788,8.923s-28.416-3.706-29.376-8.374c0-.137-.137-.412-.137-.549,0-4.942,13.178-9.06,29.514-9.06C191.617,78.491,205.07,82.609,205.07,87.688Z" transform="translate(-107.468 0)" fill="#fedb41"/><path d="M262.163,279.371h0l-.137-3.02L261.751,264c.961,4.667,13.727,8.374,29.239,8.374s29.239-3.981,29.651-8.786h.137v14.277H320.5c0,4.942-13.316,9.06-29.514,9.06S264.359,283.626,262.163,279.371Z" transform="translate(-192.976 -136.362)" fill="#f4b844"/><path d="M188.608,323.234a29.455,29.455,0,0,0,8.1-12.629h.686c3.02.275,6.04.412,9.335.412H208.1v3.02l.275,11.531h-1.51a71.13,71.13,0,0,1-17.845-1.922Z" transform="translate(-139.051 -171.028)" fill="#e2a63b"/><path d="M231.349,255.965v.686l.275,12.766H230.25c-3.432,0-6.589-.137-9.609-.412h-.686a28.17,28.17,0,0,0,1.373-8.923,27.783,27.783,0,0,0-.686-5.9h.686c2.883.275,5.766.412,8.923.412l1.235.686A1.492,1.492,0,0,0,231.349,255.965Z" transform="translate(-162.162 -129.429)" fill="#f4b844"/><path d="M186.271,173.932a70.451,70.451,0,0,0,18.532,2.059c16.061,0,29.651-3.981,29.651-9.06h.275v16.2c-14.963,0-27.18,3.569-28.69,8.1l-1.235-.686q-4.53,0-8.648-.412h-.686A27.708,27.708,0,0,0,186,174.069Z" transform="translate(-137.126 -65.104)" fill="#e2a63b"/><g transform="translate(0 101.551)"><path d="M58.617,189.358h0a30.046,30.046,0,0,0-9.746-16.335,26.084,26.084,0,0,0-10.433-5.766,26.517,26.517,0,0,0-8.648-1.373,29.515,29.515,0,1,0-.549,59.027,30.112,30.112,0,0,0,20.316-7.825,29.81,29.81,0,0,0,8.236-13.041,27.338,27.338,0,0,0,1.373-8.786C59.166,193.338,58.617,191.279,58.617,189.358Z" transform="translate(0 -165.883)" fill="#fedb41"/><path d="M320.641,237.5v.275c-.412,4.8-13.727,8.786-29.651,8.786s-28.279-3.706-29.239-8.374V237.5a1.742,1.742,0,0,1,.137-.824c1.51-4.53,13.727-8.1,28.69-8.1h.412C307.189,228.581,320.641,232.562,320.641,237.5Z" transform="translate(-192.976 -212.107)" fill="#fedb41"/></g><path d="M85.245,213.648a4.53,4.53,0,1,1,4.53-4.53,2.745,2.745,0,0,0,5.491,0,10.132,10.132,0,0,0-7.276-9.609v-1.1a2.745,2.745,0,1,0-5.491,0v1.1a9.586,9.586,0,0,0-7.276,9.609,10.077,10.077,0,0,0,10.021,10.021,4.53,4.53,0,0,1,0,9.06h0a4.57,4.57,0,0,1-4.53-4.53,2.745,2.745,0,0,0-5.491,0,10.007,10.007,0,0,0,7.276,9.609v2.2a2.745,2.745,0,1,0,5.491,0v-2.2a9.9,9.9,0,0,0,6.726-12.492A10.009,10.009,0,0,0,85.245,213.648Z" transform="translate(-55.456 -86.288)" fill="#e2a63b"/></g></svg>