<svg xmlns="http://www.w3.org/2000/svg" width="116.967" height="105.506" viewBox="0 0 116.967 105.506"><g transform="translate(0 0)"><path d="M105.518,87.356c0-23.227,12.031-39.177,12.031-50.369s-6.434-34.7-57.921-34.7S.583,33.912.583,46.222C.583,103.867,105.518,128.491,105.518,87.356Z" transform="translate(-0.583 -2.29)" fill="#fff3dd"/></g><g transform="translate(92.064 35.963)"><path d="M33.037,23.074a5.037,5.037,0,1,1,5.037-5.037A5.043,5.043,0,0,1,33.037,23.074Zm0-6.716a1.679,1.679,0,1,0,1.679,1.679A1.682,1.682,0,0,0,33.037,16.358Z" transform="translate(-28 -13)" fill="#efb780"/></g><g transform="translate(20.708 14.976)"><path d="M55.44,65.749V13.466A6.714,6.714,0,0,0,48.724,6.75H13.466A6.714,6.714,0,0,0,6.75,13.466V65.749a6.714,6.714,0,0,0,6.716,6.716H48.724A6.714,6.714,0,0,0,55.44,65.749Z" transform="translate(-6.75 -6.75)" fill="#f3f3f1"/></g><g transform="translate(57.646 51.914)"><circle cx="19.308" cy="19.308" r="19.308" transform="translate(0 0)" fill="#ffc68c"/></g><g transform="translate(34.946 31.766)"><path d="M35.369,26.021A14.294,14.294,0,0,1,10.99,36.129L21.1,26.021V11.75A14.259,14.259,0,0,1,35.369,26.021Z" transform="translate(-10.99 -11.75)" fill="#f5c891"/></g><g transform="translate(30.782 31.766)"><path d="M24.021,11.75V26.021L13.914,36.129A14.294,14.294,0,0,1,24.021,11.75Z" transform="translate(-9.75 -11.75)" fill="#f5c891"/></g><g transform="translate(20.708 14.976)"><path d="M14.305,65.749V13.466A6.714,6.714,0,0,1,21.021,6.75H13.466A6.714,6.714,0,0,0,6.75,13.466V65.749a6.714,6.714,0,0,0,6.716,6.716h7.555A6.714,6.714,0,0,1,14.305,65.749Z" transform="translate(-6.75 -6.75)" fill="#f5c891"/></g><g transform="translate(57.646 51.914)"><path d="M25.305,37.058a19.309,19.309,0,0,1,15.53-18.932,19.307,19.307,0,1,0-3.778,38.24,19.192,19.192,0,0,0,3.778-.376A19.309,19.309,0,0,1,25.305,37.058Z" transform="translate(-17.75 -17.75)" fill="#ff7f3b"/></g><g transform="translate(34.946 31.766)"><path d="M18.545,36.129,28.653,26.021V13.953a14.166,14.166,0,0,0-7.555-2.2V26.021L10.99,36.129a13.948,13.948,0,0,0,13.872,3.6A14.17,14.17,0,0,1,18.545,36.129Z" transform="translate(-10.99 -11.75)" fill="#ff7f3b"/></g><g transform="translate(30.782 31.766)"><path d="M17.305,26.021a14.215,14.215,0,0,1,6.716-12.068v-2.2A14.294,14.294,0,0,0,13.914,36.129l4.516-4.516A14.292,14.292,0,0,1,17.305,26.021Z" transform="translate(-9.75 -11.75)" fill="#ff7f3b"/></g><g transform="translate(18.19 12.458)"><path d="M33.7,76.516H15.234A9.242,9.242,0,0,1,6,67.282V15.234A9.242,9.242,0,0,1,15.234,6H50.493a9.242,9.242,0,0,1,9.234,9.234V33.7H54.69V15.234a4.2,4.2,0,0,0-4.2-4.2H15.234a4.2,4.2,0,0,0-4.2,4.2V67.282a4.2,4.2,0,0,0,4.2,4.2H33.7Z" transform="translate(-6 -6)"/></g><g transform="translate(74.435 61.987)"><path d="M31.152,39.423,23.6,32.708a2.529,2.529,0,0,1-.846-1.884V20.75h5.037v8.942L34.5,35.656Z" transform="translate(-22.75 -20.75)"/></g><g transform="translate(55.127 49.395)"><path d="M38.827,60.653A21.827,21.827,0,1,1,60.653,38.827,21.852,21.852,0,0,1,38.827,60.653Zm0-38.616a16.79,16.79,0,1,0,16.79,16.79A16.809,16.809,0,0,0,38.827,22.037Z" transform="translate(-17 -17)"/></g><g transform="translate(28.264 29.248)"><path d="M25.79,44.579a16.79,16.79,0,1,1,16.79-16.79,12.71,12.71,0,0,1-.175,2.223l-4.96-.886a7.592,7.592,0,0,0,.1-1.336A11.753,11.753,0,1,0,25.79,39.542a11.193,11.193,0,0,0,4.09-.732L31.71,43.5A16.149,16.149,0,0,1,25.79,44.579Z" transform="translate(-9 -11)"/></g><g transform="translate(33.166 31.766)"><path d="M14.023,37.908,10.46,34.345l9.369-9.369V11.75h5.037V26.021a2.508,2.508,0,0,1-.739,1.78Z" transform="translate(-10.46 -11.75)"/></g></svg>