<svg xmlns="http://www.w3.org/2000/svg" width="89.875" height="89.875" viewBox="0 0 89.875 89.875"><path d="M44.938,0A44.938,44.938,0,1,1,0,44.938,44.938,44.938,0,0,1,44.938,0Z" transform="translate(0 0)" fill="#f4b844"/><circle cx="33.864" cy="33.864" r="33.864" transform="translate(11.073 11.073)" fill="#fedb41"/><path d="M179.38,123.764a5.805,5.805,0,1,1,5.805-5.805,2.15,2.15,0,0,0,4.3,0,10.106,10.106,0,0,0-7.955-9.783V105.6a2.15,2.15,0,1,0-4.3,0v2.58a10.106,10.106,0,0,0,2.15,19.889,5.805,5.805,0,1,1-5.805,5.805,2.15,2.15,0,0,0-4.3,0,10,10,0,0,0,7.955,9.783v3.87a2.15,2.15,0,1,0,4.3,0v-3.87a10.106,10.106,0,0,0-2.15-19.889Z" transform="translate(-134.442 -82.159)" fill="#f4b844"/></svg>