<?xml version="1.0" encoding="utf-8"?>
<!-- Generator: Adobe Illustrator 21.0.0, SVG Export Plug-In . SVG Version: 6.00 Build 0)  -->
<svg version="1.1" id="Layer_1" xmlns="http://www.w3.org/2000/svg" xmlns:xlink="http://www.w3.org/1999/xlink" x="0px" y="0px"
	 viewBox="0 0 841.9 595.3" style="enable-background:new 0 0 841.9 595.3;" xml:space="preserve">
<style type="text/css">
	.st0{fill:#FFFFFF;}
	.st1{fill:#34E6FF;}
</style>
<g>
	
		<image style="overflow:visible;opacity:0.29;" width="708" height="452" xlink:href="A80DDB13.png"  transform="matrix(1 0 0 1 66 49)">
	</image>
	<g>
		<path class="st0" d="M708.4,470.6H137.2c-21.1,0-38.1-17.1-38.1-38.1V118c0-21.1,17.1-38.1,38.1-38.1h571.1
			c21.1,0,38.1,17.1,38.1,38.1v314.4C746.5,453.5,729.4,470.6,708.4,470.6z"/>
	</g>
</g>
<path class="st1" d="M670.2,265.4h-96.9c-16.5,0-29.9-13.4-29.9-29.9v-96.9c0-16.5,13.4-29.9,29.9-29.9h96.9
	c16.5,0,29.9,13.4,29.9,29.9v96.9C700.1,252.1,686.7,265.4,670.2,265.4z"/>
</svg>
