<svg xmlns="http://www.w3.org/2000/svg" width="54.699" height="54.701" viewBox="0 0 54.699 54.701"><g transform="translate(-19283.684 -21786)"><path d="M820.6,673.774h0a27.35,27.35,0,0,1-27.35-27.351h0a27.35,27.35,0,0,1,27.35-27.35h0a27.35,27.35,0,0,1,27.35,27.35h0A27.35,27.35,0,0,1,820.6,673.774Z" transform="translate(18490.434 21166.928)" fill="#f8f8f8"/><g transform="translate(19298.002 21800)"><path d="M18.961,0H7.037A7.046,7.046,0,0,0,0,7.038V18.962A7.046,7.046,0,0,0,7.037,26H18.961A7.046,7.046,0,0,0,26,18.962V7.038A7.046,7.046,0,0,0,18.961,0ZM13,20.109A7.109,7.109,0,1,1,20.108,13,7.117,7.117,0,0,1,13,20.109ZM20.278,7.567a2.1,2.1,0,1,1,2.1-2.1A2.1,2.1,0,0,1,20.278,7.567Zm0,0" fill="#262738"/><path d="M151.6,146.02a5.585,5.585,0,1,0,5.585,5.585A5.591,5.591,0,0,0,151.6,146.02Zm0,0" transform="translate(-138.606 -138.605)" fill="#262738"/><path d="M388.569,96.3a.576.576,0,1,0,.577.576A.577.577,0,0,0,388.569,96.3Zm0,0" transform="translate(-368.291 -91.411)" fill="#262738"/></g></g></svg>