<svg xmlns="http://www.w3.org/2000/svg" width="54.699" height="54.701" viewBox="0 0 54.699 54.701"><g transform="translate(-19557.799 -21786)"><path d="M820.6,673.774h0a27.35,27.35,0,0,1-27.35-27.351h0a27.35,27.35,0,0,1,27.35-27.35h0a27.35,27.35,0,0,1,27.35,27.35h0A27.35,27.35,0,0,1,820.6,673.774Z" transform="translate(18764.549 21166.928)" fill="#f8f8f8"/><g transform="translate(19571.107 21799.207)"><path d="M833.415,633.073a2.06,2.06,0,0,1,1.489.6,1.939,1.939,0,0,1,.615,1.439v24.246a1.883,1.883,0,0,1-.615,1.422,2.051,2.051,0,0,1-1.457.582H809.421a2.045,2.045,0,0,1-1.457-.582,1.88,1.88,0,0,1-.615-1.422V635.109a1.935,1.935,0,0,1,.615-1.439,2.058,2.058,0,0,1,1.49-.6h23.961Zm-17.906,8.55a2.261,2.261,0,0,0,0-3.168,2.356,2.356,0,0,0-1.716-.629,2.415,2.415,0,0,0-1.732.629,2.1,2.1,0,0,0-.664,1.584,2.116,2.116,0,0,0,.648,1.584,2.309,2.309,0,0,0,1.684.63h.032A2.392,2.392,0,0,0,815.509,641.623ZM815.9,644h-4.242v12.77H815.9Zm15.316,5.431a6.187,6.187,0,0,0-1.392-4.331,5.035,5.035,0,0,0-6.055-.68,5,5,0,0,0-1.263,1.391V644h-4.242q.031.743,0,6.821v5.948H822.5v-7.145a3.171,3.171,0,0,1,.129-1.034,2.576,2.576,0,0,1,.777-1.066,2.152,2.152,0,0,1,1.425-.485,1.868,1.868,0,0,1,1.651.808,3.767,3.767,0,0,1,.486,2.07v6.853h4.242Z" transform="translate(-807.349 -633.073)" fill="#303143"/></g></g></svg>