<svg xmlns="http://www.w3.org/2000/svg" width="60.475" height="60.475" viewBox="0 0 60.475 60.475"><defs><style>.a{fill:#fdbf5e;}.b{fill:#193651;}.c{fill:#fff;}.d{fill:#4fbf9f;}.e{fill:#f16051;}</style></defs><rect class="a" width="42.994" height="58.49" transform="translate(6.614 0.945)"/><path class="b" d="M90.484,60.474H47.49a.893.893,0,0,1-.945-.945V.945A.893.893,0,0,1,47.49,0H90.484a.893.893,0,0,1,.945.945V59.53A1.016,1.016,0,0,1,90.484,60.474Zm-42.049-1.89h41.1V1.89h-41.1Z" transform="translate(-40.876)"/><g transform="translate(0.945 4.79)"><rect class="c" width="35.434" height="50.931" transform="translate(9.384)"/><path class="c" d="M16.546,65.164H10.309a2.551,2.551,0,0,0,0,5.1h6.142A2.541,2.541,0,0,0,19,67.715,2.406,2.406,0,0,0,16.546,65.164Z" transform="translate(-7.758 -62.016)"/></g><path class="b" d="M9.733,64.4H3.5A3.488,3.488,0,0,1,0,60.9a3.55,3.55,0,0,1,3.5-3.5H9.638A3.5,3.5,0,0,1,9.733,64.4ZM3.5,59.3a1.606,1.606,0,0,0,0,3.213H9.638a1.606,1.606,0,0,0,0-3.213Z" transform="translate(0 -50.414)"/><path class="c" d="M16.546,172.994H10.309a2.551,2.551,0,0,0,0,5.1h6.142A2.541,2.541,0,0,0,19,175.545,2.406,2.406,0,0,0,16.546,172.994Z" transform="translate(-6.813 -151.922)"/><path class="b" d="M9.733,172.323H3.5A3.57,3.57,0,0,1,0,168.732a3.488,3.488,0,0,1,3.5-3.5H9.638a3.488,3.488,0,0,1,3.5,3.5A3.553,3.553,0,0,1,9.733,172.323Zm-6.236-5.2a1.606,1.606,0,0,0,0,3.213H9.638a1.606,1.606,0,0,0,0-3.213Z" transform="translate(0 -145.109)"/><path class="c" d="M16.546,280.824H10.309a2.623,2.623,0,0,0-2.551,2.646,2.541,2.541,0,0,0,2.551,2.551h6.142A2.541,2.541,0,0,0,19,283.47,2.485,2.485,0,0,0,16.546,280.824Z" transform="translate(-6.813 -246.618)"/><path class="b" d="M9.733,280.835H3.5a3.5,3.5,0,0,1,0-6.992H9.638a3.5,3.5,0,0,1,.095,6.992Zm-6.236-5.2a1.676,1.676,0,0,0-1.606,1.7A1.593,1.593,0,0,0,3.5,278.945H9.638a1.606,1.606,0,0,0,0-3.213H3.5Z" transform="translate(0 -240.487)"/><path class="c" d="M16.546,389.43H10.309a2.551,2.551,0,1,0,0,5.1h6.142A2.541,2.541,0,0,0,19,391.981,2.406,2.406,0,0,0,16.546,389.43Z" transform="translate(-6.813 -341.995)"/><path class="b" d="M9.733,388.665H3.5a3.5,3.5,0,0,1,0-6.992H9.638a3.5,3.5,0,0,1,.095,6.992Zm-6.236-5.1a1.606,1.606,0,0,0,0,3.213H9.638a1.606,1.606,0,0,0,0-3.213Z" transform="translate(0 -335.183)"/><path class="d" d="M412.639,367.709H406.5v7.748h6.142a3.832,3.832,0,0,0,3.874-3.874A3.891,3.891,0,0,0,412.639,367.709Z" transform="translate(-356.984 -322.92)"/><path class="b" d="M405.826,369.589h-6.142a.893.893,0,0,1-.945-.945V360.9a.893.893,0,0,1,.945-.945h6.142a4.819,4.819,0,0,1,0,9.638Zm-5.2-1.89h5.2a2.929,2.929,0,0,0,0-5.858h-5.2Z" transform="translate(-350.17 -316.107)"/><path class="c" d="M204.161,367.709H189.893a26.225,26.225,0,0,0-13.8,3.874,26.468,26.468,0,0,0,13.8,3.874h14.268Z" transform="translate(-154.647 -322.92)"/><g transform="translate(18.615 43.655)"><path class="b" d="M197.349,368.226H183.081a27.177,27.177,0,0,1-14.268-4.063,1,1,0,0,1,0-1.7,27.426,27.426,0,0,1,14.268-4.063h14.268a.893.893,0,0,1,.945.945v7.748A1,1,0,0,1,197.349,368.226Zm-26.174-4.819a26.09,26.09,0,0,0,11.906,2.929H196.4v-5.858H183.081A25.8,25.8,0,0,0,171.175,363.407Z" transform="translate(-166.45 -358.399)"/><path class="b" d="M155.564,393.647h-1.8a.945.945,0,0,1,0-1.89h1.8a.945.945,0,0,1,0,1.89Z" transform="translate(-152.824 -387.694)"/><rect class="b" width="1.89" height="1.89" transform="translate(12.662 4.063)"/><rect class="b" width="1.89" height="1.89" transform="translate(17.764 4.063)"/><rect class="b" width="1.89" height="1.89" transform="translate(22.867 4.063)"/></g><g transform="translate(17.008 8.504)"><rect class="e" width="5.103" height="5.103"/><rect class="e" width="5.103" height="5.103" transform="translate(0 8.977)"/><rect class="e" width="5.103" height="5.103" transform="translate(0 17.859)"/><rect class="e" width="5.103" height="5.103" transform="translate(0 26.741)"/></g><g transform="translate(27.119 10.205)"><path class="b" d="M237.761,85.671H223.587a.945.945,0,0,1,0-1.89h14.079a.893.893,0,0,1,.945.945A.869.869,0,0,1,237.761,85.671Z" transform="translate(-222.642 -83.781)"/><path class="b" d="M237.761,158.592H223.587a.945.945,0,1,1,0-1.89h14.079a.893.893,0,0,1,.945.945A.869.869,0,0,1,237.761,158.592Z" transform="translate(-222.642 -147.82)"/><path class="b" d="M237.761,231.513H223.587a.945.945,0,0,1,0-1.89h14.079a.893.893,0,0,1,.945.945A.823.823,0,0,1,237.761,231.513Z" transform="translate(-222.642 -211.859)"/><path class="b" d="M237.761,304.435H223.587a.945.945,0,1,1,0-1.89h14.079a.893.893,0,0,1,.945.945A.823.823,0,0,1,237.761,304.435Z" transform="translate(-222.642 -275.898)"/></g></svg>