<svg xmlns="http://www.w3.org/2000/svg" xmlns:xlink="http://www.w3.org/1999/xlink" width="155.014" height="155.764" viewBox="0 0 155.014 155.764"><defs><clipPath id="a"><path d="M0,0H148.426V155.344H0Z" transform="translate(0 0)" fill="#fff" stroke="#707070" stroke-width="1"/></clipPath></defs><g transform="translate(-60 -229.439)"><g transform="translate(60 229.439)"><path d="M230.492,478.747s-28.038-39.47-10.532-64.067c14.391-20.221,33.95-24.2,49.146-12.017,6.472,5.187-1.259,3.957,20.517-20.721,28.281-32.049,66.084,14.452,52.534,41.553-6.624,31.008,15.544,23.676,1.9,54.671Z" transform="translate(-206.725 -322.984)" fill="#ebf3fa"/><g transform="translate(0 0)" clip-path="url(#a)"><g transform="translate(5.241 30.294)"><path d="M591.754,1123.455l-4.085,44.679,6.073.946,17.184-39.753Z" transform="translate(-582.939 -942.451)" fill="#ffb27d"/><path d="M587.837,1213.453s2.786,4.013,6.062,5.49c2.185.984,2.438,5.8,3.41,11.669.1.591-.719.9-1.13.462a4.4,4.4,0,0,1-.658-.938,35.246,35.246,0,0,1-1.858-5.047c-.615-.276-1.464,4.485-1.711,7.354-.144,1.667.76,7.542-.418,7.98s-3.383-3.533-4.643-6.919.874-10.272-.46-12.4S587.837,1213.453,587.837,1213.453Z" transform="translate(-582.022 -993.889)" fill="#ffb27d"/><path d="M649.478,719.957l44.485-18.971,41.014,19.562-41.014,20.816Z" transform="translate(-618.266 -700.986)" fill="#233862"/><g transform="translate(30.801 18.395)"><g transform="translate(0 0)"><path d="M656.126,766.3l.634-.842c-8.958-6.74-7.218-18.005-6.679-20.581a.846.846,0,0,0-.34-.864h0a.466.466,0,0,0-.727.291C648.424,747.3,646.784,759.266,656.126,766.3Z" transform="translate(-648.519 -743.921)" fill="#efcbab"/></g><path d="M666.909,794.179l1.34.5-1.12,1.433-.853-1.091Z" transform="translate(-658.668 -772.646)" fill="#d8a987"/><path d="M669.387,795.345s1.66,1.2,2.242.835c0,0-.541,1.579-1.353,1.745a5.484,5.484,0,0,1-2.009-1.147Z" transform="translate(-659.806 -773.313)" fill="#efcbab"/></g><path d="M688.752,1536.629l-3.017,12.7-4.005,16.837H669.214l-.745-16.129-.577-12.44Z" transform="translate(-628.791 -1178.603)" fill="#ffb27d"/><path d="M659.427,1621.8s0-5.38.767-7.169,3.578-9.074,3.578-9.074h10.991s2.045,6.646,2.172,8.818,0,7.425,0,7.425Z" transform="translate(-615.177 -1251.695)" fill="#233862"/><path d="M815.772,1621.8s0-5.38-.767-7.169-3.578-9.074-3.578-9.074h-10.99s-2.045,6.646-2.172,8.818,0,7.425,0,7.425Z" transform="translate(-701.74 -1251.695)" fill="#233862"/><path d="M706.512,836.6s-.441,13.643-2.187,19.754l-13.82,29.79,30.583,42.344,21.441-54.707-12.407-17.143s-3.746-18.292-1.781-25.059S706.512,836.6,706.512,836.6Z" transform="translate(-641.715 -774.431)" fill="#ffb27d"/><path d="M727.691,850.493s4.114,9.9,11.863,9.685,9.513-8.981,9.513-8.981Z" transform="translate(-662.969 -786.438)" fill="#ed985f"/><path d="M709.962,779.2s-2.5-12.492-4.249-16.276-3.2-20.664,16.153-21.537c0,0,7.421.873,11.5-1.6,0,0,0,2.474-1.019,3.347,0,0,5.039-3.17,10.278,2.65s-1.837,27.764-1.4,32.566Z" transform="translate(-649.865 -723.161)" fill="#132644"/><path d="M732.03,814.235c-5.615-.1-15.95-7.575-15.95-16.834V782.953c0-3.38,2.357-6.146,5.239-6.146H742.74c2.882,0,5.239,2.766,5.239,6.146v13.63C747.979,806.293,738.469,814.349,732.03,814.235Z" transform="translate(-656.333 -744.322)" fill="#ffb27d"/><path d="M715.127,786.3s.03-8.681,6.906-10.016,22.265,4.231,24.447-2.1-29.745-6.221-31.353-2.182S715.127,786.3,715.127,786.3Z" transform="translate(-655.38 -739.956)" fill="#132644"/><path d="M720.945,891.875s12.8,2.873,12.8,2.873l12.936-3.116,3.3,19.852L735.462,960.9,719.58,901.685Z" transform="translate(-658.333 -809.951)" fill="#fff"/><path d="M721.3,895.937l10.168,7.589,3.327-5.452,3.084,5.452,10.831-9.431-2.137-2.463-11.847,3.116-12.8-.579Z" transform="translate(-659.315 -809.951)" fill="#d2e3fc"/><path d="M732.329,1153.228l-30.455,1.9c-.175-.286-.372-.286-.59.037l-8.96.56-38.187-2.385s-9.6,43.839-5.831,102.259c1.2,18.637,3.894,73.83,6.457,93.348l26.175.277c3.392-22.074,7.317-77.161,9.427-86.619q1.438-6.444,2.678-12.767a80.99,80.99,0,0,1,1.231,11.12c-.017,3.881,1.116,10.061,2.685,17.508,2.2,10.488,8.678,58.84,10.608,71.466h27.464c.329-17.393,1.821-76.473,2.134-94.334C738,1207.962,732.329,1153.228,732.329,1153.228Z" transform="translate(-617.094 -959.468)" fill="#ee9849"/><path d="M725.783,1157.729c-14,7.339-109.347,16.035-126.438-4.129-2.909-3.431,37.719-258.853,37.719-258.853s2.617-.756,7.034-1.587c2.255-.424,4.969-.866,8.046-1.237.036.955,6.618,42.436,15.575,58.612,0,0,10.155-22.325,10.217-58.378a4.074,4.074,0,0,0-.062-.526c1.919.208,3.868.473,5.823.809q1.24.212,2.48.468a80.357,80.357,0,0,1,9.443,2.485S728.7,1156.2,725.783,1157.729Z" transform="translate(-589.527 -809.951)" fill="#1c468a"/><path d="M635.222,893.427s-14.59,112.07-20.186,120.469c-2.343,3.515-5.769,4.089-9.805,3.3-.769-.146-1.565-.344-2.374-.583l-11.189-4.289-.049-.018c-1.812-.725-3.643-1.411-5.469-1.976-11.494-3.559-10.6-13.236-7.507-26.429s23.36-76.711,30.2-81.194C620.929,894.8,635.222,893.427,635.222,893.427Z" transform="translate(-576.628 -810.977)" fill="#1c468a"/><path d="M748.5,883.126a115.329,115.329,0,0,0-25.729.292.47.47,0,0,1,0-.049S746.581,868.639,748.5,883.126Z" transform="translate(-660.154 -801.445)" fill="#ffb27d"/><path d="M729.388,960.9C714.652,950.053,704,893.161,704,893.161c2.255-.424,4.97-.866,8.046-1.237.035.955,6.251,40.154,15.208,56.33,0,0,10.522-20.043,10.584-56.1a4.021,4.021,0,0,0-.062-.526c1.919.208,3.869.473,5.823.809q1.239.212,2.48.468C746.1,923.273,729.388,960.9,729.388,960.9Z" transform="translate(-649.427 -809.951)" fill="#bc3f3f"/><path d="M741.7,838.805s6.718-.672,9.835.086c0,0-1.685,2.71-4.41,2.686S742.349,840.539,741.7,838.805Z" transform="translate(-670.976 -779.6)" fill="#fff0e6"/><path d="M703.833,744.631l.4,6.542s15.074-10.071,39.8-.823l-.344-9.461a6.5,6.5,0,0,0-3.132-4.382c-4.638-2.669-15.5-7.62-32.654.667C705.5,738.335,703.99,741.966,703.833,744.631Z" transform="translate(-649.333 -719.048)" fill="#1c468a"/><path d="M718.529,878.157l-5.14,6.543,13.594,9.284,3.221-6.937Z" transform="translate(-654.795 -802.249)" fill="#fff"/><path d="M764.528,878.157l-11.891,8.89,3.41,6.937,11.7-9.794Z" transform="translate(-677.227 -802.249)" fill="#fff"/><path d="M751.372,934.334a.938.938,0,1,1,0,1.326A.938.938,0,0,1,751.372,934.334Z" transform="translate(-676.348 -834.201)" fill="#d2e3fc"/><ellipse cx="0.938" cy="0.938" rx="0.938" ry="0.938" transform="translate(74.751 109.955)" fill="#d2e3fc"/><path d="M751.372,982.146a.938.938,0,1,1,0,1.327A.938.938,0,0,1,751.372,982.146Z" transform="translate(-676.348 -861.528)" fill="#d2e3fc"/><path d="M824.249,900.414a29.517,29.517,0,0,1,14.063,15.033c4.9,11.225,25.236,41.885,24.647,56.245s-3.35,27.427-17.021,27.869c-9.382.3-18.936-8.879-18.936-22.611S824.249,900.414,824.249,900.414Z" transform="translate(-718.158 -814.971)" fill="#1c468a"/><path d="M866.378,1086c-.367,3.873-1.817,7-5.283,7.865-10.96,2.741-15.809-7.838-13.5-18.2q.112-.518.265-.995c2.339-7.573,10.756-8.736,13.864-8.9.73-.04,1.167-.026,1.167-.026s.062.172.173.491C863.85,1068.555,867.082,1078.635,866.378,1086Z" transform="translate(-731.179 -909.464)" fill="#233862"/><path d="M832.4,1068.208s-31.955-14.382-44.6-30.895c-.935-1.22,1.459-2.709,1.459-2.709l38.489,13.369,1.34.464C829.868,1050.759,833.1,1060.838,832.4,1068.208Z" transform="translate(-697.198 -891.668)" fill="#ffb27d"/><g transform="translate(55.39 143.72)"><rect width="42.22" height="55.639" transform="translate(0 0)" fill="#fcecdb"/><g transform="translate(12.601 32.128)"><path d="M740.069,1127.966l-4.747,7.932,3-.429,1.287,2.389,4.033-7.293Z" transform="translate(-735.322 -1120.876)" fill="#932424"/><path d="M756.316,1126.821l4.747,7.932-3-.429-1.287,2.389-4.033-7.294Z" transform="translate(-745.279 -1120.222)" fill="#932424"/><path d="M742.438,1116.76c.533-3.472,2.392-4.831,5.268-5.268,3.76-.572,5.269,2.358,5.269,5.268a5.269,5.269,0,0,1-5.269,5.269C744.8,1122.029,742,1119.636,742.438,1116.76Z" transform="translate(-739.363 -1111.42)" fill="#bc3f3f"/><g transform="translate(4.1 1.072)"><path d="M749.129,1122.386a4.566,4.566,0,0,1-3.382-1.54,3.336,3.336,0,0,1-.82-2.7h0a4.423,4.423,0,0,1,4.165-4.164,3.435,3.435,0,0,1,2.885.7,4.565,4.565,0,0,1,1.357,3.505A4.209,4.209,0,0,1,749.129,1122.386Zm.689-7.975a4.214,4.214,0,0,0-.652.052,3.948,3.948,0,0,0-3.754,3.754h0a2.849,2.849,0,0,0,.708,2.308,4.064,4.064,0,0,0,3.01,1.37,3.719,3.719,0,0,0,3.715-3.716,4.085,4.085,0,0,0-1.186-3.134A2.733,2.733,0,0,0,749.818,1114.412Z" transform="translate(-744.89 -1113.921)" fill="#932424"/></g></g><g transform="translate(12.601 5.989)"><path d="M752.748,1051.116H741a.354.354,0,0,1-.353-.354h0a.354.354,0,0,1,.353-.354h11.751a.354.354,0,0,1,.354.354h0A.355.355,0,0,1,752.748,1051.116Z" transform="translate(-738.363 -1050.409)" fill="#1c468a"/><path d="M751.986,1054.575h-16.31a.355.355,0,0,1-.354-.354h0a.354.354,0,0,1,.354-.354h16.31a.355.355,0,0,1,.354.354h0A.355.355,0,0,1,751.986,1054.575Z" transform="translate(-735.322 -1052.386)" fill="#1c468a"/></g><g transform="translate(8.675 19.652)"><path d="M750.624,1083.108h-24.06a.406.406,0,0,1-.4-.4h0a.405.405,0,0,1,.4-.4h24.06a.405.405,0,0,1,.4.4h0A.406.406,0,0,1,750.624,1083.108Z" transform="translate(-726.159 -1082.299)" fill="#1c468a"/><path d="M750.624,1087.828h-24.06a.405.405,0,0,1-.4-.4h0a.405.405,0,0,1,.4-.4h24.06a.405.405,0,0,1,.4.4h0A.405.405,0,0,1,750.624,1087.828Z" transform="translate(-726.159 -1084.997)" fill="#1c468a"/><path d="M750.624,1091.955h-24.06a.405.405,0,0,1-.4-.4h0a.406.406,0,0,1,.4-.405h24.06a.406.406,0,0,1,.4.405h0A.405.405,0,0,1,750.624,1091.955Z" transform="translate(-726.159 -1087.356)" fill="#1c468a"/><path d="M750.624,1096.475h-24.06a.405.405,0,0,1-.4-.4h0a.406.406,0,0,1,.4-.4h24.06a.406.406,0,0,1,.4.4h0A.405.405,0,0,1,750.624,1096.475Z" transform="translate(-726.159 -1089.939)" fill="#1c468a"/></g><path d="M778.944,1122.994a16.006,16.006,0,0,1-2.426,1.633,1.974,1.974,0,0,0,.122-.671c-.015-.288-.246-.416-.477-.534-.057-.03-.11-.062-.163-.094a.292.292,0,0,0,.077-.341.249.249,0,0,0-.463.018.382.382,0,0,0-.032.11.289.289,0,0,1-.089-.07c.14-.263.273-.53.394-.8a.149.149,0,0,0-.057-.171.468.468,0,0,0-.642.089.86.86,0,0,0-.052.832c.007.018.013.036.021.055q-.269.485-.583.943c-.019-.02-.039-.04-.059-.058a1.212,1.212,0,0,1-.163-.2,2.86,2.86,0,0,0,.179-.782.15.15,0,0,0-.213-.144.63.63,0,0,0-.4.683.854.854,0,0,0,.092.286,2.68,2.68,0,0,1-.225.4.138.138,0,0,0,.051.2,2.073,2.073,0,0,1-.428.841c-.173.18-.5.317-.705.1a.893.893,0,0,1-.169-.541,9.858,9.858,0,0,1-.062-1.345,2.066,2.066,0,0,1,.1-.623c.045-.123.107-.311.167-.1a1.186,1.186,0,0,1-.021.373.148.148,0,0,0,.294.022c.022-.222.122-.689-.13-.829-.209-.115-.4.05-.5.223a3.957,3.957,0,0,0-.157,2.161c.042.542.244,1.205.936,1.033.65-.162.889-.981,1.038-1.546a.147.147,0,0,0,0-.095l.008-.014.081.081c.038.034.075.07.11.107q-.1.142-.209.281a.15.15,0,0,0,.011.181.347.347,0,0,0,.6-.256.485.485,0,0,0-.05-.2q.309-.443.576-.912a.466.466,0,0,0,.354.142l.03,0a1.138,1.138,0,0,0,.257.2,1.7,1.7,0,0,1,.256.137c.141.115.1.246.067.409a6.488,6.488,0,0,1-.171.637,1.338,1.338,0,0,0-.691.73.744.744,0,0,0,.258.834.149.149,0,0,0,.222-.074c.168-.412.319-.831.449-1.258l.013-.04c.263-.149.537-.281.8-.434a15.293,15.293,0,0,0,1.958-1.384C779.285,1123.094,779.09,1122.872,778.944,1122.994Zm-3.589-.394c0-.118.059-.334.2-.332-.061.133-.125.265-.191.395C775.357,1122.643,775.355,1122.621,775.355,1122.6Zm.375,3.413c-.124-.233.054-.521.257-.71Q775.867,1125.662,775.73,1126.013Z" transform="translate(-743.778 -1085.328)" fill="#1c468a"/><g transform="translate(1.951 1.926)"><path d="M749.074,1093.048H710.465v-52.122h38.609Zm-38.167-.442h37.725v-51.238H710.907Z" transform="translate(-710.465 -1040.926)" fill="#1c468a"/></g></g><path d="M762.269,1024.971s-7.778,6.684-4.978,7.689,10.316-3.455,11.789-3.455h4.864s-4.8-5.561-7.339-5.414A10.8,10.8,0,0,0,762.269,1024.971Z" transform="translate(-679.539 -885.486)" fill="#ffb27d"/><path d="M635.035,998.851l-9.805,78.6c-.77-.146-1.565-.345-2.374-.584l-11.19-4.288-.048-.018s3.448-3.568,8.126-15.946S635.035,998.851,635.035,998.851Z" transform="translate(-595.297 -872.562)" fill="#233862"/></g></g></g></g></svg>