<svg xmlns="http://www.w3.org/2000/svg" xmlns:xlink="http://www.w3.org/1999/xlink" width="250" height="250" viewBox="0 0 250 250"><defs><clipPath id="a"><rect width="250" height="250" opacity="0.5" fill="#fff" stroke="#707070" stroke-width="1" transform="translate(-14129 4763)"/></clipPath></defs><g transform="translate(14129 -4763)" clip-path="url(#a)"><g transform="translate(-14068.991 4768.277)"><path d="M-411.45,97.632c.005-.044,2.265-19.817-15.55-27.887a30.53,30.53,0,0,0-27.954,1.924c-13.844,8.23-24.405,25.033-15.6,51.971,7.332,22.435,22.494,45.5,32.539,59.289a18.829,18.829,0,0,0,24.744,4.963c14.56-8.505,37.118-24.263,55.5-48.5,8.542-11.265,14.19-25.238,14.426-39.395.327-19.6-13.587-33.5-33.672-31.606-11.357,1.069-23.556,5.573-34.427,29.239Z" transform="translate(473.779 -67.223)" fill="#fcf0f0" opacity="0.45"/><ellipse cx="43.494" cy="6.463" rx="43.494" ry="6.463" transform="translate(25.685 217.961)" fill="#f2cbc2"/><g transform="translate(16.463 18.717)"><path d="M-394.262,148.6h-10.077l1.235-13.843h8.843Z" transform="translate(431.735 -110.818)" fill="#ffc7a8"/><rect width="31.847" height="50.147" transform="translate(17.642 64.813)" fill="#7c654e"/><g transform="translate(33.566 84.102)"><g transform="translate(9.168 92.863)"><path d="M-377.4,389.04l-.527-11.474,7.263-.526.737,12S-373.3,395.356-377.4,389.04Z" transform="translate(379.273 -377.039)" fill="#efb69a"/><rect width="7.509" height="4.439" transform="translate(1.834 10.369)" fill="#4e4f56"/><path d="M-379.8,399.392a5.7,5.7,0,0,0-.246,2.017l-.006,3.887a3.522,3.522,0,0,0,.487,2.2,2.693,2.693,0,0,0,2.391.808c.875-.076,1.723-.361,2.6-.411a8.038,8.038,0,0,1,4.38,1.352,26.965,26.965,0,0,0,4.066,2.243,15.823,15.823,0,0,0,4.728.754,8.472,8.472,0,0,0,4.093-.493,2.49,2.49,0,0,0,.814-.579,2.512,2.512,0,0,0,.508-1.052,4.638,4.638,0,0,0-3.06-5.386c-.82-.244-1.691-.247-2.531-.41-2.879-.558-5.047-2.878-6.922-5.132-.6-.723-1.374-1.527-2.3-1.389a3.5,3.5,0,0,0-1.186.551,6.378,6.378,0,0,1-4.356.711C-377.756,398.8-379.052,397.4-379.8,399.392Z" transform="translate(380.056 -384.683)" fill="#404148"/></g><path d="M-371.3,325.3a17.264,17.264,0,0,1-16.184,2.76c-.013-4.316-7.089-95.027-7.089-95.027l26.893-3.017-2.815,61.306S-371.835,317.771-371.3,325.3Z" transform="translate(394.571 -230.012)" fill="#404148"/><path d="M-367.208,356.075s-11.552,5.158-18.3,1.579l1.367,16.842a15.544,15.544,0,0,0,16.184-2.76A152.13,152.13,0,0,1-367.208,356.075Z" transform="translate(391.233 -276.453)" fill="#4e4f56"/></g><g transform="translate(12.395 84.237)"><g transform="translate(5.808 93.781)"><path d="M-416.134,390.706l-.527-11.474,7.264-.527.737,12S-412.029,397.022-416.134,390.706Z" transform="translate(418.072 -378.705)" fill="#efb69a"/><rect width="7.509" height="4.439" transform="translate(1.902 10.369)" fill="#4e4f56"/><path d="M-417.64,405.829a22.244,22.244,0,0,0-1.254,6.473,5.117,5.117,0,0,0,1.148,3.685c1.146,1.166,2.965,1.252,4.6,1.263l5.566.04a2.852,2.852,0,0,0,1.394-.225,2.374,2.374,0,0,0,.98-1.337,6.885,6.885,0,0,0,.047-4.562c-.776-2.265-2.7-4.011-3.408-6.3a12.846,12.846,0,0,1-.4-2.036c-.071-.5-.14-1-.241-1.489a9.224,9.224,0,0,1,.014-1.246.867.867,0,0,0-.159-.5.772.772,0,0,0-.784-.177,6.421,6.421,0,0,0-1.066.5,5.389,5.389,0,0,1-2.745.253,5.165,5.165,0,0,1-.928-.143c-.355-.1-.688-.268-1.045-.356a1.25,1.25,0,0,0-1.057.143.566.566,0,0,0-.192.247.747.747,0,0,0-.028.28,9.251,9.251,0,0,0,.292,1.234,5,5,0,0,1-.016,1.472A16.166,16.166,0,0,1-417.64,405.829Z" transform="translate(418.895 -386.322)" fill="#404148"/></g><path d="M-424.471,325.51a17.265,17.265,0,0,0,16.184,2.759c.013-4.316,4.96-96.373,4.96-96.373l-24.763-1.671,2.815,61.306S-423.933,317.985-424.471,325.51Z" transform="translate(428.09 -230.226)" fill="#404148"/><path d="M-423.55,356.289s11.552,5.158,18.3,1.579l-1.367,16.842a15.544,15.544,0,0,1-16.184-2.759A152.129,152.129,0,0,0-423.55,356.289Z" transform="translate(426.417 -276.667)" fill="#4e4f56"/></g><g transform="translate(25.027 30.555)"><path d="M-405.913,145.233h0a12.582,12.582,0,0,0,12.274.252l.047-.025,1.739,61.2h0a23.006,23.006,0,0,1-16.236,0h0Z" transform="translate(408.089 -145.233)" fill="#fffffe"/><path d="M-401.758,147.33s3.474,3.237,8.488.474" transform="translate(405.757 -146.006)" fill="none" stroke="#e2e2dc" stroke-miterlimit="10" stroke-width="1"/></g><g transform="translate(20.22)"><ellipse cx="9.632" cy="12.987" rx="9.632" ry="12.987" transform="translate(3.713 2.984)" fill="#ffc7a8"/><path d="M-410.238,124.715c.136,1.772-.563,3.27-1.563,3.348s-1.921-1.3-2.058-3.068.563-3.27,1.563-3.347S-410.375,122.943-410.238,124.715Z" transform="translate(415.028 -105.988)" fill="#ffc7a8"/><path d="M-388.834,103.377a1.794,1.794,0,0,1-2.417.433,7.8,7.8,0,0,1-1.916-1.928,15.316,15.316,0,0,0-6.228-4.051c-2.066-.8-4.379-1.353-6.478-.656a8.232,8.232,0,0,0-5.042,3.123,3.27,3.27,0,0,1-.836.455c-.3.165-.6.333-.894.515a6.753,6.753,0,0,0-1.511,1.223c-2.624,2.957-1.288,7.079-.476,10.428,0,.013.471.611.464.615.443-.773,1.154-1.24,1.854-.836a2.091,2.091,0,0,1,.827,1.588,8.319,8.319,0,0,1,0,2.357l1.307.007.51-3.027a4.35,4.35,0,0,1,.381-1.351,6.242,6.242,0,0,1,1.46-1.515,8.035,8.035,0,0,0,2.744-6.335,7.463,7.463,0,0,0,4.517,5.094,16.988,16.988,0,0,0,6.945,1.076c.857-.008,1.871-.13,2.279-.884a2.123,2.123,0,0,1-1.345-.193,2.972,2.972,0,0,0,2.559-2.744,2.686,2.686,0,0,1-1.832.447,8.219,8.219,0,0,0,2.241-1.432A2.787,2.787,0,0,0-388.834,103.377Z" transform="translate(415.7 -96.857)" fill="#51443f"/></g><g transform="translate(0 30.555)"><path d="M-420.511,145.233s-12.651,54.558-14.641,75.61c-.613-.657-1.187-1.314-1.743-1.977a45.831,45.831,0,0,1-5.2-7.63,52.691,52.691,0,0,1-5.615-17.578c.316-13.3,8.369-38.654,10.156-41.5C-435.556,149.85-420.511,145.233-420.511,145.233Z" transform="translate(447.714 -145.233)" fill="#4e4f56"/><path d="M-429.23,173.7l-4.39,55.651a45.835,45.835,0,0,1-5.2-7.63Z" transform="translate(444.439 -155.721)" fill="#46474f"/><path d="M-428.734,155.723l-8.746,64.483h0a50.114,50.114,0,0,0,17.954,4.067l3.2.13-.411-79.171Z" transform="translate(443.944 -145.233)" fill="#4e4f56"/><path d="M-357.224,193.786c-1.048,6.79-2.6,15.272-6.979,22.889l-.006.013a36.631,36.631,0,0,1-3.051,4.522c-.335.43-.682.853-1.048,1.27-.265.309-.537.619-.821.922-1.99-21.052-16.007-77.809-16.007-77.809s13.475,4.7,15.477,7.018C-367.873,155.454-357.539,180.491-357.224,193.786Z" transform="translate(424.661 -145.366)" fill="#4e4f56"/><path d="M-355.59,227.514l-.006.013a36.625,36.625,0,0,1-3.051,4.522c-.335.429-.682.853-1.048,1.27l-2.062-58.3Z" transform="translate(416.049 -156.204)" fill="#a89076"/><path d="M-370.066,155.655l7.6,64.552c-5.641,3.1-14.116,3.93-20.908,4.216l-2.005.084.155-78.993Z" transform="translate(424.752 -145.337)" fill="#4e4f56"/><g transform="translate(22.36 33.579)"><path d="M-408.572,213.143a1.579,1.579,0,0,1-1.578,1.578,1.579,1.579,0,0,1-1.578-1.578,1.579,1.579,0,0,1,1.578-1.578A1.579,1.579,0,0,1-408.572,213.143Z" transform="translate(412.098 -203.249)" fill="#fffffe"/><path d="M-408.572,199.976a1.579,1.579,0,0,1-1.578,1.579,1.579,1.579,0,0,1-1.578-1.579,1.579,1.579,0,0,1,1.578-1.578A1.579,1.579,0,0,1-408.572,199.976Z" transform="translate(412.098 -198.398)" fill="#fffffe"/><path d="M-409.156,227.148a1.579,1.579,0,0,1-1.578,1.578,1.579,1.579,0,0,1-1.579-1.578,1.579,1.579,0,0,1,1.579-1.578A1.579,1.579,0,0,1-409.156,227.148Z" transform="translate(412.313 -208.408)" fill="#fffffe"/></g><path d="M-422,252.661h.967a4.138,4.138,0,0,0,4.138-4.138v-8.2l-9.242-1.277v9.479A4.138,4.138,0,0,0-422,252.661Z" transform="translate(439.764 -179.792)" fill="#46474f"/></g><g transform="translate(27.809 14.676)"><path d="M-391.626,125.89s.035,2.612,1.12,3.812a11.158,11.158,0,0,1-1.185.8" transform="translate(399.267 -122.229)" fill="none" stroke="#e2906d" stroke-linecap="round" stroke-linejoin="round" stroke-width="0.653"/><path d="M-399.521,125.261c.046.529.388.932.764.9s.644-.488.6-1.018-.388-.932-.764-.9S-399.566,124.732-399.521,125.261Z" transform="translate(402.153 -121.622)" fill="#382f2c"/><path d="M-398.856,120.758s-2.977-1-4.812.207A4.139,4.139,0,0,1-398.856,120.758Z" transform="translate(403.679 -120.093)" fill="none" stroke="#51443f" stroke-linecap="round" stroke-linejoin="round" stroke-width="1.227"/><path d="M-393.809,135.138a10.079,10.079,0,0,0,2.317-.164,2.369,2.369,0,0,1,.03.456A2.424,2.424,0,0,1-394,137.737a2.424,2.424,0,0,1-2.363-2.484,2.361,2.361,0,0,1,.073-.5A9.739,9.739,0,0,0-393.809,135.138Z" transform="translate(400.988 -125.495)" fill="#fff"/><path d="M-399.385,129.807c-.056.742-1.063,1.27-2.25,1.181s-2.1-.763-2.048-1.5,1.063-1.271,2.25-1.181S-399.329,129.065-399.385,129.807Z" transform="translate(403.686 -123.114)" fill="#f8b593"/><path d="M-386.249,125.719c-.045.529-.388.932-.764.9s-.644-.488-.6-1.017.388-.932.764-.9S-386.2,125.19-386.249,125.719Z" transform="translate(397.766 -121.79)" fill="#382f2c"/><path d="M-389.21,121.045s3.054-.694,4.758.686A4.128,4.128,0,0,0-389.21,121.045Z" transform="translate(398.353 -120.278)" fill="none" stroke="#51443f" stroke-linecap="round" stroke-linejoin="round" stroke-width="1.225"/><path d="M-387.986,130.023c-.02.652.809,1.207,1.853,1.239s1.906-.47,1.926-1.122-.81-1.206-1.853-1.239S-387.966,129.371-387.986,130.023Z" transform="translate(397.902 -123.337)" fill="#f8b593"/></g></g><g transform="translate(60.99 41.529)"><g transform="translate(11.855)"><path d="M-353.953,137.829s-1.218-2.862,3.645-4.232a10.3,10.3,0,0,1,6.654-.119c7.5,2.721,12.151,9.328,14.733,16.53,2.195,6.122,5.47,11.149,6.3,17.616.665,5.191-3.124,8.688-5.151,7.267-2.988-2.094-3.457-9.1-10.459-10.631s-4.129,0-7.371,1.285-13.68-3.246-12.788-17.526C-357.61,135.493-353.953,137.829-353.953,137.829Z" transform="translate(358.446 -132.974)" fill="#51443f"/><path d="M-338.225,168.3c0,2.147-3.379,3.884-7.554,3.884-4,0-7.1-2.1-7.359-4.118.069.006.139.019.208.032.505.088.841.67,1.346.745a46.3,46.3,0,0,0,6.411.48,13.84,13.84,0,0,0,2.981-.133,4.348,4.348,0,0,0,2.476-1.712,1.1,1.1,0,0,1,.3-.246.945.945,0,0,1,.783.032c.057.025.114.044.177.076A2.173,2.173,0,0,1-338.225,168.3Z" transform="translate(356.491 -145.566)" fill="#443734"/><path d="M-347.086,142.7c1.708,1.508,4,2.115,6.109,2.978,2.722,1.114,5.372,2.868,6.581,5.548" transform="translate(354.261 -136.556)" fill="none" stroke="#35241e" stroke-linecap="round" stroke-linejoin="round" stroke-width="0.5" opacity="0.47"/><path d="M-341.908,142.438c1.085,1.177,2.79,1.472,4.323,1.931A25.388,25.388,0,0,1-333.631,146a18.81,18.81,0,0,1,5.425,3.692,8.251,8.251,0,0,1,2.456,5.928" transform="translate(352.354 -136.461)" fill="none" stroke="#35241e" stroke-linecap="round" stroke-linejoin="round" stroke-width="0.5" opacity="0.47"/><path d="M-331.987,137.891a11.14,11.14,0,0,0,4.393,4.263" transform="translate(348.699 -134.786)" fill="none" stroke="#35241e" stroke-linecap="round" stroke-linejoin="round" stroke-width="0.5" opacity="0.47"/></g><path d="M-312.281,261.473s-7.877-14.421-9.409-15.238l-.379,1.642s6.018,8.738,8.447,14.368" transform="translate(356.9 -174.699)" fill="#7e4d3d"/><path d="M-343.87,226.53a1.662,1.662,0,0,1-1.08,1.63c-3.758,1.4-16.207,5.356-27.172.928l-.029-.012a4.975,4.975,0,0,1-3.061-4.309c-.567-9.071-1.2-36.457,11.01-44.464h.006c.189-.126.379-.24.568-.347.085-.056,1.969-.884,3.231-1.441a5.036,5.036,0,0,1,2.348-.417,31.4,31.4,0,0,0,6.13-.081c1.295-.051,6.153,1.835,6.153,1.835a.656.656,0,0,0-.006-.111l.2,3.72.069,1.364,1.522,38.793.044,1.074Z" transform="translate(376.568 -149.567)" fill="#46474f"/><g transform="translate(0 60.253)"><g transform="translate(36.081 98.008)"><path d="M-320.09,385.972s4.373,8.718,6.791,13.576a1.067,1.067,0,0,1,0,.934,36.994,36.994,0,0,1-3.184,5.663c.784-.254,10.367-2.984,8.412-5.892-1.674-2.489-2.847-9.537-5.107-16.71" transform="translate(320.09 -383.542)" fill="#edbb94"/><path d="M-307.93,407.507a.324.324,0,0,0-.44.077A4.77,4.77,0,0,1-310.382,409c-.922.325-1.922-.083-2.266.178s-2.7,5.218-4.76,6.912c-1.511,1.241-.419,2.194-.226,2.239,5.58,1.29,6.34-1.574,6.971-2.294,1.3-1.482,2.172-2.336,3.414-3.729a5.1,5.1,0,0,0,1.144-1.786C-305.913,409.491-306.907,408.192-307.93,407.507Z" transform="translate(319.392 -392.351)" fill="#ffab74"/><path d="M-306.366,410.261a1.474,1.474,0,0,1-.013.285,5.086,5.086,0,0,1-1.144,1.786c-1.242,1.393-2.116,2.247-3.414,3.729-.631.721-1.391,3.585-6.97,2.294a.674.674,0,0,1-.253-.188,1.08,1.08,0,0,0,.529,1.2c5.58,1.29,6.34-1.574,6.971-2.294,1.3-1.482,2.172-2.336,3.414-3.729a5.1,5.1,0,0,0,1.144-1.786A2.064,2.064,0,0,0-306.366,410.261Z" transform="translate(319.391 -393.385)" fill="#fffffa"/></g><g transform="translate(0 107.207)"><path d="M-365.658,398.106s-.182,3.771-.079,10.4a.982.982,0,0,1-.382.8,39.382,39.382,0,0,1-6.122,4.036c.931.179,11.883,2.846,11.29-1.2-.507-3.46.165-6.545,1.763-13.667" transform="translate(375.383 -398.106)" fill="#edbb94"/><path d="M-362.605,416.82a.4.4,0,0,0-.515-.249,13,13,0,0,1-2.481.224c-.715.082-1.94-1.155-2.421-1.081s-3.945,2.666-6.184,3.4a5.87,5.87,0,0,0-2.1.966,2.9,2.9,0,0,0-.834,1.278,1.024,1.024,0,0,0-.064.512,1,1,0,0,0,.405.561c.858.679,10.818.15,12.85-.333a2.977,2.977,0,0,0,1.869-.953C-361.379,420.211-362.091,418.326-362.605,416.82Z" transform="translate(377.215 -404.592)" fill="#ffab74"/><path d="M-362.6,417.336a.394.394,0,0,0-.2-.225c.45,1.338.859,2.792.271,3.581a2.975,2.975,0,0,1-1.868.952c-1.989.474-11.56.989-12.777.375a.854.854,0,0,0-.028.371,1,1,0,0,0,.405.561c.858.679,10.818.15,12.85-.333a2.977,2.977,0,0,0,1.869-.953C-361.379,420.726-362.09,418.842-362.6,417.336Z" transform="translate(377.215 -405.107)" fill="#fffffa"/></g><path d="M-370.777,262.366c-.418,11.289,5.217,77.747,5.217,77.747a5.9,5.9,0,0,0,2.365.357,38.6,38.6,0,0,0,4.147-.244,150.424,150.424,0,0,0,3.35-34.053c-.075-2.3-.225-4.6-.479-6.869a40.379,40.379,0,0,1,.234-10.847c.657-4.054,1.314-8.595,1.9-13.305,1.136-9.233,2.017-19.133,2.168-27.325.685-39.2-16-7.044-16-7.044A124.269,124.269,0,0,0-370.777,262.366Z" transform="translate(374.852 -228.37)" fill="#c3baa6"/><path d="M-332.752,253.915s4.978,10.3,3.709,21.264a143.155,143.155,0,0,1-4.553,21.462,14.021,14.021,0,0,0,.778,9.721c5.239,11.46,11.958,39.388,11.958,39.388s-3.816,2.094-6.934,1.952c0,0-14.853-32.366-17.455-41.9-4.813-17.621-5.5-51.083-5.5-51.083Z" transform="translate(367.467 -237.781)" fill="#c3baa6"/><path d="M-347.325,301.981c-1.314-8.721-2.087-18.4-2.532-25.943" transform="translate(367.137 -245.93)" fill="none" stroke="#a59c91" stroke-miterlimit="10" stroke-width="1"/><g transform="translate(7.709 119.34)"><ellipse cx="0.533" cy="0.395" rx="0.533" ry="0.395" transform="translate(0.906 1.066) rotate(-88.886)" fill="#f9e0d9"/><ellipse cx="0.32" cy="0.237" rx="0.32" ry="0.237" transform="translate(0 1.624) rotate(-88.886)" fill="#f9e0d9"/></g><g transform="translate(41.832 115.582)"><ellipse cx="0.395" cy="0.533" rx="0.395" ry="0.533" transform="translate(0.569 0.227) rotate(-16.691)" fill="#f9e0d9"/><ellipse cx="0.237" cy="0.32" rx="0.237" ry="0.32" transform="translate(0 1.444) rotate(-16.691)" fill="#f9e0d9"/></g><path d="M-350.274,274.711a10.5,10.5,0,0,1,7.813-.969" transform="translate(367.29 -244.952)" fill="none" stroke="#a59c91" stroke-miterlimit="10" stroke-width="1"/><path d="M-355.106,274.649a12.7,12.7,0,0,0-2.746-1.885" transform="translate(370.082 -244.724)" fill="none" stroke="#a59c91" stroke-miterlimit="10" stroke-width="1"/><path d="M-348.131,260.2q-.189,3.03-.378,6.06a5.666,5.666,0,0,1-.332,1.874c-.378.889-.767,1.04-1.533,1.629.169-3.078.134-6.1.3-9.177" transform="translate(367.327 -240.095)" fill="none" stroke="#a59c91" stroke-miterlimit="10" stroke-width="1"/><path d="M-326.562,262.473s6.681,6.417-1.87,39.1c-1.34,12,6.607,14.039,13.239,44.679" transform="translate(359.299 -240.933)" fill="none" stroke="#a59c91" stroke-miterlimit="10" stroke-width="1"/></g><path d="M-364.25,255.219s.632,1.817,5.158,2.863,17.79-.349,20-4.183S-359.934,251.268-364.25,255.219Z" transform="translate(372.439 -176.661)" fill="#a89d86" opacity="0.3"/><g transform="translate(19.993 23.938)"><path d="M-338.921,176.41a8.189,8.189,0,0,1-5.763.536.96.96,0,0,1-.692-.884l-.053-1.475-.133-3.711,5.95.208.773-.105.021.262.232,1.76.295,2.235A1.133,1.133,0,0,1-338.921,176.41Z" transform="translate(345.562 -170.875)" fill="#ffc3a4"/></g><g transform="translate(3.926 27.124)"><path d="M-339.411,224.433a1.662,1.662,0,0,1-1.08,1.63c-3.758,1.4-16.207,5.356-27.172.928l-.029-.012a4.974,4.974,0,0,1-3.061-4.309c-.566-9.071-1.2-36.457,11.011-44.464h.006c.189-.126.379-.24.568-.347.126-.082,4.223-1.871,4.349-1.94a33.581,33.581,0,0,0,7.358,0c1.295-.051,6.154,1.835,6.154,1.835a.652.652,0,0,0-.006-.111l.2,3.72.07,1.364,1.522,38.793.044,1.074Z" transform="translate(370.999 -175.918)" fill="#ffab74"/><path d="M-330.741,209.995a35.4,35.4,0,0,0,2.383,11.914,18.7,18.7,0,0,0,1.92,3.865L-328,185.907l-.069-1.364-6.935,5.028C-337.6,196.1-330.691,206.1-330.741,209.995Z" transform="translate(357.955 -179.095)" fill="#f99e6b"/><path d="M-368.416,206.482a2.394,2.394,0,0,1,3.424-.956,10.434,10.434,0,0,1,1.539,1.817,1.774,1.774,0,0,0,2.105.629c.513-.314.675-.977,1.06-1.441a2.491,2.491,0,0,1,2.938-.406,7.978,7.978,0,0,1,2.377,2.1,1.39,1.39,0,0,0,.637.483c.744.2,1.182-.77,1.655-1.377A2.433,2.433,0,0,1-349.3,207c.5.438.825,1.093,1.417,1.4s1.578-.147,1.343-.772" transform="translate(370.047 -186.686)" fill="none" stroke="#a85d0b" stroke-miterlimit="10" stroke-width="1" opacity="0.39"/><path d="M-365.415,207.846a2.414,2.414,0,0,0-.4,1.317.841.841,0,0,0,.231.661c.319.268.825.037,1.071-.3a1.205,1.205,0,0,0,0-1.5.782.782,0,0,0-1.288.284" transform="translate(369.09 -187.665)" fill="none" stroke="#a85d0b" stroke-miterlimit="10" stroke-width="1" opacity="0.39"/><path d="M-352.524,209.78a1.21,1.21,0,0,0-.908.9.737.737,0,0,0,.774.851.739.739,0,0,0,.534-.747,1.307,1.307,0,0,0-.431-.871" transform="translate(364.531 -188.392)" fill="none" stroke="#a85d0b" stroke-miterlimit="10" stroke-width="1" opacity="0.39"/><path d="M-358.858,203.447a1.21,1.21,0,0,0-.909.9.737.737,0,0,0,.774.851.737.737,0,0,0,.534-.746,1.314,1.314,0,0,0-.431-.872" transform="translate(366.864 -186.059)" fill="none" stroke="#a85d0b" stroke-miterlimit="10" stroke-width="1" opacity="0.39"/><path d="M-346.024,204.114a1.209,1.209,0,0,0-.908.9.737.737,0,0,0,.774.851.737.737,0,0,0,.534-.746,1.309,1.309,0,0,0-.431-.872" transform="translate(362.136 -186.305)" fill="none" stroke="#a85d0b" stroke-miterlimit="10" stroke-width="1" opacity="0.39"/><path d="M-342.091,210.2a.854.854,0,0,0-.745,1.2.571.571,0,0,0,.348.289c.387.095.695-.358.727-.755a1.7,1.7,0,0,0-.14-.82l-.291.2" transform="translate(360.655 -188.515)" fill="none" stroke="#a85d0b" stroke-miterlimit="10" stroke-width="1" opacity="0.39"/><g transform="translate(21.912 1.325)"><g transform="translate(24.656 45.472)"><path d="M-284.314,259.014c-1.47.072-1.1.22-2.68-1.522-1.964-.523-3.495.687-4.867-.692-.2-.2-.668-.609-1.323-1.169-1.016-.869-2.478-2.124-4.086-3.606l4.946-2.014c.818,1.2,1.5,2.094,1.808,2.033,0,0,.009,0,.013,0a24.861,24.861,0,0,1,6.394-1.112c1.568.125,3.051,3.05,3.177,4.314S-282.844,258.951-284.314,259.014Z" transform="translate(297.269 -250.01)" fill="#edbb94"/><path d="M-281.826,252.542a5.516,5.516,0,0,1,3.163,1.2c1.129.808.056,1.828-.722,1.227s-1.485-.347-2.652.427c-.491.326-1.544.991-2.466.474" transform="translate(292.566 -250.943)" fill="none" stroke="#e69677" stroke-linecap="round" stroke-linejoin="round" stroke-width="0.414"/><path d="M-274.66,259.47a2.652,2.652,0,0,1-1.755.352,3.457,3.457,0,0,1-2.356-1.2" transform="translate(290.454 -253.183)" fill="none" stroke="#e69677" stroke-linecap="round" stroke-linejoin="round" stroke-width="0.414"/><path d="M-275.758,261.23a2.373,2.373,0,0,1-2.109.388,2.62,2.62,0,0,1-1.558-1.725" transform="translate(290.695 -253.651)" fill="none" stroke="#e69677" stroke-linecap="round" stroke-linejoin="round" stroke-width="0.414"/><path d="M-277.449,262.743a2.374,2.374,0,0,1-2.11.388,2.62,2.62,0,0,1-1.558-1.724" transform="translate(291.318 -254.209)" fill="none" stroke="#e69677" stroke-linecap="round" stroke-linejoin="round" stroke-width="0.414"/></g><path d="M-293.183,255.631c-1.016-.869-2.478-2.124-4.086-3.606l4.946-2.014c.818,1.2,1.5,2.094,1.808,2.033a3.526,3.526,0,0,1-.2.585A8.828,8.828,0,0,1-293.183,255.631Z" transform="translate(321.925 -204.538)" fill="#ddac8a"/><path d="M-292.316,249.6c-.732,1.642-2.94,3.828-4.621,4.1a5.019,5.019,0,0,1-1.928-.121,4.457,4.457,0,0,1-2.083-.97,2.355,2.355,0,0,1-.737-2.169,3.778,3.778,0,0,1,.549-1.227,9.437,9.437,0,0,1,6.279-4.2c1.1-.177,2.336-.205,2.626,1.021A5.464,5.464,0,0,1-292.316,249.6Z" transform="translate(323.568 -202.66)" fill="#fff"/><path d="M-313.662,198.453c-9.571-24.582-19.673-20.121-19.673-20.121-.179.078-.769.485-.769.485-1.083,1.082-.877,2.84-.916,4.369A46.18,46.18,0,0,1-336.1,189.5a9.746,9.746,0,0,0,.259,5.012,17.315,17.315,0,0,0,5.06,7.26,5.717,5.717,0,0,1,1.166,1.153,6.119,6.119,0,0,1,.663,2.651,26.074,26.074,0,0,0,2.367,7.1l3.357,7.56c1.731,3.9,4.651,6.828,9.1,7.171,1.834.141,3.432.169,5-.91a32.9,32.9,0,0,0,3.271-3.119C-298.73,216.847-310.335,203.64-313.662,198.453Z" transform="translate(336.306 -178.016)" fill="#ffab74"/></g></g><g transform="translate(14.696 3.084)"><path d="M-343.986,140.13c-5.667-1.7-7.38-.067-8.446,4.828s-2.648,10.838-.294,14.091,11.349,3.548,13.041-1.76,2.176-8.973,2.842-10.658S-341.962,140.737-343.986,140.13Z" transform="translate(353.948 -138.455)" fill="#ffc3a4"/><path d="M-347.73,156.63a5.411,5.411,0,0,1-1.074,2.847,8.611,8.611,0,0,0,.86.679" transform="translate(352.053 -144.773)" fill="none" stroke="#e2906d" stroke-linecap="round" stroke-linejoin="round" stroke-width="0.5"/><path d="M-351.4,140.267a4.522,4.522,0,0,0,3.866,3.8,15.525,15.525,0,0,1,8.275,5.048,2.9,2.9,0,0,0,4.184.947s.176-3.372.2-5.25-5.078-6.295-7.179-6.844S-351.016,139.089-351.4,140.267Z" transform="translate(353.009 -137.857)" fill="#51443f"/><path d="M-341.657,156.189c-.065.4-.349.689-.635.643s-.464-.41-.4-.812.349-.689.635-.643S-341.592,155.787-341.657,156.189Z" transform="translate(349.806 -144.31)" fill="#382f2c"/><path d="M-350.491,155.029c-.065.4-.349.69-.635.644s-.464-.41-.4-.812.35-.689.635-.643S-350.425,154.628-350.491,155.029Z" transform="translate(353.06 -143.883)" fill="#382f2c"/><path d="M-343,152.034s2.694-.411,4.049.717" transform="translate(349.917 -143.053)" fill="none" stroke="#51443f" stroke-linecap="round" stroke-linejoin="round" stroke-width="1"/><path d="M-353.138,152.063a3.79,3.79,0,0,1,3.24-.51" transform="translate(353.65 -142.849)" fill="none" stroke="#51443f" stroke-linecap="round" stroke-linejoin="round" stroke-width="1"/><path d="M-327.449,159.764c.311,1.788-1.291,4.047-2.684,4.29s-2.948-.31-2.317-2.382c.529-1.736.567-3.434,1.96-3.677S-327.761,157.976-327.449,159.764Z" transform="translate(346.082 -145.246)" fill="#ffc3a4"/><path d="M-348.184,163.433a7.548,7.548,0,0,1-1.953-.237,2.538,2.538,0,0,0-.04.436,2.194,2.194,0,0,0,2.072,2.3,2.194,2.194,0,0,0,2.073-2.3,2.561,2.561,0,0,0-.047-.481A7.272,7.272,0,0,1-348.184,163.433Z" transform="translate(352.559 -147.175)" fill="#fff"/><path d="M-343.341,160c0,.57.739,1.031,1.65,1.031s1.65-.462,1.65-1.031-.739-1.031-1.65-1.031S-343.341,159.428-343.341,160Z" transform="translate(350.041 -145.633)" fill="#f8b593"/><path d="M-351.72,159.071c.134-.553-.476-1.176-1.361-1.39a2.565,2.565,0,0,0-.528-.067c-.1.672-.184,1.336-.236,1.985a2.562,2.562,0,0,0,.279.087C-352.68,159.9-351.854,159.625-351.72,159.071Z" transform="translate(353.91 -145.135)" fill="#f8b593"/></g><g transform="translate(12.836 27.899)"><path d="M-351.987,177.424s-8.736,1.774.723,25.819,16.11,37.778,16.11,37.778.632,1.935-.951.352-5.561-11.02-10.509-23.175c-4.927-12.1-13.724-30.262-8.856-39.234C-355.471,178.963-354.192,176.295-351.987,177.424Z" transform="translate(356.893 -177.145)" fill="#7e4d3d"/><path d="M-317.116,267.1s-7.15,2.6-7.709,4.054,2.446,10.432,4.374,11.781,10.49-2.874,10.96-3.812S-312.542,265.773-317.116,267.1Z" transform="translate(345.105 -210.246)" fill="#7e4d3d"/><path d="M-312.011,272.134s-.909,4.516-1.613,5.308-8.049-4.376-8.97-4.252c-.721.1-.561-.057-.417-.146s.685-.21,1.866.464,6.624,3.676,7.231,3.709,1.671-5.057,1.678-5.166C-312.225,271.864-311.942,271.8-312.011,272.134Z" transform="translate(344.457 -212.052)" fill="#63362a"/></g></g><g transform="translate(28.48 24.816)"><path d="M-426.412,107.921a.975.975,0,0,1,.151-1.1,1.064,1.064,0,0,1,.931-.292,1.417,1.417,0,0,1,1.165,1.489,8.139,8.139,0,0,1-.3,2.335.657.657,0,0,1-.74.474,6.7,6.7,0,0,1-2.414-.87,2.379,2.379,0,0,1-.967-1.1,1.028,1.028,0,0,1,.692-1.451c.382-.109.835-.118,1.487.512Z" transform="translate(428.687 -106.513)" fill="#ef927f"/><path d="M-322.726,127.518a.975.975,0,0,1,1.084-.246,1.064,1.064,0,0,1,.6.769,1.416,1.416,0,0,1-.984,1.613,8.114,8.114,0,0,1-2.293.536.656.656,0,0,1-.7-.526,6.683,6.683,0,0,1-.034-2.566,2.382,2.382,0,0,1,.685-1.29,1.029,1.029,0,0,1,1.6.138,1.4,1.4,0,0,1,.043,1.572Z" transform="translate(390.551 -113.503)" fill="#ef927f"/></g></g></g></svg>