<svg xmlns="http://www.w3.org/2000/svg" width="144.891" height="256.477" viewBox="0 0 144.891 256.477"><g transform="translate(0 0)"><path d="M-404.542,101c.006-.048,2.516-22.013-17.274-30.978-9.92-4.494-21.67-3.439-31.052,2.138-15.378,9.142-27.11,27.808-17.33,57.731,8.145,24.922,24.987,50.541,36.145,65.86a20.915,20.915,0,0,0,27.486,5.513c16.173-9.448,41.232-26.952,61.647-53.877,9.488-12.513,15.762-28.035,16.025-43.761.363-21.769-15.092-37.208-37.4-35.108-12.616,1.187-26.167,6.191-38.243,32.48Z" transform="translate(473.779 -67.223)" fill="#fcf0f0" opacity="0.45"/><ellipse cx="48.314" cy="7.18" rx="48.314" ry="7.18" transform="translate(28.532 242.117)" fill="#f2cbc2"/><g transform="translate(18.287 20.792)"><path d="M-393.145,150.132h-11.194l1.372-15.377h9.823Z" transform="translate(434.771 -108.165)" fill="#ffc7a8"/><rect width="35.377" height="55.704" transform="translate(19.597 71.996)" fill="#7c654e"/><g transform="translate(37.286 93.423)"><g transform="translate(10.184 103.155)"><path d="M-377.345,390.37l-.585-12.746,8.068-.584.819,13.331S-372.784,397.386-377.345,390.37Z" transform="translate(379.422 -377.039)" fill="#efb69a"/><rect width="8.341" height="4.931" transform="translate(2.038 11.518)" fill="#4e4f56"/><path d="M-379.775,399.57a6.328,6.328,0,0,0-.274,2.241l-.007,4.318a3.912,3.912,0,0,0,.541,2.446,2.991,2.991,0,0,0,2.656.9c.972-.084,1.914-.4,2.888-.456a8.929,8.929,0,0,1,4.865,1.5,29.952,29.952,0,0,0,4.516,2.492,17.579,17.579,0,0,0,5.252.838,9.412,9.412,0,0,0,4.546-.548,2.767,2.767,0,0,0,.9-.643,2.79,2.79,0,0,0,.565-1.168,5.151,5.151,0,0,0-3.4-5.983c-.911-.271-1.879-.274-2.812-.455-3.2-.619-5.606-3.2-7.689-5.7-.667-.8-1.527-1.7-2.559-1.543a3.888,3.888,0,0,0-1.318.613,7.085,7.085,0,0,1-4.839.789C-377.5,398.91-378.94,397.358-379.775,399.57Z" transform="translate(380.056 -383.231)" fill="#404148"/></g><path d="M-368.718,335.856a19.178,19.178,0,0,1-17.978,3.065c-.014-4.794-7.875-105.558-7.875-105.558l29.873-3.352-3.127,68.1S-369.315,327.5-368.718,335.856Z" transform="translate(394.571 -230.012)" fill="#404148"/><path d="M-365.18,356.075s-12.832,5.729-20.331,1.754l1.518,18.709a17.267,17.267,0,0,0,17.978-3.065A168.991,168.991,0,0,1-365.18,356.075Z" transform="translate(391.868 -267.628)" fill="#4e4f56"/></g><g transform="translate(13.768 93.573)"><g transform="translate(6.452 104.174)"><path d="M-416.076,392.036l-.585-12.745,8.069-.585.819,13.331S-411.515,399.052-416.076,392.036Z" transform="translate(418.228 -378.705)" fill="#efb69a"/><rect width="8.341" height="4.931" transform="translate(2.113 11.518)" fill="#4e4f56"/><path d="M-417.5,406.543a24.709,24.709,0,0,0-1.393,7.191,5.684,5.684,0,0,0,1.276,4.093c1.273,1.3,3.293,1.391,5.109,1.4l6.183.044a3.167,3.167,0,0,0,1.548-.25,2.637,2.637,0,0,0,1.089-1.485,7.647,7.647,0,0,0,.053-5.068c-.862-2.516-3-4.455-3.786-7a14.266,14.266,0,0,1-.445-2.262c-.079-.555-.156-1.106-.268-1.654a10.242,10.242,0,0,1,.015-1.384.963.963,0,0,0-.176-.56.858.858,0,0,0-.871-.2,7.131,7.131,0,0,0-1.184.557,5.986,5.986,0,0,1-3.049.281,5.735,5.735,0,0,1-1.031-.159c-.394-.109-.764-.3-1.161-.4a1.389,1.389,0,0,0-1.174.159.629.629,0,0,0-.213.274.829.829,0,0,0-.032.311,10.268,10.268,0,0,0,.325,1.37,5.557,5.557,0,0,1-.018,1.635A17.957,17.957,0,0,1-417.5,406.543Z" transform="translate(418.895 -384.875)" fill="#404148"/></g><path d="M-424.07,336.071a19.179,19.179,0,0,0,17.978,3.065c.014-4.794,5.51-107.053,5.51-107.053l-27.508-1.856,3.127,68.1S-423.472,327.711-424.07,336.071Z" transform="translate(428.09 -230.226)" fill="#404148"/><path d="M-423.55,356.289s12.832,5.729,20.332,1.754l-1.519,18.709a17.267,17.267,0,0,1-17.978-3.065A168.987,168.987,0,0,0-423.55,356.289Z" transform="translate(426.735 -267.842)" fill="#4e4f56"/></g><g transform="translate(27.801 33.941)"><path d="M-405.672,145.233h0a13.977,13.977,0,0,0,13.634.28l.052-.027,1.932,67.987h0a25.556,25.556,0,0,1-18.036,0h0Z" transform="translate(408.089 -145.233)" fill="#fffffe"/><path d="M-401.758,147.33s3.859,3.6,9.428.526" transform="translate(406.2 -145.859)" fill="none" stroke="#e2e2dc" stroke-miterlimit="10" stroke-width="1"/></g><g transform="translate(22.461)"><ellipse cx="10.7" cy="14.427" rx="10.7" ry="14.427" transform="translate(4.125 3.315)" fill="#ffc7a8"/><path d="M-409.835,125.055c.152,1.968-.626,3.633-1.736,3.719s-2.134-1.44-2.286-3.408.625-3.632,1.736-3.718S-409.987,123.087-409.835,125.055Z" transform="translate(415.156 -104.253)" fill="#ffc7a8"/><path d="M-385.857,104.1a1.993,1.993,0,0,1-2.684.481,8.67,8.67,0,0,1-2.128-2.142,17.014,17.014,0,0,0-6.918-4.5c-2.295-.888-4.864-1.5-7.2-.729a9.144,9.144,0,0,0-5.6,3.469,3.632,3.632,0,0,1-.929.506c-.335.184-.669.37-.993.573a7.5,7.5,0,0,0-1.678,1.359c-2.915,3.284-1.431,7.864-.528,11.584,0,.015.523.679.516.683.492-.859,1.282-1.377,2.06-.929a2.322,2.322,0,0,1,.919,1.765,9.239,9.239,0,0,1,0,2.618l1.452.008.566-3.362a4.832,4.832,0,0,1,.423-1.5,6.935,6.935,0,0,1,1.622-1.683c1.871-1.707,3.342-4.522,3.048-7.037a8.29,8.29,0,0,0,5.017,5.658,18.871,18.871,0,0,0,7.715,1.2c.952-.009,2.079-.145,2.532-.982a2.358,2.358,0,0,1-1.494-.214,3.3,3.3,0,0,0,2.843-3.048,2.984,2.984,0,0,1-2.035.5,9.13,9.13,0,0,0,2.489-1.591A3.1,3.1,0,0,0-385.857,104.1Z" transform="translate(415.7 -96.857)" fill="#51443f"/></g><g transform="translate(0 33.941)"><path d="M-417.5,145.233s-14.053,60.6-16.263,83.989c-.681-.73-1.319-1.459-1.936-2.2a50.909,50.909,0,0,1-5.781-8.475,58.529,58.529,0,0,1-6.237-19.526c.351-14.776,9.3-42.938,11.282-46.1C-434.208,150.362-417.5,145.233-417.5,145.233Z" transform="translate(447.714 -145.233)" fill="#4e4f56"/><path d="M-428.167,173.7l-4.876,61.819a50.915,50.915,0,0,1-5.781-8.475Z" transform="translate(445.061 -153.728)" fill="#46474f"/><path d="M-427.765,156.886l-9.716,71.63h0a55.668,55.668,0,0,0,19.944,4.518l3.551.145-.456-87.945Z" transform="translate(444.661 -145.233)" fill="#4e4f56"/><path d="M-354.13,199.127c-1.165,7.542-2.884,16.965-7.753,25.426l-.007.014a40.69,40.69,0,0,1-3.389,5.024c-.372.477-.758.947-1.165,1.41-.295.344-.6.688-.912,1.024-2.21-23.385-17.781-86.432-17.781-86.432s14.968,5.221,17.192,7.8C-365.959,156.547-354.481,184.358-354.13,199.127Z" transform="translate(429.041 -145.34)" fill="#4e4f56"/><path d="M-354.907,233.333l-.007.014a40.686,40.686,0,0,1-3.389,5.023c-.372.477-.758.947-1.165,1.41l-2.291-64.765Z" transform="translate(422.065 -154.12)" fill="#a89076"/><path d="M-368.369,156.779l8.439,71.706c-6.266,3.441-15.68,4.366-23.225,4.683l-2.228.093.173-87.748Z" transform="translate(429.115 -145.317)" fill="#4e4f56"/><g transform="translate(24.838 37.301)"><path d="M-408.222,213.318a1.753,1.753,0,0,1-1.753,1.753,1.753,1.753,0,0,1-1.753-1.753,1.753,1.753,0,0,1,1.753-1.753A1.753,1.753,0,0,1-408.222,213.318Z" transform="translate(412.139 -202.327)" fill="#fffffe"/><path d="M-408.222,200.151a1.754,1.754,0,0,1-1.753,1.754,1.754,1.754,0,0,1-1.753-1.754,1.753,1.753,0,0,1,1.753-1.753A1.753,1.753,0,0,1-408.222,200.151Z" transform="translate(412.139 -198.398)" fill="#fffffe"/><path d="M-408.806,227.323a1.753,1.753,0,0,1-1.753,1.753,1.754,1.754,0,0,1-1.754-1.753,1.754,1.754,0,0,1,1.754-1.753A1.753,1.753,0,0,1-408.806,227.323Z" transform="translate(412.313 -206.506)" fill="#fffffe"/></g><path d="M-421.539,254.17h1.074a4.6,4.6,0,0,0,4.6-4.6v-9.11l-10.267-1.419v10.529A4.6,4.6,0,0,0-421.539,254.17Z" transform="translate(441.275 -173.225)" fill="#46474f"/></g><g transform="translate(30.891 16.303)"><path d="M-391.619,125.89s.039,2.9,1.244,4.234a12.392,12.392,0,0,1-1.317.889" transform="translate(400.107 -121.823)" fill="none" stroke="#e2906d" stroke-linecap="round" stroke-linejoin="round" stroke-width="0.653"/><path d="M-399.52,125.374c.051.588.431,1.036.849,1s.715-.542.664-1.13-.431-1.035-.848-1S-399.571,124.786-399.52,125.374Z" transform="translate(402.444 -121.331)" fill="#382f2c"/><path d="M-398.323,120.831s-3.307-1.107-5.345.229A4.6,4.6,0,0,1-398.323,120.831Z" transform="translate(403.68 -120.093)" fill="none" stroke="#51443f" stroke-linecap="round" stroke-linejoin="round" stroke-width="1.227"/><path d="M-393.526,135.18a11.2,11.2,0,0,0,2.574-.182,2.633,2.633,0,0,1,.034.507,2.693,2.693,0,0,1-2.816,2.564,2.693,2.693,0,0,1-2.625-2.759,2.622,2.622,0,0,1,.081-.554A10.818,10.818,0,0,0-393.526,135.18Z" transform="translate(401.5 -124.468)" fill="#fff"/><path d="M-398.909,129.975c-.062.824-1.181,1.411-2.5,1.312s-2.337-.848-2.275-1.671,1.181-1.412,2.5-1.312S-398.846,129.15-398.909,129.975Z" transform="translate(403.686 -122.54)" fill="#f8b593"/><path d="M-386.1,125.832c-.051.588-.431,1.036-.848,1s-.716-.542-.664-1.13.431-1.036.848-1S-386.047,125.244-386.1,125.832Z" transform="translate(398.891 -121.468)" fill="#382f2c"/><path d="M-389.21,121.1s3.393-.771,5.285.762A4.585,4.585,0,0,0-389.21,121.1Z" transform="translate(399.366 -120.243)" fill="none" stroke="#51443f" stroke-linecap="round" stroke-linejoin="round" stroke-width="1.225"/><path d="M-387.986,130.147c-.022.725.9,1.341,2.059,1.377s2.117-.522,2.139-1.247-.9-1.34-2.059-1.377S-387.964,129.423-387.986,130.147Z" transform="translate(399.001 -122.721)" fill="#f8b593"/></g></g><g transform="translate(67.75 46.132)"><g transform="translate(13.169)"><path d="M-353.456,138.367s-1.353-3.179,4.049-4.7c2.546-.717,4.858-1.052,7.391-.133,8.326,3.023,13.5,10.362,16.366,18.362,2.438,6.8,6.077,12.385,7,19.568.739,5.767-3.47,9.651-5.722,8.073-3.319-2.326-3.841-10.112-11.619-11.809s-4.586,0-8.188,1.427-15.2-3.606-14.2-19.468C-357.517,135.772-353.456,138.367-353.456,138.367Z" transform="translate(358.446 -132.974)" fill="#51443f"/><path d="M-336.572,168.422c0,2.385-3.754,4.315-8.391,4.315-4.448,0-7.887-2.329-8.174-4.574.077.007.154.021.232.035.561.1.934.744,1.5.828a51.431,51.431,0,0,0,7.121.533,15.374,15.374,0,0,0,3.312-.147,4.83,4.83,0,0,0,2.75-1.9,1.226,1.226,0,0,1,.33-.274,1.05,1.05,0,0,1,.87.035c.063.028.126.049.2.084A2.413,2.413,0,0,1-336.572,168.422Z" transform="translate(356.862 -143.174)" fill="#443734"/><path d="M-347.086,142.7c1.9,1.675,4.443,2.349,6.786,3.308,3.023,1.237,5.968,3.185,7.311,6.163" transform="translate(355.057 -135.875)" fill="none" stroke="#35241e" stroke-linecap="round" stroke-linejoin="round" stroke-width="0.5" opacity="0.47"/><path d="M-341.908,142.438c1.205,1.307,3.1,1.635,4.8,2.146a28.2,28.2,0,0,1,4.392,1.807,20.9,20.9,0,0,1,6.026,4.1,9.165,9.165,0,0,1,2.728,6.585" transform="translate(353.511 -135.798)" fill="none" stroke="#35241e" stroke-linecap="round" stroke-linejoin="round" stroke-width="0.5" opacity="0.47"/><path d="M-331.987,137.891a12.374,12.374,0,0,0,4.88,4.736" transform="translate(350.551 -134.441)" fill="none" stroke="#35241e" stroke-linecap="round" stroke-linejoin="round" stroke-width="0.5" opacity="0.47"/></g><path d="M-311.2,263.161s-8.75-16.019-10.452-16.926l-.421,1.823s6.685,9.707,9.383,15.961" transform="translate(360.76 -166.77)" fill="#7e4d3d"/><path d="M-340.369,231.907a1.846,1.846,0,0,1-1.2,1.81c-4.175,1.558-18,5.95-30.183,1.031l-.032-.013a5.526,5.526,0,0,1-3.4-4.787c-.629-10.076-1.329-40.5,12.23-49.392h.007c.21-.14.421-.267.631-.386.095-.062,2.188-.982,3.589-1.6a5.6,5.6,0,0,1,2.608-.464,34.872,34.872,0,0,0,6.809-.09c1.438-.056,6.835,2.039,6.835,2.039a.732.732,0,0,0-.006-.123l.217,4.132.077,1.515,1.691,43.093.049,1.193Z" transform="translate(376.691 -146.414)" fill="#46474f"/><g transform="translate(0 66.93)"><g transform="translate(40.08 108.87)"><path d="M-320.09,386.242s4.857,9.684,7.544,15.08a1.185,1.185,0,0,1,0,1.037,41.09,41.09,0,0,1-3.537,6.291c.871-.282,11.515-3.315,9.344-6.545-1.859-2.764-3.162-10.594-5.673-18.562" transform="translate(320.09 -383.542)" fill="#edbb94"/><path d="M-306.793,407.513a.36.36,0,0,0-.489.086,5.3,5.3,0,0,1-2.235,1.574c-1.024.361-2.135-.092-2.517.2s-3,5.8-5.287,7.678c-1.679,1.379-.466,2.437-.251,2.487,6.2,1.433,7.043-1.748,7.744-2.548,1.443-1.647,2.413-2.6,3.793-4.142a5.665,5.665,0,0,0,1.271-1.984C-304.551,409.716-305.656,408.273-306.793,407.513Z" transform="translate(319.525 -390.677)" fill="#ffab74"/><path d="M-305.055,410.261a1.636,1.636,0,0,1-.015.316,5.649,5.649,0,0,1-1.271,1.983c-1.379,1.547-2.35,2.5-3.793,4.142-.7.8-1.545,3.982-7.743,2.548a.749.749,0,0,1-.281-.208,1.2,1.2,0,0,0,.587,1.331c6.2,1.433,7.043-1.748,7.744-2.548,1.442-1.647,2.413-2.6,3.793-4.142a5.664,5.664,0,0,0,1.271-1.984A2.293,2.293,0,0,0-305.055,410.261Z" transform="translate(319.524 -391.515)" fill="#fffffa"/></g><g transform="translate(0 119.088)"><path d="M-364.929,398.106s-.2,4.189-.088,11.556a1.091,1.091,0,0,1-.424.892,43.748,43.748,0,0,1-6.8,4.483c1.034.2,13.2,3.161,12.541-1.329-.563-3.843.183-7.271,1.958-15.182" transform="translate(375.731 -398.106)" fill="#edbb94"/><path d="M-360.986,416.943a.447.447,0,0,0-.572-.276,14.433,14.433,0,0,1-2.756.249c-.794.091-2.155-1.283-2.689-1.2s-4.382,2.961-6.869,3.782a6.521,6.521,0,0,0-2.332,1.073,3.225,3.225,0,0,0-.927,1.419,1.137,1.137,0,0,0-.071.568,1.116,1.116,0,0,0,.45.623c.953.754,12.016.167,14.274-.37a3.307,3.307,0,0,0,2.076-1.059C-359.624,420.709-360.414,418.616-360.986,416.943Z" transform="translate(377.215 -403.359)" fill="#ffab74"/><path d="M-360.986,417.36a.438.438,0,0,0-.218-.25c.5,1.487.954,3.1.3,3.977a3.305,3.305,0,0,1-2.075,1.058c-2.209.526-12.841,1.1-14.193.417a.949.949,0,0,0-.031.413,1.116,1.116,0,0,0,.45.623c.953.754,12.016.167,14.274-.37a3.307,3.307,0,0,0,2.076-1.059C-359.624,421.127-360.414,419.034-360.986,417.36Z" transform="translate(377.215 -403.777)" fill="#fffffa"/></g><path d="M-370.774,266.134c-.464,12.54,5.8,86.364,5.8,86.364a6.549,6.549,0,0,0,2.627.4,42.87,42.87,0,0,0,4.607-.271s4.336-18.679,3.721-37.826c-.083-2.554-.25-5.108-.532-7.63a44.853,44.853,0,0,1,.26-12.049c.73-4.5,1.459-9.548,2.105-14.78,1.262-10.257,2.241-21.253,2.408-30.353.761-43.548-17.779-7.824-17.779-7.824A138.041,138.041,0,0,0-370.774,266.134Z" transform="translate(375.301 -228.37)" fill="#c3baa6"/><path d="M-330.757,253.915s5.529,11.44,4.12,23.62a159.023,159.023,0,0,1-5.058,23.841,15.575,15.575,0,0,0,.864,10.8c5.82,12.73,13.283,43.754,13.283,43.754s-4.239,2.326-7.7,2.168c0,0-16.5-35.953-19.39-46.538-5.346-19.574-6.112-56.745-6.112-56.745Z" transform="translate(369.319 -235.992)" fill="#c3baa6"/><path d="M-347.045,304.856c-1.46-9.688-2.318-20.436-2.812-28.818" transform="translate(369.052 -242.594)" fill="none" stroke="#a59c91" stroke-miterlimit="10" stroke-width="1"/><g transform="translate(8.563 132.566)"><ellipse cx="0.592" cy="0.439" rx="0.592" ry="0.439" transform="translate(1.006 1.184) rotate(-88.886)" fill="#f9e0d9"/><ellipse cx="0.355" cy="0.263" rx="0.355" ry="0.263" transform="translate(0 1.804) rotate(-88.886)" fill="#f9e0d9"/></g><g transform="translate(46.468 128.391)"><ellipse cx="0.439" cy="0.592" rx="0.439" ry="0.592" transform="translate(0.632 0.252) rotate(-16.691)" fill="#f9e0d9"/><ellipse cx="0.263" cy="0.355" rx="0.263" ry="0.355" transform="translate(0 1.604) rotate(-16.691)" fill="#f9e0d9"/></g><path d="M-350.274,274.858a11.665,11.665,0,0,1,8.679-1.077" transform="translate(369.176 -241.801)" fill="none" stroke="#a59c91" stroke-miterlimit="10" stroke-width="1"/><path d="M-354.8,274.858a14.109,14.109,0,0,0-3.05-2.094" transform="translate(371.438 -241.617)" fill="none" stroke="#a59c91" stroke-miterlimit="10" stroke-width="1"/><path d="M-347.882,260.2q-.209,3.366-.42,6.731a6.3,6.3,0,0,1-.368,2.082c-.42.988-.852,1.156-1.7,1.809.188-3.42.149-6.774.337-10.194" transform="translate(369.206 -237.867)" fill="none" stroke="#a59c91" stroke-miterlimit="10" stroke-width="1"/><path d="M-326.338,262.473s7.421,7.128-2.077,43.437c-1.489,13.331,7.34,15.6,14.706,49.631" transform="translate(362.703 -238.546)" fill="none" stroke="#a59c91" stroke-miterlimit="10" stroke-width="1"/></g><path d="M-364.25,255.624s.7,2.018,5.729,3.18,19.762-.387,22.218-4.647S-359.456,251.235-364.25,255.624Z" transform="translate(373.347 -168.36)" fill="#a89d86" opacity="0.3"/><g transform="translate(22.208 26.591)"><path d="M-338.185,177.023a9.1,9.1,0,0,1-6.4.595,1.066,1.066,0,0,1-.769-.982l-.059-1.639-.148-4.123,6.609.231.859-.117.024.291.258,1.955.328,2.483A1.259,1.259,0,0,1-338.185,177.023Z" transform="translate(345.562 -170.875)" fill="#ffc3a4"/></g><g transform="translate(4.361 30.13)"><path d="M-335.91,229.81a1.846,1.846,0,0,1-1.2,1.81c-4.175,1.558-18,5.95-30.183,1.031l-.032-.013a5.526,5.526,0,0,1-3.4-4.787c-.629-10.076-1.329-40.5,12.231-49.392h.007c.21-.14.421-.267.631-.386.14-.091,4.691-2.078,4.831-2.155a37.3,37.3,0,0,0,8.174,0c1.438-.056,6.836,2.039,6.836,2.039a.725.725,0,0,0-.006-.123l.217,4.132.077,1.515,1.691,43.093.049,1.193Z" transform="translate(370.999 -175.918)" fill="#ffab74"/><path d="M-330.2,212.816a39.326,39.326,0,0,0,2.647,13.234,20.769,20.769,0,0,0,2.133,4.294l-1.74-44.285-.077-1.515-7.7,5.585C-337.821,197.382-330.148,208.494-330.2,212.816Z" transform="translate(360.433 -178.492)" fill="#f99e6b"/><path d="M-368.416,206.63a2.659,2.659,0,0,1,3.8-1.062,11.592,11.592,0,0,1,1.709,2.019,1.971,1.971,0,0,0,2.338.7c.57-.349.75-1.085,1.177-1.6a2.767,2.767,0,0,1,3.264-.451,8.862,8.862,0,0,1,2.641,2.334,1.544,1.544,0,0,0,.708.537c.826.217,1.313-.855,1.839-1.53a2.7,2.7,0,0,1,3.751-.365c.561.487.916,1.214,1.574,1.559s1.753-.163,1.492-.858" transform="translate(370.228 -184.64)" fill="none" stroke="#a85d0b" stroke-miterlimit="10" stroke-width="1" opacity="0.39"/><path d="M-365.37,207.85a2.681,2.681,0,0,0-.447,1.463.934.934,0,0,0,.256.735c.354.3.916.041,1.19-.333a1.339,1.339,0,0,0,0-1.664.869.869,0,0,0-1.431.316" transform="translate(369.453 -185.433)" fill="none" stroke="#a85d0b" stroke-miterlimit="10" stroke-width="1" opacity="0.39"/><path d="M-352.423,209.78a1.344,1.344,0,0,0-1.009,1,.819.819,0,0,0,.859.946.821.821,0,0,0,.594-.829,1.451,1.451,0,0,0-.479-.968" transform="translate(365.76 -186.022)" fill="none" stroke="#a85d0b" stroke-miterlimit="10" stroke-width="1" opacity="0.39"/><path d="M-358.756,203.447a1.344,1.344,0,0,0-1.01,1,.819.819,0,0,0,.86.945.819.819,0,0,0,.594-.829,1.46,1.46,0,0,0-.479-.968" transform="translate(367.65 -184.132)" fill="none" stroke="#a85d0b" stroke-miterlimit="10" stroke-width="1" opacity="0.39"/><path d="M-345.923,204.114a1.343,1.343,0,0,0-1.009,1,.819.819,0,0,0,.859.946.819.819,0,0,0,.594-.829,1.454,1.454,0,0,0-.479-.968" transform="translate(363.82 -184.331)" fill="none" stroke="#a85d0b" stroke-miterlimit="10" stroke-width="1" opacity="0.39"/><path d="M-342,210.205a.948.948,0,0,0-.828,1.335.634.634,0,0,0,.387.321c.429.105.772-.4.808-.838a1.89,1.89,0,0,0-.155-.911l-.323.225" transform="translate(362.621 -186.121)" fill="none" stroke="#a85d0b" stroke-miterlimit="10" stroke-width="1" opacity="0.39"/><g transform="translate(24.341 1.472)"><g transform="translate(27.389 50.512)"><path d="M-282.878,260.011c-1.633.08-1.221.245-2.977-1.69-2.181-.581-3.882.763-5.406-.769-.222-.224-.742-.676-1.469-1.3-1.129-.965-2.752-2.36-4.539-4.006l5.494-2.237c.909,1.332,1.67,2.327,2.008,2.258,0,0,.01,0,.015,0a27.615,27.615,0,0,1,7.1-1.236c1.741.139,3.389,3.388,3.529,4.793S-281.246,259.942-282.878,260.011Z" transform="translate(297.269 -250.01)" fill="#edbb94"/><path d="M-281.529,252.542a6.127,6.127,0,0,1,3.514,1.33c1.254.9.062,2.03-.8,1.363s-1.649-.386-2.946.474c-.545.362-1.715,1.1-2.74.527" transform="translate(293.46 -250.766)" fill="none" stroke="#e69677" stroke-linecap="round" stroke-linejoin="round" stroke-width="0.414"/><path d="M-274.2,259.563a2.945,2.945,0,0,1-1.949.391,3.841,3.841,0,0,1-2.617-1.331" transform="translate(291.749 -252.58)" fill="none" stroke="#e69677" stroke-linecap="round" stroke-linejoin="round" stroke-width="0.414"/><path d="M-275.351,261.378a2.636,2.636,0,0,1-2.343.431,2.911,2.911,0,0,1-1.73-1.916" transform="translate(291.944 -252.959)" fill="none" stroke="#e69677" stroke-linecap="round" stroke-linejoin="round" stroke-width="0.414"/><path d="M-277.042,262.892a2.637,2.637,0,0,1-2.343.431,2.91,2.91,0,0,1-1.73-1.915" transform="translate(292.449 -253.411)" fill="none" stroke="#e69677" stroke-linecap="round" stroke-linejoin="round" stroke-width="0.414"/></g><path d="M-292.73,256.254c-1.129-.965-2.752-2.36-4.539-4.006l5.494-2.237c.909,1.332,1.67,2.327,2.008,2.258a3.918,3.918,0,0,1-.225.65A9.806,9.806,0,0,1-292.73,256.254Z" transform="translate(324.658 -199.498)" fill="#ddac8a"/><path d="M-291.273,250.114c-.813,1.823-3.265,4.252-5.133,4.552a5.576,5.576,0,0,1-2.141-.135,4.951,4.951,0,0,1-2.314-1.078,2.616,2.616,0,0,1-.819-2.409,4.2,4.2,0,0,1,.61-1.362,10.483,10.483,0,0,1,6.975-4.669c1.218-.2,2.595-.228,2.917,1.134A6.07,6.07,0,0,1-291.273,250.114Z" transform="translate(325.988 -197.977)" fill="#fff"/><path d="M-311.152,200.718c-10.631-27.306-21.854-22.351-21.854-22.35-.2.087-.855.539-.855.539-1.2,1.2-.975,3.154-1.018,4.854-.061,2.373-.814,4.667-1.2,7.008a10.827,10.827,0,0,0,.288,5.567,19.234,19.234,0,0,0,5.621,8.065,6.351,6.351,0,0,1,1.3,1.281,6.8,6.8,0,0,1,.737,2.945,28.962,28.962,0,0,0,2.629,7.885l3.729,8.4c1.922,4.328,5.166,7.584,10.113,7.965,2.037.157,3.812.187,5.552-1.011a36.546,36.546,0,0,0,3.634-3.465C-294.565,221.151-307.457,206.479-311.152,200.718Z" transform="translate(336.306 -178.016)" fill="#ffab74"/></g></g><g transform="translate(16.324 3.426)"><path d="M-342.882,140.2c-6.3-1.887-8.2-.074-9.382,5.363s-2.941,12.039-.326,15.652,12.607,3.942,14.487-1.955,2.417-9.967,3.157-11.84S-340.633,140.877-342.882,140.2Z" transform="translate(353.948 -138.341)" fill="#ffc3a4"/><path d="M-347.611,156.63a6.011,6.011,0,0,1-1.193,3.162,9.565,9.565,0,0,0,.955.754" transform="translate(352.413 -143.459)" fill="none" stroke="#e2906d" stroke-linecap="round" stroke-linejoin="round" stroke-width="0.5"/><path d="M-351.4,140.534a5.023,5.023,0,0,0,4.294,4.217,17.246,17.246,0,0,1,9.192,5.607,3.218,3.218,0,0,0,4.648,1.052s.2-3.745.22-5.832-5.64-6.992-7.974-7.6S-350.973,139.225-351.4,140.534Z" transform="translate(353.188 -137.857)" fill="#51443f"/><path d="M-341.541,156.279c-.072.446-.388.765-.705.714s-.515-.455-.442-.9.388-.765.705-.714S-341.468,155.833-341.541,156.279Z" transform="translate(350.593 -143.084)" fill="#382f2c"/><path d="M-350.375,155.12c-.072.446-.388.766-.705.715s-.515-.455-.443-.9.389-.765.706-.714S-350.3,154.674-350.375,155.12Z" transform="translate(353.229 -142.738)" fill="#382f2c"/><path d="M-343,152.042s2.992-.456,4.5.8" transform="translate(350.683 -142.066)" fill="none" stroke="#51443f" stroke-linecap="round" stroke-linejoin="round" stroke-width="1"/><path d="M-353.138,152.136a4.21,4.21,0,0,1,3.6-.567" transform="translate(353.707 -141.901)" fill="none" stroke="#51443f" stroke-linecap="round" stroke-linejoin="round" stroke-width="1"/><path d="M-326.879,159.969c.346,1.986-1.434,4.5-2.982,4.765s-3.274-.344-2.573-2.646c.588-1.929.629-3.815,2.177-4.084S-327.225,157.983-326.879,159.969Z" transform="translate(347.577 -143.842)" fill="#ffc3a4"/><path d="M-347.963,163.464a8.384,8.384,0,0,1-2.169-.263,2.82,2.82,0,0,0-.044.485,2.437,2.437,0,0,0,2.3,2.552,2.438,2.438,0,0,0,2.3-2.552,2.844,2.844,0,0,0-.053-.535A8.079,8.079,0,0,1-347.963,163.464Z" transform="translate(352.823 -145.405)" fill="#fff"/><path d="M-343.341,160.112c0,.633.821,1.146,1.833,1.146s1.833-.513,1.833-1.146-.821-1.146-1.833-1.146S-343.341,159.479-343.341,160.112Z" transform="translate(350.783 -144.156)" fill="#f8b593"/><path d="M-351.484,159.233c.149-.615-.528-1.306-1.512-1.544a2.851,2.851,0,0,0-.587-.074c-.115.747-.2,1.484-.262,2.205a2.85,2.85,0,0,0,.31.1C-352.551,160.153-351.633,159.848-351.484,159.233Z" transform="translate(353.918 -143.752)" fill="#f8b593"/></g><g transform="translate(14.258 30.991)"><path d="M-351.444,177.454s-9.7,1.97.8,28.68,17.9,41.965,17.9,41.965.7,2.15-1.057.391-6.178-12.242-11.674-25.743c-5.473-13.444-15.245-33.615-9.837-43.582C-355.314,179.164-353.893,176.2-351.444,177.454Z" transform="translate(356.893 -177.145)" fill="#7e4d3d"/><path d="M-316.254,267.107s-7.942,2.883-8.564,4.5S-322.1,283.2-319.96,284.7s11.653-3.192,12.174-4.235S-311.173,265.637-316.254,267.107Z" transform="translate(347.345 -203.957)" fill="#7e4d3d"/><path d="M-310.778,272.16s-1.01,5.017-1.792,5.9-8.941-4.861-9.964-4.723c-.8.107-.623-.064-.464-.162s.761-.233,2.073.515,7.358,4.083,8.032,4.12,1.856-5.618,1.864-5.738C-311.015,271.86-310.7,271.794-310.778,272.16Z" transform="translate(346.82 -205.419)" fill="#63362a"/></g></g><g transform="translate(31.637 27.566)"><path d="M-426.16,108.077a1.083,1.083,0,0,1,.168-1.224,1.182,1.182,0,0,1,1.034-.324,1.573,1.573,0,0,1,1.294,1.654,9.039,9.039,0,0,1-.338,2.594.729.729,0,0,1-.822.527,7.44,7.44,0,0,1-2.682-.967,2.643,2.643,0,0,1-1.074-1.217,1.142,1.142,0,0,1,.768-1.612c.424-.121.928-.131,1.652.569Z" transform="translate(428.687 -106.513)" fill="#ef927f"/><path d="M-322.456,127.743a1.083,1.083,0,0,1,1.2-.273,1.182,1.182,0,0,1,.667.855,1.573,1.573,0,0,1-1.093,1.792,9.014,9.014,0,0,1-2.547.595.728.728,0,0,1-.782-.584,7.423,7.423,0,0,1-.038-2.851,2.646,2.646,0,0,1,.761-1.433,1.143,1.143,0,0,1,1.78.153,1.556,1.556,0,0,1,.048,1.746Z" transform="translate(397.797 -112.175)" fill="#ef927f"/></g></g></svg>