<svg xmlns="http://www.w3.org/2000/svg" xmlns:xlink="http://www.w3.org/1999/xlink" width="200" height="200" viewBox="0 0 200 200"><defs><clipPath id="a"><rect width="200" height="200" opacity="0.53" fill="#fff" stroke="#707070" stroke-width="1" transform="translate(-12429 4147)"/></clipPath></defs><g transform="translate(12429 -4147)" clip-path="url(#a)"><g transform="translate(-12397 4158)"><path d="M42.664,373.394V328.879a29.676,29.676,0,0,1,25.582-29.4h55.675a29.679,29.679,0,0,1,25.582,29.4v44.515" transform="translate(-27.826 -195.322)" fill="#a09f73"/><path d="M101.639,299.48a29.477,29.477,0,0,0-7.775,2.193v71.721h71.225V301.673a29.506,29.506,0,0,0-7.775-2.193H141.347v11.591a11.871,11.871,0,0,1-23.743,0V299.48Zm0,0" transform="translate(-61.218 -195.322)" fill="#59593d"/><path d="M162.489,153.617V180a32.972,32.972,0,0,1-32.971,32.971H118.3A32.975,32.975,0,0,1,85.328,180V153.617Zm0,0" transform="translate(-55.651 -100.189)" fill="#f2c09a"/><path d="M102.171,179.2a32.962,32.962,0,0,1-7.938-21.457V119.485h-8.9v38.253A32.974,32.974,0,0,0,118.3,190.709h8.9A32.96,32.96,0,0,1,102.171,179.2Zm0,0" transform="translate(-55.651 -77.928)" fill="#e8b894"/><path d="M14.467,401.07H20.4v29.678H8.531V407.006A5.935,5.935,0,0,1,14.467,401.07Zm0,0" transform="translate(-5.564 -261.579)" fill="#7c7b62"/><path d="M298.652,452.27h17.807v11.871H298.652Zm0,0" transform="translate(-194.782 -294.972)" fill="#cecca3"/><g transform="translate(2.967 86.073)"><path d="M258.956,247.48l-2.967,8.9h14.076a32.829,32.829,0,0,0,3.112-8.9Zm0,0" transform="translate(-169.924 -247.48)" fill="#59593d"/><path d="M101.326,247.48l2.968,8.9H90.218a32.737,32.737,0,0,1-3.113-8.9Zm0,0" transform="translate(-59.778 -247.48)" fill="#59593d"/><path d="M20.4,401.07H14.467a5.935,5.935,0,0,0-5.936,5.936v5.936H20.4Zm0,0" transform="translate(-8.531 -347.652)" fill="#59593d"/></g><path d="M361.721,430.748h-11.87V401.07h5.934a5.936,5.936,0,0,1,5.936,5.936Zm0,0" transform="translate(-228.174 -261.579)" fill="#7c7b62"/><path d="M349.849,401.07h5.934a5.935,5.935,0,0,1,5.936,5.936v5.936H349.848V401.07Zm0,0" transform="translate(-228.172 -261.579)" fill="#59593d"/><path d="M127.992,443.738h23.743v11.87H127.992Zm0,0" transform="translate(-83.477 -289.407)" fill="#cecca3"/><path d="M127.992,477.867h23.743v11.871H127.992Zm0,0" transform="translate(-83.477 -311.666)" fill="#7c7b62"/><path d="M196.258,443.738H220v11.87H196.258Zm0,0" transform="translate(-128 -289.407)" fill="#cecca3"/><path d="M196.258,477.867H220v11.871H196.258Zm0,0" transform="translate(-128 -311.666)" fill="#7c7b62"/><path d="M287.893,384.747H276.022l-2.967-17.805H290.86Zm0,0" transform="translate(-178.087 -239.32)" fill="#333"/><path d="M145.493,49.742l.446,3.333,4.277,10.684a5.5,5.5,0,0,1-9.695,5.091,5.335,5.335,0,0,1-.34-.586l-3.146-6.286H59.874l-3.145,6.3a5.5,5.5,0,0,1-10.034-4.505l4.277-10.693.446-3.333a47.454,47.454,0,0,1,94.076,0Zm0,0" transform="translate(-30.197 -5.582)" fill="#a09f73"/><path d="M98.187,26.624h11.871l5.887-17.667a47.422,47.422,0,0,0-38.2,23.848l11.542,8.657Zm0,0" transform="translate(-50.703 -5.841)" fill="#59593d"/><path d="M168.8,41.14l-5.936,8.9H150.994l-5.936,11.871h26.71l8.9-5.936h11.871l8.681-16.026a47.576,47.576,0,0,0-14.8-13.29l-5.755,11.509Zm0,0" transform="translate(-94.608 -17.39)" fill="#59593d"/><path d="M188.094,281.609h-5.936a2.968,2.968,0,0,0,0,5.936h5.936a2.968,2.968,0,1,0,0-5.936Zm0,0" transform="translate(-116.869 -183.666)"/><path d="M169.912,435.2H122.429a2.967,2.967,0,0,0-2.967,2.967v23.742H125.4v-8.9H143.2v8.9h5.936v-8.9h17.807v8.9h5.936V438.172a2.968,2.968,0,0,0-2.969-2.969ZM125.4,447.074v-5.936H143.2v5.936Zm23.741,0v-5.936h17.807v5.936Zm0,0" transform="translate(-77.913 -283.841)"/><path d="M119.461,349.875H125.4v11.871h-5.936Zm0,0" transform="translate(-77.913 -228.189)"/><path d="M127.611,136.524h-2.967v-2.967a32.776,32.776,0,0,0-22.884-31.135,35.936,35.936,0,0,0,8.046-22.608V66.958a8.452,8.452,0,0,0,12.969-9.877l-4.14-10.348-.4-2.968a50.422,50.422,0,0,0-99.959,0l-.4,2.968L13.744,57.078A8.471,8.471,0,0,0,21.608,68.7a8.585,8.585,0,0,0,2.175-.3,8.474,8.474,0,0,0,2.926-1.444V79.814a35.936,35.936,0,0,0,8.045,22.608,32.776,32.776,0,0,0-22.884,31.133v2.968H8.9a8.9,8.9,0,0,0-8.9,8.9v23.742a2.967,2.967,0,0,0,2.967,2.967h8.9v5.936h5.936V133.557a26.817,26.817,0,0,1,11.87-22.2v66.712h5.936V145.427H94.925l.083.488a2.968,2.968,0,0,0,2.926,2.481H100.9v29.677h5.934v-5.936h11.871v5.936h5.936v-5.936h8.9a2.968,2.968,0,0,0,2.969-2.967V145.427a8.9,8.9,0,0,0-8.9-8.9ZM8.9,142.46h2.968V148.4H5.936v-2.969A2.967,2.967,0,0,1,8.9,142.46ZM5.936,166.2v-11.87h5.936V166.2ZM127.612,142.46a2.968,2.968,0,0,1,2.968,2.967V148.4h-5.936V142.46ZM68.258,124.653a8.9,8.9,0,0,1-8.9-8.9v-.178c1.091.1,2.186.178,3.293.178H73.866c1.107,0,2.2-.077,3.295-.178v.178a8.9,8.9,0,0,1-8.9,8.9Zm5.608-14.838H62.649A29.973,29.973,0,0,1,39.869,99.338c-.386-.451-.734-.927-1.09-1.4h8.7a2.967,2.967,0,0,0,2.816-3.9l-2.967-8.9a2.97,2.97,0,0,0-2.816-2.03H32.847a30.62,30.62,0,0,1-.2-3.29V59.363H103.87V79.814a30.273,30.273,0,0,1-.2,3.29H92a2.97,2.97,0,0,0-2.816,2.03l-2.967,8.9a2.967,2.967,0,0,0,2.816,3.9h8.7c-.356.469-.7.944-1.09,1.4a29.974,29.974,0,0,1-22.781,10.476ZM34.129,89.04h8.244l.992,2.967h-8.1a29.972,29.972,0,0,1-1.133-2.967Zm68.258,0a30.428,30.428,0,0,1-1.13,2.967H93.149l.99-2.967Zm1.17-65.587-7.3,12.167H86.065a2.985,2.985,0,0,0-1.648.5l-8.146,5.437H55.254l2.967-5.936H68.258A2.965,2.965,0,0,0,70.727,34.3l5.3-7.95,10.757-2.689A2.968,2.968,0,0,0,88.72,22.11L93,13.556a44.98,44.98,0,0,1,10.556,9.9ZM60.96,6.583,57.215,17.815H47.484a2.967,2.967,0,0,0-2.543,1.439L37.729,31.274l-6.74-5.044A44.7,44.7,0,0,1,60.96,6.583Zm-38.7,56.1a2.482,2.482,0,0,1-2.057-.348,2.542,2.542,0,0,1-.946-3.054l4.275-10.684a3.029,3.029,0,0,0,.185-.709l.444-3.333a44.073,44.073,0,0,1,3.921-13.084L36.8,38a2.973,2.973,0,0,0,1.781.594,2.869,2.869,0,0,0,.569-.057,2.967,2.967,0,0,0,1.974-1.383l8.039-13.4H59.355a2.967,2.967,0,0,0,2.816-2.03L67.416,5.992c.3,0,.56-.039.842-.039a44.179,44.179,0,0,1,19.611,4.595l-3.858,7.7L73.463,20.88a2.967,2.967,0,0,0-1.747,1.232L66.67,29.685H56.387a2.97,2.97,0,0,0-2.656,1.641L47.8,43.2a2.969,2.969,0,0,0,2.656,4.294h26.71a2.988,2.988,0,0,0,1.648-.5l8.146-5.437h10.98a2.965,2.965,0,0,0,2.543-1.44l6.7-11.168a44.089,44.089,0,0,1,5.175,15.6l.446,3.333a3.044,3.044,0,0,0,.183.709l4.28,10.684a2.537,2.537,0,0,1-4.623,2.077l-3.132-6.286a2.964,2.964,0,0,0-2.671-1.64H29.677a2.966,2.966,0,0,0-2.656,1.64l-3.145,6.3a2.5,2.5,0,0,1-1.618,1.315Zm13.355,45.7a26.181,26.181,0,0,1,3.994-1.062A35.782,35.782,0,0,0,53.42,114.5v1.253a14.865,14.865,0,0,0,11.87,14.542v9.2H35.613Zm35.613,31.11v-9.2A14.866,14.866,0,0,0,83.1,115.75V114.5a35.793,35.793,0,0,0,13.811-7.173,26.358,26.358,0,0,1,4,1.062v16.266H94.968A2.969,2.969,0,0,0,92,127.622a2.91,2.91,0,0,0,.041.485l1.9,11.384Zm27.248-8.9h10.8l-1.977,11.871h-6.845ZM109.806,148.4a2.968,2.968,0,0,0,2.926-2.482l2.967-17.806a2.967,2.967,0,0,0-2.44-3.414,2.924,2.924,0,0,0-.486-.041h-5.936V111.36a26.817,26.817,0,0,1,11.871,22.2v20.775H106.838V148.4Zm-2.968,11.87h11.871V166.2H106.838Zm17.807,5.936v-11.87h5.936V166.2Zm0,0" transform="translate(0 0)"/><path d="M142.832,187.75H130.961a2.967,2.967,0,1,0,0,5.934h11.871a2.967,2.967,0,0,0,0-5.934Zm0,0" transform="translate(-83.477 -122.451)"/><path d="M208.869,190.717a2.967,2.967,0,0,0-2.967-2.967H191.063a5.935,5.935,0,0,0-5.936,5.934v11.871H182.16a2.968,2.968,0,1,0,0,5.936h2.967a5.935,5.935,0,0,0,5.936-5.936V193.684H205.9A2.967,2.967,0,0,0,208.869,190.717Zm0,0" transform="translate(-116.87 -122.451)"/></g></g></svg>