<svg xmlns="http://www.w3.org/2000/svg" width="127" height="127" viewBox="0 0 127 127"><g transform="translate(-66.547 -256.547)"><g transform="translate(89.762 292.642)"><path d="M63.093,0H16.277A16.3,16.3,0,0,0,0,16.277v26.19A16.3,16.3,0,0,0,16.277,58.744h2.416l5.661,7.182a2.325,2.325,0,0,0,3.653,0l5.661-7.182H63.093A16.3,16.3,0,0,0,79.37,42.467V16.277A16.3,16.3,0,0,0,63.093,0Zm0,0" transform="translate(0)" fill="#6787f5"/><path d="M279.408,0H256V58.744h23.408a16.3,16.3,0,0,0,16.277-16.277V16.277A16.3,16.3,0,0,0,279.408,0Zm0,0" transform="translate(-216.315)" fill="#38478a"/><path d="M199.758,382.373l2.7-3.427Zm0,0" transform="translate(-168.791 -320.201)" fill="#fff"/><path d="M79.371,19.107H59.82L74.373,4.553A16.222,16.222,0,0,0,63.094,0H59.2L49.955,9.241V0H29.418V9.241L20.176,0h-3.9A16.222,16.222,0,0,0,5,4.553L19.552,19.107H0V39.644H19.552L5.544,53.651,5,54.194a16.22,16.22,0,0,0,11.277,4.55h2.416l.656.833,9.818-9.819-.159,8.986H49.954V49.535l9.179,9.209h3.961a16.219,16.219,0,0,0,11.238-4.513l-.547-.55L59.794,39.644H79.371Zm0,0" transform="translate(0 0)" fill="#fff"/><path d="M295.685,19.107H276.134L290.688,4.553A16.222,16.222,0,0,0,279.408,0h-3.9l-9.241,9.241V0H256V58.744h10.268V49.535l9.179,9.209h3.961a16.219,16.219,0,0,0,11.238-4.513l-.547-.55L276.108,39.644h19.577Zm0,0" transform="translate(-216.315 0)" fill="#c7d3ed"/><path d="M45.3,23.757V0H34.067V23.757H0V34.993H34.067l-.4,23.751H45.3V34.993H79.37V23.757Zm0,0" transform="translate(0.001)" fill="#ff337a"/><path d="M261.617,23.757V0H256V58.744h5.618V34.993h34.068V23.757Zm0,0" transform="translate(-216.315)" fill="#d1005b"/><path d="M79.087,21.692V18.4L61.909,1.226a16.148,16.148,0,0,0-4.96,1.617L75.8,21.692Zm0,0" transform="translate(-48.121 -1.036)" fill="#ff337a"/><path d="M334.38,2.843a16.148,16.148,0,0,0-4.96-1.617L312.242,18.4v3.288h3.288Zm0,0" transform="translate(-263.838 -1.036)" fill="#d1005b"/><path d="M56.977,264.581a16.17,16.17,0,0,0,4.961,1.616l17.173-17.173v-3.288H75.822Zm0,0" transform="translate(-48.144 -207.641)" fill="#ff337a"/><path d="M312.242,245.734v3.3L329.356,266.2a16.165,16.165,0,0,0,4.972-1.6l-18.807-18.871Zm0,0" transform="translate(-263.838 -207.64)" fill="#d1005b"/></g><g transform="translate(66.69 256.69)"><g transform="translate(-0.143 -0.143)" fill="none" stroke="#dc3030" stroke-width="5"><circle cx="63.5" cy="63.5" r="63.5" stroke="none"/><circle cx="63.5" cy="63.5" r="61" fill="none"/></g><rect width="8.409" height="117.723" transform="translate(99.934 16.217) rotate(41)" fill="#dc3030"/></g></g></svg>