<svg xmlns="http://www.w3.org/2000/svg" width="106.72" height="116.164" viewBox="0 0 106.72 116.164"><path d="M86.775,12.533C63.707,12.533,47.866.584,36.75.584S2.29,6.974,2.29,58.109,33.7,116.748,45.922,116.748C103.173,116.751,127.629,12.533,86.775,12.533Z" transform="translate(-1.323 -0.584)" fill="#efefef"/><g transform="translate(6.352 3.579)"><path d="M0,0H6.67V3.335H0Z" transform="translate(0 18.273) rotate(-45)" fill="#a4afc1"/><path d="M0,0H6.67V3.335H0Z" transform="translate(13.563 4.716) rotate(-45)" fill="#a4afc1"/><path d="M0,0H3.335V6.67H0Z" transform="translate(0.005 2.947) rotate(-45)" fill="#a4afc1"/></g><path d="M14.085,6.75H69.112a3.336,3.336,0,0,1,3.335,3.335V48.437a3.336,3.336,0,0,1-3.335,3.335H14.085a3.336,3.336,0,0,1-3.335-3.335V10.085A3.336,3.336,0,0,1,14.085,6.75Z" transform="translate(18.431 13.814)" fill="#f3f3f1"/><circle cx="7.504" cy="7.504" r="7.504" transform="translate(22.511 20.564)" fill="#2fdf84"/><path d="M6.75,23.755a10,10,0,0,1,10-10h8.337a10,10,0,0,1,10,10V36.7a3.33,3.33,0,0,1-1.844,2.981l-2.981,1.491a3.334,3.334,0,0,0-1.844,2.981V62.1a3.336,3.336,0,0,1-3.335,3.335H16.755A3.336,3.336,0,0,1,13.42,62.1V44.155a3.33,3.33,0,0,0-1.844-2.981L8.594,39.683A3.334,3.334,0,0,1,6.75,36.7Z" transform="translate(9.091 30.158)" fill="#2fdf84"/><path d="M16.254,14.254a7.47,7.47,0,0,1,3.752-6.463,7.5,7.5,0,1,0,0,12.926A7.47,7.47,0,0,1,16.254,14.254Z" transform="translate(13.761 13.814)" fill="#00b871"/><path d="M20.924,62.107V44.158a3.33,3.33,0,0,0-1.844-2.981L16.1,39.686A3.339,3.339,0,0,1,14.254,36.7V23.755a10,10,0,0,1,10-10h-7.5a10,10,0,0,0-10,10V36.7a3.33,3.33,0,0,0,1.844,2.981l2.981,1.491a3.334,3.334,0,0,1,1.844,2.981V62.1a3.336,3.336,0,0,0,3.335,3.335h7.5a3.331,3.331,0,0,1-3.335-3.332Z" transform="translate(9.091 30.158)" fill="#00b871"/><path d="M18.254,10.03V22.77a8.88,8.88,0,0,0-2.5-.333h-5V14.065a6.97,6.97,0,0,0,.834.033,7.494,7.494,0,0,0,6.67-4.069Z" transform="translate(18.431 21.472)" fill="#d5dbe1"/><path d="M11.45,6.917a3.311,3.311,0,0,1,1-.167h7.5a3.345,3.345,0,0,0-3.335,3.335v.734A7.384,7.384,0,0,0,11.45,6.917Z" transform="translate(20.066 13.814)" fill="#d5dbe1"/><path d="M18,26.01a10,10,0,1,1,10-10A10.017,10.017,0,0,1,18,26.01ZM18,11a5,5,0,1,0,5,5A5.009,5.009,0,0,0,18,11Z" transform="translate(12.01 12.062)"/><path d="M26.844,69.695H18.506a5.843,5.843,0,0,1-5.836-5.836V45.91a.835.835,0,0,0-.46-.747L9.225,43.672A5.805,5.805,0,0,1,6,38.453V25.506A12.519,12.519,0,0,1,18.506,13h8.337A12.519,12.519,0,0,1,39.35,25.506V38.453a5.805,5.805,0,0,1-3.225,5.219L33.14,45.163a.835.835,0,0,0-.46.747V63.858a5.843,5.843,0,0,1-5.836,5.836ZM18.506,18a7.511,7.511,0,0,0-7.5,7.5V38.453a.835.835,0,0,0,.46.747l2.985,1.491a5.805,5.805,0,0,1,3.225,5.219V63.858a.834.834,0,0,0,.834.834h8.337a.834.834,0,0,0,.834-.834V45.91A5.805,5.805,0,0,1,30.9,40.69L33.887,39.2a.827.827,0,0,0,.46-.747V25.506a7.511,7.511,0,0,0-7.5-7.5Z" transform="translate(7.34 28.407)"/><path d="M31.48,29.566a2.482,2.482,0,0,1-1.768-.734l-6.57-6.57-3.548-3.484,1.777-1.819a2.5,2.5,0,0,1,3.538,0l6.62,6.62,14.23-13.39,3.428,3.642L33.195,28.886a2.49,2.49,0,0,1-1.714.68Z" transform="translate(35.219 21.846)"/><path d="M56.853,56.025H22.67v-5H56.853a.834.834,0,0,0,.834-.834V11.836A.834.834,0,0,0,56.853,11H16V6H56.853a5.843,5.843,0,0,1,5.836,5.836V50.188A5.843,5.843,0,0,1,56.853,56.025Z" transform="translate(30.69 12.062)"/><path d="M40.53,38.83,30.054,25.937,19.579,38.83l-3.885-3.155L28.11,20.391a2.585,2.585,0,0,1,3.882,0L44.408,35.675Z" transform="translate(29.975 43.614)"/><path d="M2,28.5H108.719v5H2Z" transform="translate(-2 64.599)"/></svg>