<svg xmlns="http://www.w3.org/2000/svg" width="133" height="133" viewBox="0 0 133 133"><g transform="translate(-236.621 -246.621)"><g transform="translate(261.087 274.865)"><g transform="translate(1.236 1.236)"><path d="M69.046,64.859a2.813,2.813,0,0,1,.025.321A2.757,2.757,0,0,1,66.8,67.9L56.714,69.74V10.65a1.239,1.239,0,0,0-1.236-1.236H32V5.707L59.012,2.025A3.256,3.256,0,0,1,59.358,2a2.569,2.569,0,0,1,2.558,2.286Z" transform="translate(5.071 -2)" fill="#f0d0b4"/><path d="M58.778,8H19.236A1.239,1.239,0,0,0,18,9.236V73.492a1.239,1.239,0,0,0,1.236,1.236H58.778a1.239,1.239,0,0,0,1.236-1.236V9.236A1.239,1.239,0,0,0,58.778,8Z" transform="translate(1.771 -0.586)" fill="#e6e9ed"/><path d="M9.414,37.236V57.007a1.239,1.239,0,0,1-1.236,1.236H3.236A1.239,1.239,0,0,1,2,57.007V37.236A1.239,1.239,0,0,1,3.236,36H8.178A1.239,1.239,0,0,1,9.414,37.236Z" transform="translate(-2 6.013)" fill="#b4dd7f"/><path d="M20.357,42.65V58.714A20.922,20.922,0,0,1,10.99,56.5L8,55.007V38.943l5.239-3.485A8.616,8.616,0,0,1,18.034,34h4.473a4.972,4.972,0,0,1,4.238,2.4l5.7,9.5a1.981,1.981,0,0,1,.272.989v.074a1.864,1.864,0,0,1-1.866,1.866h-.062a6.411,6.411,0,0,1-4.943-2.311c-1.8-2.175-4.251-5.1-4.251-5.1l-.21.21a9.828,9.828,0,0,1-1.087.951Z" transform="translate(-0.586 5.542)" fill="#f0d0b4"/><path d="M34,36H51.3V53.3H34Z" transform="translate(5.542 6.013)" fill="#fcd770"/></g><g transform="translate(0 0)"><path d="M77.586,64.949,70.449,4.376A3.8,3.8,0,0,0,66.668,1a3.609,3.609,0,0,0-.518.036L40.32,4.558A4.932,4.932,0,0,0,35.6,1H33.128a4.948,4.948,0,0,0-4.943,4.943V8.414H23.242a2.474,2.474,0,0,0-2.471,2.471V40.542H19.682A9.863,9.863,0,0,0,14.2,42.2l-3.5,2.335a2.473,2.473,0,0,0-2.281-1.525H3.471A2.474,2.474,0,0,0,1,45.485V65.256a2.474,2.474,0,0,0,2.471,2.471H8.414a2.474,2.474,0,0,0,2.471-2.471v-.472l1.2.6a22.319,22.319,0,0,0,8.681,2.3v7.451a2.474,2.474,0,0,0,2.471,2.471H62.784a2.474,2.474,0,0,0,2.471-2.471V71.005l9.07-1.65a4,4,0,0,0,3.287-3.938A4.162,4.162,0,0,0,77.586,64.949ZM30.657,5.943a2.474,2.474,0,0,1,2.471-2.471H35.6a2.474,2.474,0,0,1,2.471,2.471V8.414H35.6V5.943H33.128V8.414H30.657Zm0,4.943h2.471v3.707a1.236,1.236,0,0,1-2.471,0ZM3.471,65.256V45.485H8.414V65.256ZM13.2,63.175l-2.31-1.154V47.382l4.684-3.123a7.4,7.4,0,0,1,4.112-1.246h4.468a3.723,3.723,0,0,1,3.178,1.8l5.7,9.5a.765.765,0,0,1,.1.43.644.644,0,0,1-.688.628,5.175,5.175,0,0,1-3.993-1.862l-5.121-6.145-1.17,1.166a10.623,10.623,0,0,1-7.564,3.134v2.471a13.087,13.087,0,0,0,6.178-1.547v12.6A19.753,19.753,0,0,1,13.2,63.175ZM62.784,75.141H23.242V51.122l3.305,3.968A7.678,7.678,0,0,0,32.5,57.842a3.118,3.118,0,0,0,3.1-3.171,3.171,3.171,0,0,0-.452-1.631l-5.7-9.5a6.211,6.211,0,0,0-5.3-3h-.908V10.886h4.943v3.707a3.707,3.707,0,1,0,7.414,0V10.886h2.471v4.943h2.471V10.886H62.784Zm11.1-8.216-8.628,1.568V10.886a2.474,2.474,0,0,0-2.471-2.471H40.542V7.022L66.487,3.484a1.347,1.347,0,0,1,1.508,1.178l7.137,60.585a1.348,1.348,0,0,1,.01.172A1.533,1.533,0,0,1,73.883,66.925Z" transform="translate(-1 -1)"/><path d="M33,54.771H52.771V35H33Zm2.471-17.3H50.3V52.3H35.471Z" transform="translate(6.542 7.013)"/><path d="M39,53H51.357v2.471H39Z" transform="translate(7.956 11.256)"/><path d="M33,53h4.943v2.471H33Z" transform="translate(6.542 11.256)"/><path d="M33,57H52.771v2.471H33Z" transform="translate(6.542 12.199)"/><path d="M21,53H33.357v2.471H21Z" transform="translate(3.714 11.256)"/><path d="M21,57H33.357v2.471H21Z" transform="translate(3.714 12.199)"/><path d="M27,49h4.943v2.471H27Z" transform="translate(5.128 10.313)"/><path d="M21,49h4.943v2.471H21Z" transform="translate(3.714 10.313)"/><path d="M33,31H52.771v2.471H33Z" transform="translate(6.542 6.071)"/><path d="M23,27h9.886v2.471H23Z" transform="translate(4.185 5.128)"/><path d="M23,23h9.886v2.471H23Z" transform="translate(4.185 4.185)"/><path d="M33,23H52.771v2.471H33Z" transform="translate(6.542 4.185)"/><path d="M23,19H55.128v2.471H23Z" transform="translate(4.185 3.242)"/><path d="M33,27h4.943v2.471H33Z" transform="translate(6.542 5.128)"/><path d="M39,27H51.357v2.471H39Z" transform="translate(7.956 5.128)"/><path d="M39,15H51.357v2.471H39Z" transform="translate(7.956 2.3)"/><path d="M33,15h4.943v2.471H33Z" transform="translate(6.542 2.3)"/></g></g><g transform="translate(237 247)"><g transform="translate(-0.379 -0.379)" fill="none" stroke="#dc3030" stroke-width="5"><circle cx="66.5" cy="66.5" r="66.5" stroke="none"/><circle cx="66.5" cy="66.5" r="64" fill="none"/></g><rect width="8.816" height="123.426" transform="translate(104.47 16.697) rotate(41)" fill="#dc3030"/></g></g></svg>