<svg xmlns="http://www.w3.org/2000/svg" width="177" height="177" viewBox="0 0 177 177"><g transform="translate(-395 -438)"><g transform="translate(421.302 478.153)"><path d="M65.921,254.811l43.415-21.25a1.927,1.927,0,0,0-1.156-.382l-86.222-.07a1.935,1.935,0,0,0-1.16.384L64.214,254.81a1.938,1.938,0,0,0,1.707,0Z" transform="translate(-3.37 -189.234)" fill="#a2b9e2"/><path d="M132.706,66.007H58.276V1.939A1.939,1.939,0,0,1,60.215,0h70.552a1.939,1.939,0,0,1,1.939,1.939Z" transform="translate(-33.793 0)" fill="#d8e2f1"/><path d="M430.829,0V66.007h4.309V1.939A1.939,1.939,0,0,0,433.2,0Z" transform="translate(-336.225)" fill="#b9cbea"/><path d="M106.748,236.774v48.544a1.939,1.939,0,0,1-1.939,1.939H18.587a1.939,1.939,0,0,1-1.939-1.939V236.7a1.933,1.933,0,0,1,.781-1.555l43.415,21.317a1.939,1.939,0,0,0,1.707,0l43.415-21.25A1.937,1.937,0,0,1,106.748,236.774Z" transform="translate(0 -190.89)" fill="#f4ca64"/><path d="M473.274,237.066V285.61a1.94,1.94,0,0,1-1.939,1.939h-3.18V237.634l4.337-2.125A1.937,1.937,0,0,1,473.274,237.066Z" transform="translate(-366.526 -191.182)" fill="#e7a52e"/><path d="M61.723,420.6H51.89a1.939,1.939,0,0,1-1.939-1.939v-9.833a1.939,1.939,0,0,1,1.939-1.939h9.833a1.939,1.939,0,0,1,1.939,1.939v9.833A1.939,1.939,0,0,1,61.723,420.6Z" transform="translate(-27.035 -330.31)" fill="#e0a835"/><g transform="translate(44.461 23.309)"><path d="M198.894,141.075a17.175,17.175,0,0,1-4.8,11.935H169.221a17.236,17.236,0,1,1,29.672-11.935Z" transform="translate(-164.42 -123.84)" fill="#a347ff"/><circle cx="7.345" cy="7.345" r="7.345" transform="translate(9.892 6.267)" fill="#f1d0a5"/><path d="M230.907,161.222a7.345,7.345,0,0,1-9.847,9.847,7.345,7.345,0,1,0,9.847-9.847Z" transform="translate(-210.399 -154.186)" fill="#f1b986"/><path d="M206.442,235.817a12.239,12.239,0,0,1,.329,2.823,12.031,12.031,0,0,1-5.317,10.039A17.185,17.185,0,0,1,189.93,243.4a13.531,13.531,0,0,1,16.512-7.585Z" transform="translate(-185.129 -214.232)" fill="#80e29d"/><g transform="translate(16.324 21.584)"><path d="M251.153,251.382q.453.024.912.024a17.183,17.183,0,0,0,12.436-5.3,13.556,13.556,0,0,0-8.36-7.586,12.193,12.193,0,0,1,.331,2.824A12.033,12.033,0,0,1,251.153,251.382Z" transform="translate(-251.152 -238.518)" fill="#78d090"/><path d="M251.606,306.879c-.152,0-.3-.009-.456-.017a0,0,0,0,0,0,0C251.3,306.869,251.455,306.875,251.606,306.879Z" transform="translate(-251.15 -293.997)" fill="#78d090"/></g></g><g transform="translate(55.822 6.19)"><path d="M231.253,33.259l1.3,2.637a.664.664,0,0,0,.5.363l2.91.423a.664.664,0,0,1,.368,1.132l-2.106,2.053a.664.664,0,0,0-.191.588l.5,2.9a.664.664,0,0,1-.963.7l-2.6-1.369a.664.664,0,0,0-.618,0l-2.6,1.369a.664.664,0,0,1-.963-.7l.5-2.9a.664.664,0,0,0-.191-.588l-2.106-2.053a.664.664,0,0,1,.368-1.132l2.91-.423a.663.663,0,0,0,.5-.363l1.3-2.637A.664.664,0,0,1,231.253,33.259Z" transform="translate(-224.782 -32.889)" fill="#ffd064"/></g><g transform="translate(73.842 10.303)"><path d="M326.992,55.113l1.3,2.637a.664.664,0,0,0,.5.363l2.91.423a.664.664,0,0,1,.368,1.132l-2.106,2.053a.664.664,0,0,0-.191.588l.5,2.9a.664.664,0,0,1-.963.7l-2.6-1.369a.664.664,0,0,0-.618,0l-2.6,1.369a.664.664,0,0,1-.963-.7l.5-2.9a.664.664,0,0,0-.191-.588l-2.106-2.053a.664.664,0,0,1,.368-1.132l2.91-.423a.663.663,0,0,0,.5-.363l1.3-2.637A.664.664,0,0,1,326.992,55.113Z" transform="translate(-320.521 -54.742)" fill="#ffd064"/></g><g transform="translate(37.802 10.303)"><path d="M134.322,55.113l-1.3,2.637a.664.664,0,0,1-.5.363l-2.91.423a.664.664,0,0,0-.368,1.132l2.106,2.053a.664.664,0,0,1,.191.588l-.5,2.9a.664.664,0,0,0,.963.7l2.6-1.369a.664.664,0,0,1,.618,0l2.6,1.369a.664.664,0,0,0,.963-.7l-.5-2.9a.664.664,0,0,1,.191-.588l2.106-2.053a.664.664,0,0,0-.368-1.132l-2.91-.423a.663.663,0,0,1-.5-.363l-1.3-2.637A.664.664,0,0,0,134.322,55.113Z" transform="translate(-129.041 -54.742)" fill="#ffd064"/></g><g transform="translate(40.657 84.027)"><path d="M153.5,449.348h-7.835a1.454,1.454,0,0,1,0-2.908H153.5a1.454,1.454,0,1,1,0,2.908Z" transform="translate(-144.208 -446.44)" fill="#e7a52e"/></g><g transform="translate(40.657 76.584)"><path d="M157.414,409.8H145.662a1.454,1.454,0,0,1,0-2.908h11.752a1.454,1.454,0,0,1,0,2.908Z" transform="translate(-144.208 -406.895)" fill="#e7a52e"/></g></g><g transform="translate(326.657 174.657)"><g transform="translate(68.307 263.307)"><g transform="translate(0 0)"><g transform="translate(0.036 0.036)" fill="none" stroke="#dc3030" stroke-width="8"><circle cx="88.5" cy="88.5" r="88.5" stroke="none"/><circle cx="88.5" cy="88.5" r="84.5" fill="none"/></g><rect width="11.848" height="168.874" transform="translate(140.074 22.114) rotate(41)" fill="#dc3030"/></g></g></g></g></svg>