<svg xmlns="http://www.w3.org/2000/svg" width="126.334" height="126.333" viewBox="0 0 126.334 126.333"><g transform="translate(-68 -257)"><g transform="translate(93.825 285.275)"><path d="M12.9,120.32H74.132a4.9,4.9,0,0,1,4.9,4.9v39.189a4.9,4.9,0,0,1-4.9,4.9H12.9a4.9,4.9,0,0,1-4.9-4.9V125.219A4.9,4.9,0,0,1,12.9,120.32Zm0,0" transform="translate(-6.775 -101.901)" fill="#4891d3"/><path d="M12.9,134.7V120A4.9,4.9,0,0,0,8,124.9v39.189a4.9,4.9,0,0,0,4.9,4.9H74.132a4.9,4.9,0,0,0,4.9-4.9H42.291A29.392,29.392,0,0,1,12.9,134.7Zm0,0" transform="translate(-6.775 -101.63)" fill="#2d72bc"/><path d="M311.313,304h9.956v13.717a1.226,1.226,0,0,1-1,1.225l-7.446,1.347a3.674,3.674,0,0,1-4.3-4.127l1.58-11.022A1.225,1.225,0,0,1,311.313,304Zm0,0" transform="translate(-261.261 -257.463)" fill="#2d72bc"/><path d="M74.132,144H12.9A4.9,4.9,0,0,0,8,148.9v4.9a12.246,12.246,0,0,0,12.247,12.247h18.37v-4.9h9.8v4.9h18.37A12.246,12.246,0,0,0,79.031,153.8v-4.9A4.9,4.9,0,0,0,74.132,144Zm0,0" transform="translate(-6.775 -121.956)" fill="#2d72bc"/><path d="M74.132,120H12.9A4.9,4.9,0,0,0,8,124.9v4.9a12.246,12.246,0,0,0,12.247,12.247h18.37v-4.9h9.8v4.9h18.37A12.246,12.246,0,0,0,79.031,129.8v-4.9A4.9,4.9,0,0,0,74.132,120Zm0,0" transform="translate(-6.775 -101.63)" fill="#57b7eb"/><path d="M14.295,120H12.9A4.9,4.9,0,0,0,8,124.9v4.9a12.246,12.246,0,0,0,12.247,12.247h18.37v-4.9h-4.9A19.594,19.594,0,0,1,14.295,120Zm0,0" transform="translate(-6.775 -101.63)" fill="#4891d3"/><path d="M272,232v4.9h18.37a12.247,12.247,0,0,0,9.8-4.9Zm0,0" transform="translate(-230.361 -196.485)" fill="#4891d3"/><path d="M181.471,124.9V120h-9.8v14.7h-1.225A2.449,2.449,0,0,0,168,137.145v2.449h3.674v2.449h2.449v-4.9h9.8v2.449h1.225v-2.449A2.449,2.449,0,0,0,182.7,134.7h-1.225Zm0,0" transform="translate(-142.282 -101.63)" fill="#4891d3"/><path d="M169.225,8.32h19.595a1.225,1.225,0,0,1,1.225,1.225v7.348a1.225,1.225,0,0,1-1.225,1.225H169.225A1.225,1.225,0,0,1,168,16.893V9.545a1.225,1.225,0,0,1,1.225-1.225Zm0,0" transform="translate(-142.282 -7.047)" fill="#fcbc04"/><path d="M263.348,8H256a8.572,8.572,0,0,1,8.573,8.573V9.225A1.225,1.225,0,0,0,263.348,8Zm0,0" transform="translate(-216.811 -6.775)" fill="#f9e109"/><path d="M319.348,24H312v4.9h7.348v4.9h4.9V28.9A4.9,4.9,0,0,0,319.348,24Zm0,0" transform="translate(-264.238 -20.326)" fill="#4891d3"/><path d="M92.9,24A4.9,4.9,0,0,0,88,28.9v4.9h4.9V28.9h7.348V24Zm0,0" transform="translate(-74.529 -20.326)" fill="#4891d3"/><path d="M66.449,88H73.8a2.449,2.449,0,0,1,2.449,2.449V92.9H64V90.449A2.449,2.449,0,0,1,66.449,88Zm0,0" transform="translate(-54.203 -74.529)" fill="#fcbc04"/><path d="M338.449,88H345.8a2.449,2.449,0,0,1,2.449,2.449V92.9H336V90.449A2.449,2.449,0,0,1,338.449,88Zm0,0" transform="translate(-284.564 -74.529)" fill="#fcbc04"/><path d="M121.225,88H120a2.449,2.449,0,0,0,2.449,2.449h1.225A2.449,2.449,0,0,0,121.225,88Zm0,0" transform="translate(-101.63 -74.529)" fill="#f9e109"/><path d="M393.225,88H392a2.449,2.449,0,0,0,2.449,2.449h1.225A2.449,2.449,0,0,0,393.225,88Zm0,0" transform="translate(-331.991 -74.529)" fill="#f9e109"/><path d="M332.9,24H328a9.8,9.8,0,0,1,9.8,9.8V28.9A4.9,4.9,0,0,0,332.9,24Zm0,0" transform="translate(-277.789 -20.326)" fill="#57b7eb"/><path d="M136,29.219h4.9v-4.9h-1.225Zm0,0" transform="translate(-115.181 -20.597)" fill="#2d72bc"/><path d="M208,8.32h9.8v9.8H208Zm0,0" transform="translate(-176.159 -7.047)" fill="#57b7eb"/><path d="M272,58.449h4.9a1.225,1.225,0,0,0,1.225-1.225V56H272Zm0,0" transform="translate(-230.361 -47.427)" fill="#e59730"/><path d="M170.767,8h-1.543A1.225,1.225,0,0,0,168,9.225v7.348a1.225,1.225,0,0,0,1.225,1.225h4.9V13.241A9.8,9.8,0,0,1,170.767,8Zm0,0" transform="translate(-142.282 -6.775)" fill="#e59730"/><path d="M214.123,44.077A9.8,9.8,0,0,1,208,41.922v4.6h9.8V44.077Zm0,0" transform="translate(-176.159 -35.504)" fill="#4891d3"/><path d="M186.449,200H198.7a2.449,2.449,0,0,1,2.449,2.449V204.9H184v-2.449A2.449,2.449,0,0,1,186.449,200Zm0,0" transform="translate(-155.833 -169.383)" fill="#fcbc04"/><path d="M208,120.32h9.8v12.247H208Zm0,0" transform="translate(-176.159 -101.901)" fill="#fcbc04"/><path d="M208,232h9.8v9.8a2.449,2.449,0,0,1-2.449,2.449h-4.9A2.449,2.449,0,0,1,208,241.8Zm0,0" transform="translate(-176.159 -196.485)" fill="#fcbc04"/><path d="M233.225,260.9A1.225,1.225,0,0,1,232,259.674v-2.449a1.225,1.225,0,1,1,2.449,0v2.449A1.225,1.225,0,0,1,233.225,260.9Zm0,0" transform="translate(-196.485 -216.811)" fill="#7ab92d"/><path d="M208,232.32h9.8v2.449H208Zm0,0" transform="translate(-176.159 -196.756)" fill="#e59730"/><path d="M210.449,236.9V232H208v9.8a2.449,2.449,0,0,0,2.449,2.449h4.9A2.449,2.449,0,0,0,217.8,241.8h-2.449A4.9,4.9,0,0,1,210.449,236.9Zm0,0" transform="translate(-176.159 -196.485)" fill="#e59730"/><path d="M222.747,200H212.4a4.9,4.9,0,0,0,4.225,2.449H225.2A2.449,2.449,0,0,0,222.747,200Zm0,0" transform="translate(-179.884 -169.383)" fill="#f9e109"/><path d="M215.348,129.8a4.9,4.9,0,0,1-4.9-4.9V120H208v12.247h9.8V129.8Zm0,0" transform="translate(-176.159 -101.63)" fill="#e59730"/><path d="M208,120.32h9.8v2.449H208Zm0,0" transform="translate(-176.159 -101.901)" fill="#e59730"/><path d="M236,120.32h1.225v12.247H236Zm0,0" transform="translate(-199.872 -101.901)" fill="#7ab92d"/><path d="M64,304H78.7v9.8a4.9,4.9,0,0,1-4.9,4.9H68.9a4.9,4.9,0,0,1-4.9-4.9Zm0,0" transform="translate(-54.203 -257.463)" fill="#fcbc04"/><path d="M72.573,317.471a7.348,7.348,0,0,1-7.348-7.348V304H64v9.8a4.9,4.9,0,0,0,4.9,4.9h4.9a4.9,4.9,0,0,0,3.209-1.225Zm0,0" transform="translate(-54.203 -257.463)" fill="#e59730"/><path d="M64,304v2.449a7.348,7.348,0,0,0,14.7,0V304Zm0,0" transform="translate(-54.203 -257.463)" fill="#e59730"/><path d="M64,304H78.7A7.348,7.348,0,0,1,64,304Zm0,0" transform="translate(-54.203 -257.463)" fill="#f9e109"/><path d="M106.449,304v2.449a1.225,1.225,0,1,1-2.449,0V304Zm0,0" transform="translate(-88.079 -257.463)" fill="#7ab92d"/><path d="M320,304h14.7v9.8a4.9,4.9,0,0,1-4.9,4.9h-4.9a4.9,4.9,0,0,1-4.9-4.9Zm0,0" transform="translate(-271.013 -257.463)" fill="#fcbc04"/><path d="M328.573,317.471a7.348,7.348,0,0,1-7.348-7.348V304H320v9.8a4.9,4.9,0,0,0,4.9,4.9h4.9a4.9,4.9,0,0,0,3.209-1.225Zm0,0" transform="translate(-271.013 -257.463)" fill="#e59730"/><path d="M320,304v2.449a7.348,7.348,0,0,0,14.7,0V304Zm0,0" transform="translate(-271.013 -257.463)" fill="#e59730"/><path d="M320,304h14.7a7.348,7.348,0,0,1-14.7,0Zm0,0" transform="translate(-271.013 -257.463)" fill="#f9e109"/><path d="M362.449,304v2.449a1.225,1.225,0,0,1-2.449,0V304Zm0,0" transform="translate(-304.89 -257.463)" fill="#7ab92d"/><path d="M236,136v6.246a4.918,4.918,0,0,0,1.225.735V136Zm0,0" transform="translate(-199.872 -115.181)" fill="#a1d51c"/><path d="M72.255,256a1.225,1.225,0,0,0-1.225,1.225v22.044a3.674,3.674,0,0,1-3.674,3.674H6.123a3.674,3.674,0,0,1-3.674-3.674V257.225a1.225,1.225,0,1,0-2.449,0v22.044a6.124,6.124,0,0,0,6.123,6.123H67.357a6.124,6.124,0,0,0,6.123-6.123V257.225A1.225,1.225,0,0,0,72.255,256Zm0,0" transform="translate(0 -216.811)" fill="#39519d"/><path d="M67.357,17.145H64.907V15.921a3.674,3.674,0,0,0-3.674-3.674h-4.9V8.573A1.225,1.225,0,0,0,55.11,7.348H48.987V4.9H55.11a3.674,3.674,0,0,1,3.674,3.674,1.225,1.225,0,1,0,2.449,0A6.124,6.124,0,0,0,55.11,2.449H48.987A2.449,2.449,0,0,0,46.537,0H26.943a2.449,2.449,0,0,0-2.449,2.449H18.37a6.124,6.124,0,0,0-6.123,6.123v3.674a3.674,3.674,0,0,0-3.674,3.674v1.225H6.123A6.124,6.124,0,0,0,0,23.269v4.9A13.471,13.471,0,0,0,13.471,41.639H26.943a1.225,1.225,0,1,0,0-2.449H13.471A11.022,11.022,0,0,1,2.449,28.167v-4.9a3.674,3.674,0,0,1,3.674-3.674H30.617v9.8a3.674,3.674,0,0,0-3.674,3.674v2.449a1.225,1.225,0,0,0,1.225,1.225h2.449v8.573a3.674,3.674,0,0,0,3.674,3.674h4.9a3.674,3.674,0,0,0,3.674-3.674V36.74h2.449a1.225,1.225,0,1,0,0-2.449H29.392V33.066a1.225,1.225,0,0,1,1.225-1.225H42.863a1.225,1.225,0,1,0,0-2.449v-9.8H67.357a3.674,3.674,0,0,1,3.674,3.674v4.9A11.022,11.022,0,0,1,60.009,39.189H46.537a1.225,1.225,0,1,0,0,2.449H60.009A13.471,13.471,0,0,0,73.48,28.167v-4.9A6.124,6.124,0,0,0,67.357,17.145ZM40.414,36.74v8.573a1.225,1.225,0,0,1-1.225,1.225h-4.9a1.225,1.225,0,0,1-1.225-1.225V36.74ZM53.885,9.8v2.449a3.674,3.674,0,0,0-3.674,3.674v1.225H23.269V15.921a3.674,3.674,0,0,0-3.674-3.674V9.8h4.9a2.449,2.449,0,0,0,2.449,2.449H46.537A2.449,2.449,0,0,0,48.987,9.8ZM26.943,2.449h3.674V6.123a1.225,1.225,0,0,0,2.449,0V2.449H46.537V9.8H42.863V6.123a1.225,1.225,0,1,0-2.449,0V9.8H26.943ZM14.7,8.573A3.674,3.674,0,0,1,18.37,4.9h6.123V7.348H18.37a1.225,1.225,0,0,0-1.225,1.225v3.674H14.7Zm-3.674,8.573V15.921A1.225,1.225,0,0,1,12.247,14.7h7.348a1.225,1.225,0,0,1,1.225,1.225v1.225ZM33.066,29.392v-9.8h2.449v9.8Zm7.348,0H37.965v-9.8h2.449ZM52.661,17.145V15.921A1.225,1.225,0,0,1,53.885,14.7h7.348a1.225,1.225,0,0,1,1.225,1.225v1.225Zm0,0" fill="#39519d"/><path d="M233.225,260.9a1.225,1.225,0,0,0,1.225-1.225v-2.449a1.225,1.225,0,1,0-2.449,0v2.449A1.225,1.225,0,0,0,233.225,260.9Zm0,0" transform="translate(-196.485 -216.811)" fill="#39519d"/><path d="M67.022,313.145a6.124,6.124,0,0,0,6.123-6.123v-9.8A1.225,1.225,0,0,0,71.921,296h-14.7A1.225,1.225,0,0,0,56,297.225v9.8a6.124,6.124,0,0,0,6.123,6.123Zm-8.573-6.123v-3.76a8.573,8.573,0,0,0,6.123,2.535,1.225,1.225,0,0,0,0-2.449,6.123,6.123,0,0,1-6-4.9h4.776v1.225a1.225,1.225,0,1,0,2.449,0v-1.225h4.9v8.573a3.674,3.674,0,0,1-3.674,3.674h-4.9A3.674,3.674,0,0,1,58.449,307.022Zm0,0" transform="translate(-47.427 -250.687)" fill="#39519d"/><path d="M327.921,308.247a1.225,1.225,0,0,0,1.225-1.225v-9.8A1.225,1.225,0,0,0,327.921,296h-14.7A1.225,1.225,0,0,0,312,297.225v9.8a6.124,6.124,0,0,0,6.123,6.123h4.9a1.225,1.225,0,0,0,0-2.449h-4.9a3.674,3.674,0,0,1-3.674-3.674v-3.76a8.572,8.572,0,0,0,12.247,0v3.76A1.225,1.225,0,0,0,327.921,308.247Zm-7.348-4.9a6.123,6.123,0,0,1-6-4.9h4.776v1.225a1.225,1.225,0,1,0,2.449,0v-1.225h4.776A6.123,6.123,0,0,1,320.573,303.348Zm0,0" transform="translate(-264.238 -250.687)" fill="#39519d"/></g><g transform="translate(68 257)"><g fill="none" stroke="#dc3030" stroke-width="5"><circle cx="63.167" cy="63.167" r="63.167" stroke="none"/><circle cx="63.167" cy="63.167" r="60.667" fill="none"/></g><rect width="8.422" height="117.911" transform="translate(99.802 15.951) rotate(41)" fill="#dc3030"/></g></g></svg>