<svg xmlns="http://www.w3.org/2000/svg" width="85.321" height="85.325" viewBox="0 0 85.321 85.325"><g transform="translate(-0.001 -1.324)"><circle cx="42.5" cy="42.5" r="42.5" transform="translate(0.322 1.324)" fill="#ffe17d"/><g transform="translate(0.001 9.876)"><path d="M49.508,127.874a43.226,43.226,0,0,1-33.542-70.5,43.228,43.228,0,1,0,60.809,60.809A43.045,43.045,0,0,1,49.508,127.874Z" transform="translate(-0.001 -57.376)" fill="#ffd164"/><path d="M71.862,326.687h0a2.8,2.8,0,0,0,2.789-2.789h0a2.8,2.8,0,0,0-2.789-2.789h1.395a2.8,2.8,0,0,0,2.789-2.789h0a2.8,2.8,0,0,0-2.789-2.789h1.395a2.8,2.8,0,0,0,2.789-2.789h0a2.8,2.8,0,0,0-2.789-2.789h15.34a2.789,2.789,0,0,0,2.789-2.789h0a2.789,2.789,0,0,0-2.789-2.789h-25.1a4.184,4.184,0,0,1-4.184-4.184v-8.367a2.789,2.789,0,0,0-2.789-2.789h0a2.789,2.789,0,0,0-2.789,2.789v6.827a8.367,8.367,0,0,1-1.834,5.227l-1.3,1.625a11.157,11.157,0,0,0-2.445,6.969v5.848a8.367,8.367,0,0,0,8.367,8.367H71.862Z" transform="translate(-41.182 -249.913)" fill="#ffd164"/></g><g transform="translate(8.368 48.997)"><path d="M74.652,323.9H57.917a5.584,5.584,0,0,1-5.578-5.578V312.47a8.4,8.4,0,0,1,1.833-5.227l1.3-1.625a11.2,11.2,0,0,0,2.445-6.969v-9.616a2.789,2.789,0,0,0-2.789,2.789v6.827a8.368,8.368,0,0,1-1.833,5.227l-1.3,1.625a11.157,11.157,0,0,0-2.445,6.969v5.849a8.367,8.367,0,0,0,8.367,8.367H71.863A2.8,2.8,0,0,0,74.652,323.9Z" transform="translate(-49.55 -289.033)" fill="#ffc350"/><path d="M202.6,396.387H183.073a1.395,1.395,0,1,0,0,2.789h16.735A2.789,2.789,0,0,0,202.6,396.387Z" transform="translate(-159.365 -378.258)" fill="#ffc350"/><path d="M173.42,430.814a1.4,1.4,0,0,0,1.395,1.395H177.6a2.8,2.8,0,0,0,2.789-2.789h-5.578A1.394,1.394,0,0,0,173.42,430.814Z" transform="translate(-152.502 -405.712)" fill="#ffc350"/><path d="M165.162,463.847a1.4,1.4,0,0,0,1.395,1.395h2.789a2.8,2.8,0,0,0,2.789-2.789h-5.578A1.4,1.4,0,0,0,165.162,463.847Z" transform="translate(-145.638 -433.166)" fill="#ffc350"/></g><g transform="translate(14.992 16.395)"><path d="M185.493,297.74a1.736,1.736,0,0,1-.782-.187c-.1-.048-9.657-4.8-20.227-5.043a1.744,1.744,0,0,1-1.7-1.783,1.721,1.721,0,0,1,1.783-1.7,56.6,56.6,0,0,1,21.718,5.416,1.743,1.743,0,0,1-.788,3.3Z" transform="translate(-150.282 -256.423)" fill="#aa7346"/><path d="M105.855,102.432a1.734,1.734,0,0,1-1.083-.379,13.039,13.039,0,0,0-13.477-1.2,1.743,1.743,0,1,1-1.558-3.119C99,93.1,106.626,99.071,106.946,99.328a1.743,1.743,0,0,1-1.091,3.1Z" transform="translate(-88.773 -95.979)" fill="#aa7346"/><path d="M296.967,119.825a1.743,1.743,0,0,1-.34-3.453l13.946-2.789a1.743,1.743,0,1,1,.684,3.418L297.31,119.79A1.757,1.757,0,0,1,296.967,119.825Z" transform="translate(-260.36 -110.582)" fill="#aa7346"/></g><path d="M136.946,160.2h0a3.486,3.486,0,0,1-3.034-3.887l.341-2.768a3.486,3.486,0,0,1,3.887-3.034h0a3.487,3.487,0,0,1,3.034,3.887l-.341,2.768A3.486,3.486,0,0,1,136.946,160.2Z" transform="translate(-111.275 -124.889)" fill="#7d5046"/><path d="M152.656,150.517a3.5,3.5,0,0,0-.7-.016l-.589,4.775a2.092,2.092,0,0,0,4.152.512l.171-1.384A3.486,3.486,0,0,0,152.656,150.517Z" transform="translate(-125.791 -124.89)" fill="#9c6846"/><path d="M309.849,178.268h0a3.486,3.486,0,0,1-3.034-3.887l.341-2.768a3.486,3.486,0,0,1,3.887-3.034h0a3.487,3.487,0,0,1,3.034,3.887l-.341,2.768A3.486,3.486,0,0,1,309.849,178.268Z" transform="translate(-254.98 -139.902)" fill="#7d5046"/><path d="M325.559,168.581a3.5,3.5,0,0,0-.7-.016l-.589,4.775a2.092,2.092,0,1,0,4.152.512l.171-1.384A3.487,3.487,0,0,0,325.559,168.581Z" transform="translate(-269.495 -139.904)" fill="#9c6846"/></g></svg>