<svg xmlns="http://www.w3.org/2000/svg" width="177" height="177" viewBox="0 0 177 177"><g transform="translate(-68.343 -263.343)"><g transform="translate(106.911 301.911)"><path d="M19.926,9,9.77,19.156,3,47.93v38.93H19.926Z" transform="translate(-1.307 2.848)" fill="#3e8051"/><path d="M51,9,61.156,19.156l6.77,28.774v38.93H51Z" transform="translate(31.937 2.848)" fill="#3e8051"/><path d="M46.311,13.77,42.926,7H29.385L26,13.77,36.156,29Z" transform="translate(14.622 1.463)" fill="#55b56a"/><path d="M65.47,7H60.653l9.895,16.926H60.393L65.47,29,45.159,39.159,26.541,29l3.385-5.078H19.77L29.665,7H24.848L13,10.385V98.4H40.082l5.078-6.77,5.078,6.77H77.319V10.385Z" transform="translate(5.619 1.463)" fill="#55b56a"/><path d="M3,55H19.926v6.77H3Z" transform="translate(-1.307 34.708)" fill="#266035"/><path d="M17,26H35.619v6.77H17Z" transform="translate(8.389 14.622)" fill="#ffd782"/><path d="M37,26h8.463v6.77H37Z" transform="translate(22.241 14.622)" fill="#c8d952"/><path d="M42,26h8.463v6.77H42Z" transform="translate(25.704 14.622)" fill="#266035"/><path d="M17,34H35.619v6.77H17Z" transform="translate(8.389 20.163)" fill="#1d4f27"/><path d="M32.233,48.156H20.385L17,44.77V38H35.619v6.77Z" transform="translate(8.389 22.933)" fill="#266035"/><path d="M36,34H54.619v6.77H36Z" transform="translate(21.548 20.163)" fill="#1d4f27"/><path d="M51.233,48.156H39.385L36,44.77V38H54.619v6.77Z" transform="translate(21.548 22.933)" fill="#266035"/><path d="M16,21h3.385v3.385H16Z" transform="translate(7.696 11.159)" fill="#c8d952"/><path d="M46,21h3.385v3.385H46Z" transform="translate(28.474 11.159)" fill="#c8d952"/><path d="M4.964,26.225,11.8,28.5v-6.77L6.44,19.945Z" transform="translate(0.053 10.429)" fill="#ffd782"/><path d="M4.091,29.933,12.4,32.7v-6.77L5.569,23.655Z" transform="translate(-0.552 12.998)" fill="#f9bb4b"/><path d="M0,0H16.926V6.77H0Z" transform="translate(99.863 96.478) rotate(180)" fill="#266035"/><path d="M61.831,26.225,55,28.5v-6.77l5.355-1.786Z" transform="translate(34.708 10.429)" fill="#ffd782"/><path d="M63.309,29.933,55,32.7v-6.77l6.831-2.277Z" transform="translate(34.708 12.998)" fill="#f9bb4b"/><path d="M64.787,31.073l-4.709,1.569C56.445,33.947,55,35.04,55,37.72v3.385c0,3.949,3.067,6.7,6.77,5.078l3.385-1.693V32.642Z" transform="translate(34.708 18.136)" fill="#266035"/><path d="M46,56h3.385v3.385H46Z" transform="translate(28.474 35.4)" fill="#c8d952"/><path d="M42,56h3.385v3.385H42Z" transform="translate(25.704 35.4)" fill="#c8d952"/><path d="M41.541,9.77H28L31.385,3h6.77Z" transform="translate(16.008 -1.307)" fill="#133a1a"/><path d="M32.233,16.541,42.389,31.774V41.93L23.77,31.774,27.156,26.7H17L26.895,9.77,35.619,3H39Z" transform="translate(8.389 -1.307)" fill="#266035"/><path d="M42.156,16.541,32,31.774V41.93L52.311,31.774,47.233,26.7H57.389L47.494,9.77,38.77,3H35.385Z" transform="translate(18.778 -1.307)" fill="#1d4f27"/><path d="M16,48.934l4.377,4.377h13.25L38,48.934V33H16Zm3.385-12.549H34.619V39.77H19.385Zm0,6.77H34.619v4.377l-2.393,2.393H21.779l-2.393-2.393Z" transform="translate(7.696 19.47)"/><path d="M35,48.934l4.377,4.377h13.25L57,48.934V33H35Zm3.385-12.549H53.619V39.77H38.385Zm0,6.77H53.619v4.377l-2.393,2.393H40.779l-2.393-2.393Z" transform="translate(20.856 19.47)"/><path d="M16,21h3.385v3.385H16Z" transform="translate(7.696 11.159)"/><path d="M46,21h3.385v3.385H46Z" transform="translate(28.474 11.159)"/><path d="M96.741,23.616a1.711,1.711,0,0,0-.452-.809L86.134,12.652a1.693,1.693,0,0,0-.735-.418V12.22L73.551,8.835a1.726,1.726,0,0,0-.462-.064H68.858L60.586,2.355A1.693,1.693,0,0,0,59.548,2H46.008a1.692,1.692,0,0,0-1.037.355L36.7,8.77H32.467A1.727,1.727,0,0,0,32,8.835L20.153,12.22v.014a1.677,1.677,0,0,0-.735.418L9.263,22.807a1.711,1.711,0,0,0-.452.809L2.041,52.39A1.757,1.757,0,0,0,2,52.778v45.7a1.693,1.693,0,0,0,1.693,1.693H18.926v1.693a1.693,1.693,0,0,0,1.693,1.693H47.7a1.693,1.693,0,0,0,1.354-.677l3.724-4.964,3.724,4.964a1.693,1.693,0,0,0,1.354.677H84.937a1.693,1.693,0,0,0,1.693-1.693v-1.693h15.233a1.693,1.693,0,0,0,1.693-1.693v-45.7a1.757,1.757,0,0,0-.044-.388ZM9.717,34.566l2.439.814v3.2L9.018,37.534ZM8.241,40.843l3.915,1.307v3.2L7.542,43.807ZM18.926,96.785H5.385V93.4H18.926Zm0-6.77H5.385V52.974l1.378-5.853,6.55,2.183a1.664,1.664,0,0,0,.535.088A1.693,1.693,0,0,0,15.541,47.7V34.159a1.693,1.693,0,0,0-1.158-1.6l-3.893-1.3,1.5-6.4,6.931-6.926ZM66.975,11.6l8.241,14.1H68.011a1.693,1.693,0,0,0-1.2,2.889L70.232,32,54.47,39.884V32.975l9.871-14.807a1.693,1.693,0,0,0,.107-1.693L58.9,5.385ZM50.439,5.385h4.678L56.81,8.77H48.746ZM22.311,15.126,32.7,12.156h1.625L31.187,17.53l-8.876,2.537Zm28.774,79.4-4.231,5.641H22.311V23.589l6.41-1.831-2.793,4.785a1.693,1.693,0,0,0,1.461,2.539h6.992l-1.63,2.446a1.693,1.693,0,0,0,.6,2.425L46.14,40.93H25.7V51.085h22V41.776l3.385,1.847Zm-6.77-50.214V47.7H29.082V44.315Zm6.77-4.545-14.492-7.9,2.359-3.539A1.693,1.693,0,0,0,37.545,25.7H30.339L38.58,11.6l8.006-6.215h.068L41.107,16.477a1.693,1.693,0,0,0,.107,1.693l9.871,14.805Zm-6.51-22.659,2.478-4.956H58.5l2.478,4.956-8.2,12.309Zm38.669,83.059H58.7L54.47,94.529V43.668l5.078-2.539v9.956H79.859V40.93H59.948l13.9-6.94a1.693,1.693,0,0,0,.44-2.708l-2.189-2.2h6.07a1.693,1.693,0,0,0,1.461-2.539l-3.167-5.416,6.784.961ZM62.933,47.7V44.315h5.078V47.7Zm8.463,0V44.315h5.078V47.7ZM83.245,18.667l-8.971-1.281-3.047-5.23h1.63l10.387,2.971ZM97.317,40.84l.7,2.969L93.4,45.351v-3.2Zm-.779-3.309L93.4,38.58v-3.2l2.439-.814Zm3.632,59.254H86.63V93.4h13.541Zm0-6.77H86.63V17.934l6.926,6.926,1.5,6.4-3.893,1.3a1.693,1.693,0,0,0-1.153,1.6V47.7a1.693,1.693,0,0,0,1.693,1.693,1.664,1.664,0,0,0,.535-.088l6.55-2.183.7,2.971-3.279,1.093c-3.267,1.173-6.2,2.564-6.2,6.671v3.385a7.368,7.368,0,0,0,3.092,6.283,5.806,5.806,0,0,0,3.216.96,7.261,7.261,0,0,0,2.913-.65l.934-.469Zm0-26.435L97.8,64.765a2.877,2.877,0,0,1-2.839-.078A4.027,4.027,0,0,1,93.4,61.241V57.856c0-1.466.357-2.2,3.92-3.473l2.85-.95Z" transform="translate(-2 -2)"/><path d="M46,56h3.385v3.385H46Z" transform="translate(28.474 35.4)"/><path d="M42,56h3.385v3.385H42Z" transform="translate(25.704 35.4)"/></g><g transform="translate(68.307 263.307)"><g transform="translate(0 0)"><g transform="translate(0.036 0.036)" fill="none" stroke="#dc3030" stroke-width="8"><circle cx="88.5" cy="88.5" r="88.5" stroke="none"/><circle cx="88.5" cy="88.5" r="84.5" fill="none"/></g><rect width="11.848" height="168.874" transform="translate(140.074 22.114) rotate(41)" fill="#dc3030"/></g></g></g></svg>