<svg xmlns="http://www.w3.org/2000/svg" width="106.953" height="106.953" viewBox="0 0 106.953 106.953"><g transform="translate(-242 -255)"><g transform="translate(242 255)"><g transform="translate(1.725 1.725)"><path d="M83.717,89.753a3.925,3.925,0,0,1,.035.449A3.849,3.849,0,0,1,80.577,94L66.5,96.567V14.075a1.73,1.73,0,0,0-1.725-1.725H32V7.175L69.71,2.035A4.546,4.546,0,0,1,70.193,2a3.586,3.586,0,0,1,3.571,3.191Z" transform="translate(19.752 -2)" fill="#00bfd6"/><path d="M74.927,8h-55.2A1.73,1.73,0,0,0,18,9.725v89.7a1.73,1.73,0,0,0,1.725,1.725h55.2a1.73,1.73,0,0,0,1.725-1.725V9.725A1.73,1.73,0,0,0,74.927,8Z" transform="translate(9.601 2.35)" fill="#fff"/><path d="M12.35,37.725v27.6a1.73,1.73,0,0,1-1.725,1.725h-6.9A1.73,1.73,0,0,1,2,65.326v-27.6A1.73,1.73,0,0,1,3.725,36h6.9A1.73,1.73,0,0,1,12.35,37.725Z" transform="translate(-2 22.652)" fill="#00bfd6"/><path d="M25.251,46.075V68.5a29.207,29.207,0,0,1-13.076-3.088L8,63.326V40.9l7.314-4.865A12.028,12.028,0,0,1,22.007,34h6.245a6.942,6.942,0,0,1,5.917,3.347l7.952,13.266a2.766,2.766,0,0,1,.38,1.38v.1a2.6,2.6,0,0,1-2.6,2.6H39.81a8.95,8.95,0,0,1-6.9-3.226c-2.519-3.036-5.934-7.124-5.934-7.124l-.293.293a13.72,13.72,0,0,1-1.518,1.328Z" transform="translate(2.35 21.202)" fill="#f0d0b4"/><path d="M34,36H58.151V60.151H34Z" transform="translate(21.202 22.652)" fill="#00bfd6"/><ellipse cx="12" cy="4.5" rx="12" ry="4.5" transform="translate(56.212 76.211)" fill="#108897"/></g><g transform="translate(0 0)"><path d="M107.915,90.275,97.953,5.713A5.31,5.31,0,0,0,92.674,1a5.038,5.038,0,0,0-.723.05L55.891,5.966A6.886,6.886,0,0,0,49.3,1h-3.45a6.907,6.907,0,0,0-6.9,6.9v3.45h-6.9A3.454,3.454,0,0,0,28.6,14.8V56.2h-1.52a13.768,13.768,0,0,0-7.656,2.318l-4.891,3.26a3.452,3.452,0,0,0-3.184-2.129H4.45A3.454,3.454,0,0,0,1,63.1V90.7a3.454,3.454,0,0,0,3.45,3.45h6.9A3.454,3.454,0,0,0,14.8,90.7v-.659l1.682.84A31.157,31.157,0,0,0,28.6,94.1v10.4a3.454,3.454,0,0,0,3.45,3.45h55.2a3.454,3.454,0,0,0,3.45-3.45V98.729l12.662-2.3a5.585,5.585,0,0,0,4.589-5.5A5.812,5.812,0,0,0,107.915,90.275ZM42.4,7.9a3.454,3.454,0,0,1,3.45-3.45H49.3a3.454,3.454,0,0,1,3.45,3.45v3.45H49.3V7.9h-3.45v3.45H42.4Zm0,6.9h3.45v5.175a1.725,1.725,0,0,1-3.45,0ZM4.45,90.7V63.1h6.9l0,27.6Zm13.574-2.9L14.8,86.186V65.75l6.54-4.359a10.327,10.327,0,0,1,5.741-1.739h6.238a5.2,5.2,0,0,1,4.437,2.513l7.954,13.26a1.068,1.068,0,0,1,.141.6.9.9,0,0,1-.961.876,7.224,7.224,0,0,1-5.574-2.6l-7.149-8.579-1.634,1.628a14.829,14.829,0,0,1-10.559,4.375v3.45a18.27,18.27,0,0,0,8.625-2.16V90.6a27.575,27.575,0,0,1-10.576-2.8ZM87.253,104.5h-55.2V70.971l4.615,5.539a10.718,10.718,0,0,0,8.311,3.842A4.353,4.353,0,0,0,49.3,75.926a4.427,4.427,0,0,0-.631-2.277L40.716,60.39a8.67,8.67,0,0,0-7.4-4.188H32.051V14.8h6.9v5.175a5.175,5.175,0,1,0,10.35,0V14.8h3.45v6.9H56.2V14.8H87.253Zm15.494-11.47L90.7,95.222V14.8a3.454,3.454,0,0,0-3.45-3.45H56.2V9.406L92.421,4.467a1.88,1.88,0,0,1,2.1,1.644l9.964,84.578a1.882,1.882,0,0,1,.014.24,2.14,2.14,0,0,1-1.756,2.1Z" transform="translate(-1 -1)"/><path d="M33,62.6H60.6V35H33ZM36.45,38.45h20.7v20.7H36.45Z" transform="translate(22.202 23.652)"/><path d="M39,53H56.25v3.45H39Z" transform="translate(26.552 36.703)"/><path d="M33,53h6.9v3.45H33Z" transform="translate(22.202 36.703)"/><path d="M33,57H60.6v3.45H33Z" transform="translate(22.202 39.603)"/><path d="M21,53H38.251v3.45H21Z" transform="translate(13.501 36.703)"/><path d="M21,57H38.251v3.45H21Z" transform="translate(13.501 39.603)"/><path d="M27,49h6.9v3.45H27Z" transform="translate(17.851 33.802)"/><path d="M21,49h6.9v3.45H21Z" transform="translate(13.501 33.802)"/><path d="M33,31H60.6v3.45H33Z" transform="translate(22.202 20.752)"/><path d="M23,27H36.8v3.45H23Z" transform="translate(14.951 17.851)"/><path d="M23,23H36.8v3.45H23Z" transform="translate(14.951 14.951)"/><path d="M33,23H60.6v3.45H33Z" transform="translate(22.202 14.951)"/><path d="M23,19H67.851v3.45H23Z" transform="translate(14.951 12.051)"/><path d="M33,27h6.9v3.45H33Z" transform="translate(22.202 17.851)"/><path d="M39,27H56.25v3.45H39Z" transform="translate(26.552 17.851)"/><path d="M39,15H56.25v3.45H39Z" transform="translate(26.552 9.151)"/><path d="M33,15h6.9v3.45H33Z" transform="translate(22.202 9.151)"/></g></g></g></svg>