<svg xmlns="http://www.w3.org/2000/svg" width="32.275" height="32.279" viewBox="0 0 32.275 32.279"><defs><style>.a{fill:#ffe777;}.b{fill:#ffd200;}</style></defs><g transform="translate(-9.5 -9.5)"><path class="a" d="M30.134,11.347v4.344a4.38,4.38,0,0,1-4.372,4.372h-11.1v2.366a3.7,3.7,0,0,0,3.7,3.7h1.681v3.026a1.019,1.019,0,0,0,.605.928,1.066,1.066,0,0,0,.4.081,1,1,0,0,0,.686-.268l4.075-3.767h3.98a3.7,3.7,0,0,0,3.7-3.7v-7.4A3.691,3.691,0,0,0,30.134,11.347Z" transform="translate(8.282 4.905)"/><circle class="b" cx="4.035" cy="4.035" r="4.035" transform="translate(12.863 24.968)"/><path class="b" d="M19.1,20.667H11.7a3.7,3.7,0,0,0-3.7,3.7v2.017a1.009,1.009,0,0,0,1.009,1.009H21.785a1.009,1.009,0,0,0,1.009-1.009V24.365A3.7,3.7,0,0,0,19.1,20.667Z" transform="translate(1.5 14.388)"/><g transform="translate(17.57 9.5)"><path class="a" d="M30.829,10.183v7.061A2.366,2.366,0,0,1,28.474,19.6H14.352A2.366,2.366,0,0,1,12,17.244V10.183a1.712,1.712,0,0,1,.04-.363l8.689,5.138a1.386,1.386,0,0,0,1.372,0L30.79,9.82a1.709,1.709,0,0,1,.038.363Z" transform="translate(-12 -6.148)"/><path class="a" d="M30.768,9.991,22.079,15.13a1.386,1.386,0,0,1-1.372,0L12.02,9.991A2.335,2.335,0,0,1,14.334,8H28.456a2.333,2.333,0,0,1,2.312,1.991Z" transform="translate(-11.98 -8)"/></g></g></svg>