<svg xmlns="http://www.w3.org/2000/svg" width="761.801" height="127.104" viewBox="0 0 761.801 127.104"><g transform="translate(17230.686 -20115.641)"><path d="M6.783,0H212.3l-6.783,48.156H0Z" transform="matrix(0.998, -0.07, 0.07, 0.998, -16744.922, 20160.551)" fill="#ac76e4"/><path d="M6.783,0H212.3l-6.783,48.156H0Z" transform="matrix(0.998, -0.07, 0.07, 0.998, -16949.922, 20174.551)" fill="#ac76e4"/><path d="M6.783,0H212.3l-6.783,28.363H0Z" transform="matrix(0.998, -0.07, 0.07, 0.998, -16682.641, 20130.449)" fill="#00a2c6" opacity="0.53"/><g transform="matrix(1, -0.017, 0.017, 1, -18568.359, 17691.656)"><path d="M6.783,0H212.3l-6.783,48.156L-3.5,47.831Z" transform="matrix(0.999, -0.052, 0.052, 0.999, 1297.286, 2525.83)" fill="#f4ca64"/><path d="M6.783,0,212.219-.787l-9.845,48.53L0,48.156Z" transform="matrix(0.999, -0.052, 0.052, 0.999, 1502.286, 2514.83)" fill="#f4ca64"/></g></g></svg>