<svg xmlns="http://www.w3.org/2000/svg" width="146.661" height="156.862" viewBox="0 0 146.661 156.862"><g transform="translate(-16.648)"><path d="M94.248,268.435l70.669-34.59a3.137,3.137,0,0,0-1.881-.622l-140.349-.114a3.15,3.15,0,0,0-1.888.625l70.67,34.7a3.155,3.155,0,0,0,2.779,0Z" transform="translate(-2.879 -161.691)" fill="#a2b9e2"/><path d="M179.43,107.444H58.276V3.156A3.156,3.156,0,0,1,61.432,0H176.274a3.156,3.156,0,0,1,3.156,3.156Z" transform="translate(-28.874 0)" fill="#d8e2f1"/><path d="M430.829,0V107.444h7.014V3.156A3.156,3.156,0,0,0,434.687,0Z" transform="translate(-287.288)" fill="#b9cbea"/><path d="M163.309,237.794v79.018a3.156,3.156,0,0,1-3.156,3.156H19.8a3.156,3.156,0,0,1-3.156-3.156V237.68a3.147,3.147,0,0,1,1.272-2.531l70.67,34.7a3.157,3.157,0,0,0,2.779,0l70.669-34.59A3.153,3.153,0,0,1,163.309,237.794Z" transform="translate(0 -163.106)" fill="#f4ca64"/><path d="M476.487,238.044v79.018a3.157,3.157,0,0,1-3.156,3.156h-5.176v-81.25l7.06-3.459A3.153,3.153,0,0,1,476.487,238.044Z" transform="translate(-313.178 -163.356)" fill="#e7a52e"/><path d="M69.113,429.212H53.107a3.156,3.156,0,0,1-3.156-3.156V410.05a3.156,3.156,0,0,1,3.156-3.156H69.113a3.156,3.156,0,0,1,3.156,3.156v16.005A3.156,3.156,0,0,1,69.113,429.212Z" transform="translate(-23.1 -282.233)" fill="#e0a835"/><g transform="translate(61.921 37.941)"><path d="M220.535,151.894a27.957,27.957,0,0,1-7.816,19.427H172.236a28.056,28.056,0,1,1,48.3-19.427Z" transform="translate(-164.42 -123.84)" fill="#a347ff"/><circle cx="11.956" cy="11.956" r="11.956" transform="translate(16.102 10.202)" fill="#f1d0a5"/><path d="M237.089,161.222a11.956,11.956,0,0,1-16.029,16.029,11.956,11.956,0,1,0,16.029-16.029Z" transform="translate(-203.707 -149.769)" fill="#f1b986"/><path d="M216.808,236.21a19.922,19.922,0,0,1,.536,4.6,19.584,19.584,0,0,1-8.655,16.342,27.973,27.973,0,0,1-18.759-8.591,22.025,22.025,0,0,1,26.878-12.347Z" transform="translate(-182.114 -201.076)" fill="#80e29d"/><g transform="translate(26.572 35.134)"><path d="M251.153,259.458q.738.039,1.485.039a27.97,27.97,0,0,0,20.242-8.63,22.065,22.065,0,0,0-13.608-12.348,19.847,19.847,0,0,1,.539,4.6A19.587,19.587,0,0,1,251.153,259.458Z" transform="translate(-251.152 -238.518)" fill="#78d090"/><path d="M251.891,306.891c-.248-.006-.493-.015-.741-.028a0,0,0,0,0,0,0C251.4,306.875,251.646,306.885,251.891,306.891Z" transform="translate(-251.15 -285.922)" fill="#78d090"/></g></g><g transform="translate(80.414 10.076)"><path d="M235.316,33.492l2.119,4.293a1.081,1.081,0,0,0,.813.591l4.737.688a1.081,1.081,0,0,1,.6,1.843l-3.428,3.342a1.08,1.08,0,0,0-.311.956l.809,4.718a1.081,1.081,0,0,1-1.568,1.139l-4.237-2.228a1.081,1.081,0,0,0-1.005,0l-4.237,2.228a1.081,1.081,0,0,1-1.568-1.139l.809-4.718a1.081,1.081,0,0,0-.311-.956l-3.428-3.342a1.081,1.081,0,0,1,.6-1.843l4.737-.688a1.08,1.08,0,0,0,.813-.591l2.119-4.293A1.08,1.08,0,0,1,235.316,33.492Z" transform="translate(-224.782 -32.889)" fill="#f4ca64"/></g><g transform="translate(109.746 16.772)"><path d="M331.055,55.345l2.119,4.293a1.081,1.081,0,0,0,.813.591l4.737.688a1.081,1.081,0,0,1,.6,1.843L335.895,66.1a1.08,1.08,0,0,0-.311.956l.809,4.718a1.081,1.081,0,0,1-1.568,1.139l-4.237-2.228a1.081,1.081,0,0,0-1.006,0l-4.237,2.228a1.081,1.081,0,0,1-1.568-1.139l.809-4.718a1.081,1.081,0,0,0-.311-.956l-3.428-3.342a1.081,1.081,0,0,1,.6-1.843l4.737-.688a1.08,1.08,0,0,0,.813-.591l2.119-4.293A1.08,1.08,0,0,1,331.055,55.345Z" transform="translate(-320.521 -54.743)" fill="#f4ca64"/></g><g transform="translate(51.082 16.772)"><path d="M137.637,55.345l-2.119,4.293a1.081,1.081,0,0,1-.813.591l-4.737.688a1.081,1.081,0,0,0-.6,1.843L132.8,66.1a1.08,1.08,0,0,1,.311.956l-.809,4.718a1.081,1.081,0,0,0,1.568,1.139l4.237-2.228a1.081,1.081,0,0,1,1.006,0l4.237,2.228a1.081,1.081,0,0,0,1.568-1.139l-.809-4.718a1.081,1.081,0,0,1,.311-.956l3.428-3.342a1.081,1.081,0,0,0-.6-1.843l-4.737-.688a1.08,1.08,0,0,1-.813-.591l-2.119-4.293A1.08,1.08,0,0,0,137.637,55.345Z" transform="translate(-129.041 -54.743)" fill="#f4ca64"/></g><g transform="translate(55.729 136.777)"><path d="M159.328,451.174H146.575a2.367,2.367,0,0,1,0-4.734h12.753a2.367,2.367,0,1,1,0,4.734Z" transform="translate(-144.208 -446.44)" fill="#e7a52e"/></g><g transform="translate(55.729 124.661)"><path d="M165.7,411.629h-19.13a2.367,2.367,0,0,1,0-4.734H165.7a2.367,2.367,0,0,1,0,4.734Z" transform="translate(-144.208 -406.895)" fill="#e7a52e"/></g></g></svg>