<svg xmlns="http://www.w3.org/2000/svg" width="106.309" height="125.444" viewBox="0 0 106.309 125.444"><g transform="translate(-39.051)"><path d="M128.35,177.638H45.43a6.379,6.379,0,0,1,0-12.757H128.35v12.757Z" transform="translate(0 -124.484)" fill="#0071bc"/><circle cx="23.388" cy="23.388" r="23.388" transform="translate(66.691 19.135)" fill="#fed856"/><path d="M39.051,210.051V263.2a6.378,6.378,0,0,0,6.379,6.379h93.552v-72.29H45.43a6.378,6.378,0,0,1-6.379-6.379Z" transform="translate(0 -144.139)" fill="#29abe2"/><g transform="translate(79.448 4.252)"><path d="M238.644,17.356H242.9V30.113h-4.252Z" transform="translate(-230.139 -17.356)" fill="#cd9829"/><path d="M273.356,52.068h4.252v7.973h-4.252Z" transform="translate(-256.347 -43.563)" fill="#cd9829"/><path d="M203.932,34.712h4.252V46.937h-4.252Z" transform="translate(-203.932 -30.46)" fill="#cd9829"/></g><path d="M309.5,312.407h8.5a4.251,4.251,0,0,1,4.252,4.252v17.009a4.251,4.251,0,0,1-4.252,4.252H286.113a12.757,12.757,0,1,1,0-25.514Z" transform="translate(-176.898 -235.865)" fill="#0071bc"/><path d="M65.085,216.949h4.252v72.29H65.085Z" transform="translate(-19.655 -163.795)" fill="#fbb03b"/><g transform="translate(79.448)"><path d="M273.356,17.356h4.252v4.252h-4.252Z" transform="translate(-256.347 -13.104)" fill="#cd9829"/><path d="M203.932,0h4.252V4.252h-4.252Z" transform="translate(-203.932)" fill="#cd9829"/></g><circle cx="4.252" cy="4.252" r="4.252" transform="translate(104.962 85.047)" fill="#fbb03b"/><g transform="translate(75.196 29.767)"><path d="M229.793,123.926v-2.434H225.54v2.434a6.047,6.047,0,0,0-.9,11.188l4.144,2.073a1.816,1.816,0,0,1-.81,3.44h-.621a1.821,1.821,0,0,1-1.816-1.816v-.31h-4.252v.31a6.074,6.074,0,0,0,6.068,6.068h.621a6.068,6.068,0,0,0,2.713-11.5l-4.144-2.073a1.816,1.816,0,0,1,.81-3.44h.621a1.82,1.82,0,0,1,1.816,1.816V130h4.252v-.31A6.057,6.057,0,0,0,229.793,123.926Z" transform="translate(-212.783 -121.492)" fill="#cd9829"/><path d="M290.712,164.881h4.252v4.252h-4.252Z" transform="translate(-265.198 -154.25)" fill="#cd9829"/><path d="M186.576,164.881h4.252v4.252h-4.252Z" transform="translate(-186.576 -154.25)" fill="#cd9829"/></g></g></svg>