<svg xmlns="http://www.w3.org/2000/svg" width="193.198" height="253.535" viewBox="0 0 193.198 253.535"><g transform="translate(-853.158 -406.346)"><g transform="translate(959.202 419.873)"><ellipse cx="43.577" cy="6.476" rx="43.577" ry="6.476" transform="translate(0 203.989)" fill="#4cdff1"/><g transform="translate(10.493 0)"><rect width="9.062" height="14.187" transform="translate(31.099 25.463)" fill="#ffc7a8"/><g transform="translate(42.36 181.518)"><path d="M467.294,858.67l-.539-11.759,7.444-.539.756,12.3S471.5,865.142,467.294,858.67Z" transform="translate(-465.58 -846.371)" fill="#efb69a"/><path d="M451.267,872.547a1.123,1.123,0,0,0,.1.486,1.2,1.2,0,0,0,.511.453c.725.434,1.476.822,2.194,1.262,2.894,1.767,5.256,4.343,8.266,5.9a4.3,4.3,0,0,0,1.068.414,4.969,4.969,0,0,0,.984.071l3.89.019a2.94,2.94,0,0,0,1.379-.22,1.969,1.969,0,0,0,.932-1.372,5.555,5.555,0,0,0,.006-1.7,5.668,5.668,0,0,0-.576-2.272c-.79-1.372-2.486-1.852-3.838-2.667a8.962,8.962,0,0,1-2.35-2.1c-.136-.162-.259-.324-.382-.5-.181-.246-.349-.5-.511-.757-.1-.149-.188-.3-.272-.453-.013-.026-.032-.058-.045-.084a24.261,24.261,0,0,1-1.4-3.068c-.265-.68-.317-1.5-.634-1.489-.143.006-.343.181-.641.608a12.736,12.736,0,0,1-1.418,1.476,2.318,2.318,0,0,1-1.89.576,3.691,3.691,0,0,1-1.826-.854c-.472-.388-.874-.867-1.366-1.23-.265-.2-.369-.363-.5-.447-.116-.078-.246-.091-.518-.02C451.933,867.194,451.092,869.893,451.267,872.547Z" transform="translate(-451.243 -852.754)" fill="#2c3559"/></g><g transform="translate(10.803 182.497)"><path d="M509.469,860.182l.54-11.76-7.444-.539-.755,12.3S505.261,866.654,509.469,860.182Z" transform="translate(-491.768 -847.883)" fill="#efb69a"/><path d="M500.064,881.077a1.956,1.956,0,0,0,.932,1.366,2.936,2.936,0,0,0,1.379.22l3.89-.02a4.988,4.988,0,0,0,.984-.071,4.3,4.3,0,0,0,1.068-.414c3.01-1.553,5.373-4.123,8.266-5.9.718-.44,1.469-.828,2.194-1.262a1.2,1.2,0,0,0,.511-.453,1.13,1.13,0,0,0,.1-.486c.175-2.654-.667-5.353-1.152-7.968a.6.6,0,0,0-.518.019c-.136.091-.239.259-.5.454-.492.362-.893.835-1.366,1.223a3.638,3.638,0,0,1-1.825.854,2.321,2.321,0,0,1-1.89-.576,13.207,13.207,0,0,1-1.418-1.469c-.3-.44-.5-.609-.647-.609-.317,0-.369.8-.628,1.482a23.163,23.163,0,0,1-1.45,3.152c-.194.337-.395.66-.621.978-.1.162-.22.324-.343.479a9.958,9.958,0,0,1-.667.8c-.149.162-.3.317-.46.46a8.338,8.338,0,0,1-1.424,1.094c-1.353.816-3.049,1.295-3.838,2.667a8.058,8.058,0,0,0-.57,3.98Z" transform="translate(-499.995 -854.269)" fill="#2c3559"/></g><g transform="translate(16.266 87.802)"><path d="M462.4,701.859l32.854-.269c.23,0,.95,3.45,1,3.675.9,3.7,1.222,7.616,1.8,11.375.964,6.26.546,12.667.966,18.986.591,8.895.742,17.817.571,26.729-.223,11.6-.995,23.188-2.185,34.728q-.222,2.159-.465,4.315c-.19,1.7-.314,1.928-2.075,2.18a16.776,16.776,0,0,1-4.879-.122c-.835-.127-2.925-.2-3.5-.869a.5.5,0,0,1-.1-.311c-.218-5.171-.639-10.436-.636-15.66,0-2.295.068-4.594-.061-6.886-.126-2.227-.888-4.39-1.011-6.574-.259-4.609-.415-9.267-.74-13.894-.469-6.69-.98-13.379-1.653-20.052a94,94,0,0,0-2.2-13.036,9.994,9.994,0,0,1-.317-2.145c-.741,4.542-1.018,9.19-1.432,13.769-.615,6.822-1.58,13.607-2.3,20.419-.7,6.622-.737,13.189-1.012,19.821-.166,4.014-.615,8.035-.909,12.043-.314,4.261-.918,8.637-.859,12.917.031,2.253-6.834,1.251-9.324.814a1.181,1.181,0,0,1-.975-1.056,636.531,636.531,0,0,1-1.884-81.472c.05-1.079-.706-2.33-.86-3.4a39.188,39.188,0,0,1-.717-5.169C459.762,708.471,462.013,706.106,462.4,701.859Z" transform="translate(-459.499 -701.59)" fill="#2c3559"/><path d="M510.144,714.1a.491.491,0,0,0,.031.227.944.944,0,0,0,.234.272,4.56,4.56,0,0,0,2.518,1.334c.723.191,1.189.422,1.8-.107a5.027,5.027,0,0,0,1.19-2c.485-1.246.936-2.732.2-3.847a3.821,3.821,0,0,0-.83-.836,18.6,18.6,0,0,0-4.519-2.665c-.331-.136-.676-.256-1.027-.364a21.74,21.74,0,0,1,.236,3.59l.175,2.667q.034.519.068,1.038C510.226,713.6,510.152,713.881,510.144,714.1Z" transform="translate(-508.851 -703.186)" fill="#ffc7a8"/><path d="M462.122,707.4a.489.489,0,0,0-.222-.058.937.937,0,0,0-.34.111,4.56,4.56,0,0,0-2.2,1.812c-.454.594-.846.935-.592,1.7a5.045,5.045,0,0,0,1.392,1.869c.964.927,2.163,1.915,3.476,1.661a3.811,3.811,0,0,0,1.09-.445,18.578,18.578,0,0,0,4.2-3.146c.254-.253.5-.526.731-.808a21.711,21.711,0,0,1-3.405-1.162l-2.529-.863-.984-.336C462.558,707.668,462.322,707.491,462.122,707.4Z" transform="translate(-428.963 -703.617)" fill="#ffc7a8"/><path d="M511.676,706.844s5.286,6.562-1.187,11.522" transform="translate(-506.55 -703.443)" fill="none" stroke="#1f2a49" stroke-miterlimit="10" stroke-width="2"/><path d="M472.236,715.266s-7.948-2.8-5.051-10.424" transform="translate(-436.635 -702.737)" fill="none" stroke="#1f2a49" stroke-miterlimit="10" stroke-width="2"/><path d="M485.754,732.3s2.895-5.693,2.895-7.257" transform="translate(-465.478 -709.862)" fill="none" stroke="#1f2a49" stroke-miterlimit="10" stroke-width="1"/></g><ellipse cx="9.871" cy="13.31" rx="9.871" ry="13.31" transform="translate(26.325 2.807)" fill="#ffc7a8"/><g transform="translate(0 30.468)"><path d="M500.242,644.58c-.09,4.434-1.444,9.024-1.062,13.425.194,2.175-6.051,1.765-5.727,3.927a13.1,13.1,0,0,1,.22,4.13,5.526,5.526,0,0,1-1.34,2.764,16.248,16.248,0,0,1-2.628,2.589,19.371,19.371,0,0,1-3.852,1.657,32.072,32.072,0,0,1-6.013,1.819,42.415,42.415,0,0,1-6.188.557c-4.207.123-8.506.194-12.564-1.094-.434-.136-.868-.278-1.295-.434a13.143,13.143,0,0,1-4.4-2.317,7.428,7.428,0,0,1-1.812-2.317c-1.32-2.622-1.139-5.7-1.094-8.629.071-4.194-.188-8.382-.447-12.57-.188-3.023-.265-6.085-.589-9.094-.35-3.256.032-6.7-.188-9.91a22.7,22.7,0,0,1,.356-6.1c.032-.187.071-.362.117-.55a2.327,2.327,0,0,1,.188-.7.02.02,0,0,0,.006-.013c.777-1.081,17.549-8.7,17.549-8.7l.155,1.282a10.394,10.394,0,0,0,8.8.615l.188-1.482c3.728,1.631,13.391,6.74,15.806,9.86.4.518.777,1.055,1.133,1.605a23.964,23.964,0,0,1,3.567,9.256,80.791,80.791,0,0,1,1.12,9.548C500.248,643.991,500.248,644.282,500.242,644.58Z" transform="translate(-438.442 -613.016)" fill="#5a6a9b"/><path d="M533.019,679.3c-.433-.136-.867-.279-1.294-.434v.434c-.026,1.637-.046,4.388-.952,5.819a1.319,1.319,0,0,1-.822.6c-.363-.052-.732-.136-1.081-.207-10.273-1.981-17.05-14.376-17.2-24.157a5.8,5.8,0,0,1,.039-.822c1.7-14.894,9.638-28.934,11.832-32.585.363-.6.57-.919.57-.919a1.5,1.5,0,0,1,.11.162c3.172,4.492,4.984,10.59,5.793,15.852.24,1.534.589,3.055.725,4.6a7.028,7.028,0,0,1-.414,2.8c-.33,1.023-.608,2.032-1,3.035a19.315,19.315,0,0,0-.184,11.573,30.626,30.626,0,0,0,1.227,3.31,41.216,41.216,0,0,1,2.312,5.57A22.135,22.135,0,0,1,533.019,679.3Z" transform="translate(-510.375 -617.958)" fill="#4f618e"/><path d="M535.046,678.662v.433a25.263,25.263,0,0,1-.171,3.2c-.2,1.568-.529,3-2.082,3.73a2.851,2.851,0,0,1-2.058.064c-.195-.063-.385-.141-.582-.2-.261-.073-.532-.1-.8-.151a10.178,10.178,0,0,1-3.332-1.505c-3.135-1.906-5.3-4.9-7.329-7.879a28.365,28.365,0,0,1-2.833-5.227,27.54,27.54,0,0,1-2.164-9.978,5.763,5.763,0,0,1,.039-.822c1.942-17.056,13.088-33.355,13.444-33.873.084.123.175.246.252.369a1.333,1.333,0,0,1,.11.162c2.939,4.486,3.716,10.732,4.5,15.852a28.634,28.634,0,0,1,.712,4.881c-.039,1.249-1.055,2.22-1.56,3.34a11.363,11.363,0,0,0-.985,4.439c-.013.727.232,1.523.167,2.231-.059.649-.328,1.246-.337,1.937a27.464,27.464,0,0,0,2.159,11.013c.224.531.466,1.054.708,1.578l1.463,3.176c.106.229.392.343.478.508a2.551,2.551,0,0,1,.119.9C535.013,677.447,535.046,678.055,535.046,678.662Z" transform="translate(-513.696 -617.757)" fill="#5a6a9b"/><path d="M448.7,682.419c.181.337.988.563,1.268.647.308-.052,12.09-12.942,12.217-22.723a6.948,6.948,0,0,0-.033-.822c-1.439-14.894-15.1-31.83-15.128-31.772-2.691,4.492.284,9.02-.4,14.282-.2,1.534-.5,3.055-.615,4.6a8.184,8.184,0,0,0,.352,2.8c.28,1.023.516,2.033.845,3.036a22.618,22.618,0,0,1,.157,11.573,34.265,34.265,0,0,1-1.042,3.311,45.687,45.687,0,0,0-1.961,5.569C444.011,674.574,447.929,680.989,448.7,682.419Z" transform="translate(-395.935 -618.213)" fill="#4f618e"/><path d="M442.383,676.6v.433a29.736,29.736,0,0,0,.145,3.2,9.038,9.038,0,0,0,3.378,5.1c.54.3,1.642-1.046,1.868-1.1,1.034-.229,1.378-1.426,2.263-2.06,2.658-1.906,4.492-4.9,6.217-7.879a30.411,30.411,0,0,0,2.4-5.226,31.815,31.815,0,0,0,1.835-9.979c.006-.278-.033-.548-.033-.822,0-24.776-14.87-30-15.173-30.52-.885.151-2.478,8.007-.355,13.03.6,1.426-.642,3.334-.6,4.881.033,1.249.9,2.22,1.323,3.34a13.08,13.08,0,0,1,.836,4.44c.011.727-.2,1.523-.142,2.231.051.649.278,1.246.286,1.937A31.78,31.78,0,0,1,444.8,668.62c-.19.532-.4,1.055-.6,1.579q-.622,1.587-1.242,3.176c-.089.229-.333.343-.405.508a2.992,2.992,0,0,0-.1.9C442.411,675.387,442.383,675.995,442.383,676.6Z" transform="translate(-392.981 -618.213)" fill="#5a6a9b"/></g><path d="M507.808,590.3c.14,1.815-.577,3.351-1.6,3.43s-1.969-1.329-2.109-3.145.578-3.352,1.6-3.431S507.668,588.482,507.808,590.3Z" transform="translate(-480.25 -573.425)" fill="#ffc7a8"/><path d="M474.176,574.238c.4-.084,1.042.372,1.43.529q.835.337,1.7.6a25.112,25.112,0,0,0,3.4.786,36.479,36.479,0,0,0,7,.388,9.306,9.306,0,0,0,3.327-.553,2.535,2.535,0,0,0,1.006-.69,1.28,1.28,0,0,0,.276-1.151,3.23,3.23,0,0,0,2.583-3.53,2.667,2.667,0,0,1-1.21.736,3.191,3.191,0,0,0,.937-2.9c-1.009,1.083-1.612,1.886-3.255,1.617-2.6-.427-4.238-2.5-6.6-3.459a11.707,11.707,0,0,0-5.812-.526,11.3,11.3,0,0,0-1.374.263c-3.123.811-4.927,3.345-5.408,6.453-1.645,1.078-1.543,4.855-.767,6.8A2.027,2.027,0,0,1,472.9,581c.123.308.152.636.259.944.142.409.395.7.335,1.162-.011.085-.021.192.053.234a.2.2,0,0,0,.1.018l.527-.007a2.059,2.059,0,0,1,.155-.826,8.609,8.609,0,0,0,.726-4.082C475.04,578.075,474.433,574.183,474.176,574.238Z" transform="translate(-445.841 -565.946)" fill="#2c3559"/><g transform="translate(30.408 13.49)"><path d="M485.9,592.583s.036,2.677,1.148,3.907a11.417,11.417,0,0,1-1.215.819" transform="translate(-478.069 -588.831)" fill="none" stroke="#e2906d" stroke-linecap="round" stroke-linejoin="round" stroke-width="0.653"/><path d="M493.375,591.98c.047.542.4.955.783.922s.66-.5.613-1.042-.4-.955-.783-.922S493.328,591.437,493.375,591.98Z" transform="translate(-490.677 -588.25)" fill="#382f2c"/><path d="M497,587.467s-3.051-1.021-4.932.212A4.242,4.242,0,0,1,497,587.467Z" transform="translate(-492.055 -586.786)" fill="none" stroke="#2c3559" stroke-linecap="round" stroke-linejoin="round" stroke-width="1"/><path d="M487.234,601.84a10.34,10.34,0,0,0,2.375-.168,2.418,2.418,0,0,1,.031.468,2.513,2.513,0,0,1-5.021-.181,2.412,2.412,0,0,1,.075-.511A9.934,9.934,0,0,0,487.234,601.84Z" transform="translate(-479.877 -591.958)" fill="#fff"/><path d="M497.3,596.537c-.058.76-1.09,1.3-2.306,1.211s-2.156-.782-2.1-1.542,1.089-1.3,2.306-1.21S497.354,595.777,497.3,596.537Z" transform="translate(-492.889 -589.678)" fill="#f8b593"/><path d="M482.861,592.438c-.047.543-.4.956-.783.922s-.659-.5-.613-1.043.4-.955.783-.922S482.908,591.9,482.861,592.438Z" transform="translate(-471.058 -588.411)" fill="#382f2c"/><path d="M477.694,587.75s3.131-.712,4.876.7A4.229,4.229,0,0,0,477.694,587.75Z" transform="translate(-468.323 -586.963)" fill="none" stroke="#2c3559" stroke-linecap="round" stroke-linejoin="round" stroke-width="1"/><path d="M478.02,596.745c-.021.668.829,1.236,1.9,1.269s1.953-.481,1.974-1.15-.829-1.237-1.9-1.27S478.04,596.076,478.02,596.745Z" transform="translate(-467.858 -589.892)" fill="#f8b593"/></g><g transform="translate(51.422 197.917)"><path d="M463.027,874.172c.026.77.686-.777,2.136-1.573.22-.123.421-.239.589-.356-.1-.149-.188-.3-.272-.453-.013-.026-.033-.058-.045-.084C464.542,872.256,463,873.324,463.027,874.172Z" transform="translate(-463.027 -871.706)" fill="#fff"/><path d="M461.647,876.166c.019.77.68-.777,2.136-1.573.24-.136.453-.265.634-.388-.136-.162-.259-.324-.382-.5C463.143,874.256,461.621,875.324,461.647,876.166Z" transform="translate(-460.799 -872.411)" fill="#fff"/></g><g transform="translate(16.61 199.956)"><path d="M514.992,875.335a4.876,4.876,0,0,1,.99.44c1.424.855,2.227.842,1.528.142a13.081,13.081,0,0,0-2.175-1.061C515.231,875.018,515.115,875.18,514.992,875.335Z" transform="translate(-513.866 -874.856)" fill="#fff"/><path d="M516.047,877.285a5.264,5.264,0,0,1,1.437.57c1.418.854,2.221.835,1.528.136a12.246,12.246,0,0,0-2.5-1.165C516.358,876.988,516.2,877.143,516.047,877.285Z" transform="translate(-516.047 -875.551)" fill="#fff"/></g><path d="M492.5,618.127a3.85,3.85,0,0,1-1.792.989,6.66,6.66,0,0,1-1.53.139,11.9,11.9,0,0,1-4.311-.643" transform="translate(-452.484 -584.35)" fill="none" stroke="#4f618e" stroke-miterlimit="10" stroke-width="1"/></g></g><path d="M-16189.529-22270.309l37.3,37.3-37.3,37.295,45.15,45.152-35.811,35.811,39.253,39.256-52.876,58.031" transform="translate(17114.828 22677.008)" fill="none" stroke="#b3b3b3" stroke-width="1"/><g transform="translate(853.158 426.588)"><ellipse cx="43.577" cy="6.476" rx="43.577" ry="6.476" transform="translate(0 197.277)" fill="#4cdff1"/><g transform="translate(23.254 0)"><path d="M-353.545,138.271s-1.328-3.122,3.977-4.617c2.5-.7,4.771-1.034,7.259-.13,8.177,2.968,13.256,10.176,16.073,18.034,2.394,6.678,5.968,12.163,6.871,19.217.726,5.663-3.408,9.478-5.62,7.928-3.26-2.284-3.772-9.93-11.411-11.6s-4.5,0-8.042,1.4-14.924-3.541-13.95-19.12C-357.534,135.722-353.545,138.271-353.545,138.271Z" transform="translate(358.446 -132.974)" fill="#51443f"/><path d="M-336.869,168.4c0,2.343-3.686,4.238-8.241,4.238-4.369,0-7.746-2.288-8.028-4.493.076.007.152.021.227.034.551.1.917.73,1.468.813a50.512,50.512,0,0,0,6.994.524,15.1,15.1,0,0,0,3.252-.145,4.744,4.744,0,0,0,2.7-1.867,1.205,1.205,0,0,1,.324-.269,1.031,1.031,0,0,1,.855.034c.062.028.124.048.193.083A2.37,2.37,0,0,1-336.869,168.4Z" transform="translate(356.796 -143.603)" fill="#443734"/><path d="M-347.086,142.7c1.863,1.645,4.364,2.307,6.664,3.249,2.969,1.215,5.861,3.128,7.18,6.053" transform="translate(354.914 -135.998)" fill="none" stroke="#35241e" stroke-linecap="round" stroke-linejoin="round" stroke-width="0.5" opacity="0.47"/><path d="M-341.908,142.438c1.184,1.284,3.044,1.606,4.717,2.107a27.693,27.693,0,0,1,4.313,1.774,20.52,20.52,0,0,1,5.918,4.028,9,9,0,0,1,2.679,6.467" transform="translate(353.304 -135.917)" fill="none" stroke="#35241e" stroke-linecap="round" stroke-linejoin="round" stroke-width="0.5" opacity="0.47"/><path d="M-331.987,137.891a12.153,12.153,0,0,0,4.792,4.651" transform="translate(350.219 -134.503)" fill="none" stroke="#35241e" stroke-linecap="round" stroke-linejoin="round" stroke-width="0.5" opacity="0.47"/></g><path d="M-311.391,262.858s-8.593-15.732-10.265-16.623l-.413,1.791s6.565,9.533,9.215,15.675" transform="translate(370.389 -168.194)" fill="#7e4d3d"/><path d="M-341,230.942a1.813,1.813,0,0,1-1.178,1.778c-4.1,1.53-17.681,5.843-29.643,1.013l-.032-.013a5.428,5.428,0,0,1-3.339-4.7c-.618-9.9-1.305-39.772,12.012-48.507h.007c.207-.138.414-.262.62-.379.093-.061,2.148-.964,3.524-1.572a5.494,5.494,0,0,1,2.561-.455,34.246,34.246,0,0,0,6.687-.088c1.413-.055,6.713,2,6.713,2a.722.722,0,0,0-.006-.121l.214,4.058.076,1.488,1.661,42.321.048,1.171Z" transform="translate(386.99 -146.981)" fill="#46474f"/><g transform="translate(10.322 65.731)"><g transform="translate(39.362 106.92)"><path d="M-320.09,386.193s4.77,9.511,7.409,14.81a1.163,1.163,0,0,1,0,1.018,40.35,40.35,0,0,1-3.473,6.178c.855-.277,11.309-3.256,9.177-6.428-1.826-2.715-3.106-10.4-5.572-18.23" transform="translate(320.09 -383.542)" fill="#edbb94"/><path d="M-307,407.512a.353.353,0,0,0-.48.084,5.2,5.2,0,0,1-2.194,1.545c-1.006.355-2.1-.09-2.472.194s-2.942,5.693-5.193,7.541c-1.649,1.354-.457,2.394-.247,2.443,6.088,1.408,6.917-1.717,7.605-2.5,1.417-1.617,2.37-2.549,3.725-4.068A5.564,5.564,0,0,0-305,410.8C-304.8,409.676-305.881,408.258-307,407.512Z" transform="translate(319.501 -390.977)" fill="#ffab74"/><path d="M-305.291,410.261a1.6,1.6,0,0,1-.015.311,5.546,5.546,0,0,1-1.248,1.948c-1.355,1.519-2.308,2.452-3.725,4.068-.688.786-1.517,3.911-7.6,2.5a.733.733,0,0,1-.276-.2,1.179,1.179,0,0,0,.577,1.307c6.088,1.408,6.917-1.717,7.605-2.5,1.417-1.617,2.37-2.549,3.725-4.068A5.56,5.56,0,0,0-305,411.674,2.253,2.253,0,0,0-305.291,410.261Z" transform="translate(319.5 -391.85)" fill="#fffffa"/></g><g transform="translate(0 116.955)"><path d="M-365.06,398.106s-.2,4.114-.086,11.349a1.07,1.07,0,0,1-.416.876,42.955,42.955,0,0,1-6.679,4.4c1.016.195,12.964,3.1,12.317-1.305-.553-3.775.18-7.141,1.923-14.91" transform="translate(375.669 -398.106)" fill="#edbb94"/><path d="M-361.277,416.921a.439.439,0,0,0-.562-.271,14.167,14.167,0,0,1-2.707.245c-.78.09-2.117-1.26-2.641-1.18s-4.3,2.908-6.746,3.714a6.4,6.4,0,0,0-2.29,1.054,3.168,3.168,0,0,0-.91,1.394,1.117,1.117,0,0,0-.07.558,1.1,1.1,0,0,0,.442.612c.936.741,11.8.164,14.019-.364a3.248,3.248,0,0,0,2.039-1.04C-359.939,420.62-360.715,418.564-361.277,416.921Z" transform="translate(377.215 -403.58)" fill="#ffab74"/><path d="M-361.276,417.356a.43.43,0,0,0-.214-.246c.491,1.46.937,3.046.3,3.906a3.245,3.245,0,0,1-2.038,1.039c-2.17.517-12.611,1.079-13.939.41a.93.93,0,0,0-.03.4,1.1,1.1,0,0,0,.442.612c.936.741,11.8.164,14.019-.364a3.248,3.248,0,0,0,2.039-1.04C-359.939,421.055-360.715,419-361.276,417.356Z" transform="translate(377.215 -404.015)" fill="#fffffa"/></g><path d="M-370.775,265.458c-.456,12.315,5.692,84.817,5.692,84.817a6.43,6.43,0,0,0,2.58.389,42.078,42.078,0,0,0,4.524-.266s4.258-18.344,3.655-37.149c-.082-2.508-.246-5.016-.522-7.493a44.049,44.049,0,0,1,.256-11.834c.717-4.422,1.433-9.377,2.068-14.515,1.239-10.073,2.2-20.872,2.365-29.809.747-42.768-17.46-7.684-17.46-7.684A135.561,135.561,0,0,0-370.775,265.458Z" transform="translate(375.22 -228.37)" fill="#c3baa6"/><path d="M-331.115,253.915s5.43,11.236,4.046,23.2a156.164,156.164,0,0,1-4.967,23.414,15.3,15.3,0,0,0,.849,10.605c5.716,12.5,13.045,42.97,13.045,42.97s-4.163,2.284-7.565,2.129c0,0-16.2-35.309-19.042-45.7-5.251-19.224-6-55.728-6-55.728Z" transform="translate(368.987 -236.313)" fill="#c3baa6"/><path d="M-347.1,304.34c-1.434-9.514-2.277-20.07-2.762-28.3" transform="translate(368.708 -243.193)" fill="none" stroke="#a59c91" stroke-miterlimit="10" stroke-width="1"/><g transform="translate(8.41 130.192)"><ellipse cx="0.581" cy="0.431" rx="0.581" ry="0.431" transform="translate(0.988 1.163) rotate(-88.886)" fill="#f9e0d9"/><ellipse cx="0.349" cy="0.258" rx="0.349" ry="0.258" transform="translate(0 1.772) rotate(-88.886)" fill="#f9e0d9"/></g><g transform="translate(45.636 126.092)"><ellipse cx="0.431" cy="0.581" rx="0.431" ry="0.581" transform="translate(0.621 0.247) rotate(-16.691)" fill="#f9e0d9"/><ellipse cx="0.258" cy="0.349" rx="0.258" ry="0.349" transform="translate(0 1.575) rotate(-16.691)" fill="#f9e0d9"/></g><path d="M-350.274,274.832a11.457,11.457,0,0,1,8.524-1.058" transform="translate(368.838 -242.366)" fill="none" stroke="#a59c91" stroke-miterlimit="10" stroke-width="1"/><path d="M-354.857,274.821a13.85,13.85,0,0,0-3-2.057" transform="translate(371.194 -242.175)" fill="none" stroke="#a59c91" stroke-miterlimit="10" stroke-width="1"/><path d="M-347.927,260.2q-.206,3.306-.412,6.611a6.182,6.182,0,0,1-.362,2.044c-.412.97-.836,1.135-1.672,1.777.185-3.358.146-6.653.331-10.011" transform="translate(368.869 -238.267)" fill="none" stroke="#a59c91" stroke-miterlimit="10" stroke-width="1"/><path d="M-326.378,262.473s7.288,7-2.04,42.659c-1.462,13.092,7.208,15.316,14.443,48.742" transform="translate(362.092 -238.975)" fill="none" stroke="#a59c91" stroke-miterlimit="10" stroke-width="1"/></g><path d="M-364.25,255.551s.689,1.982,5.627,3.123,19.408-.38,21.82-4.564S-359.542,251.241-364.25,255.551Z" transform="translate(383.505 -169.851)" fill="#a89d86" opacity="0.3"/><g transform="translate(32.132 26.115)"><path d="M-338.317,176.913a8.934,8.934,0,0,1-6.287.584,1.047,1.047,0,0,1-.755-.964l-.058-1.61-.145-4.049,6.491.227.843-.115.023.286.253,1.92.322,2.439A1.237,1.237,0,0,1-338.317,176.913Z" transform="translate(345.562 -170.875)" fill="#ffc3a4"/></g><g transform="translate(14.605 29.59)"><path d="M-336.538,228.845a1.813,1.813,0,0,1-1.178,1.778c-4.1,1.53-17.681,5.843-29.643,1.013l-.032-.013a5.427,5.427,0,0,1-3.34-4.7c-.617-9.9-1.305-39.772,12.012-48.507h.007c.207-.138.413-.262.62-.379.138-.09,4.607-2.041,4.745-2.117a36.628,36.628,0,0,0,8.027,0c1.413-.055,6.713,2,6.713,2a.727.727,0,0,0-.006-.121l.214,4.058.076,1.488,1.661,42.321.048,1.171Z" transform="translate(370.999 -175.918)" fill="#ffab74"/><path d="M-330.3,212.309a38.626,38.626,0,0,0,2.6,13,20.4,20.4,0,0,0,2.095,4.217l-1.709-43.492-.076-1.488-7.566,5.485C-337.781,197.152-330.246,208.065-330.3,212.309Z" transform="translate(359.989 -178.6)" fill="#f99e6b"/><path d="M-368.416,206.6a2.612,2.612,0,0,1,3.735-1.043A11.39,11.39,0,0,1-363,207.542a1.935,1.935,0,0,0,2.3.686c.56-.342.736-1.066,1.156-1.572a2.717,2.717,0,0,1,3.205-.443,8.7,8.7,0,0,1,2.594,2.292,1.516,1.516,0,0,0,.7.527c.812.214,1.29-.84,1.806-1.5a2.654,2.654,0,0,1,3.684-.358c.551.478.9,1.193,1.546,1.531s1.722-.16,1.465-.843" transform="translate(370.196 -185.007)" fill="none" stroke="#a85d0b" stroke-miterlimit="10" stroke-width="1" opacity="0.39"/><path d="M-365.378,207.849a2.634,2.634,0,0,0-.439,1.437.917.917,0,0,0,.252.721c.348.292.9.04,1.169-.327a1.315,1.315,0,0,0,0-1.634.854.854,0,0,0-1.4.31" transform="translate(369.388 -185.833)" fill="none" stroke="#a85d0b" stroke-miterlimit="10" stroke-width="1" opacity="0.39"/><path d="M-352.441,209.78a1.32,1.32,0,0,0-.991.978.8.8,0,0,0,.844.929.806.806,0,0,0,.583-.814,1.426,1.426,0,0,0-.471-.95" transform="translate(365.539 -186.448)" fill="none" stroke="#a85d0b" stroke-miterlimit="10" stroke-width="1" opacity="0.39"/><path d="M-358.774,203.447a1.319,1.319,0,0,0-.992.978.8.8,0,0,0,.845.928.8.8,0,0,0,.583-.814,1.434,1.434,0,0,0-.471-.951" transform="translate(367.509 -184.478)" fill="none" stroke="#a85d0b" stroke-miterlimit="10" stroke-width="1" opacity="0.39"/><path d="M-345.941,204.114a1.319,1.319,0,0,0-.991.978.8.8,0,0,0,.844.929.8.8,0,0,0,.583-.814,1.428,1.428,0,0,0-.471-.951" transform="translate(363.518 -184.686)" fill="none" stroke="#a85d0b" stroke-miterlimit="10" stroke-width="1" opacity="0.39"/><path d="M-342.016,210.2a.931.931,0,0,0-.813,1.311.623.623,0,0,0,.38.316c.422.1.758-.391.793-.823a1.858,1.858,0,0,0-.152-.895l-.318.22" transform="translate(362.268 -186.551)" fill="none" stroke="#a85d0b" stroke-miterlimit="10" stroke-width="1" opacity="0.39"/><g transform="translate(23.905 1.445)"><g transform="translate(26.899 49.607)"><path d="M-283.136,259.832c-1.6.079-1.2.241-2.924-1.66-2.142-.57-3.812.75-5.309-.755-.218-.22-.728-.664-1.443-1.275-1.109-.948-2.7-2.317-4.457-3.934l5.4-2.2c.892,1.309,1.64,2.285,1.972,2.217,0,0,.01,0,.014,0a27.124,27.124,0,0,1,6.975-1.213c1.71.136,3.329,3.327,3.466,4.707S-281.533,259.764-283.136,259.832Z" transform="translate(297.269 -250.01)" fill="#edbb94"/><path d="M-281.582,252.542a6.017,6.017,0,0,1,3.451,1.306c1.232.882.061,1.994-.787,1.339s-1.62-.379-2.893.466c-.535.356-1.685,1.081-2.691.517" transform="translate(293.299 -250.797)" fill="none" stroke="#e69677" stroke-linecap="round" stroke-linejoin="round" stroke-width="0.414"/><path d="M-274.287,259.547a2.893,2.893,0,0,1-1.914.384,3.772,3.772,0,0,1-2.57-1.307" transform="translate(291.517 -252.689)" fill="none" stroke="#e69677" stroke-linecap="round" stroke-linejoin="round" stroke-width="0.414"/><path d="M-275.424,261.352a2.589,2.589,0,0,1-2.3.423,2.859,2.859,0,0,1-1.7-1.882" transform="translate(291.72 -253.083)" fill="none" stroke="#e69677" stroke-linecap="round" stroke-linejoin="round" stroke-width="0.414"/><path d="M-277.115,262.865a2.59,2.59,0,0,1-2.3.423,2.858,2.858,0,0,1-1.7-1.881" transform="translate(292.246 -253.554)" fill="none" stroke="#e69677" stroke-linecap="round" stroke-linejoin="round" stroke-width="0.414"/></g><path d="M-292.812,256.142c-1.109-.948-2.7-2.317-4.457-3.934l5.4-2.2c.892,1.309,1.64,2.285,1.972,2.217a3.845,3.845,0,0,1-.221.638A9.633,9.633,0,0,1-292.812,256.142Z" transform="translate(324.168 -200.403)" fill="#ddac8a"/><path d="M-291.46,250.021c-.8,1.791-3.207,4.176-5.041,4.47a5.477,5.477,0,0,1-2.1-.132,4.862,4.862,0,0,1-2.272-1.058,2.569,2.569,0,0,1-.8-2.366,4.127,4.127,0,0,1,.6-1.338,10.3,10.3,0,0,1,6.851-4.586c1.2-.194,2.548-.224,2.864,1.114A5.96,5.96,0,0,1-291.46,250.021Z" transform="translate(325.554 -198.818)" fill="#fff"/><path d="M-311.6,200.311c-10.441-26.817-21.462-21.951-21.462-21.95-.2.085-.839.529-.839.529-1.181,1.18-.957,3.1-1,4.767-.06,2.33-.8,4.584-1.182,6.883a10.632,10.632,0,0,0,.283,5.468,18.889,18.889,0,0,0,5.52,7.921,6.236,6.236,0,0,1,1.272,1.258,6.673,6.673,0,0,1,.724,2.893,28.442,28.442,0,0,0,2.582,7.743l3.662,8.247c1.888,4.251,5.074,7.449,9.932,7.823,2,.154,3.744.184,5.453-.993a35.887,35.887,0,0,0,3.569-3.4C-295.313,220.378-307.973,205.97-311.6,200.311Z" transform="translate(336.306 -178.016)" fill="#ffab74"/></g></g><g transform="translate(26.354 3.364)"><path d="M-343.08,140.189c-6.183-1.854-8.051-.073-9.214,5.267s-2.889,11.823-.32,15.372,12.381,3.871,14.227-1.92,2.374-9.789,3.1-11.628S-340.871,140.852-343.08,140.189Z" transform="translate(353.949 -138.362)" fill="#ffc3a4"/><path d="M-347.632,156.63a5.9,5.9,0,0,1-1.172,3.106,9.383,9.383,0,0,0,.938.741" transform="translate(352.349 -143.695)" fill="none" stroke="#e2906d" stroke-linecap="round" stroke-linejoin="round" stroke-width="0.5"/><path d="M-351.4,140.486a4.933,4.933,0,0,0,4.217,4.142,16.936,16.936,0,0,1,9.027,5.507,3.16,3.16,0,0,0,4.565,1.034s.192-3.678.216-5.727-5.539-6.867-7.832-7.467S-350.981,139.2-351.4,140.486Z" transform="translate(353.156 -137.857)" fill="#51443f"/><path d="M-341.562,156.263c-.071.438-.381.752-.693.7s-.506-.447-.434-.885.381-.752.693-.7S-341.49,155.825-341.562,156.263Z" transform="translate(350.452 -143.304)" fill="#382f2c"/><path d="M-350.4,155.1c-.071.438-.381.752-.693.7s-.506-.447-.435-.885.382-.752.693-.7S-350.324,154.666-350.4,155.1Z" transform="translate(353.199 -142.943)" fill="#382f2c"/><path d="M-343,152.04s2.939-.448,4.417.783" transform="translate(350.545 -142.243)" fill="none" stroke="#51443f" stroke-linecap="round" stroke-linejoin="round" stroke-width="1"/><path d="M-353.138,152.123a4.135,4.135,0,0,1,3.534-.557" transform="translate(353.696 -142.071)" fill="none" stroke="#51443f" stroke-linecap="round" stroke-linejoin="round" stroke-width="1"/><path d="M-326.981,159.932c.34,1.951-1.409,4.415-2.929,4.68s-3.216-.338-2.527-2.6c.577-1.894.618-3.746,2.138-4.011S-327.321,157.982-326.981,159.932Z" transform="translate(347.309 -144.094)" fill="#ffc3a4"/><path d="M-348,163.458a8.234,8.234,0,0,1-2.131-.258,2.773,2.773,0,0,0-.043.476,2.393,2.393,0,0,0,2.261,2.507,2.394,2.394,0,0,0,2.261-2.507,2.8,2.8,0,0,0-.052-.525A7.933,7.933,0,0,1-348,163.458Z" transform="translate(352.776 -145.722)" fill="#fff"/><path d="M-343.341,160.091c0,.622.806,1.125,1.8,1.125s1.8-.5,1.8-1.125-.806-1.125-1.8-1.125S-343.341,159.47-343.341,160.091Z" transform="translate(350.65 -144.421)" fill="#f8b593"/><path d="M-351.526,159.2c.146-.6-.519-1.283-1.485-1.517a2.8,2.8,0,0,0-.576-.073c-.113.733-.2,1.457-.258,2.166a2.783,2.783,0,0,0,.3.094C-352.574,160.108-351.672,159.808-351.526,159.2Z" transform="translate(353.916 -144.001)" fill="#f8b593"/></g><g transform="translate(24.324 30.435)"><path d="M-351.541,177.449s-9.53,1.935.788,28.167,17.575,41.213,17.575,41.213.69,2.111-1.038.384-6.067-12.022-11.465-25.282c-5.375-13.2-14.972-33.013-9.661-42.8C-355.342,179.128-353.947,176.218-351.541,177.449Z" transform="translate(356.893 -177.145)" fill="#7e4d3d"/><path d="M-316.409,267.105s-7.8,2.831-8.41,4.422,2.669,11.38,4.772,12.852,11.444-3.135,11.956-4.159S-311.418,265.662-316.409,267.105Z" transform="translate(346.943 -205.086)" fill="#7e4d3d"/><path d="M-311,272.155s-.992,4.927-1.76,5.791-8.78-4.774-9.786-4.639c-.787.105-.612-.063-.456-.159s.747-.229,2.035.506,7.226,4.01,7.888,4.046,1.823-5.517,1.831-5.636C-311.232,271.861-310.924,271.8-311,272.155Z" transform="translate(346.396 -206.61)" fill="#63362a"/></g></g></g></svg>