<svg xmlns="http://www.w3.org/2000/svg" xmlns:xlink="http://www.w3.org/1999/xlink" width="250" height="250" viewBox="0 0 250 250"><defs><clipPath id="a"><rect width="250" height="250" opacity="0.5" fill="#fff" stroke="#707070" stroke-width="1" transform="translate(-13660 4763)"/></clipPath></defs><g transform="translate(13660 -4763)" clip-path="url(#a)"><g transform="translate(-14481.938 4371.215)"><g transform="translate(955.667 419.434)"><ellipse cx="42.124" cy="6.26" rx="42.124" ry="6.26" transform="translate(0 197.188)" fill="#99d5dc"/><g transform="translate(10.143 0)"><rect width="8.76" height="13.714" transform="translate(30.062 24.614)" fill="#ffc7a8"/><g transform="translate(40.948 175.466)"><path d="M467.276,858.26l-.521-11.367,7.2-.521.73,11.889S471.344,864.517,467.276,858.26Z" transform="translate(-465.619 -846.371)" fill="#efb69a"/><path d="M451.266,872.278a1.086,1.086,0,0,0,.094.469,1.163,1.163,0,0,0,.494.438c.7.419,1.427.795,2.121,1.22,2.8,1.708,5.081,4.2,7.991,5.7a4.159,4.159,0,0,0,1.032.4,4.807,4.807,0,0,0,.951.069l3.761.018a2.842,2.842,0,0,0,1.333-.212,1.9,1.9,0,0,0,.9-1.327,5.369,5.369,0,0,0,.006-1.646,5.479,5.479,0,0,0-.557-2.2c-.763-1.327-2.4-1.79-3.711-2.578a8.66,8.66,0,0,1-2.271-2.027c-.131-.157-.25-.313-.369-.482-.175-.237-.338-.482-.494-.732-.094-.144-.182-.288-.263-.438-.013-.025-.031-.057-.044-.081a23.451,23.451,0,0,1-1.358-2.966c-.257-.657-.307-1.445-.613-1.439-.138.006-.332.175-.619.588a12.311,12.311,0,0,1-1.371,1.427,2.241,2.241,0,0,1-1.827.557,3.567,3.567,0,0,1-1.765-.826c-.457-.375-.845-.838-1.32-1.189-.257-.194-.357-.35-.488-.432-.113-.075-.238-.088-.5-.019C451.91,867.1,451.1,869.713,451.266,872.278Z" transform="translate(-451.243 -853.145)" fill="#2c3559"/></g><g transform="translate(10.443 176.412)"><path d="M509.213,859.772l.522-11.368-7.2-.521-.73,11.889S505.146,866.029,509.213,859.772Z" transform="translate(-492.102 -847.883)" fill="#efb69a"/><path d="M500.062,880.574a1.891,1.891,0,0,0,.9,1.32,2.839,2.839,0,0,0,1.333.213l3.76-.019a4.821,4.821,0,0,0,.951-.068,4.156,4.156,0,0,0,1.033-.4c2.909-1.5,5.194-3.986,7.99-5.7.695-.425,1.42-.8,2.121-1.22a1.161,1.161,0,0,0,.494-.438,1.092,1.092,0,0,0,.094-.47c.169-2.565-.645-5.174-1.114-7.7a.585.585,0,0,0-.5.018c-.131.088-.231.251-.488.439-.476.35-.864.807-1.321,1.182a3.517,3.517,0,0,1-1.764.826,2.243,2.243,0,0,1-1.827-.557,12.768,12.768,0,0,1-1.37-1.42c-.294-.425-.488-.589-.626-.589-.307,0-.357.776-.607,1.433a22.39,22.39,0,0,1-1.4,3.047c-.188.325-.382.638-.6.945-.1.156-.213.313-.332.463a9.626,9.626,0,0,1-.645.769c-.144.157-.294.307-.444.444a8.06,8.06,0,0,1-1.377,1.057c-1.308.788-2.947,1.252-3.71,2.578a5.472,5.472,0,0,0-.557,2.2A5.418,5.418,0,0,0,500.062,880.574Z" transform="translate(-499.995 -854.66)" fill="#2c3559"/></g><g transform="translate(15.724 84.875)"><path d="M462.306,701.85l31.759-.26c.222,0,.918,3.335.97,3.552.87,3.573,1.181,7.362,1.741,11,.932,6.051.528,12.245.934,18.353.571,8.6.718,17.223.552,25.838-.215,11.213-.962,22.415-2.112,33.57q-.215,2.087-.449,4.171c-.184,1.641-.3,1.864-2.005,2.107a16.214,16.214,0,0,1-4.717-.118c-.807-.123-2.828-.2-3.387-.84a.478.478,0,0,1-.1-.3c-.21-5-.618-10.088-.614-15.138,0-2.218.066-4.44-.059-6.657-.122-2.153-.858-4.243-.977-6.355-.251-4.456-.4-8.958-.715-13.43-.453-6.467-.947-12.933-1.6-19.383a90.867,90.867,0,0,0-2.125-12.6,9.661,9.661,0,0,1-.306-2.073c-.716,4.391-.984,8.884-1.384,13.31-.595,6.595-1.527,13.153-2.222,19.738-.676,6.4-.712,12.749-.978,19.16-.16,3.88-.594,7.767-.879,11.642-.3,4.119-.887,8.349-.83,12.487.03,2.178-6.606,1.21-9.013.787a1.141,1.141,0,0,1-.942-1.021,615.308,615.308,0,0,1-1.821-78.756c.048-1.043-.683-2.252-.831-3.291a37.886,37.886,0,0,1-.693-5C459.753,708.242,461.929,705.956,462.306,701.85Z" transform="translate(-459.499 -701.59)" fill="#2c3559"/><path d="M510.13,713.836a.475.475,0,0,0,.03.22.912.912,0,0,0,.226.263,4.408,4.408,0,0,0,2.435,1.29c.7.185,1.149.408,1.735-.1a4.859,4.859,0,0,0,1.15-1.936c.469-1.2.9-2.641.19-3.719a3.694,3.694,0,0,0-.8-.808,17.975,17.975,0,0,0-4.368-2.576c-.32-.132-.654-.247-.992-.352a21.017,21.017,0,0,1,.228,3.47l.17,2.578q.033.5.066,1C510.209,713.346,510.139,713.622,510.13,713.836Z" transform="translate(-508.881 -703.283)" fill="#ffc7a8"/><path d="M462.007,707.4a.472.472,0,0,0-.215-.056.9.9,0,0,0-.329.107,4.408,4.408,0,0,0-2.127,1.752c-.439.575-.818.9-.572,1.642a4.877,4.877,0,0,0,1.346,1.806c.932.9,2.09,1.851,3.36,1.605a3.685,3.685,0,0,0,1.054-.431,17.959,17.959,0,0,0,4.057-3.042c.245-.245.48-.509.707-.781A20.986,20.986,0,0,1,466,708.875l-2.445-.834-.951-.325C462.428,707.657,462.2,707.486,462.007,707.4Z" transform="translate(-429.954 -703.741)" fill="#ffc7a8"/><path d="M511.636,706.844s5.11,6.343-1.148,11.138" transform="translate(-506.681 -703.556)" fill="none" stroke="#1f2a49" stroke-miterlimit="10" stroke-width="2"/><path d="M472.047,714.919s-7.683-2.708-4.883-10.077" transform="translate(-437.632 -702.807)" fill="none" stroke="#1f2a49" stroke-miterlimit="10" stroke-width="2"/><path d="M485.754,732.059s2.8-5.5,2.8-7.015" transform="translate(-466.154 -710.368)" fill="none" stroke="#1f2a49" stroke-miterlimit="10" stroke-width="1"/></g><ellipse cx="9.542" cy="12.866" rx="9.542" ry="12.866" transform="translate(25.447 2.714)" fill="#ffc7a8"/><g transform="translate(0 29.453)"><path d="M498.607,643.528c-.087,4.286-1.4,8.723-1.026,12.978.188,2.1-5.849,1.706-5.536,3.8a12.664,12.664,0,0,1,.213,3.992,5.342,5.342,0,0,1-1.3,2.672,15.707,15.707,0,0,1-2.54,2.5,18.727,18.727,0,0,1-3.723,1.6,31,31,0,0,1-5.813,1.758,41,41,0,0,1-5.982.538c-4.067.119-8.222.188-12.145-1.058-.419-.132-.839-.269-1.252-.419a12.7,12.7,0,0,1-4.255-2.24,7.181,7.181,0,0,1-1.752-2.24c-1.276-2.534-1.1-5.513-1.058-8.341.069-4.054-.181-8.1-.432-12.151-.181-2.922-.257-5.882-.569-8.791-.338-3.147.031-6.476-.181-9.58a21.944,21.944,0,0,1,.344-5.9c.031-.181.069-.35.113-.532a2.251,2.251,0,0,1,.181-.676.019.019,0,0,0,.006-.013c.751-1.045,16.964-8.41,16.964-8.41l.15,1.239a10.047,10.047,0,0,0,8.5.594l.181-1.433c3.6,1.577,12.945,6.516,15.279,9.531.388.5.751,1.02,1.1,1.552a23.166,23.166,0,0,1,3.448,8.948,78.1,78.1,0,0,1,1.082,9.229C498.613,642.958,498.613,643.24,498.607,643.528Z" transform="translate(-438.867 -613.016)" fill="#5a6a9b"/><path d="M532.307,677.555c-.419-.132-.838-.269-1.251-.419v.419c-.025,1.583-.044,4.242-.92,5.625a1.275,1.275,0,0,1-.795.582c-.35-.05-.707-.131-1.045-.2-9.93-1.915-16.482-13.9-16.625-23.352a5.6,5.6,0,0,1,.038-.795c1.639-14.4,9.317-27.969,11.438-31.5.351-.582.551-.889.551-.889a1.458,1.458,0,0,1,.107.157c3.066,4.342,4.818,10.237,5.6,15.324.232,1.483.569,2.953.7,4.449a6.794,6.794,0,0,1-.4,2.709c-.319.989-.588,1.965-.964,2.934a18.671,18.671,0,0,0-.178,11.187,29.6,29.6,0,0,0,1.186,3.2,39.848,39.848,0,0,1,2.235,5.384A21.4,21.4,0,0,1,532.307,677.555Z" transform="translate(-510.418 -618.26)" fill="#4f618e"/><path d="M534.334,676.922v.419a24.41,24.41,0,0,1-.165,3.092c-.195,1.516-.511,2.9-2.012,3.606a2.757,2.757,0,0,1-1.99.062c-.188-.061-.372-.136-.562-.189-.252-.07-.514-.1-.771-.146a9.836,9.836,0,0,1-3.221-1.455c-3.03-1.842-5.12-4.739-7.085-7.616a27.419,27.419,0,0,1-2.738-5.052A26.622,26.622,0,0,1,513.7,660a5.568,5.568,0,0,1,.038-.795c1.877-16.488,12.652-32.243,13-32.744.081.119.169.238.244.357a1.279,1.279,0,0,1,.107.156c2.841,4.336,3.592,10.374,4.349,15.324a27.681,27.681,0,0,1,.688,4.718c-.038,1.207-1.02,2.146-1.508,3.229a10.984,10.984,0,0,0-.952,4.291c-.013.7.224,1.472.161,2.156-.057.627-.317,1.2-.326,1.872a26.547,26.547,0,0,0,2.087,10.646c.217.513.45,1.019.684,1.525l1.415,3.07c.1.222.379.331.462.491a2.467,2.467,0,0,1,.115.869C534.3,675.747,534.334,676.335,534.334,676.922Z" transform="translate(-513.696 -618.047)" fill="#5a6a9b"/><path d="M448.551,680.6c.175.326.955.545,1.226.626.3-.05,11.687-12.51,11.809-21.965a6.709,6.709,0,0,0-.032-.794c-1.391-14.4-14.6-30.769-14.623-30.713-2.6,4.343.274,8.719-.389,13.806-.2,1.483-.483,2.953-.594,4.449a7.912,7.912,0,0,0,.34,2.709c.27.989.5,1.965.817,2.935a21.864,21.864,0,0,1,.152,11.187,33.127,33.127,0,0,1-1.007,3.2,44.164,44.164,0,0,0-1.9,5.384C444.022,673.013,447.809,679.214,448.551,680.6Z" transform="translate(-397.548 -618.53)" fill="#4f618e"/><path d="M442.383,674.973v.419a28.75,28.75,0,0,0,.14,3.092,8.737,8.737,0,0,0,3.265,4.929c.522.288,1.587-1.011,1.806-1.059,1-.221,1.332-1.379,2.188-1.992,2.57-1.842,4.342-4.739,6.009-7.616a29.4,29.4,0,0,0,2.323-5.052,30.755,30.755,0,0,0,1.773-9.647c.006-.269-.032-.53-.032-.794,0-23.95-14.375-29-14.667-29.5-.856.146-2.4,7.74-.343,12.6.582,1.379-.621,3.223-.584,4.718.032,1.208.865,2.146,1.279,3.229a12.644,12.644,0,0,1,.808,4.292c.011.7-.19,1.472-.137,2.156.049.627.269,1.2.277,1.872a30.72,30.72,0,0,1-1.77,10.645c-.184.514-.382,1.02-.58,1.526q-.6,1.534-1.2,3.07c-.086.222-.322.331-.392.491a2.892,2.892,0,0,0-.1.868C442.41,673.8,442.383,674.387,442.383,674.973Z" transform="translate(-394.628 -618.531)" fill="#5a6a9b"/></g><path d="M507.683,590.193c.135,1.755-.558,3.24-1.549,3.316s-1.9-1.285-2.039-3.04.558-3.24,1.549-3.316S507.548,588.438,507.683,590.193Z" transform="translate(-481.045 -573.882)" fill="#ffc7a8"/><path d="M474.066,573.961c.382-.081,1.008.36,1.382.511q.807.326,1.639.582a24.276,24.276,0,0,0,3.283.76,35.261,35.261,0,0,0,6.767.375,9,9,0,0,0,3.216-.535,2.451,2.451,0,0,0,.972-.667,1.237,1.237,0,0,0,.267-1.113,3.123,3.123,0,0,0,2.5-3.413,2.578,2.578,0,0,1-1.17.712,3.084,3.084,0,0,0,.906-2.807c-.975,1.047-1.559,1.824-3.146,1.563-2.512-.412-4.1-2.421-6.382-3.344a11.316,11.316,0,0,0-5.618-.509,10.919,10.919,0,0,0-1.328.254,7.161,7.161,0,0,0-5.228,6.238c-1.59,1.042-1.492,4.694-.742,6.57a1.96,1.96,0,0,1,1.455,1.359c.119.3.147.615.25.912.137.4.382.672.324,1.124-.011.082-.02.185.052.227a.194.194,0,0,0,.1.017l.51-.006a1.99,1.99,0,0,1,.15-.8,8.322,8.322,0,0,0,.7-3.946C474.9,577.671,474.313,573.909,474.066,573.961Z" transform="translate(-446.675 -565.946)" fill="#2c3559"/><g transform="translate(29.394 13.04)"><path d="M485.9,592.583s.034,2.588,1.109,3.777a11.037,11.037,0,0,1-1.175.792" transform="translate(-478.327 -588.956)" fill="none" stroke="#e2906d" stroke-linecap="round" stroke-linejoin="round" stroke-width="0.653"/><path d="M493.375,591.945c.045.524.384.924.757.891s.638-.483.592-1.007-.384-.924-.756-.892S493.329,591.421,493.375,591.945Z" transform="translate(-490.767 -588.339)" fill="#382f2c"/><path d="M496.833,587.445s-2.95-.987-4.767.2A4.1,4.1,0,0,1,496.833,587.445Z" transform="translate(-492.055 -586.786)" fill="none" stroke="#2c3559" stroke-linecap="round" stroke-linejoin="round" stroke-width="1"/><path d="M487.147,601.827a10,10,0,0,0,2.3-.162,2.341,2.341,0,0,1,.03.452,2.429,2.429,0,0,1-4.853-.175,2.331,2.331,0,0,1,.073-.494A9.6,9.6,0,0,0,487.147,601.827Z" transform="translate(-480.035 -592.274)" fill="#fff"/><path d="M497.15,596.486c-.056.735-1.054,1.259-2.229,1.17s-2.084-.756-2.029-1.491,1.053-1.258,2.229-1.17S497.205,595.751,497.15,596.486Z" transform="translate(-492.889 -589.855)" fill="#f8b593"/><path d="M482.815,592.4c-.046.525-.384.924-.757.892s-.638-.484-.593-1.008.384-.924.757-.891S482.86,591.879,482.815,592.4Z" transform="translate(-471.405 -588.511)" fill="#382f2c"/><path d="M477.694,587.734s3.026-.688,4.713.68A4.088,4.088,0,0,0,477.694,587.734Z" transform="translate(-468.636 -586.974)" fill="none" stroke="#2c3559" stroke-linecap="round" stroke-linejoin="round" stroke-width="1"/><path d="M478.02,596.706c-.02.646.8,1.2,1.836,1.227s1.888-.465,1.908-1.111-.8-1.2-1.836-1.228S478.04,596.06,478.02,596.706Z" transform="translate(-468.196 -590.082)" fill="#f8b593"/></g><g transform="translate(49.708 191.319)"><path d="M463.027,874.09c.025.745.663-.751,2.065-1.521.213-.119.407-.231.569-.344-.094-.144-.182-.288-.263-.438-.013-.025-.031-.056-.044-.081C464.492,872.238,463,873.27,463.027,874.09Z" transform="translate(-463.027 -871.706)" fill="#fff"/><path d="M461.647,876.084c.019.745.657-.751,2.065-1.52.232-.131.438-.256.613-.375-.131-.156-.25-.313-.369-.482C463.093,874.238,461.622,875.27,461.647,876.084Z" transform="translate(-460.827 -872.454)" fill="#fff"/></g><g transform="translate(16.056 193.29)"><path d="M514.992,875.319a4.716,4.716,0,0,1,.957.425c1.377.826,2.153.813,1.477.138a12.643,12.643,0,0,0-2.1-1.026C515.223,875.013,515.111,875.169,514.992,875.319Z" transform="translate(-513.903 -874.856)" fill="#fff"/><path d="M516.047,877.27a5.088,5.088,0,0,1,1.389.551c1.37.826,2.146.807,1.477.131a11.841,11.841,0,0,0-2.421-1.126C516.348,876.983,516.2,877.133,516.047,877.27Z" transform="translate(-516.047 -875.593)" fill="#fff"/></g><path d="M492.242,618.127a3.722,3.722,0,0,1-1.732.956,6.437,6.437,0,0,1-1.479.134,11.506,11.506,0,0,1-4.167-.622" transform="translate(-453.563 -585.476)" fill="none" stroke="#4f618e" stroke-miterlimit="10" stroke-width="1"/></g></g><path d="M-16189.672-22270.309l36.057,36.057-36.057,36.053,43.646,43.646-34.617,34.617,37.944,37.947-51.113,56.1" transform="translate(17112.566 22677.008)" fill="none" stroke="#b3b3b3" stroke-width="1"/><g transform="translate(853.158 425.924)"><ellipse cx="42.124" cy="6.26" rx="42.124" ry="6.26" transform="translate(0 190.701)" fill="#99d5dc"/><g transform="translate(22.479 0)"><path d="M-353.708,138.094s-1.284-3.018,3.844-4.463a10.86,10.86,0,0,1,7.017-.126c7.9,2.869,12.814,9.837,15.537,17.432,2.315,6.456,5.769,11.757,6.642,18.577.7,5.474-3.294,9.162-5.433,7.664-3.151-2.208-3.646-9.6-11.03-11.211s-4.354,0-7.774,1.355-14.427-3.423-13.485-18.482C-357.564,135.63-353.708,138.094-353.708,138.094Z" transform="translate(358.446 -132.974)" fill="#51443f"/><path d="M-337.411,168.358c0,2.265-3.563,4.1-7.966,4.1-4.223,0-7.487-2.211-7.76-4.343.073.007.146.02.22.033.533.093.887.706,1.419.786a48.827,48.827,0,0,0,6.761.506,14.6,14.6,0,0,0,3.144-.14,4.586,4.586,0,0,0,2.611-1.805,1.165,1.165,0,0,1,.313-.26,1,1,0,0,1,.826.033c.06.027.12.047.186.08A2.291,2.291,0,0,1-337.411,168.358Z" transform="translate(356.674 -144.388)" fill="#443734"/><path d="M-347.086,142.7c1.8,1.59,4.218,2.23,6.442,3.14,2.87,1.174,5.666,3.024,6.94,5.851" transform="translate(354.653 -136.221)" fill="none" stroke="#35241e" stroke-linecap="round" stroke-linejoin="round" stroke-width="0.5" opacity="0.47"/><path d="M-341.908,142.438c1.144,1.241,2.943,1.553,4.559,2.037a26.77,26.77,0,0,1,4.169,1.715,19.836,19.836,0,0,1,5.721,3.894,8.7,8.7,0,0,1,2.59,6.252" transform="translate(352.924 -136.134)" fill="none" stroke="#35241e" stroke-linecap="round" stroke-linejoin="round" stroke-width="0.5" opacity="0.47"/><path d="M-331.987,137.891a11.747,11.747,0,0,0,4.633,4.5" transform="translate(349.611 -134.616)" fill="none" stroke="#35241e" stroke-linecap="round" stroke-linejoin="round" stroke-width="0.5" opacity="0.47"/></g><path d="M-311.747,262.3s-8.307-15.208-9.923-16.069l-.4,1.731s6.346,9.215,8.908,15.152" transform="translate(368.778 -170.795)" fill="#7e4d3d"/><path d="M-342.146,229.177a1.752,1.752,0,0,1-1.139,1.719c-3.963,1.479-17.091,5.648-28.655.979l-.031-.013a5.247,5.247,0,0,1-3.228-4.545c-.6-9.566-1.262-38.446,11.611-46.89h.007c.2-.133.4-.253.6-.366.09-.059,2.077-.932,3.407-1.519a5.311,5.311,0,0,1,2.476-.44,33.1,33.1,0,0,0,6.464-.085c1.366-.053,6.489,1.936,6.489,1.936a.7.7,0,0,0-.006-.117l.207,3.923.073,1.439,1.605,40.91.047,1.132Z" transform="translate(386.606 -148.015)" fill="#46474f"/><g transform="translate(9.978 63.54)"><g transform="translate(38.05 103.355)"><path d="M-320.09,386.1s4.611,9.194,7.162,14.317a1.125,1.125,0,0,1,0,.984,39,39,0,0,1-3.358,5.972c.827-.268,10.932-3.147,8.871-6.214-1.765-2.624-3-10.058-5.386-17.622" transform="translate(320.09 -383.542)" fill="#edbb94"/><path d="M-307.37,407.51a.342.342,0,0,0-.464.081,5.03,5.03,0,0,1-2.121,1.494c-.973.343-2.027-.087-2.389.188s-2.844,5.5-5.02,7.289c-1.594,1.309-.442,2.314-.239,2.361,5.885,1.361,6.686-1.66,7.351-2.419,1.37-1.563,2.291-2.464,3.6-3.932a5.379,5.379,0,0,0,1.206-1.884C-305.242,409.6-306.291,408.232-307.37,407.51Z" transform="translate(319.458 -391.527)" fill="#ffab74"/><path d="M-305.721,410.261a1.548,1.548,0,0,1-.014.3,5.362,5.362,0,0,1-1.207,1.883c-1.31,1.469-2.231,2.37-3.6,3.932-.665.76-1.467,3.781-7.351,2.419a.709.709,0,0,1-.266-.2,1.139,1.139,0,0,0,.557,1.264c5.885,1.361,6.686-1.66,7.352-2.419,1.369-1.563,2.291-2.464,3.6-3.932a5.374,5.374,0,0,0,1.206-1.884A2.178,2.178,0,0,0-305.721,410.261Z" transform="translate(319.457 -392.464)" fill="#fffffa"/></g><g transform="translate(0 113.056)"><path d="M-365.3,398.106s-.192,3.977-.083,10.971a1.035,1.035,0,0,1-.4.846,41.522,41.522,0,0,1-6.456,4.256c.982.188,12.531,3,11.906-1.262-.535-3.649.174-6.9,1.859-14.413" transform="translate(375.554 -398.106)" fill="#edbb94"/><path d="M-361.808,416.881a.424.424,0,0,0-.543-.262,13.692,13.692,0,0,1-2.616.236c-.754.087-2.046-1.218-2.553-1.14s-4.16,2.811-6.522,3.59a6.19,6.19,0,0,0-2.214,1.019,3.063,3.063,0,0,0-.88,1.347,1.08,1.08,0,0,0-.067.54,1.06,1.06,0,0,0,.428.591c.905.716,11.408.159,13.551-.352a3.14,3.14,0,0,0,1.971-1.005C-360.515,420.456-361.265,418.469-361.808,416.881Z" transform="translate(377.215 -403.985)" fill="#ffab74"/><path d="M-361.808,417.348a.416.416,0,0,0-.207-.238c.475,1.411.906,2.945.286,3.776a3.137,3.137,0,0,1-1.97,1c-2.1.5-12.19,1.043-13.474.4a.9.9,0,0,0-.029.392,1.061,1.061,0,0,0,.428.592c.905.716,11.408.158,13.551-.352a3.14,3.14,0,0,0,1.971-1.005C-360.515,420.923-361.265,418.936-361.808,417.348Z" transform="translate(377.215 -404.452)" fill="#fffffa"/></g><path d="M-370.776,264.221c-.441,11.9,5.5,81.989,5.5,81.989a6.216,6.216,0,0,0,2.494.376,40.677,40.677,0,0,0,4.374-.257,158.634,158.634,0,0,0,3.533-35.91c-.079-2.424-.238-4.849-.505-7.243a42.581,42.581,0,0,1,.247-11.439c.693-4.275,1.385-9.064,2-14.031,1.2-9.737,2.127-20.177,2.286-28.816.723-41.342-16.878-7.428-16.878-7.428A131.041,131.041,0,0,0-370.776,264.221Z" transform="translate(375.073 -228.37)" fill="#c3baa6"/><path d="M-331.77,253.915s5.249,10.861,3.911,22.424a150.957,150.957,0,0,1-4.8,22.633,14.786,14.786,0,0,0,.821,10.251c5.525,12.085,12.61,41.537,12.61,41.537s-4.024,2.208-7.313,2.058c0,0-15.663-34.132-18.408-44.181-5.076-18.583-5.8-53.87-5.8-53.87Z" transform="translate(368.379 -236.9)" fill="#c3baa6"/><path d="M-347.187,303.4c-1.386-9.2-2.2-19.4-2.67-27.358" transform="translate(368.08 -244.288)" fill="none" stroke="#a59c91" stroke-miterlimit="10" stroke-width="1"/><g transform="translate(8.129 125.852)"><ellipse cx="0.562" cy="0.416" rx="0.562" ry="0.416" transform="translate(0.955 1.124) rotate(-88.886)" fill="#f9e0d9"/><ellipse cx="0.337" cy="0.25" rx="0.337" ry="0.25" transform="translate(0 1.713) rotate(-88.886)" fill="#f9e0d9"/></g><g transform="translate(44.115 121.888)"><ellipse cx="0.416" cy="0.562" rx="0.416" ry="0.562" transform="translate(0.6 0.239) rotate(-16.691)" fill="#f9e0d9"/><ellipse cx="0.25" cy="0.337" rx="0.25" ry="0.337" transform="translate(0 1.523) rotate(-16.691)" fill="#f9e0d9"/></g><path d="M-350.274,274.784a11.075,11.075,0,0,1,8.24-1.022" transform="translate(368.219 -243.4)" fill="none" stroke="#a59c91" stroke-miterlimit="10" stroke-width="1"/><path d="M-354.957,274.752a13.388,13.388,0,0,0-2.9-1.988" transform="translate(370.75 -243.194)" fill="none" stroke="#a59c91" stroke-miterlimit="10" stroke-width="1"/><path d="M-348.008,260.2q-.2,3.2-.4,6.39a5.975,5.975,0,0,1-.35,1.976c-.4.938-.809,1.1-1.617,1.718.179-3.246.141-6.431.32-9.677" transform="translate(368.252 -238.998)" fill="none" stroke="#a59c91" stroke-miterlimit="10" stroke-width="1"/><path d="M-326.452,262.473s7.045,6.767-1.972,41.236c-1.413,12.655,6.968,14.805,13.962,47.117" transform="translate(360.975 -239.758)" fill="none" stroke="#a59c91" stroke-miterlimit="10" stroke-width="1"/></g><path d="M-364.25,255.418s.666,1.916,5.439,3.019,18.761-.368,21.093-4.411S-359.7,251.251-364.25,255.418Z" transform="translate(382.863 -172.575)" fill="#a89d86" opacity="0.3"/><g transform="translate(31.061 25.245)"><path d="M-338.558,176.712a8.636,8.636,0,0,1-6.077.565,1.013,1.013,0,0,1-.73-.932l-.056-1.556-.141-3.914,6.274.219.815-.111.023.276.244,1.856.311,2.357A1.2,1.2,0,0,1-338.558,176.712Z" transform="translate(345.562 -170.875)" fill="#ffc3a4"/></g><g transform="translate(14.118 28.604)"><path d="M-337.687,227.08a1.752,1.752,0,0,1-1.139,1.718c-3.963,1.479-17.091,5.648-28.655.979l-.031-.013a5.246,5.246,0,0,1-3.228-4.545c-.6-9.566-1.262-38.446,11.612-46.89h.007c.2-.133.4-.253.6-.366.133-.087,4.453-1.973,4.587-2.046a35.409,35.409,0,0,0,7.76,0c1.366-.053,6.49,1.936,6.49,1.936a.7.7,0,0,0-.006-.117l.207,3.923.073,1.439,1.605,40.91.047,1.132Z" transform="translate(370.999 -175.918)" fill="#ffab74"/><path d="M-330.477,211.384a37.338,37.338,0,0,0,2.513,12.564,19.722,19.722,0,0,0,2.025,4.076l-1.652-42.042-.073-1.439-7.314,5.3C-337.708,196.732-330.424,207.281-330.477,211.384Z" transform="translate(359.175 -178.798)" fill="#f99e6b"/><path d="M-368.416,206.555a2.525,2.525,0,0,1,3.611-1.008,11.011,11.011,0,0,1,1.623,1.916,1.871,1.871,0,0,0,2.22.663c.541-.331.712-1.03,1.118-1.519a2.627,2.627,0,0,1,3.1-.428,8.415,8.415,0,0,1,2.507,2.216,1.465,1.465,0,0,0,.672.51c.785.206,1.247-.812,1.746-1.452a2.565,2.565,0,0,1,3.561-.346c.532.462.87,1.153,1.494,1.48s1.664-.155,1.416-.815" transform="translate(370.137 -185.679)" fill="none" stroke="#a85d0b" stroke-miterlimit="10" stroke-width="1" opacity="0.39"/><path d="M-365.393,207.848a2.546,2.546,0,0,0-.424,1.389.887.887,0,0,0,.243.7c.336.282.87.039,1.13-.316a1.271,1.271,0,0,0,0-1.579.825.825,0,0,0-1.358.3" transform="translate(369.269 -186.566)" fill="none" stroke="#a85d0b" stroke-miterlimit="10" stroke-width="1" opacity="0.39"/><path d="M-352.474,209.78a1.276,1.276,0,0,0-.958.946.777.777,0,0,0,.816.9.779.779,0,0,0,.564-.787,1.378,1.378,0,0,0-.455-.919" transform="translate(365.136 -187.226)" fill="none" stroke="#a85d0b" stroke-miterlimit="10" stroke-width="1" opacity="0.39"/><path d="M-358.808,203.447a1.275,1.275,0,0,0-.958.946.778.778,0,0,0,.817.9.778.778,0,0,0,.564-.787,1.387,1.387,0,0,0-.455-.919" transform="translate(367.251 -185.111)" fill="none" stroke="#a85d0b" stroke-miterlimit="10" stroke-width="1" opacity="0.39"/><path d="M-345.974,204.114a1.275,1.275,0,0,0-.958.945.777.777,0,0,0,.816.9.778.778,0,0,0,.564-.787,1.38,1.38,0,0,0-.455-.919" transform="translate(362.965 -185.333)" fill="none" stroke="#a85d0b" stroke-miterlimit="10" stroke-width="1" opacity="0.39"/><path d="M-342.046,210.2a.9.9,0,0,0-.786,1.268.6.6,0,0,0,.367.305c.408.1.733-.378.767-.8a1.8,1.8,0,0,0-.147-.865l-.307.213" transform="translate(361.623 -187.336)" fill="none" stroke="#a85d0b" stroke-miterlimit="10" stroke-width="1" opacity="0.39"/><g transform="translate(23.108 1.397)"><g transform="translate(26.002 47.953)"><path d="M-283.607,259.5c-1.55.076-1.159.233-2.826-1.6-2.071-.551-3.685.725-5.132-.73-.211-.212-.7-.642-1.395-1.233-1.072-.916-2.613-2.24-4.309-3.8l5.215-2.124c.863,1.265,1.585,2.209,1.906,2.143,0,0,.009,0,.014,0a26.22,26.22,0,0,1,6.743-1.173c1.653.132,3.218,3.217,3.35,4.55S-282.057,259.439-283.607,259.5Z" transform="translate(297.269 -250.01)" fill="#edbb94"/><path d="M-281.68,252.542a5.816,5.816,0,0,1,3.336,1.263c1.191.853.059,1.928-.761,1.294s-1.566-.366-2.8.45c-.517.344-1.629,1.045-2.6.5" transform="translate(293.006 -250.855)" fill="none" stroke="#e69677" stroke-linecap="round" stroke-linejoin="round" stroke-width="0.414"/><path d="M-274.436,259.516a2.8,2.8,0,0,1-1.85.372,3.646,3.646,0,0,1-2.484-1.264" transform="translate(291.092 -252.886)" fill="none" stroke="#e69677" stroke-linecap="round" stroke-linejoin="round" stroke-width="0.414"/><path d="M-275.557,261.3a2.5,2.5,0,0,1-2.224.409,2.763,2.763,0,0,1-1.643-1.819" transform="translate(291.31 -253.31)" fill="none" stroke="#e69677" stroke-linecap="round" stroke-linejoin="round" stroke-width="0.414"/><path d="M-277.249,262.816a2.5,2.5,0,0,1-2.225.409,2.762,2.762,0,0,1-1.642-1.818" transform="translate(291.875 -253.816)" fill="none" stroke="#e69677" stroke-linecap="round" stroke-linejoin="round" stroke-width="0.414"/></g><path d="M-292.96,255.937c-1.072-.916-2.613-2.24-4.309-3.8l5.215-2.124c.863,1.265,1.585,2.209,1.906,2.143a3.716,3.716,0,0,1-.214.617A9.311,9.311,0,0,1-292.96,255.937Z" transform="translate(323.271 -202.057)" fill="#ddac8a"/><path d="M-291.8,249.851c-.772,1.731-3.1,4.037-4.873,4.321a5.294,5.294,0,0,1-2.033-.128,4.7,4.7,0,0,1-2.2-1.023,2.484,2.484,0,0,1-.777-2.287,3.99,3.99,0,0,1,.579-1.294,9.953,9.953,0,0,1,6.622-4.433c1.156-.187,2.463-.216,2.769,1.076A5.761,5.761,0,0,1-291.8,249.851Z" transform="translate(324.76 -200.355)" fill="#fff"/><path d="M-312.426,199.568c-10.093-25.923-20.747-21.219-20.747-21.218-.189.083-.811.511-.811.511-1.142,1.141-.925,2.995-.967,4.608a48.672,48.672,0,0,1-1.142,6.653,10.278,10.278,0,0,0,.273,5.285,18.259,18.259,0,0,0,5.336,7.656,6.029,6.029,0,0,1,1.229,1.216,6.451,6.451,0,0,1,.7,2.8,27.493,27.493,0,0,0,2.5,7.485l3.54,7.972c1.825,4.109,4.9,7.2,9.6,7.562,1.934.149,3.619.178,5.271-.96a34.689,34.689,0,0,0,3.45-3.289C-296.679,218.966-308.918,205.038-312.426,199.568Z" transform="translate(336.306 -178.016)" fill="#ffab74"/></g></g><g transform="translate(25.475 3.252)"><path d="M-343.442,140.166c-5.977-1.792-7.782-.071-8.907,5.091s-2.792,11.429-.31,14.859,11.969,3.742,13.753-1.856,2.294-9.462,3-11.24S-341.307,140.806-343.442,140.166Z" transform="translate(353.948 -138.399)" fill="#ffc3a4"/><path d="M-347.671,156.63a5.706,5.706,0,0,1-1.133,3,9.07,9.07,0,0,0,.907.716" transform="translate(352.231 -144.126)" fill="none" stroke="#e2906d" stroke-linecap="round" stroke-linejoin="round" stroke-width="0.5"/><path d="M-351.4,140.4a4.768,4.768,0,0,0,4.077,4,16.372,16.372,0,0,1,8.726,5.323,3.055,3.055,0,0,0,4.413,1s.185-3.556.208-5.536-5.355-6.638-7.571-7.218S-350.995,139.156-351.4,140.4Z" transform="translate(353.097 -137.857)" fill="#51443f"/><path d="M-341.6,156.233c-.069.423-.368.727-.669.678s-.489-.432-.42-.856.368-.727.669-.678S-341.531,155.81-341.6,156.233Z" transform="translate(350.193 -143.706)" fill="#382f2c"/><path d="M-350.433,155.074c-.069.424-.368.727-.67.679s-.489-.432-.42-.856.369-.727.67-.678S-350.364,154.651-350.433,155.074Z" transform="translate(353.143 -143.319)" fill="#382f2c"/><path d="M-343,152.037s2.841-.433,4.27.757" transform="translate(350.294 -142.567)" fill="none" stroke="#51443f" stroke-linecap="round" stroke-linejoin="round" stroke-width="1"/><path d="M-353.138,152.1a4,4,0,0,1,3.416-.538" transform="translate(353.678 -142.382)" fill="none" stroke="#51443f" stroke-linecap="round" stroke-linejoin="round" stroke-width="1"/><path d="M-327.169,159.865c.328,1.886-1.362,4.268-2.831,4.524s-3.108-.327-2.443-2.512c.558-1.831.6-3.621,2.067-3.877S-327.5,157.979-327.169,159.865Z" transform="translate(346.818 -144.555)" fill="#ffc3a4"/><path d="M-348.076,163.448a7.959,7.959,0,0,1-2.059-.25,2.679,2.679,0,0,0-.042.46,2.314,2.314,0,0,0,2.185,2.423,2.314,2.314,0,0,0,2.186-2.423,2.7,2.7,0,0,0-.05-.508A7.669,7.669,0,0,1-348.076,163.448Z" transform="translate(352.689 -146.304)" fill="#fff"/><path d="M-343.341,160.054c0,.6.779,1.088,1.74,1.088s1.74-.487,1.74-1.088-.779-1.088-1.74-1.088S-343.341,159.453-343.341,160.054Z" transform="translate(350.406 -144.906)" fill="#f8b593"/><path d="M-351.6,159.151c.141-.583-.5-1.24-1.435-1.466a2.71,2.71,0,0,0-.557-.071c-.109.709-.194,1.409-.249,2.093a2.7,2.7,0,0,0,.294.091C-352.616,160.024-351.745,159.735-351.6,159.151Z" transform="translate(353.914 -144.455)" fill="#f8b593"/></g><g transform="translate(23.514 29.421)"><path d="M-351.72,177.439s-9.213,1.87.762,27.228,16.989,39.839,16.989,39.839.667,2.041-1,.371-5.865-11.622-11.083-24.439c-5.2-12.763-14.472-31.913-9.339-41.375C-355.394,179.062-354.045,176.249-351.72,177.439Z" transform="translate(356.893 -177.145)" fill="#7e4d3d"/><path d="M-316.692,267.1s-7.54,2.737-8.13,4.275,2.58,11,4.613,12.424,11.063-3.031,11.558-4.02S-311.868,265.706-316.692,267.1Z" transform="translate(346.208 -207.15)" fill="#7e4d3d"/><path d="M-311.4,272.147s-.958,4.762-1.7,5.6-8.488-4.614-9.46-4.484c-.761.1-.591-.061-.44-.154s.722-.221,1.968.489,6.985,3.877,7.625,3.911,1.762-5.333,1.77-5.448C-311.629,271.862-311.331,271.8-311.4,272.147Z" transform="translate(345.621 -208.786)" fill="#63362a"/></g></g></g></g></svg>