<svg xmlns="http://www.w3.org/2000/svg" width="54.699" height="54.701" viewBox="0 0 54.699 54.701"><g transform="translate(-19348.348 -21786)"><path d="M1036.27,1107.111h0a27.35,27.35,0,0,1-27.35-27.35h0a27.35,27.35,0,0,1,27.35-27.351h0a27.35,27.35,0,0,1,27.35,27.351h0A27.358,27.358,0,0,1,1036.27,1107.111Z" transform="translate(18339.428 20733.59)" fill="#f8f8f8"/><g transform="translate(19360.523 21798.156)"><path d="M1038.14,1066.444a15.121,15.121,0,0,1,13.149,7.5,14.715,14.715,0,0,1,2.07,7.676,15.188,15.188,0,0,1-2.07,7.675,15.218,15.218,0,0,1-28.367-7.675,14.727,14.727,0,0,1,2.07-7.676,15.028,15.028,0,0,1,5.462-5.452,15.371,15.371,0,0,1,7.687-2.083Zm7.409,8.709c0-.277-.1-.439-.312-.486a1.189,1.189,0,0,0-.627.035l-.312.1-15.445,6.043a1.377,1.377,0,0,0-.366.26.4.4,0,0,0-.122.365.7.7,0,0,0,.348.486l.312.173,3.827,1.284,9.217-5.835.244-.1q.277-.1.278.1l-.209.313-7.235,6.529v.069l2.365,1.875,3.9,2.952a1.067,1.067,0,0,0,.835.07.955.955,0,0,0,.453-.312,2.088,2.088,0,0,1,.139-.244Z" transform="translate(-1022.921 -1066.41)" fill="#303143"/></g></g></svg>