<svg xmlns="http://www.w3.org/2000/svg" width="103.18" height="96.301" viewBox="0 0 103.18 96.301"><path d="M14.879,120.32h85.983a6.879,6.879,0,0,1,6.879,6.879v55.029a6.879,6.879,0,0,1-6.879,6.879H14.879A6.879,6.879,0,0,1,8,182.228V127.2A6.879,6.879,0,0,1,14.879,120.32Zm0,0" transform="translate(-6.28 -94.456)" fill="#4891d3"/><path d="M14.879,140.636V120A6.879,6.879,0,0,0,8,126.879v55.029a6.879,6.879,0,0,0,6.879,6.879h85.983a6.879,6.879,0,0,0,6.879-6.879H56.151A41.272,41.272,0,0,1,14.879,140.636Zm0,0" transform="translate(-6.28 -94.205)" fill="#2d72bc"/><path d="M312.456,304h13.981v19.261a1.721,1.721,0,0,1-1.41,1.72l-10.456,1.891a5.159,5.159,0,0,1-6.036-5.795l2.218-15.477a1.72,1.72,0,0,1,1.7-1.6Zm0,0" transform="translate(-242.173 -238.653)" fill="#2d72bc"/><path d="M100.862,144H14.879A6.879,6.879,0,0,0,8,150.879v6.879a17.2,17.2,0,0,0,17.2,17.2h25.8v-6.879H64.749v6.879h25.8a17.2,17.2,0,0,0,17.2-17.2v-6.879A6.879,6.879,0,0,0,100.862,144Zm0,0" transform="translate(-6.28 -113.046)" fill="#2d72bc"/><path d="M100.862,120H14.879A6.879,6.879,0,0,0,8,126.879v6.879a17.2,17.2,0,0,0,17.2,17.2h25.8v-6.879H64.749v6.879h25.8a17.2,17.2,0,0,0,17.2-17.2v-6.879A6.879,6.879,0,0,0,100.862,120Zm0,0" transform="translate(-6.28 -94.205)" fill="#57b7eb"/><path d="M16.839,120H14.879A6.879,6.879,0,0,0,8,126.879v6.879a17.2,17.2,0,0,0,17.2,17.2h25.8v-6.879H44.113A27.514,27.514,0,0,1,16.839,120Zm0,0" transform="translate(-6.28 -94.205)" fill="#4891d3"/><path d="M272,232v6.879h25.8A17.2,17.2,0,0,0,311.552,232Zm0,0" transform="translate(-213.531 -182.13)" fill="#4891d3"/><path d="M186.916,126.879V120H173.159v20.636h-1.72A3.439,3.439,0,0,0,168,144.075v3.439h5.159v3.439H176.6v-6.879h13.757v3.439h1.72v-3.439a3.439,3.439,0,0,0-3.439-3.439h-1.72Zm0,0" transform="translate(-131.887 -94.205)" fill="#4891d3"/><path d="M169.72,8.32h27.515a1.72,1.72,0,0,1,1.72,1.72V20.358a1.72,1.72,0,0,1-1.72,1.72H169.72a1.72,1.72,0,0,1-1.72-1.72V10.04a1.72,1.72,0,0,1,1.72-1.72Zm0,0" transform="translate(-131.887 -6.532)" fill="#fcbc04"/><path d="M266.318,8H256a12.037,12.037,0,0,1,12.038,12.038V9.72A1.72,1.72,0,0,0,266.318,8Zm0,0" transform="translate(-200.971 -6.28)" fill="#f9e109"/><path d="M322.318,24H312v6.879h10.318v6.879H329.2V30.879A6.879,6.879,0,0,0,322.318,24Zm0,0" transform="translate(-244.933 -18.841)" fill="#4891d3"/><path d="M94.879,24A6.879,6.879,0,0,0,88,30.879v6.879h6.879V30.879H105.2V24Zm0,0" transform="translate(-69.084 -18.841)" fill="#4891d3"/><path d="M67.439,88H77.757A3.44,3.44,0,0,1,81.2,91.439v3.439H64V91.439A3.44,3.44,0,0,1,67.439,88Zm0,0" transform="translate(-50.243 -69.084)" fill="#fcbc04"/><path d="M339.439,88h10.318a3.439,3.439,0,0,1,3.439,3.439v3.439H336V91.439A3.44,3.44,0,0,1,339.439,88Zm0,0" transform="translate(-263.774 -69.084)" fill="#fcbc04"/><path d="M121.72,88H120a3.44,3.44,0,0,0,3.439,3.439h1.72A3.44,3.44,0,0,0,121.72,88Zm0,0" transform="translate(-94.205 -69.084)" fill="#f9e109"/><path d="M393.72,88H392a3.44,3.44,0,0,0,3.439,3.439h1.72A3.44,3.44,0,0,0,393.72,88Zm0,0" transform="translate(-307.736 -69.084)" fill="#f9e109"/><path d="M334.879,24H328a13.757,13.757,0,0,1,13.757,13.757V30.879A6.879,6.879,0,0,0,334.879,24Zm0,0" transform="translate(-257.494 -18.841)" fill="#57b7eb"/><path d="M136,31.2h6.879V24.32h-1.72Zm0,0" transform="translate(-106.766 -19.092)" fill="#2d72bc"/><path d="M208,8.32h13.757V22.078H208Zm0,0" transform="translate(-163.289 -6.532)" fill="#57b7eb"/><path d="M272,59.439h6.879a1.72,1.72,0,0,0,1.72-1.72V56H272Zm0,0" transform="translate(-213.531 -43.962)" fill="#e59730"/><path d="M171.886,8H169.72A1.72,1.72,0,0,0,168,9.72V20.038a1.72,1.72,0,0,0,1.72,1.72H176.6v-6.4A13.763,13.763,0,0,1,171.886,8Zm0,0" transform="translate(-131.887 -6.28)" fill="#e59730"/><path d="M216.6,44.948a13.759,13.759,0,0,1-8.6-3.026v6.466h13.757V44.948Zm0,0" transform="translate(-163.289 -32.91)" fill="#4891d3"/><path d="M187.439,200h17.2a3.44,3.44,0,0,1,3.439,3.439v3.439H184v-3.439A3.44,3.44,0,0,1,187.439,200Zm0,0" transform="translate(-144.448 -157.008)" fill="#fcbc04"/><path d="M208,120.32h13.757v17.2H208Zm0,0" transform="translate(-163.289 -94.456)" fill="#fcbc04"/><path d="M208,232h13.757v13.757a3.44,3.44,0,0,1-3.439,3.439h-6.879A3.44,3.44,0,0,1,208,245.757Zm0,0" transform="translate(-163.289 -182.13)" fill="#fcbc04"/><path d="M233.72,262.879a1.72,1.72,0,0,1-1.72-1.72V257.72a1.72,1.72,0,1,1,3.439,0v3.439A1.72,1.72,0,0,1,233.72,262.879Zm0,0" transform="translate(-182.13 -200.971)" fill="#7ab92d"/><path d="M208,232.32h13.757v3.439H208Zm0,0" transform="translate(-163.289 -182.381)" fill="#e59730"/><path d="M211.439,238.879V232H208v13.757a3.44,3.44,0,0,0,3.439,3.439h6.879a3.44,3.44,0,0,0,3.439-3.439h-3.439A6.879,6.879,0,0,1,211.439,238.879Zm0,0" transform="translate(-163.289 -182.13)" fill="#e59730"/><path d="M226.93,200H212.4a6.879,6.879,0,0,0,5.933,3.439h12.038A3.439,3.439,0,0,0,226.93,200Zm0,0" transform="translate(-166.742 -157.008)" fill="#f9e109"/><path d="M218.318,133.757a6.879,6.879,0,0,1-6.879-6.879V120H208v17.2h13.757v-3.439Zm0,0" transform="translate(-163.289 -94.205)" fill="#e59730"/><path d="M208,120.32h13.757v3.439H208Zm0,0" transform="translate(-163.289 -94.456)" fill="#e59730"/><path d="M236,120.32h1.72v17.2H236Zm0,0" transform="translate(-185.27 -94.456)" fill="#7ab92d"/><path d="M64,304H84.636v13.757a6.879,6.879,0,0,1-6.879,6.879H70.879A6.879,6.879,0,0,1,64,317.757Zm0,0" transform="translate(-50.243 -238.653)" fill="#fcbc04"/><path d="M76.038,322.916A10.319,10.319,0,0,1,65.72,312.6V304H64v13.757a6.879,6.879,0,0,0,6.879,6.879h6.879a6.88,6.88,0,0,0,4.506-1.72Zm0,0" transform="translate(-50.243 -238.653)" fill="#e59730"/><path d="M64,304v3.439a10.318,10.318,0,0,0,20.636,0V304Zm0,0" transform="translate(-50.243 -238.653)" fill="#e59730"/><path d="M64,304H84.636A10.318,10.318,0,0,1,64,304Zm0,0" transform="translate(-50.243 -238.653)" fill="#f9e109"/><path d="M107.439,304v3.439a1.72,1.72,0,1,1-3.439,0V304Zm0,0" transform="translate(-81.644 -238.653)" fill="#7ab92d"/><path d="M320,304h20.636v13.757a6.879,6.879,0,0,1-6.879,6.879h-6.879A6.879,6.879,0,0,1,320,317.757Zm0,0" transform="translate(-251.213 -238.653)" fill="#fcbc04"/><path d="M332.038,322.916A10.318,10.318,0,0,1,321.72,312.6V304H320v13.757a6.879,6.879,0,0,0,6.879,6.879h6.879a6.88,6.88,0,0,0,4.506-1.72Zm0,0" transform="translate(-251.213 -238.653)" fill="#e59730"/><path d="M320,304v3.439a10.318,10.318,0,0,0,20.636,0V304Zm0,0" transform="translate(-251.213 -238.653)" fill="#e59730"/><path d="M320,304h20.636A10.318,10.318,0,0,1,320,304Zm0,0" transform="translate(-251.213 -238.653)" fill="#f9e109"/><path d="M363.439,304v3.439a1.72,1.72,0,1,1-3.439,0V304Zm0,0" transform="translate(-282.615 -238.653)" fill="#7ab92d"/><path d="M236,136v8.77a6.906,6.906,0,0,0,1.72,1.032V136Zm0,0" transform="translate(-185.27 -106.766)" fill="#a1d51c"/><path d="M101.46,256a1.72,1.72,0,0,0-1.72,1.72v30.954a5.159,5.159,0,0,1-5.159,5.159H8.6a5.159,5.159,0,0,1-5.159-5.159V257.72a1.72,1.72,0,1,0-3.439,0v30.954a8.6,8.6,0,0,0,8.6,8.6H94.582a8.6,8.6,0,0,0,8.6-8.6V257.72A1.72,1.72,0,0,0,101.46,256Zm0,0" transform="translate(0 -200.971)" fill="#39519d"/><path d="M94.582,24.075H91.142v-1.72A5.159,5.159,0,0,0,85.983,17.2H79.1V12.038a1.72,1.72,0,0,0-1.72-1.72h-8.6V6.879h8.6a5.159,5.159,0,0,1,5.159,5.159,1.72,1.72,0,1,0,3.439,0,8.6,8.6,0,0,0-8.6-8.6h-8.6A3.44,3.44,0,0,0,65.347,0H37.833a3.44,3.44,0,0,0-3.439,3.439H25.8a8.6,8.6,0,0,0-8.6,8.6V17.2a5.159,5.159,0,0,0-5.159,5.159v1.72H8.6a8.6,8.6,0,0,0-8.6,8.6v6.879A18.916,18.916,0,0,0,18.916,58.469H37.833a1.72,1.72,0,1,0,0-3.439H18.916A15.477,15.477,0,0,1,3.439,39.552V32.674A5.159,5.159,0,0,1,8.6,27.515H42.992V41.272a5.159,5.159,0,0,0-5.159,5.159V49.87a1.72,1.72,0,0,0,1.72,1.72h3.439V63.628a5.159,5.159,0,0,0,5.159,5.159h6.879a5.159,5.159,0,0,0,5.159-5.159V51.59h3.439a1.72,1.72,0,1,0,0-3.439H41.272v-1.72a1.72,1.72,0,0,1,1.72-1.72h17.2a1.72,1.72,0,1,0,0-3.439V27.515H94.582a5.159,5.159,0,0,1,5.159,5.159v6.879A15.477,15.477,0,0,1,84.264,55.029H65.347a1.72,1.72,0,1,0,0,3.439H84.264A18.916,18.916,0,0,0,103.18,39.552V32.674A8.6,8.6,0,0,0,94.582,24.075ZM56.749,51.59V63.628a1.72,1.72,0,0,1-1.72,1.72H48.151a1.72,1.72,0,0,1-1.72-1.72V51.59ZM75.665,13.757V17.2a5.159,5.159,0,0,0-5.159,5.159v1.72H32.674v-1.72A5.159,5.159,0,0,0,27.515,17.2V13.757h6.879A3.44,3.44,0,0,0,37.833,17.2H65.347a3.44,3.44,0,0,0,3.439-3.439ZM37.833,3.439h5.159V8.6a1.72,1.72,0,0,0,3.439,0V3.439H65.347V13.757H60.188V8.6a1.72,1.72,0,1,0-3.439,0v5.159H37.833Zm-17.2,8.6A5.159,5.159,0,0,1,25.8,6.879h8.6v3.439H25.8a1.72,1.72,0,0,0-1.72,1.72V17.2H20.636ZM15.477,24.075v-1.72a1.72,1.72,0,0,1,1.72-1.72H27.515a1.72,1.72,0,0,1,1.72,1.72v1.72Zm30.954,17.2V27.515H49.87V41.272Zm10.318,0H53.31V27.515h3.439Zm17.2-17.2v-1.72a1.72,1.72,0,0,1,1.72-1.72H85.983a1.72,1.72,0,0,1,1.72,1.72v1.72Zm0,0" fill="#39519d"/><path d="M233.72,262.879a1.72,1.72,0,0,0,1.72-1.72V257.72a1.72,1.72,0,1,0-3.439,0v3.439A1.72,1.72,0,0,0,233.72,262.879Zm0,0" transform="translate(-182.13 -200.971)" fill="#39519d"/><path d="M71.477,320.075a8.6,8.6,0,0,0,8.6-8.6V297.72a1.72,1.72,0,0,0-1.72-1.72H57.72A1.72,1.72,0,0,0,56,297.72v13.757a8.6,8.6,0,0,0,8.6,8.6Zm-12.038-8.6V306.2a12.038,12.038,0,0,0,8.6,3.559,1.72,1.72,0,0,0,0-3.439,8.6,8.6,0,0,1-8.426-6.879h6.707v1.72a1.72,1.72,0,0,0,3.439,0v-1.72h6.879v12.038a5.159,5.159,0,0,1-5.159,5.159H64.6A5.159,5.159,0,0,1,59.439,311.477Zm0,0" transform="translate(-43.962 -232.372)" fill="#39519d"/><path d="M334.356,313.2a1.72,1.72,0,0,0,1.72-1.72V297.72a1.72,1.72,0,0,0-1.72-1.72H313.72a1.72,1.72,0,0,0-1.72,1.72v13.757a8.6,8.6,0,0,0,8.6,8.6h6.879a1.72,1.72,0,0,0,0-3.439H320.6a5.159,5.159,0,0,1-5.159-5.159V306.2a12.037,12.037,0,0,0,17.2,0v5.279A1.72,1.72,0,0,0,334.356,313.2Zm-10.318-6.879a8.6,8.6,0,0,1-8.426-6.879h6.706v1.72a1.72,1.72,0,0,0,3.439,0v-1.72h6.707A8.6,8.6,0,0,1,324.038,306.318Zm0,0" transform="translate(-244.933 -232.372)" fill="#39519d"/></svg>