<svg xmlns="http://www.w3.org/2000/svg" width="54.699" height="54.701" viewBox="0 0 54.699 54.701"><g transform="translate(-19417.963 -21786)"><g transform="translate(19430.156 21802.496)"><path d="M981.674,1370.462q0,2.536-.035,3.16-.14,2.05-.278,2.987a7.317,7.317,0,0,1-.452,1.7,3.4,3.4,0,0,1-.835,1.32,4.009,4.009,0,0,1-2.122,1.112q-6.611.487-14.089.347-4.383-.07-6.244-.157a20.9,20.9,0,0,1-2.766-.261,4.067,4.067,0,0,1-2.052-1.077,4.715,4.715,0,0,1-.974-1.909,6.514,6.514,0,0,1-.261-1.077q-.088-.556-.157-1.667a71.678,71.678,0,0,1,0-8.96l.209-1.7a8.064,8.064,0,0,1,.383-1.667,3.816,3.816,0,0,1,.9-1.389,4.448,4.448,0,0,1,2.053-1.042,35.367,35.367,0,0,1,4.227-.278q3.357-.1,7.288-.1t7.288.122q3.356.122,4.261.26a4.227,4.227,0,0,1,1.339.521,3.448,3.448,0,0,1,1.026.9,6.316,6.316,0,0,1,.8,1.876,10.528,10.528,0,0,1,.348,1.98q0,.174.1,1.84C981.662,1367.719,981.674,1368.778,981.674,1370.462Zm-14.019,1.7q2.747-1.389,3.9-2.014l-8.175-4.307v8.579Q964.8,1373.626,967.655,1372.164Z" transform="translate(-951.27 -1359.8)"/></g><path d="M964.6,1395.281h0a27.35,27.35,0,0,1-27.35-27.351h0a27.35,27.35,0,0,1,27.35-27.35h0a27.35,27.35,0,0,1,27.35,27.35h0A27.349,27.349,0,0,1,964.6,1395.281Z" transform="translate(18480.713 20445.42)" fill="#f8f8f8"/><g transform="translate(19430.156 21802.496)"><path d="M981.674,1370.462q0,2.536-.035,3.16-.14,2.05-.278,2.987a7.317,7.317,0,0,1-.452,1.7,3.4,3.4,0,0,1-.835,1.32,4.009,4.009,0,0,1-2.122,1.112q-6.611.487-14.089.347-4.383-.07-6.244-.157a20.9,20.9,0,0,1-2.766-.261,4.067,4.067,0,0,1-2.052-1.077,4.715,4.715,0,0,1-.974-1.909,6.514,6.514,0,0,1-.261-1.077q-.088-.556-.157-1.667a71.678,71.678,0,0,1,0-8.96l.209-1.7a8.064,8.064,0,0,1,.383-1.667,3.816,3.816,0,0,1,.9-1.389,4.448,4.448,0,0,1,2.053-1.042,35.367,35.367,0,0,1,4.227-.278q3.357-.1,7.288-.1t7.288.122q3.356.122,4.261.26a4.227,4.227,0,0,1,1.339.521,3.448,3.448,0,0,1,1.026.9,6.316,6.316,0,0,1,.8,1.876,10.528,10.528,0,0,1,.348,1.98q0,.174.1,1.84C981.662,1367.719,981.674,1368.778,981.674,1370.462Zm-14.019,1.7q2.747-1.389,3.9-2.014l-8.175-4.307v8.579Q964.8,1373.626,967.655,1372.164Z" transform="translate(-951.27 -1359.8)" fill="#262738"/></g></g></svg>